%TF.GenerationSoftware,KiCad,Pcbnew,6.0.11+dfsg-1~bpo11+1*%
%TF.CreationDate,2024-02-18T20:13:02-06:00*%
%TF.ProjectId,BTMS,42544d53-2e6b-4696-9361-645f70636258,rev?*%
%TF.SameCoordinates,Original*%
%TF.FileFunction,Legend,Bot*%
%TF.FilePolarity,Positive*%
%FSLAX46Y46*%
G04 Gerber Fmt 4.6, Leading zero omitted, Abs format (unit mm)*
G04 Created by KiCad (PCBNEW 6.0.11+dfsg-1~bpo11+1) date 2024-02-18 20:13:02*
%MOMM*%
%LPD*%
G01*
G04 APERTURE LIST*
%ADD10C,0.150000*%
%ADD11C,0.125000*%
G04 APERTURE END LIST*
D10*
X131467428Y-113142380D02*
X131467428Y-112142380D01*
X131229333Y-112142380D01*
X131086476Y-112190000D01*
X130991238Y-112285238D01*
X130943619Y-112380476D01*
X130896000Y-112570952D01*
X130896000Y-112713809D01*
X130943619Y-112904285D01*
X130991238Y-112999523D01*
X131086476Y-113094761D01*
X131229333Y-113142380D01*
X131467428Y-113142380D01*
X130086476Y-113094761D02*
X130181714Y-113142380D01*
X130372190Y-113142380D01*
X130467428Y-113094761D01*
X130515047Y-112999523D01*
X130515047Y-112618571D01*
X130467428Y-112523333D01*
X130372190Y-112475714D01*
X130181714Y-112475714D01*
X130086476Y-112523333D01*
X130038857Y-112618571D01*
X130038857Y-112713809D01*
X130515047Y-112809047D01*
X129657904Y-113094761D02*
X129562666Y-113142380D01*
X129372190Y-113142380D01*
X129276952Y-113094761D01*
X129229333Y-112999523D01*
X129229333Y-112951904D01*
X129276952Y-112856666D01*
X129372190Y-112809047D01*
X129515047Y-112809047D01*
X129610285Y-112761428D01*
X129657904Y-112666190D01*
X129657904Y-112618571D01*
X129610285Y-112523333D01*
X129515047Y-112475714D01*
X129372190Y-112475714D01*
X129276952Y-112523333D01*
X128800761Y-113142380D02*
X128800761Y-112475714D01*
X128800761Y-112142380D02*
X128848380Y-112190000D01*
X128800761Y-112237619D01*
X128753142Y-112190000D01*
X128800761Y-112142380D01*
X128800761Y-112237619D01*
X127896000Y-112475714D02*
X127896000Y-113285238D01*
X127943619Y-113380476D01*
X127991238Y-113428095D01*
X128086476Y-113475714D01*
X128229333Y-113475714D01*
X128324571Y-113428095D01*
X127896000Y-113094761D02*
X127991238Y-113142380D01*
X128181714Y-113142380D01*
X128276952Y-113094761D01*
X128324571Y-113047142D01*
X128372190Y-112951904D01*
X128372190Y-112666190D01*
X128324571Y-112570952D01*
X128276952Y-112523333D01*
X128181714Y-112475714D01*
X127991238Y-112475714D01*
X127896000Y-112523333D01*
X127419809Y-112475714D02*
X127419809Y-113142380D01*
X127419809Y-112570952D02*
X127372190Y-112523333D01*
X127276952Y-112475714D01*
X127134095Y-112475714D01*
X127038857Y-112523333D01*
X126991238Y-112618571D01*
X126991238Y-113142380D01*
X126134095Y-113094761D02*
X126229333Y-113142380D01*
X126419809Y-113142380D01*
X126515047Y-113094761D01*
X126562666Y-112999523D01*
X126562666Y-112618571D01*
X126515047Y-112523333D01*
X126419809Y-112475714D01*
X126229333Y-112475714D01*
X126134095Y-112523333D01*
X126086476Y-112618571D01*
X126086476Y-112713809D01*
X126562666Y-112809047D01*
X125229333Y-113142380D02*
X125229333Y-112142380D01*
X125229333Y-113094761D02*
X125324571Y-113142380D01*
X125515047Y-113142380D01*
X125610285Y-113094761D01*
X125657904Y-113047142D01*
X125705523Y-112951904D01*
X125705523Y-112666190D01*
X125657904Y-112570952D01*
X125610285Y-112523333D01*
X125515047Y-112475714D01*
X125324571Y-112475714D01*
X125229333Y-112523333D01*
X123991238Y-113142380D02*
X123991238Y-112142380D01*
X123991238Y-112523333D02*
X123896000Y-112475714D01*
X123705523Y-112475714D01*
X123610285Y-112523333D01*
X123562666Y-112570952D01*
X123515047Y-112666190D01*
X123515047Y-112951904D01*
X123562666Y-113047142D01*
X123610285Y-113094761D01*
X123705523Y-113142380D01*
X123896000Y-113142380D01*
X123991238Y-113094761D01*
X123181714Y-112475714D02*
X122943619Y-113142380D01*
X122705523Y-112475714D02*
X122943619Y-113142380D01*
X123038857Y-113380476D01*
X123086476Y-113428095D01*
X123181714Y-113475714D01*
X121276952Y-112142380D02*
X121276952Y-112856666D01*
X121324571Y-112999523D01*
X121419809Y-113094761D01*
X121562666Y-113142380D01*
X121657904Y-113142380D01*
X120372190Y-113142380D02*
X120372190Y-112618571D01*
X120419809Y-112523333D01*
X120515047Y-112475714D01*
X120705523Y-112475714D01*
X120800761Y-112523333D01*
X120372190Y-113094761D02*
X120467428Y-113142380D01*
X120705523Y-113142380D01*
X120800761Y-113094761D01*
X120848380Y-112999523D01*
X120848380Y-112904285D01*
X120800761Y-112809047D01*
X120705523Y-112761428D01*
X120467428Y-112761428D01*
X120372190Y-112713809D01*
X119896000Y-113142380D02*
X119896000Y-112475714D01*
X119896000Y-112666190D02*
X119848380Y-112570952D01*
X119800761Y-112523333D01*
X119705523Y-112475714D01*
X119610285Y-112475714D01*
X119276952Y-113142380D02*
X119276952Y-112475714D01*
X119276952Y-112666190D02*
X119229333Y-112570952D01*
X119181714Y-112523333D01*
X119086476Y-112475714D01*
X118991238Y-112475714D01*
X118276952Y-113094761D02*
X118372190Y-113142380D01*
X118562666Y-113142380D01*
X118657904Y-113094761D01*
X118705523Y-112999523D01*
X118705523Y-112618571D01*
X118657904Y-112523333D01*
X118562666Y-112475714D01*
X118372190Y-112475714D01*
X118276952Y-112523333D01*
X118229333Y-112618571D01*
X118229333Y-112713809D01*
X118705523Y-112809047D01*
X117943619Y-112475714D02*
X117562666Y-112475714D01*
X117800761Y-112142380D02*
X117800761Y-112999523D01*
X117753142Y-113094761D01*
X117657904Y-113142380D01*
X117562666Y-113142380D01*
X117372190Y-112475714D02*
X116991238Y-112475714D01*
X117229333Y-112142380D02*
X117229333Y-112999523D01*
X117181714Y-113094761D01*
X117086476Y-113142380D01*
X116991238Y-113142380D01*
X115324571Y-113047142D02*
X115372190Y-113094761D01*
X115515047Y-113142380D01*
X115610285Y-113142380D01*
X115753142Y-113094761D01*
X115848380Y-112999523D01*
X115896000Y-112904285D01*
X115943619Y-112713809D01*
X115943619Y-112570952D01*
X115896000Y-112380476D01*
X115848380Y-112285238D01*
X115753142Y-112190000D01*
X115610285Y-112142380D01*
X115515047Y-112142380D01*
X115372190Y-112190000D01*
X115324571Y-112237619D01*
X114896000Y-113142380D02*
X114896000Y-112475714D01*
X114896000Y-112142380D02*
X114943619Y-112190000D01*
X114896000Y-112237619D01*
X114848380Y-112190000D01*
X114896000Y-112142380D01*
X114896000Y-112237619D01*
X113991238Y-112475714D02*
X113991238Y-113285238D01*
X114038857Y-113380476D01*
X114086476Y-113428095D01*
X114181714Y-113475714D01*
X114324571Y-113475714D01*
X114419809Y-113428095D01*
X113991238Y-113094761D02*
X114086476Y-113142380D01*
X114276952Y-113142380D01*
X114372190Y-113094761D01*
X114419809Y-113047142D01*
X114467428Y-112951904D01*
X114467428Y-112666190D01*
X114419809Y-112570952D01*
X114372190Y-112523333D01*
X114276952Y-112475714D01*
X114086476Y-112475714D01*
X113991238Y-112523333D01*
X113086476Y-113142380D02*
X113086476Y-112618571D01*
X113134095Y-112523333D01*
X113229333Y-112475714D01*
X113419809Y-112475714D01*
X113515047Y-112523333D01*
X113086476Y-113094761D02*
X113181714Y-113142380D01*
X113419809Y-113142380D01*
X113515047Y-113094761D01*
X113562666Y-112999523D01*
X113562666Y-112904285D01*
X113515047Y-112809047D01*
X113419809Y-112761428D01*
X113181714Y-112761428D01*
X113086476Y-112713809D01*
X112610285Y-113142380D02*
X112610285Y-112475714D01*
X112610285Y-112142380D02*
X112657904Y-112190000D01*
X112610285Y-112237619D01*
X112562666Y-112190000D01*
X112610285Y-112142380D01*
X112610285Y-112237619D01*
X112134095Y-112475714D02*
X112134095Y-113142380D01*
X112134095Y-112570952D02*
X112086476Y-112523333D01*
X111991238Y-112475714D01*
X111848380Y-112475714D01*
X111753142Y-112523333D01*
X111705523Y-112618571D01*
X111705523Y-113142380D01*
X110848380Y-113094761D02*
X110943619Y-113142380D01*
X111134095Y-113142380D01*
X111229333Y-113094761D01*
X111276952Y-112999523D01*
X111276952Y-112618571D01*
X111229333Y-112523333D01*
X111134095Y-112475714D01*
X110943619Y-112475714D01*
X110848380Y-112523333D01*
X110800761Y-112618571D01*
X110800761Y-112713809D01*
X111276952Y-112809047D01*
X110372190Y-113142380D02*
X110372190Y-112475714D01*
X110372190Y-112666190D02*
X110324571Y-112570952D01*
X110276952Y-112523333D01*
X110181714Y-112475714D01*
X110086476Y-112475714D01*
X109610285Y-113142380D02*
X109705523Y-113094761D01*
X109753142Y-113047142D01*
X109800761Y-112951904D01*
X109800761Y-112666190D01*
X109753142Y-112570952D01*
X109705523Y-112523333D01*
X109610285Y-112475714D01*
X109467428Y-112475714D01*
X109372190Y-112523333D01*
X109324571Y-112570952D01*
X109276952Y-112666190D01*
X109276952Y-112951904D01*
X109324571Y-113047142D01*
X109372190Y-113094761D01*
X109467428Y-113142380D01*
X109610285Y-113142380D01*
X128134095Y-114752380D02*
X128134095Y-113752380D01*
X128134095Y-114228571D02*
X127562666Y-114228571D01*
X127562666Y-114752380D02*
X127562666Y-113752380D01*
X126657904Y-114752380D02*
X126657904Y-114228571D01*
X126705523Y-114133333D01*
X126800761Y-114085714D01*
X126991238Y-114085714D01*
X127086476Y-114133333D01*
X126657904Y-114704761D02*
X126753142Y-114752380D01*
X126991238Y-114752380D01*
X127086476Y-114704761D01*
X127134095Y-114609523D01*
X127134095Y-114514285D01*
X127086476Y-114419047D01*
X126991238Y-114371428D01*
X126753142Y-114371428D01*
X126657904Y-114323809D01*
X126181714Y-114085714D02*
X126181714Y-115085714D01*
X126181714Y-114133333D02*
X126086476Y-114085714D01*
X125896000Y-114085714D01*
X125800761Y-114133333D01*
X125753142Y-114180952D01*
X125705523Y-114276190D01*
X125705523Y-114561904D01*
X125753142Y-114657142D01*
X125800761Y-114704761D01*
X125896000Y-114752380D01*
X126086476Y-114752380D01*
X126181714Y-114704761D01*
X125419809Y-114085714D02*
X125038857Y-114085714D01*
X125276952Y-113752380D02*
X125276952Y-114609523D01*
X125229333Y-114704761D01*
X125134095Y-114752380D01*
X125038857Y-114752380D01*
X124705523Y-114752380D02*
X124705523Y-114085714D01*
X124705523Y-113752380D02*
X124753142Y-113800000D01*
X124705523Y-113847619D01*
X124657904Y-113800000D01*
X124705523Y-113752380D01*
X124705523Y-113847619D01*
X123800761Y-114704761D02*
X123896000Y-114752380D01*
X124086476Y-114752380D01*
X124181714Y-114704761D01*
X124229333Y-114657142D01*
X124276952Y-114561904D01*
X124276952Y-114276190D01*
X124229333Y-114180952D01*
X124181714Y-114133333D01*
X124086476Y-114085714D01*
X123896000Y-114085714D01*
X123800761Y-114133333D01*
X122657904Y-114704761D02*
X122515047Y-114752380D01*
X122276952Y-114752380D01*
X122181714Y-114704761D01*
X122134095Y-114657142D01*
X122086476Y-114561904D01*
X122086476Y-114466666D01*
X122134095Y-114371428D01*
X122181714Y-114323809D01*
X122276952Y-114276190D01*
X122467428Y-114228571D01*
X122562666Y-114180952D01*
X122610285Y-114133333D01*
X122657904Y-114038095D01*
X122657904Y-113942857D01*
X122610285Y-113847619D01*
X122562666Y-113800000D01*
X122467428Y-113752380D01*
X122229333Y-113752380D01*
X122086476Y-113800000D01*
X121515047Y-114752380D02*
X121610285Y-114704761D01*
X121657904Y-114657142D01*
X121705523Y-114561904D01*
X121705523Y-114276190D01*
X121657904Y-114180952D01*
X121610285Y-114133333D01*
X121515047Y-114085714D01*
X121372190Y-114085714D01*
X121276952Y-114133333D01*
X121229333Y-114180952D01*
X121181714Y-114276190D01*
X121181714Y-114561904D01*
X121229333Y-114657142D01*
X121276952Y-114704761D01*
X121372190Y-114752380D01*
X121515047Y-114752380D01*
X120610285Y-114752380D02*
X120705523Y-114704761D01*
X120753142Y-114609523D01*
X120753142Y-113752380D01*
X119800761Y-114085714D02*
X119800761Y-114752380D01*
X120229333Y-114085714D02*
X120229333Y-114609523D01*
X120181714Y-114704761D01*
X120086476Y-114752380D01*
X119943619Y-114752380D01*
X119848380Y-114704761D01*
X119800761Y-114657142D01*
X119467428Y-114085714D02*
X119086476Y-114085714D01*
X119324571Y-113752380D02*
X119324571Y-114609523D01*
X119276952Y-114704761D01*
X119181714Y-114752380D01*
X119086476Y-114752380D01*
X118753142Y-114752380D02*
X118753142Y-114085714D01*
X118753142Y-113752380D02*
X118800761Y-113800000D01*
X118753142Y-113847619D01*
X118705523Y-113800000D01*
X118753142Y-113752380D01*
X118753142Y-113847619D01*
X118134095Y-114752380D02*
X118229333Y-114704761D01*
X118276952Y-114657142D01*
X118324571Y-114561904D01*
X118324571Y-114276190D01*
X118276952Y-114180952D01*
X118229333Y-114133333D01*
X118134095Y-114085714D01*
X117991238Y-114085714D01*
X117896000Y-114133333D01*
X117848380Y-114180952D01*
X117800761Y-114276190D01*
X117800761Y-114561904D01*
X117848380Y-114657142D01*
X117896000Y-114704761D01*
X117991238Y-114752380D01*
X118134095Y-114752380D01*
X117372190Y-114085714D02*
X117372190Y-114752380D01*
X117372190Y-114180952D02*
X117324571Y-114133333D01*
X117229333Y-114085714D01*
X117086476Y-114085714D01*
X116991238Y-114133333D01*
X116943619Y-114228571D01*
X116943619Y-114752380D01*
X116515047Y-114704761D02*
X116419809Y-114752380D01*
X116229333Y-114752380D01*
X116134095Y-114704761D01*
X116086476Y-114609523D01*
X116086476Y-114561904D01*
X116134095Y-114466666D01*
X116229333Y-114419047D01*
X116372190Y-114419047D01*
X116467428Y-114371428D01*
X116515047Y-114276190D01*
X116515047Y-114228571D01*
X116467428Y-114133333D01*
X116372190Y-114085714D01*
X116229333Y-114085714D01*
X116134095Y-114133333D01*
X114896000Y-114752380D02*
X114896000Y-113752380D01*
X114419809Y-114085714D02*
X114419809Y-114752380D01*
X114419809Y-114180952D02*
X114372190Y-114133333D01*
X114276952Y-114085714D01*
X114134095Y-114085714D01*
X114038857Y-114133333D01*
X113991238Y-114228571D01*
X113991238Y-114752380D01*
X113086476Y-114704761D02*
X113181714Y-114752380D01*
X113372190Y-114752380D01*
X113467428Y-114704761D01*
X113515047Y-114657142D01*
X113562666Y-114561904D01*
X113562666Y-114276190D01*
X113515047Y-114180952D01*
X113467428Y-114133333D01*
X113372190Y-114085714D01*
X113181714Y-114085714D01*
X113086476Y-114133333D01*
X112657904Y-114657142D02*
X112610285Y-114704761D01*
X112657904Y-114752380D01*
X112705523Y-114704761D01*
X112657904Y-114657142D01*
X112657904Y-114752380D01*
X129015047Y-115838571D02*
X129348380Y-115838571D01*
X129348380Y-116362380D02*
X129348380Y-115362380D01*
X128872190Y-115362380D01*
X128110285Y-116314761D02*
X128205523Y-116362380D01*
X128396000Y-116362380D01*
X128491238Y-116314761D01*
X128538857Y-116219523D01*
X128538857Y-115838571D01*
X128491238Y-115743333D01*
X128396000Y-115695714D01*
X128205523Y-115695714D01*
X128110285Y-115743333D01*
X128062666Y-115838571D01*
X128062666Y-115933809D01*
X128538857Y-116029047D01*
X127634095Y-116362380D02*
X127634095Y-115362380D01*
X127634095Y-115743333D02*
X127538857Y-115695714D01*
X127348380Y-115695714D01*
X127253142Y-115743333D01*
X127205523Y-115790952D01*
X127157904Y-115886190D01*
X127157904Y-116171904D01*
X127205523Y-116267142D01*
X127253142Y-116314761D01*
X127348380Y-116362380D01*
X127538857Y-116362380D01*
X127634095Y-116314761D01*
X125443619Y-116362380D02*
X126015047Y-116362380D01*
X125729333Y-116362380D02*
X125729333Y-115362380D01*
X125824571Y-115505238D01*
X125919809Y-115600476D01*
X126015047Y-115648095D01*
X124872190Y-115790952D02*
X124967428Y-115743333D01*
X125015047Y-115695714D01*
X125062666Y-115600476D01*
X125062666Y-115552857D01*
X125015047Y-115457619D01*
X124967428Y-115410000D01*
X124872190Y-115362380D01*
X124681714Y-115362380D01*
X124586476Y-115410000D01*
X124538857Y-115457619D01*
X124491238Y-115552857D01*
X124491238Y-115600476D01*
X124538857Y-115695714D01*
X124586476Y-115743333D01*
X124681714Y-115790952D01*
X124872190Y-115790952D01*
X124967428Y-115838571D01*
X125015047Y-115886190D01*
X125062666Y-115981428D01*
X125062666Y-116171904D01*
X125015047Y-116267142D01*
X124967428Y-116314761D01*
X124872190Y-116362380D01*
X124681714Y-116362380D01*
X124586476Y-116314761D01*
X124538857Y-116267142D01*
X124491238Y-116171904D01*
X124491238Y-115981428D01*
X124538857Y-115886190D01*
X124586476Y-115838571D01*
X124681714Y-115790952D01*
X124015047Y-116314761D02*
X124015047Y-116362380D01*
X124062666Y-116457619D01*
X124110285Y-116505238D01*
X122872190Y-115457619D02*
X122824571Y-115410000D01*
X122729333Y-115362380D01*
X122491238Y-115362380D01*
X122396000Y-115410000D01*
X122348380Y-115457619D01*
X122300761Y-115552857D01*
X122300761Y-115648095D01*
X122348380Y-115790952D01*
X122919809Y-116362380D01*
X122300761Y-116362380D01*
X121681714Y-115362380D02*
X121586476Y-115362380D01*
X121491238Y-115410000D01*
X121443619Y-115457619D01*
X121396000Y-115552857D01*
X121348380Y-115743333D01*
X121348380Y-115981428D01*
X121396000Y-116171904D01*
X121443619Y-116267142D01*
X121491238Y-116314761D01*
X121586476Y-116362380D01*
X121681714Y-116362380D01*
X121776952Y-116314761D01*
X121824571Y-116267142D01*
X121872190Y-116171904D01*
X121919809Y-115981428D01*
X121919809Y-115743333D01*
X121872190Y-115552857D01*
X121824571Y-115457619D01*
X121776952Y-115410000D01*
X121681714Y-115362380D01*
X120967428Y-115457619D02*
X120919809Y-115410000D01*
X120824571Y-115362380D01*
X120586476Y-115362380D01*
X120491238Y-115410000D01*
X120443619Y-115457619D01*
X120396000Y-115552857D01*
X120396000Y-115648095D01*
X120443619Y-115790952D01*
X121015047Y-116362380D01*
X120396000Y-116362380D01*
X119538857Y-115695714D02*
X119538857Y-116362380D01*
X119776952Y-115314761D02*
X120015047Y-116029047D01*
X119396000Y-116029047D01*
X117681714Y-116362380D02*
X118015047Y-115886190D01*
X118253142Y-116362380D02*
X118253142Y-115362380D01*
X117872190Y-115362380D01*
X117776952Y-115410000D01*
X117729333Y-115457619D01*
X117681714Y-115552857D01*
X117681714Y-115695714D01*
X117729333Y-115790952D01*
X117776952Y-115838571D01*
X117872190Y-115886190D01*
X118253142Y-115886190D01*
X117253142Y-115838571D02*
X116919809Y-115838571D01*
X116776952Y-116362380D02*
X117253142Y-116362380D01*
X117253142Y-115362380D01*
X116776952Y-115362380D01*
X116491238Y-115362380D02*
X116157904Y-116362380D01*
X115824571Y-115362380D01*
X115491238Y-116267142D02*
X115443619Y-116314761D01*
X115491238Y-116362380D01*
X115538857Y-116314761D01*
X115491238Y-116267142D01*
X115491238Y-116362380D01*
X113967428Y-116743333D02*
X114015047Y-116695714D01*
X114110285Y-116552857D01*
X114157904Y-116457619D01*
X114205523Y-116314761D01*
X114253142Y-116076666D01*
X114253142Y-115886190D01*
X114205523Y-115648095D01*
X114157904Y-115505238D01*
X114110285Y-115410000D01*
X114015047Y-115267142D01*
X113967428Y-115219523D01*
X113062666Y-116362380D02*
X113634095Y-116362380D01*
X113348380Y-116362380D02*
X113348380Y-115362380D01*
X113443619Y-115505238D01*
X113538857Y-115600476D01*
X113634095Y-115648095D01*
X112729333Y-116743333D02*
X112681714Y-116695714D01*
X112586476Y-116552857D01*
X112538857Y-116457619D01*
X112491238Y-116314761D01*
X112443619Y-116076666D01*
X112443619Y-115886190D01*
X112491238Y-115648095D01*
X112538857Y-115505238D01*
X112586476Y-115410000D01*
X112681714Y-115267142D01*
X112729333Y-115219523D01*
X111967428Y-116362380D02*
X111967428Y-115362380D01*
X111586476Y-115362380D01*
X111491238Y-115410000D01*
X111443619Y-115457619D01*
X111396000Y-115552857D01*
X111396000Y-115695714D01*
X111443619Y-115790952D01*
X111491238Y-115838571D01*
X111586476Y-115886190D01*
X111967428Y-115886190D01*
D11*
X158024285Y-148815904D02*
X158024285Y-148015904D01*
X157719523Y-148015904D01*
X157643333Y-148054000D01*
X157605238Y-148092095D01*
X157567142Y-148168285D01*
X157567142Y-148282571D01*
X157605238Y-148358761D01*
X157643333Y-148396857D01*
X157719523Y-148434952D01*
X158024285Y-148434952D01*
X157224285Y-148815904D02*
X157224285Y-148282571D01*
X157224285Y-148434952D02*
X157186190Y-148358761D01*
X157148095Y-148320666D01*
X157071904Y-148282571D01*
X156995714Y-148282571D01*
X156614761Y-148815904D02*
X156690952Y-148777809D01*
X156729047Y-148739714D01*
X156767142Y-148663523D01*
X156767142Y-148434952D01*
X156729047Y-148358761D01*
X156690952Y-148320666D01*
X156614761Y-148282571D01*
X156500476Y-148282571D01*
X156424285Y-148320666D01*
X156386190Y-148358761D01*
X156348095Y-148434952D01*
X156348095Y-148663523D01*
X156386190Y-148739714D01*
X156424285Y-148777809D01*
X156500476Y-148815904D01*
X156614761Y-148815904D01*
X155662380Y-148282571D02*
X155662380Y-148930190D01*
X155700476Y-149006380D01*
X155738571Y-149044476D01*
X155814761Y-149082571D01*
X155929047Y-149082571D01*
X156005238Y-149044476D01*
X155662380Y-148777809D02*
X155738571Y-148815904D01*
X155890952Y-148815904D01*
X155967142Y-148777809D01*
X156005238Y-148739714D01*
X156043333Y-148663523D01*
X156043333Y-148434952D01*
X156005238Y-148358761D01*
X155967142Y-148320666D01*
X155890952Y-148282571D01*
X155738571Y-148282571D01*
X155662380Y-148320666D01*
X155281428Y-148815904D02*
X155281428Y-148282571D01*
X155281428Y-148434952D02*
X155243333Y-148358761D01*
X155205238Y-148320666D01*
X155129047Y-148282571D01*
X155052857Y-148282571D01*
X154443333Y-148815904D02*
X154443333Y-148396857D01*
X154481428Y-148320666D01*
X154557619Y-148282571D01*
X154710000Y-148282571D01*
X154786190Y-148320666D01*
X154443333Y-148777809D02*
X154519523Y-148815904D01*
X154710000Y-148815904D01*
X154786190Y-148777809D01*
X154824285Y-148701619D01*
X154824285Y-148625428D01*
X154786190Y-148549238D01*
X154710000Y-148511142D01*
X154519523Y-148511142D01*
X154443333Y-148473047D01*
X154062380Y-148815904D02*
X154062380Y-148282571D01*
X154062380Y-148358761D02*
X154024285Y-148320666D01*
X153948095Y-148282571D01*
X153833809Y-148282571D01*
X153757619Y-148320666D01*
X153719523Y-148396857D01*
X153719523Y-148815904D01*
X153719523Y-148396857D02*
X153681428Y-148320666D01*
X153605238Y-148282571D01*
X153490952Y-148282571D01*
X153414761Y-148320666D01*
X153376666Y-148396857D01*
X153376666Y-148815904D01*
X152652857Y-148815904D02*
X152652857Y-148396857D01*
X152690952Y-148320666D01*
X152767142Y-148282571D01*
X152919523Y-148282571D01*
X152995714Y-148320666D01*
X152652857Y-148777809D02*
X152729047Y-148815904D01*
X152919523Y-148815904D01*
X152995714Y-148777809D01*
X153033809Y-148701619D01*
X153033809Y-148625428D01*
X152995714Y-148549238D01*
X152919523Y-148511142D01*
X152729047Y-148511142D01*
X152652857Y-148473047D01*
X152271904Y-148815904D02*
X152271904Y-148015904D01*
X152271904Y-148320666D02*
X152195714Y-148282571D01*
X152043333Y-148282571D01*
X151967142Y-148320666D01*
X151929047Y-148358761D01*
X151890952Y-148434952D01*
X151890952Y-148663523D01*
X151929047Y-148739714D01*
X151967142Y-148777809D01*
X152043333Y-148815904D01*
X152195714Y-148815904D01*
X152271904Y-148777809D01*
X151433809Y-148815904D02*
X151510000Y-148777809D01*
X151548095Y-148701619D01*
X151548095Y-148015904D01*
X150824285Y-148777809D02*
X150900476Y-148815904D01*
X151052857Y-148815904D01*
X151129047Y-148777809D01*
X151167142Y-148701619D01*
X151167142Y-148396857D01*
X151129047Y-148320666D01*
X151052857Y-148282571D01*
X150900476Y-148282571D01*
X150824285Y-148320666D01*
X150786190Y-148396857D01*
X150786190Y-148473047D01*
X151167142Y-148549238D01*
X149452857Y-148815904D02*
X149833809Y-148815904D01*
X149833809Y-148015904D01*
X149186190Y-148815904D02*
X149186190Y-148282571D01*
X149186190Y-148015904D02*
X149224285Y-148054000D01*
X149186190Y-148092095D01*
X149148095Y-148054000D01*
X149186190Y-148015904D01*
X149186190Y-148092095D01*
X148919523Y-148282571D02*
X148614761Y-148282571D01*
X148805238Y-148015904D02*
X148805238Y-148701619D01*
X148767142Y-148777809D01*
X148690952Y-148815904D01*
X148614761Y-148815904D01*
X148348095Y-148815904D02*
X148348095Y-148015904D01*
X148005238Y-148815904D02*
X148005238Y-148396857D01*
X148043333Y-148320666D01*
X148119523Y-148282571D01*
X148233809Y-148282571D01*
X148310000Y-148320666D01*
X148348095Y-148358761D01*
X147624285Y-148815904D02*
X147624285Y-148282571D01*
X147624285Y-148015904D02*
X147662380Y-148054000D01*
X147624285Y-148092095D01*
X147586190Y-148054000D01*
X147624285Y-148015904D01*
X147624285Y-148092095D01*
X146900476Y-148282571D02*
X146900476Y-148815904D01*
X147243333Y-148282571D02*
X147243333Y-148701619D01*
X147205238Y-148777809D01*
X147129047Y-148815904D01*
X147014761Y-148815904D01*
X146938571Y-148777809D01*
X146900476Y-148739714D01*
X146519523Y-148815904D02*
X146519523Y-148282571D01*
X146519523Y-148358761D02*
X146481428Y-148320666D01*
X146405238Y-148282571D01*
X146290952Y-148282571D01*
X146214761Y-148320666D01*
X146176666Y-148396857D01*
X146176666Y-148815904D01*
X146176666Y-148396857D02*
X146138571Y-148320666D01*
X146062380Y-148282571D01*
X145948095Y-148282571D01*
X145871904Y-148320666D01*
X145833809Y-148396857D01*
X145833809Y-148815904D01*
X144843333Y-148815904D02*
X144843333Y-148015904D01*
X144843333Y-148320666D02*
X144767142Y-148282571D01*
X144614761Y-148282571D01*
X144538571Y-148320666D01*
X144500476Y-148358761D01*
X144462380Y-148434952D01*
X144462380Y-148663523D01*
X144500476Y-148739714D01*
X144538571Y-148777809D01*
X144614761Y-148815904D01*
X144767142Y-148815904D01*
X144843333Y-148777809D01*
X143776666Y-148815904D02*
X143776666Y-148396857D01*
X143814761Y-148320666D01*
X143890952Y-148282571D01*
X144043333Y-148282571D01*
X144119523Y-148320666D01*
X143776666Y-148777809D02*
X143852857Y-148815904D01*
X144043333Y-148815904D01*
X144119523Y-148777809D01*
X144157619Y-148701619D01*
X144157619Y-148625428D01*
X144119523Y-148549238D01*
X144043333Y-148511142D01*
X143852857Y-148511142D01*
X143776666Y-148473047D01*
X143510000Y-148282571D02*
X143205238Y-148282571D01*
X143395714Y-148015904D02*
X143395714Y-148701619D01*
X143357619Y-148777809D01*
X143281428Y-148815904D01*
X143205238Y-148815904D01*
X143052857Y-148282571D02*
X142748095Y-148282571D01*
X142938571Y-148015904D02*
X142938571Y-148701619D01*
X142900476Y-148777809D01*
X142824285Y-148815904D01*
X142748095Y-148815904D01*
X142176666Y-148777809D02*
X142252857Y-148815904D01*
X142405238Y-148815904D01*
X142481428Y-148777809D01*
X142519523Y-148701619D01*
X142519523Y-148396857D01*
X142481428Y-148320666D01*
X142405238Y-148282571D01*
X142252857Y-148282571D01*
X142176666Y-148320666D01*
X142138571Y-148396857D01*
X142138571Y-148473047D01*
X142519523Y-148549238D01*
X141795714Y-148815904D02*
X141795714Y-148282571D01*
X141795714Y-148434952D02*
X141757619Y-148358761D01*
X141719523Y-148320666D01*
X141643333Y-148282571D01*
X141567142Y-148282571D01*
X141376666Y-148282571D02*
X141186190Y-148815904D01*
X140995714Y-148282571D02*
X141186190Y-148815904D01*
X141262380Y-149006380D01*
X141300476Y-149044476D01*
X141376666Y-149082571D01*
X139738571Y-148777809D02*
X139814761Y-148815904D01*
X139967142Y-148815904D01*
X140043333Y-148777809D01*
X140081428Y-148739714D01*
X140119523Y-148663523D01*
X140119523Y-148434952D01*
X140081428Y-148358761D01*
X140043333Y-148320666D01*
X139967142Y-148282571D01*
X139814761Y-148282571D01*
X139738571Y-148320666D01*
X139395714Y-148815904D02*
X139395714Y-148015904D01*
X139052857Y-148815904D02*
X139052857Y-148396857D01*
X139090952Y-148320666D01*
X139167142Y-148282571D01*
X139281428Y-148282571D01*
X139357619Y-148320666D01*
X139395714Y-148358761D01*
X138329047Y-148815904D02*
X138329047Y-148396857D01*
X138367142Y-148320666D01*
X138443333Y-148282571D01*
X138595714Y-148282571D01*
X138671904Y-148320666D01*
X138329047Y-148777809D02*
X138405238Y-148815904D01*
X138595714Y-148815904D01*
X138671904Y-148777809D01*
X138710000Y-148701619D01*
X138710000Y-148625428D01*
X138671904Y-148549238D01*
X138595714Y-148511142D01*
X138405238Y-148511142D01*
X138329047Y-148473047D01*
X137948095Y-148815904D02*
X137948095Y-148282571D01*
X137948095Y-148434952D02*
X137910000Y-148358761D01*
X137871904Y-148320666D01*
X137795714Y-148282571D01*
X137719523Y-148282571D01*
X137110000Y-148282571D02*
X137110000Y-148930190D01*
X137148095Y-149006380D01*
X137186190Y-149044476D01*
X137262380Y-149082571D01*
X137376666Y-149082571D01*
X137452857Y-149044476D01*
X137110000Y-148777809D02*
X137186190Y-148815904D01*
X137338571Y-148815904D01*
X137414761Y-148777809D01*
X137452857Y-148739714D01*
X137490952Y-148663523D01*
X137490952Y-148434952D01*
X137452857Y-148358761D01*
X137414761Y-148320666D01*
X137338571Y-148282571D01*
X137186190Y-148282571D01*
X137110000Y-148320666D01*
X136424285Y-148777809D02*
X136500476Y-148815904D01*
X136652857Y-148815904D01*
X136729047Y-148777809D01*
X136767142Y-148701619D01*
X136767142Y-148396857D01*
X136729047Y-148320666D01*
X136652857Y-148282571D01*
X136500476Y-148282571D01*
X136424285Y-148320666D01*
X136386190Y-148396857D01*
X136386190Y-148473047D01*
X136767142Y-148549238D01*
X135090952Y-148777809D02*
X135167142Y-148815904D01*
X135319523Y-148815904D01*
X135395714Y-148777809D01*
X135433809Y-148739714D01*
X135471904Y-148663523D01*
X135471904Y-148434952D01*
X135433809Y-148358761D01*
X135395714Y-148320666D01*
X135319523Y-148282571D01*
X135167142Y-148282571D01*
X135090952Y-148320666D01*
X134633809Y-148815904D02*
X134710000Y-148777809D01*
X134748095Y-148739714D01*
X134786190Y-148663523D01*
X134786190Y-148434952D01*
X134748095Y-148358761D01*
X134710000Y-148320666D01*
X134633809Y-148282571D01*
X134519523Y-148282571D01*
X134443333Y-148320666D01*
X134405238Y-148358761D01*
X134367142Y-148434952D01*
X134367142Y-148663523D01*
X134405238Y-148739714D01*
X134443333Y-148777809D01*
X134519523Y-148815904D01*
X134633809Y-148815904D01*
X134024285Y-148282571D02*
X134024285Y-148815904D01*
X134024285Y-148358761D02*
X133986190Y-148320666D01*
X133910000Y-148282571D01*
X133795714Y-148282571D01*
X133719523Y-148320666D01*
X133681428Y-148396857D01*
X133681428Y-148815904D01*
X133414761Y-148282571D02*
X133110000Y-148282571D01*
X133300476Y-148015904D02*
X133300476Y-148701619D01*
X133262380Y-148777809D01*
X133186190Y-148815904D01*
X133110000Y-148815904D01*
X132843333Y-148815904D02*
X132843333Y-148282571D01*
X132843333Y-148434952D02*
X132805238Y-148358761D01*
X132767142Y-148320666D01*
X132690952Y-148282571D01*
X132614761Y-148282571D01*
X132233809Y-148815904D02*
X132310000Y-148777809D01*
X132348095Y-148739714D01*
X132386190Y-148663523D01*
X132386190Y-148434952D01*
X132348095Y-148358761D01*
X132310000Y-148320666D01*
X132233809Y-148282571D01*
X132119523Y-148282571D01*
X132043333Y-148320666D01*
X132005238Y-148358761D01*
X131967142Y-148434952D01*
X131967142Y-148663523D01*
X132005238Y-148739714D01*
X132043333Y-148777809D01*
X132119523Y-148815904D01*
X132233809Y-148815904D01*
X131510000Y-148815904D02*
X131586190Y-148777809D01*
X131624285Y-148701619D01*
X131624285Y-148015904D01*
X131090952Y-148815904D02*
X131167142Y-148777809D01*
X131205238Y-148701619D01*
X131205238Y-148015904D01*
X130481428Y-148777809D02*
X130557619Y-148815904D01*
X130710000Y-148815904D01*
X130786190Y-148777809D01*
X130824285Y-148701619D01*
X130824285Y-148396857D01*
X130786190Y-148320666D01*
X130710000Y-148282571D01*
X130557619Y-148282571D01*
X130481428Y-148320666D01*
X130443333Y-148396857D01*
X130443333Y-148473047D01*
X130824285Y-148549238D01*
X130100476Y-148815904D02*
X130100476Y-148282571D01*
X130100476Y-148434952D02*
X130062380Y-148358761D01*
X130024285Y-148320666D01*
X129948095Y-148282571D01*
X129871904Y-148282571D01*
X129567142Y-148777809D02*
X129567142Y-148815904D01*
X129605238Y-148892095D01*
X129643333Y-148930190D01*
X161205238Y-149684857D02*
X161090952Y-149722952D01*
X161052857Y-149761047D01*
X161014761Y-149837238D01*
X161014761Y-149951523D01*
X161052857Y-150027714D01*
X161090952Y-150065809D01*
X161167142Y-150103904D01*
X161471904Y-150103904D01*
X161471904Y-149303904D01*
X161205238Y-149303904D01*
X161129047Y-149342000D01*
X161090952Y-149380095D01*
X161052857Y-149456285D01*
X161052857Y-149532476D01*
X161090952Y-149608666D01*
X161129047Y-149646761D01*
X161205238Y-149684857D01*
X161471904Y-149684857D01*
X160329047Y-150103904D02*
X160329047Y-149684857D01*
X160367142Y-149608666D01*
X160443333Y-149570571D01*
X160595714Y-149570571D01*
X160671904Y-149608666D01*
X160329047Y-150065809D02*
X160405238Y-150103904D01*
X160595714Y-150103904D01*
X160671904Y-150065809D01*
X160710000Y-149989619D01*
X160710000Y-149913428D01*
X160671904Y-149837238D01*
X160595714Y-149799142D01*
X160405238Y-149799142D01*
X160329047Y-149761047D01*
X160062380Y-149570571D02*
X159757619Y-149570571D01*
X159948095Y-149303904D02*
X159948095Y-149989619D01*
X159910000Y-150065809D01*
X159833809Y-150103904D01*
X159757619Y-150103904D01*
X159605238Y-149570571D02*
X159300476Y-149570571D01*
X159490952Y-149303904D02*
X159490952Y-149989619D01*
X159452857Y-150065809D01*
X159376666Y-150103904D01*
X159300476Y-150103904D01*
X158729047Y-150065809D02*
X158805238Y-150103904D01*
X158957619Y-150103904D01*
X159033809Y-150065809D01*
X159071904Y-149989619D01*
X159071904Y-149684857D01*
X159033809Y-149608666D01*
X158957619Y-149570571D01*
X158805238Y-149570571D01*
X158729047Y-149608666D01*
X158690952Y-149684857D01*
X158690952Y-149761047D01*
X159071904Y-149837238D01*
X158348095Y-150103904D02*
X158348095Y-149570571D01*
X158348095Y-149722952D02*
X158310000Y-149646761D01*
X158271904Y-149608666D01*
X158195714Y-149570571D01*
X158119523Y-149570571D01*
X157929047Y-149570571D02*
X157738571Y-150103904D01*
X157548095Y-149570571D02*
X157738571Y-150103904D01*
X157814761Y-150294380D01*
X157852857Y-150332476D01*
X157929047Y-150370571D01*
X156633809Y-150103904D02*
X156633809Y-149303904D01*
X156367142Y-149875333D01*
X156100476Y-149303904D01*
X156100476Y-150103904D01*
X155376666Y-150103904D02*
X155376666Y-149684857D01*
X155414761Y-149608666D01*
X155490952Y-149570571D01*
X155643333Y-149570571D01*
X155719523Y-149608666D01*
X155376666Y-150065809D02*
X155452857Y-150103904D01*
X155643333Y-150103904D01*
X155719523Y-150065809D01*
X155757619Y-149989619D01*
X155757619Y-149913428D01*
X155719523Y-149837238D01*
X155643333Y-149799142D01*
X155452857Y-149799142D01*
X155376666Y-149761047D01*
X154995714Y-149570571D02*
X154995714Y-150103904D01*
X154995714Y-149646761D02*
X154957619Y-149608666D01*
X154881428Y-149570571D01*
X154767142Y-149570571D01*
X154690952Y-149608666D01*
X154652857Y-149684857D01*
X154652857Y-150103904D01*
X153929047Y-150103904D02*
X153929047Y-149684857D01*
X153967142Y-149608666D01*
X154043333Y-149570571D01*
X154195714Y-149570571D01*
X154271904Y-149608666D01*
X153929047Y-150065809D02*
X154005238Y-150103904D01*
X154195714Y-150103904D01*
X154271904Y-150065809D01*
X154310000Y-149989619D01*
X154310000Y-149913428D01*
X154271904Y-149837238D01*
X154195714Y-149799142D01*
X154005238Y-149799142D01*
X153929047Y-149761047D01*
X153205238Y-149570571D02*
X153205238Y-150218190D01*
X153243333Y-150294380D01*
X153281428Y-150332476D01*
X153357619Y-150370571D01*
X153471904Y-150370571D01*
X153548095Y-150332476D01*
X153205238Y-150065809D02*
X153281428Y-150103904D01*
X153433809Y-150103904D01*
X153510000Y-150065809D01*
X153548095Y-150027714D01*
X153586190Y-149951523D01*
X153586190Y-149722952D01*
X153548095Y-149646761D01*
X153510000Y-149608666D01*
X153433809Y-149570571D01*
X153281428Y-149570571D01*
X153205238Y-149608666D01*
X152824285Y-150103904D02*
X152824285Y-149570571D01*
X152824285Y-149646761D02*
X152786190Y-149608666D01*
X152710000Y-149570571D01*
X152595714Y-149570571D01*
X152519523Y-149608666D01*
X152481428Y-149684857D01*
X152481428Y-150103904D01*
X152481428Y-149684857D02*
X152443333Y-149608666D01*
X152367142Y-149570571D01*
X152252857Y-149570571D01*
X152176666Y-149608666D01*
X152138571Y-149684857D01*
X152138571Y-150103904D01*
X151452857Y-150065809D02*
X151529047Y-150103904D01*
X151681428Y-150103904D01*
X151757619Y-150065809D01*
X151795714Y-149989619D01*
X151795714Y-149684857D01*
X151757619Y-149608666D01*
X151681428Y-149570571D01*
X151529047Y-149570571D01*
X151452857Y-149608666D01*
X151414761Y-149684857D01*
X151414761Y-149761047D01*
X151795714Y-149837238D01*
X151071904Y-149570571D02*
X151071904Y-150103904D01*
X151071904Y-149646761D02*
X151033809Y-149608666D01*
X150957619Y-149570571D01*
X150843333Y-149570571D01*
X150767142Y-149608666D01*
X150729047Y-149684857D01*
X150729047Y-150103904D01*
X150462380Y-149570571D02*
X150157619Y-149570571D01*
X150348095Y-149303904D02*
X150348095Y-149989619D01*
X150310000Y-150065809D01*
X150233809Y-150103904D01*
X150157619Y-150103904D01*
X149319523Y-150065809D02*
X149205238Y-150103904D01*
X149014761Y-150103904D01*
X148938571Y-150065809D01*
X148900476Y-150027714D01*
X148862380Y-149951523D01*
X148862380Y-149875333D01*
X148900476Y-149799142D01*
X148938571Y-149761047D01*
X149014761Y-149722952D01*
X149167142Y-149684857D01*
X149243333Y-149646761D01*
X149281428Y-149608666D01*
X149319523Y-149532476D01*
X149319523Y-149456285D01*
X149281428Y-149380095D01*
X149243333Y-149342000D01*
X149167142Y-149303904D01*
X148976666Y-149303904D01*
X148862380Y-149342000D01*
X148595714Y-149570571D02*
X148405238Y-150103904D01*
X148214761Y-149570571D02*
X148405238Y-150103904D01*
X148481428Y-150294380D01*
X148519523Y-150332476D01*
X148595714Y-150370571D01*
X147948095Y-150065809D02*
X147871904Y-150103904D01*
X147719523Y-150103904D01*
X147643333Y-150065809D01*
X147605238Y-149989619D01*
X147605238Y-149951523D01*
X147643333Y-149875333D01*
X147719523Y-149837238D01*
X147833809Y-149837238D01*
X147910000Y-149799142D01*
X147948095Y-149722952D01*
X147948095Y-149684857D01*
X147910000Y-149608666D01*
X147833809Y-149570571D01*
X147719523Y-149570571D01*
X147643333Y-149608666D01*
X147376666Y-149570571D02*
X147071904Y-149570571D01*
X147262380Y-149303904D02*
X147262380Y-149989619D01*
X147224285Y-150065809D01*
X147148095Y-150103904D01*
X147071904Y-150103904D01*
X146500476Y-150065809D02*
X146576666Y-150103904D01*
X146729047Y-150103904D01*
X146805238Y-150065809D01*
X146843333Y-149989619D01*
X146843333Y-149684857D01*
X146805238Y-149608666D01*
X146729047Y-149570571D01*
X146576666Y-149570571D01*
X146500476Y-149608666D01*
X146462380Y-149684857D01*
X146462380Y-149761047D01*
X146843333Y-149837238D01*
X146119523Y-150103904D02*
X146119523Y-149570571D01*
X146119523Y-149646761D02*
X146081428Y-149608666D01*
X146005238Y-149570571D01*
X145890952Y-149570571D01*
X145814761Y-149608666D01*
X145776666Y-149684857D01*
X145776666Y-150103904D01*
X145776666Y-149684857D02*
X145738571Y-149608666D01*
X145662380Y-149570571D01*
X145548095Y-149570571D01*
X145471904Y-149608666D01*
X145433809Y-149684857D01*
X145433809Y-150103904D01*
X145014761Y-150065809D02*
X145014761Y-150103904D01*
X145052857Y-150180095D01*
X145090952Y-150218190D01*
X143719523Y-150103904D02*
X143719523Y-149684857D01*
X143757619Y-149608666D01*
X143833809Y-149570571D01*
X143986190Y-149570571D01*
X144062380Y-149608666D01*
X143719523Y-150065809D02*
X143795714Y-150103904D01*
X143986190Y-150103904D01*
X144062380Y-150065809D01*
X144100476Y-149989619D01*
X144100476Y-149913428D01*
X144062380Y-149837238D01*
X143986190Y-149799142D01*
X143795714Y-149799142D01*
X143719523Y-149761047D01*
X143338571Y-149570571D02*
X143338571Y-150103904D01*
X143338571Y-149646761D02*
X143300476Y-149608666D01*
X143224285Y-149570571D01*
X143110000Y-149570571D01*
X143033809Y-149608666D01*
X142995714Y-149684857D01*
X142995714Y-150103904D01*
X142271904Y-150103904D02*
X142271904Y-149303904D01*
X142271904Y-150065809D02*
X142348095Y-150103904D01*
X142500476Y-150103904D01*
X142576666Y-150065809D01*
X142614761Y-150027714D01*
X142652857Y-149951523D01*
X142652857Y-149722952D01*
X142614761Y-149646761D01*
X142576666Y-149608666D01*
X142500476Y-149570571D01*
X142348095Y-149570571D01*
X142271904Y-149608666D01*
X141281428Y-150103904D02*
X141281428Y-149303904D01*
X140976666Y-149303904D01*
X140900476Y-149342000D01*
X140862380Y-149380095D01*
X140824285Y-149456285D01*
X140824285Y-149570571D01*
X140862380Y-149646761D01*
X140900476Y-149684857D01*
X140976666Y-149722952D01*
X141281428Y-149722952D01*
X140367142Y-150103904D02*
X140443333Y-150065809D01*
X140481428Y-150027714D01*
X140519523Y-149951523D01*
X140519523Y-149722952D01*
X140481428Y-149646761D01*
X140443333Y-149608666D01*
X140367142Y-149570571D01*
X140252857Y-149570571D01*
X140176666Y-149608666D01*
X140138571Y-149646761D01*
X140100476Y-149722952D01*
X140100476Y-149951523D01*
X140138571Y-150027714D01*
X140176666Y-150065809D01*
X140252857Y-150103904D01*
X140367142Y-150103904D01*
X139833809Y-149570571D02*
X139681428Y-150103904D01*
X139529047Y-149722952D01*
X139376666Y-150103904D01*
X139224285Y-149570571D01*
X138614761Y-150065809D02*
X138690952Y-150103904D01*
X138843333Y-150103904D01*
X138919523Y-150065809D01*
X138957619Y-149989619D01*
X138957619Y-149684857D01*
X138919523Y-149608666D01*
X138843333Y-149570571D01*
X138690952Y-149570571D01*
X138614761Y-149608666D01*
X138576666Y-149684857D01*
X138576666Y-149761047D01*
X138957619Y-149837238D01*
X138233809Y-150103904D02*
X138233809Y-149570571D01*
X138233809Y-149722952D02*
X138195714Y-149646761D01*
X138157619Y-149608666D01*
X138081428Y-149570571D01*
X138005238Y-149570571D01*
X137129047Y-150103904D02*
X137129047Y-149303904D01*
X136862380Y-149875333D01*
X136595714Y-149303904D01*
X136595714Y-150103904D01*
X135871904Y-150103904D02*
X135871904Y-149684857D01*
X135910000Y-149608666D01*
X135986190Y-149570571D01*
X136138571Y-149570571D01*
X136214761Y-149608666D01*
X135871904Y-150065809D02*
X135948095Y-150103904D01*
X136138571Y-150103904D01*
X136214761Y-150065809D01*
X136252857Y-149989619D01*
X136252857Y-149913428D01*
X136214761Y-149837238D01*
X136138571Y-149799142D01*
X135948095Y-149799142D01*
X135871904Y-149761047D01*
X135490952Y-149570571D02*
X135490952Y-150103904D01*
X135490952Y-149646761D02*
X135452857Y-149608666D01*
X135376666Y-149570571D01*
X135262380Y-149570571D01*
X135186190Y-149608666D01*
X135148095Y-149684857D01*
X135148095Y-150103904D01*
X134424285Y-150103904D02*
X134424285Y-149684857D01*
X134462380Y-149608666D01*
X134538571Y-149570571D01*
X134690952Y-149570571D01*
X134767142Y-149608666D01*
X134424285Y-150065809D02*
X134500476Y-150103904D01*
X134690952Y-150103904D01*
X134767142Y-150065809D01*
X134805238Y-149989619D01*
X134805238Y-149913428D01*
X134767142Y-149837238D01*
X134690952Y-149799142D01*
X134500476Y-149799142D01*
X134424285Y-149761047D01*
X133700476Y-149570571D02*
X133700476Y-150218190D01*
X133738571Y-150294380D01*
X133776666Y-150332476D01*
X133852857Y-150370571D01*
X133967142Y-150370571D01*
X134043333Y-150332476D01*
X133700476Y-150065809D02*
X133776666Y-150103904D01*
X133929047Y-150103904D01*
X134005238Y-150065809D01*
X134043333Y-150027714D01*
X134081428Y-149951523D01*
X134081428Y-149722952D01*
X134043333Y-149646761D01*
X134005238Y-149608666D01*
X133929047Y-149570571D01*
X133776666Y-149570571D01*
X133700476Y-149608666D01*
X133319523Y-150103904D02*
X133319523Y-149570571D01*
X133319523Y-149646761D02*
X133281428Y-149608666D01*
X133205238Y-149570571D01*
X133090952Y-149570571D01*
X133014761Y-149608666D01*
X132976666Y-149684857D01*
X132976666Y-150103904D01*
X132976666Y-149684857D02*
X132938571Y-149608666D01*
X132862380Y-149570571D01*
X132748095Y-149570571D01*
X132671904Y-149608666D01*
X132633809Y-149684857D01*
X132633809Y-150103904D01*
X131948095Y-150065809D02*
X132024285Y-150103904D01*
X132176666Y-150103904D01*
X132252857Y-150065809D01*
X132290952Y-149989619D01*
X132290952Y-149684857D01*
X132252857Y-149608666D01*
X132176666Y-149570571D01*
X132024285Y-149570571D01*
X131948095Y-149608666D01*
X131909999Y-149684857D01*
X131909999Y-149761047D01*
X132290952Y-149837238D01*
X131567142Y-149570571D02*
X131567142Y-150103904D01*
X131567142Y-149646761D02*
X131529047Y-149608666D01*
X131452857Y-149570571D01*
X131338571Y-149570571D01*
X131262380Y-149608666D01*
X131224285Y-149684857D01*
X131224285Y-150103904D01*
X130957619Y-149570571D02*
X130652857Y-149570571D01*
X130843333Y-149303904D02*
X130843333Y-149989619D01*
X130805238Y-150065809D01*
X130729047Y-150103904D01*
X130652857Y-150103904D01*
X129814761Y-150065809D02*
X129700476Y-150103904D01*
X129509999Y-150103904D01*
X129433809Y-150065809D01*
X129395714Y-150027714D01*
X129357619Y-149951523D01*
X129357619Y-149875333D01*
X129395714Y-149799142D01*
X129433809Y-149761047D01*
X129509999Y-149722952D01*
X129662380Y-149684857D01*
X129738571Y-149646761D01*
X129776666Y-149608666D01*
X129814761Y-149532476D01*
X129814761Y-149456285D01*
X129776666Y-149380095D01*
X129738571Y-149342000D01*
X129662380Y-149303904D01*
X129471904Y-149303904D01*
X129357619Y-149342000D01*
X129090952Y-149570571D02*
X128900476Y-150103904D01*
X128709999Y-149570571D02*
X128900476Y-150103904D01*
X128976666Y-150294380D01*
X129014761Y-150332476D01*
X129090952Y-150370571D01*
X128443333Y-150065809D02*
X128367142Y-150103904D01*
X128214761Y-150103904D01*
X128138571Y-150065809D01*
X128100476Y-149989619D01*
X128100476Y-149951523D01*
X128138571Y-149875333D01*
X128214761Y-149837238D01*
X128329047Y-149837238D01*
X128405238Y-149799142D01*
X128443333Y-149722952D01*
X128443333Y-149684857D01*
X128405238Y-149608666D01*
X128329047Y-149570571D01*
X128214761Y-149570571D01*
X128138571Y-149608666D01*
X127871904Y-149570571D02*
X127567142Y-149570571D01*
X127757619Y-149303904D02*
X127757619Y-149989619D01*
X127719523Y-150065809D01*
X127643333Y-150103904D01*
X127567142Y-150103904D01*
X126995714Y-150065809D02*
X127071904Y-150103904D01*
X127224285Y-150103904D01*
X127300476Y-150065809D01*
X127338571Y-149989619D01*
X127338571Y-149684857D01*
X127300476Y-149608666D01*
X127224285Y-149570571D01*
X127071904Y-149570571D01*
X126995714Y-149608666D01*
X126957619Y-149684857D01*
X126957619Y-149761047D01*
X127338571Y-149837238D01*
X126614761Y-150103904D02*
X126614761Y-149570571D01*
X126614761Y-149646761D02*
X126576666Y-149608666D01*
X126500476Y-149570571D01*
X126386190Y-149570571D01*
X126309999Y-149608666D01*
X126271904Y-149684857D01*
X126271904Y-150103904D01*
X126271904Y-149684857D02*
X126233809Y-149608666D01*
X126157619Y-149570571D01*
X126043333Y-149570571D01*
X125967142Y-149608666D01*
X125929047Y-149684857D01*
X125929047Y-150103904D01*
X125548095Y-150027714D02*
X125509999Y-150065809D01*
X125548095Y-150103904D01*
X125586190Y-150065809D01*
X125548095Y-150027714D01*
X125548095Y-150103904D01*
M02*
