%TF.GenerationSoftware,KiCad,Pcbnew,6.0.11+dfsg-1~bpo11+1*%
%TF.CreationDate,2024-02-18T22:16:09-06:00*%
%TF.ProjectId,BTMS,42544d53-2e6b-4696-9361-645f70636258,rev?*%
%TF.SameCoordinates,Original*%
%TF.FileFunction,Paste,Top*%
%TF.FilePolarity,Positive*%
%FSLAX46Y46*%
G04 Gerber Fmt 4.6, Leading zero omitted, Abs format (unit mm)*
G04 Created by KiCad (PCBNEW 6.0.11+dfsg-1~bpo11+1) date 2024-02-18 22:16:09*
%MOMM*%
%LPD*%
G01*
G04 APERTURE LIST*
G04 Aperture macros list*
%AMRoundRect*
0 Rectangle with rounded corners*
0 $1 Rounding radius*
0 $2 $3 $4 $5 $6 $7 $8 $9 X,Y pos of 4 corners*
0 Add a 4 corners polygon primitive as box body*
4,1,4,$2,$3,$4,$5,$6,$7,$8,$9,$2,$3,0*
0 Add four circle primitives for the rounded corners*
1,1,$1+$1,$2,$3*
1,1,$1+$1,$4,$5*
1,1,$1+$1,$6,$7*
1,1,$1+$1,$8,$9*
0 Add four rect primitives between the rounded corners*
20,1,$1+$1,$2,$3,$4,$5,0*
20,1,$1+$1,$4,$5,$6,$7,0*
20,1,$1+$1,$6,$7,$8,$9,0*
20,1,$1+$1,$8,$9,$2,$3,0*%
G04 Aperture macros list end*
%ADD10RoundRect,0.225000X0.250000X-0.225000X0.250000X0.225000X-0.250000X0.225000X-0.250000X-0.225000X0*%
%ADD11RoundRect,0.200000X-0.275000X0.200000X-0.275000X-0.200000X0.275000X-0.200000X0.275000X0.200000X0*%
%ADD12RoundRect,0.200000X0.200000X0.275000X-0.200000X0.275000X-0.200000X-0.275000X0.200000X-0.275000X0*%
%ADD13RoundRect,0.218750X-0.256250X0.218750X-0.256250X-0.218750X0.256250X-0.218750X0.256250X0.218750X0*%
%ADD14RoundRect,0.225000X0.225000X0.250000X-0.225000X0.250000X-0.225000X-0.250000X0.225000X-0.250000X0*%
%ADD15RoundRect,0.200000X0.275000X-0.200000X0.275000X0.200000X-0.275000X0.200000X-0.275000X-0.200000X0*%
%ADD16RoundRect,0.225000X-0.225000X-0.250000X0.225000X-0.250000X0.225000X0.250000X-0.225000X0.250000X0*%
%ADD17RoundRect,0.250000X-0.312500X-0.625000X0.312500X-0.625000X0.312500X0.625000X-0.312500X0.625000X0*%
%ADD18RoundRect,0.218750X0.218750X0.256250X-0.218750X0.256250X-0.218750X-0.256250X0.218750X-0.256250X0*%
%ADD19RoundRect,0.080000X-0.160000X0.080000X-0.160000X-0.080000X0.160000X-0.080000X0.160000X0.080000X0*%
%ADD20RoundRect,0.062500X-0.062500X0.287500X-0.062500X-0.287500X0.062500X-0.287500X0.062500X0.287500X0*%
%ADD21RoundRect,0.150000X-0.150000X0.512500X-0.150000X-0.512500X0.150000X-0.512500X0.150000X0.512500X0*%
%ADD22RoundRect,0.200000X-0.200000X-0.275000X0.200000X-0.275000X0.200000X0.275000X-0.200000X0.275000X0*%
%ADD23R,0.900000X0.900000*%
%ADD24RoundRect,0.218750X0.256250X-0.218750X0.256250X0.218750X-0.256250X0.218750X-0.256250X-0.218750X0*%
%ADD25RoundRect,0.250000X-0.275000X-0.275000X0.275000X-0.275000X0.275000X0.275000X-0.275000X0.275000X0*%
%ADD26RoundRect,0.062500X-0.375000X-0.062500X0.375000X-0.062500X0.375000X0.062500X-0.375000X0.062500X0*%
%ADD27RoundRect,0.062500X-0.062500X-0.375000X0.062500X-0.375000X0.062500X0.375000X-0.062500X0.375000X0*%
%ADD28RoundRect,0.137500X0.662500X0.137500X-0.662500X0.137500X-0.662500X-0.137500X0.662500X-0.137500X0*%
%ADD29RoundRect,0.250000X-0.475000X0.250000X-0.475000X-0.250000X0.475000X-0.250000X0.475000X0.250000X0*%
%ADD30RoundRect,0.167500X-0.312500X0.167500X-0.312500X-0.167500X0.312500X-0.167500X0.312500X0.167500X0*%
%ADD31RoundRect,0.062500X-0.062500X0.362500X-0.062500X-0.362500X0.062500X-0.362500X0.062500X0.362500X0*%
%ADD32RoundRect,0.218750X-0.218750X-0.256250X0.218750X-0.256250X0.218750X0.256250X-0.218750X0.256250X0*%
%ADD33RoundRect,0.300000X0.800000X0.300000X-0.800000X0.300000X-0.800000X-0.300000X0.800000X-0.300000X0*%
%ADD34RoundRect,0.250000X0.250000X0.500000X-0.250000X0.500000X-0.250000X-0.500000X0.250000X-0.500000X0*%
%ADD35RoundRect,0.250000X0.625000X-0.375000X0.625000X0.375000X-0.625000X0.375000X-0.625000X-0.375000X0*%
%ADD36RoundRect,0.167500X0.167500X0.312500X-0.167500X0.312500X-0.167500X-0.312500X0.167500X-0.312500X0*%
%ADD37RoundRect,0.062500X0.362500X0.062500X-0.362500X0.062500X-0.362500X-0.062500X0.362500X-0.062500X0*%
%ADD38R,1.200000X0.900000*%
%ADD39RoundRect,0.150000X0.662500X0.150000X-0.662500X0.150000X-0.662500X-0.150000X0.662500X-0.150000X0*%
%ADD40RoundRect,0.150000X0.587500X0.150000X-0.587500X0.150000X-0.587500X-0.150000X0.587500X-0.150000X0*%
%ADD41RoundRect,0.150000X-0.150000X0.587500X-0.150000X-0.587500X0.150000X-0.587500X0.150000X0.587500X0*%
%ADD42RoundRect,0.250000X0.312500X0.625000X-0.312500X0.625000X-0.312500X-0.625000X0.312500X-0.625000X0*%
%ADD43RoundRect,0.250000X0.475000X-0.250000X0.475000X0.250000X-0.475000X0.250000X-0.475000X-0.250000X0*%
%ADD44RoundRect,0.225000X-0.250000X0.225000X-0.250000X-0.225000X0.250000X-0.225000X0.250000X0.225000X0*%
%ADD45RoundRect,0.250000X0.350000X0.450000X-0.350000X0.450000X-0.350000X-0.450000X0.350000X-0.450000X0*%
%ADD46RoundRect,0.237500X-0.287500X-0.237500X0.287500X-0.237500X0.287500X0.237500X-0.287500X0.237500X0*%
%ADD47RoundRect,0.150000X-0.150000X0.825000X-0.150000X-0.825000X0.150000X-0.825000X0.150000X0.825000X0*%
%ADD48RoundRect,0.250000X-0.270000X-0.270000X0.270000X-0.270000X0.270000X0.270000X-0.270000X0.270000X0*%
%ADD49RoundRect,0.087500X-0.325000X-0.087500X0.325000X-0.087500X0.325000X0.087500X-0.325000X0.087500X0*%
%ADD50RoundRect,0.087500X-0.087500X-0.325000X0.087500X-0.325000X0.087500X0.325000X-0.087500X0.325000X0*%
%ADD51RoundRect,0.167500X0.312500X-0.167500X0.312500X0.167500X-0.312500X0.167500X-0.312500X-0.167500X0*%
%ADD52RoundRect,0.062500X0.062500X-0.362500X0.062500X0.362500X-0.062500X0.362500X-0.062500X-0.362500X0*%
%ADD53RoundRect,0.250000X0.625000X-0.312500X0.625000X0.312500X-0.625000X0.312500X-0.625000X-0.312500X0*%
%ADD54RoundRect,0.150000X0.512500X0.150000X-0.512500X0.150000X-0.512500X-0.150000X0.512500X-0.150000X0*%
%ADD55RoundRect,0.150000X-0.825000X-0.150000X0.825000X-0.150000X0.825000X0.150000X-0.825000X0.150000X0*%
%ADD56RoundRect,0.250000X-0.625000X0.375000X-0.625000X-0.375000X0.625000X-0.375000X0.625000X0.375000X0*%
%ADD57RoundRect,0.250000X0.375000X0.625000X-0.375000X0.625000X-0.375000X-0.625000X0.375000X-0.625000X0*%
%ADD58R,1.200000X1.300000*%
%ADD59R,1.000000X0.950000*%
%ADD60RoundRect,0.212500X0.212500X-0.212500X0.212500X0.212500X-0.212500X0.212500X-0.212500X-0.212500X0*%
%ADD61RoundRect,0.075000X0.075000X-0.350000X0.075000X0.350000X-0.075000X0.350000X-0.075000X-0.350000X0*%
%ADD62RoundRect,0.075000X0.350000X-0.075000X0.350000X0.075000X-0.350000X0.075000X-0.350000X-0.075000X0*%
%ADD63R,3.050000X2.750000*%
%ADD64R,2.200000X1.200000*%
%ADD65R,5.400000X2.900000*%
%ADD66RoundRect,0.150000X0.150000X-0.587500X0.150000X0.587500X-0.150000X0.587500X-0.150000X-0.587500X0*%
%ADD67RoundRect,0.150000X-0.587500X-0.150000X0.587500X-0.150000X0.587500X0.150000X-0.587500X0.150000X0*%
%ADD68RoundRect,0.250000X-0.625000X0.312500X-0.625000X-0.312500X0.625000X-0.312500X0.625000X0.312500X0*%
%ADD69R,1.800000X1.100000*%
%ADD70RoundRect,0.250000X-0.710000X0.415000X-0.710000X-0.415000X0.710000X-0.415000X0.710000X0.415000X0*%
G04 APERTURE END LIST*
D10*
%TO.C,C42*%
X155956000Y-103391000D03*
X155956000Y-101841000D03*
%TD*%
D11*
%TO.C,R11*%
X123808000Y-120109000D03*
X123808000Y-121759000D03*
%TD*%
D12*
%TO.C,R24*%
X131127000Y-112558000D03*
X129477000Y-112558000D03*
%TD*%
D13*
%TO.C,D13*%
X165862000Y-131038500D03*
X165862000Y-132613500D03*
%TD*%
D14*
%TO.C,C10*%
X148181000Y-138648000D03*
X146631000Y-138648000D03*
%TD*%
D15*
%TO.C,R10*%
X114300000Y-120459000D03*
X114300000Y-118809000D03*
%TD*%
D16*
%TO.C,C33*%
X168135000Y-109982000D03*
X169685000Y-109982000D03*
%TD*%
D17*
%TO.C,FB4*%
X121727500Y-97282000D03*
X124652500Y-97282000D03*
%TD*%
D18*
%TO.C,D16*%
X170485000Y-100853000D03*
X168910000Y-100853000D03*
%TD*%
D14*
%TO.C,C20*%
X115329000Y-123364000D03*
X113779000Y-123364000D03*
%TD*%
D19*
%TO.C,U4*%
X150906000Y-135548000D03*
X151506000Y-135548000D03*
X151506000Y-135948000D03*
X150906000Y-135948000D03*
D20*
X151956000Y-134748000D03*
X151456000Y-134748000D03*
X150956000Y-134748000D03*
X150456000Y-134748000D03*
X150456000Y-136748000D03*
X150956000Y-136748000D03*
X151456000Y-136748000D03*
X151956000Y-136748000D03*
%TD*%
D12*
%TO.C,R16*%
X137985000Y-108204000D03*
X136335000Y-108204000D03*
%TD*%
D21*
%TO.C,U15*%
X175702000Y-130180500D03*
X174752000Y-130180500D03*
X173802000Y-130180500D03*
X173802000Y-132455500D03*
X175702000Y-132455500D03*
%TD*%
D22*
%TO.C,R20*%
X136335000Y-111760000D03*
X137985000Y-111760000D03*
%TD*%
D18*
%TO.C,D25*%
X152451000Y-100330000D03*
X150876000Y-100330000D03*
%TD*%
%TO.C,D20*%
X179603500Y-142748000D03*
X178028500Y-142748000D03*
%TD*%
D23*
%TO.C,RN4*%
X178770000Y-112744000D03*
X178770000Y-111404000D03*
X178770000Y-110084000D03*
X178770000Y-108744000D03*
X175770000Y-108744000D03*
X175770000Y-110084000D03*
X175770000Y-111404000D03*
X175770000Y-112744000D03*
%TD*%
D14*
%TO.C,C35*%
X117615000Y-97282000D03*
X116065000Y-97282000D03*
%TD*%
D24*
%TO.C,D11*%
X132080000Y-129057500D03*
X132080000Y-127482500D03*
%TD*%
D25*
%TO.C,U2*%
X128426000Y-134986000D03*
X129726000Y-136286000D03*
X129726000Y-134986000D03*
X128426000Y-136286000D03*
D26*
X127138500Y-134386000D03*
X127138500Y-134886000D03*
X127138500Y-135386000D03*
X127138500Y-135886000D03*
X127138500Y-136386000D03*
X127138500Y-136886000D03*
D27*
X127826000Y-137573500D03*
X128326000Y-137573500D03*
X128826000Y-137573500D03*
X129326000Y-137573500D03*
X129826000Y-137573500D03*
X130326000Y-137573500D03*
D26*
X131013500Y-136886000D03*
X131013500Y-136386000D03*
X131013500Y-135886000D03*
X131013500Y-135386000D03*
X131013500Y-134886000D03*
X131013500Y-134386000D03*
D27*
X130326000Y-133698500D03*
X129826000Y-133698500D03*
X129326000Y-133698500D03*
X128826000Y-133698500D03*
X128326000Y-133698500D03*
X127826000Y-133698500D03*
%TD*%
D16*
%TO.C,C18*%
X120041000Y-123442000D03*
X121591000Y-123442000D03*
%TD*%
%TO.C,C1*%
X146631000Y-135448000D03*
X148181000Y-135448000D03*
%TD*%
D28*
%TO.C,U3*%
X155386000Y-126077000D03*
X155386000Y-124807000D03*
X155386000Y-123537000D03*
X155386000Y-122267000D03*
X155386000Y-120997000D03*
X155386000Y-119727000D03*
X155386000Y-118457000D03*
X155386000Y-117187000D03*
X148886000Y-117187000D03*
X148886000Y-118457000D03*
X148886000Y-119727000D03*
X148886000Y-120997000D03*
X148886000Y-122267000D03*
X148886000Y-123537000D03*
X148886000Y-124807000D03*
X148886000Y-126077000D03*
%TD*%
D29*
%TO.C,C16*%
X113284000Y-130114000D03*
X113284000Y-132014000D03*
%TD*%
D15*
%TO.C,R22*%
X125476000Y-139763000D03*
X125476000Y-138113000D03*
%TD*%
D30*
%TO.C,U11*%
X116559000Y-119924000D03*
X117749000Y-119924000D03*
X117749000Y-120744000D03*
X116559000Y-120744000D03*
D31*
X117904000Y-118884000D03*
X117404000Y-118884000D03*
X116904000Y-118884000D03*
X116404000Y-118884000D03*
X116404000Y-121784000D03*
X116904000Y-121784000D03*
X117404000Y-121784000D03*
X117904000Y-121784000D03*
%TD*%
D32*
%TO.C,D23*%
X150876000Y-98552000D03*
X152451000Y-98552000D03*
%TD*%
D14*
%TO.C,C36*%
X166891000Y-121920000D03*
X165341000Y-121920000D03*
%TD*%
D12*
%TO.C,R18*%
X137985000Y-106426000D03*
X136335000Y-106426000D03*
%TD*%
D11*
%TO.C,R6*%
X119126000Y-140399000D03*
X119126000Y-142049000D03*
%TD*%
D16*
%TO.C,C6*%
X153931000Y-130848000D03*
X155481000Y-130848000D03*
%TD*%
D33*
%TO.C,U5*%
X137088500Y-130786000D03*
D34*
X139160000Y-129292000D03*
D33*
X137160000Y-127786000D03*
%TD*%
D15*
%TO.C,R19*%
X129032000Y-108521000D03*
X129032000Y-106871000D03*
%TD*%
D11*
%TO.C,R23*%
X129794000Y-127445000D03*
X129794000Y-129095000D03*
%TD*%
D16*
%TO.C,C17*%
X175895000Y-119380000D03*
X177445000Y-119380000D03*
%TD*%
%TO.C,C19*%
X175895000Y-117856000D03*
X177445000Y-117856000D03*
%TD*%
D35*
%TO.C,F2*%
X113792000Y-142370000D03*
X113792000Y-139570000D03*
%TD*%
D36*
%TO.C,U16*%
X125960000Y-100509000D03*
X125140000Y-100509000D03*
X125960000Y-101699000D03*
X125140000Y-101699000D03*
D37*
X127000000Y-101854000D03*
X127000000Y-101354000D03*
X127000000Y-100854000D03*
X127000000Y-100354000D03*
X124100000Y-100354000D03*
X124100000Y-100854000D03*
X124100000Y-101354000D03*
X124100000Y-101854000D03*
%TD*%
D10*
%TO.C,C23*%
X114046000Y-127521000D03*
X114046000Y-125971000D03*
%TD*%
D32*
%TO.C,D6*%
X154018500Y-138848000D03*
X155593500Y-138848000D03*
%TD*%
D38*
%TO.C,D17*%
X118932000Y-128650000D03*
X118932000Y-125350000D03*
%TD*%
D39*
%TO.C,U9*%
X127097500Y-129159000D03*
X127097500Y-127889000D03*
X127097500Y-126619000D03*
X127097500Y-125349000D03*
X121822500Y-125349000D03*
X121822500Y-126619000D03*
X121822500Y-127889000D03*
X121822500Y-129159000D03*
%TD*%
D40*
%TO.C,Q7*%
X136319500Y-102768000D03*
X136319500Y-100868000D03*
X134444500Y-101818000D03*
%TD*%
D41*
%TO.C,Q3*%
X175702000Y-134698500D03*
X173802000Y-134698500D03*
X174752000Y-136573500D03*
%TD*%
D14*
%TO.C,C39*%
X162319000Y-116840000D03*
X160769000Y-116840000D03*
%TD*%
D11*
%TO.C,R5*%
X116840000Y-140399000D03*
X116840000Y-142049000D03*
%TD*%
D23*
%TO.C,RN11*%
X148820000Y-103854000D03*
X148820000Y-102514000D03*
X148820000Y-101194000D03*
X148820000Y-99854000D03*
X145820000Y-99854000D03*
X145820000Y-101194000D03*
X145820000Y-102514000D03*
X145820000Y-103854000D03*
%TD*%
D42*
%TO.C,FB2*%
X160466500Y-98298000D03*
X157541500Y-98298000D03*
%TD*%
D12*
%TO.C,R12*%
X181419000Y-127000000D03*
X179769000Y-127000000D03*
%TD*%
D10*
%TO.C,C22*%
X160292000Y-107189000D03*
X160292000Y-105639000D03*
%TD*%
D16*
%TO.C,C3*%
X146631000Y-137048000D03*
X148181000Y-137048000D03*
%TD*%
D32*
%TO.C,D5*%
X127482500Y-131826000D03*
X129057500Y-131826000D03*
%TD*%
D16*
%TO.C,C34*%
X175870000Y-114808000D03*
X177420000Y-114808000D03*
%TD*%
D43*
%TO.C,C25*%
X158242000Y-107564000D03*
X158242000Y-105664000D03*
%TD*%
D16*
%TO.C,C44*%
X130035000Y-97028000D03*
X131585000Y-97028000D03*
%TD*%
D44*
%TO.C,C5*%
X143241000Y-133999000D03*
X143241000Y-135549000D03*
%TD*%
%TO.C,C14*%
X160392000Y-101841000D03*
X160392000Y-103391000D03*
%TD*%
%TO.C,C11*%
X122428000Y-131813000D03*
X122428000Y-133363000D03*
%TD*%
D10*
%TO.C,C28*%
X181356000Y-137935000D03*
X181356000Y-136385000D03*
%TD*%
D45*
%TO.C,R1*%
X145756000Y-117856000D03*
X143756000Y-117856000D03*
%TD*%
D18*
%TO.C,D3*%
X134112000Y-121666000D03*
X132537000Y-121666000D03*
%TD*%
D16*
%TO.C,C41*%
X150888500Y-102108000D03*
X152438500Y-102108000D03*
%TD*%
%TO.C,C4*%
X129527000Y-139192000D03*
X131077000Y-139192000D03*
%TD*%
D32*
%TO.C,D9*%
X184632500Y-121716000D03*
X186207500Y-121716000D03*
%TD*%
D16*
%TO.C,C7*%
X130543000Y-131826000D03*
X132093000Y-131826000D03*
%TD*%
D32*
%TO.C,D10*%
X184632500Y-124916000D03*
X186207500Y-124916000D03*
%TD*%
D16*
%TO.C,C21*%
X175895000Y-116332000D03*
X177445000Y-116332000D03*
%TD*%
D29*
%TO.C,C32*%
X113284000Y-99126000D03*
X113284000Y-101026000D03*
%TD*%
D23*
%TO.C,RN8*%
X140740000Y-105950000D03*
X140740000Y-107290000D03*
X140740000Y-108610000D03*
X140740000Y-109950000D03*
X143740000Y-109950000D03*
X143740000Y-108610000D03*
X143740000Y-107290000D03*
X143740000Y-105950000D03*
%TD*%
D18*
%TO.C,D2*%
X134137500Y-119888000D03*
X132562500Y-119888000D03*
%TD*%
D35*
%TO.C,F1*%
X122428000Y-142370000D03*
X122428000Y-139570000D03*
%TD*%
D22*
%TO.C,R21*%
X158179000Y-119126000D03*
X159829000Y-119126000D03*
%TD*%
D46*
%TO.C,F4*%
X182513000Y-142748000D03*
X184263000Y-142748000D03*
%TD*%
D44*
%TO.C,C29*%
X171168000Y-124267000D03*
X171168000Y-125817000D03*
%TD*%
D16*
%TO.C,C15*%
X175895000Y-120904000D03*
X177445000Y-120904000D03*
%TD*%
D14*
%TO.C,C9*%
X152081000Y-138848000D03*
X150531000Y-138848000D03*
%TD*%
D47*
%TO.C,U7*%
X120523000Y-131614000D03*
X119253000Y-131614000D03*
X117983000Y-131614000D03*
X116713000Y-131614000D03*
X116713000Y-136564000D03*
X117983000Y-136564000D03*
X119253000Y-136564000D03*
X120523000Y-136564000D03*
%TD*%
D11*
%TO.C,R9*%
X167562000Y-130901000D03*
X167562000Y-132551000D03*
%TD*%
D10*
%TO.C,C8*%
X132842000Y-135343000D03*
X132842000Y-133793000D03*
%TD*%
D17*
%TO.C,FB3*%
X173035500Y-138938000D03*
X175960500Y-138938000D03*
%TD*%
D44*
%TO.C,C24*%
X115062000Y-130302000D03*
X115062000Y-131852000D03*
%TD*%
D38*
%TO.C,D26*%
X138938000Y-102234000D03*
X138938000Y-98934000D03*
%TD*%
D22*
%TO.C,R14*%
X129985000Y-100838000D03*
X131635000Y-100838000D03*
%TD*%
D45*
%TO.C,R2*%
X145756000Y-120650000D03*
X143756000Y-120650000D03*
%TD*%
D48*
%TO.C,U17*%
X165190000Y-116342000D03*
X170350000Y-115052000D03*
X169060000Y-118922000D03*
X165190000Y-117632000D03*
X170350000Y-118922000D03*
X167770000Y-117632000D03*
X166480000Y-116342000D03*
X170350000Y-113762000D03*
X169060000Y-113762000D03*
X170350000Y-117632000D03*
X165190000Y-113762000D03*
X167770000Y-113762000D03*
X167770000Y-116342000D03*
X166480000Y-113762000D03*
X169060000Y-115052000D03*
X165190000Y-115052000D03*
X166480000Y-118922000D03*
X169060000Y-116342000D03*
X166480000Y-117632000D03*
X167770000Y-115052000D03*
X166480000Y-115052000D03*
X170350000Y-116342000D03*
X165190000Y-118922000D03*
X169060000Y-117632000D03*
X167770000Y-118922000D03*
D49*
X163832500Y-113092000D03*
X163832500Y-113742000D03*
X163832500Y-114392000D03*
X163832500Y-115042000D03*
X163832500Y-115692000D03*
X163832500Y-116342000D03*
X163832500Y-116992000D03*
X163832500Y-117642000D03*
X163832500Y-118292000D03*
X163832500Y-118942000D03*
X163832500Y-119592000D03*
D50*
X164520000Y-120279500D03*
X165170000Y-120279500D03*
X165820000Y-120279500D03*
X166470000Y-120279500D03*
X167120000Y-120279500D03*
X167770000Y-120279500D03*
X168420000Y-120279500D03*
X169070000Y-120279500D03*
X169720000Y-120279500D03*
X170370000Y-120279500D03*
X171020000Y-120279500D03*
D49*
X171707500Y-119592000D03*
X171707500Y-118942000D03*
X171707500Y-118292000D03*
X171707500Y-117642000D03*
X171707500Y-116992000D03*
X171707500Y-116342000D03*
X171707500Y-115692000D03*
X171707500Y-115042000D03*
X171707500Y-114392000D03*
X171707500Y-113742000D03*
X171707500Y-113092000D03*
D50*
X171020000Y-112404500D03*
X170370000Y-112404500D03*
X169720000Y-112404500D03*
X169070000Y-112404500D03*
X168420000Y-112404500D03*
X167770000Y-112404500D03*
X167120000Y-112404500D03*
X166470000Y-112404500D03*
X165820000Y-112404500D03*
X165170000Y-112404500D03*
X164520000Y-112404500D03*
%TD*%
D12*
%TO.C,R17*%
X137985000Y-109982000D03*
X136335000Y-109982000D03*
%TD*%
D51*
%TO.C,U12*%
X121753000Y-119874000D03*
X121753000Y-120694000D03*
X120563000Y-120694000D03*
X120563000Y-119874000D03*
D52*
X120408000Y-121734000D03*
X120908000Y-121734000D03*
X121408000Y-121734000D03*
X121908000Y-121734000D03*
X121908000Y-118834000D03*
X121408000Y-118834000D03*
X120908000Y-118834000D03*
X120408000Y-118834000D03*
%TD*%
D41*
%TO.C,Q2*%
X171212000Y-130388500D03*
X169312000Y-130388500D03*
X170262000Y-132263500D03*
%TD*%
D18*
%TO.C,D27*%
X170459500Y-97282000D03*
X168884500Y-97282000D03*
%TD*%
D16*
%TO.C,C2*%
X146631000Y-133848000D03*
X148181000Y-133848000D03*
%TD*%
D44*
%TO.C,C38*%
X167968000Y-124267000D03*
X167968000Y-125817000D03*
%TD*%
D23*
%TO.C,RN2*%
X140692000Y-122650000D03*
X140692000Y-121310000D03*
X140692000Y-119990000D03*
X140692000Y-118650000D03*
X137692000Y-118650000D03*
X137692000Y-119990000D03*
X137692000Y-121310000D03*
X137692000Y-122650000D03*
%TD*%
D24*
%TO.C,D19*%
X180340000Y-133629500D03*
X180340000Y-132054500D03*
%TD*%
D40*
%TO.C,U13*%
X128953500Y-120584000D03*
X128953500Y-118684000D03*
X127078500Y-119634000D03*
%TD*%
D14*
%TO.C,C43*%
X175273000Y-140970000D03*
X173723000Y-140970000D03*
%TD*%
D10*
%TO.C,C12*%
X122428000Y-136919000D03*
X122428000Y-135369000D03*
%TD*%
D44*
%TO.C,C13*%
X158242000Y-101841000D03*
X158242000Y-103391000D03*
%TD*%
D53*
%TO.C,FB1*%
X124714000Y-134812500D03*
X124714000Y-131887500D03*
%TD*%
D23*
%TO.C,RN9*%
X158472000Y-113760000D03*
X158472000Y-112420000D03*
X158472000Y-111100000D03*
X158472000Y-109760000D03*
X155472000Y-109760000D03*
X155472000Y-111100000D03*
X155472000Y-112420000D03*
X155472000Y-113760000D03*
%TD*%
D44*
%TO.C,C31*%
X164768000Y-124267000D03*
X164768000Y-125817000D03*
%TD*%
D54*
%TO.C,U14*%
X135757500Y-99248000D03*
X135757500Y-98298000D03*
X135757500Y-97348000D03*
X133482500Y-97348000D03*
X133482500Y-99248000D03*
%TD*%
D55*
%TO.C,U1*%
X135766000Y-132969000D03*
X135766000Y-134239000D03*
X135766000Y-135509000D03*
X135766000Y-136779000D03*
X140716000Y-136779000D03*
X140716000Y-135509000D03*
X140716000Y-134239000D03*
X140716000Y-132969000D03*
%TD*%
D23*
%TO.C,RN1*%
X147606000Y-131548000D03*
X148946000Y-131548000D03*
X150266000Y-131548000D03*
X151606000Y-131548000D03*
X151606000Y-128548000D03*
X150266000Y-128548000D03*
X148946000Y-128548000D03*
X147606000Y-128548000D03*
%TD*%
D56*
%TO.C,F5*%
X178054000Y-135760000D03*
X178054000Y-138560000D03*
%TD*%
D32*
%TO.C,D8*%
X184632500Y-118516000D03*
X186207500Y-118516000D03*
%TD*%
D44*
%TO.C,C30*%
X166368000Y-124267000D03*
X166368000Y-125817000D03*
%TD*%
D38*
%TO.C,D14*%
X166624000Y-137540000D03*
X166624000Y-134240000D03*
%TD*%
D22*
%TO.C,R26*%
X131001000Y-114300000D03*
X132651000Y-114300000D03*
%TD*%
D23*
%TO.C,RN5*%
X160734000Y-124936000D03*
X160734000Y-123596000D03*
X160734000Y-122276000D03*
X160734000Y-120936000D03*
X157734000Y-120936000D03*
X157734000Y-122276000D03*
X157734000Y-123596000D03*
X157734000Y-124936000D03*
%TD*%
D57*
%TO.C,F3*%
X138814000Y-139446000D03*
X136014000Y-139446000D03*
%TD*%
D58*
%TO.C,D22*%
X119148000Y-99938000D03*
X117348000Y-101738000D03*
X119148000Y-101738000D03*
X115548000Y-101738000D03*
X115548000Y-99938000D03*
X117348000Y-99938000D03*
D59*
X121698000Y-99868000D03*
X121698000Y-101808000D03*
%TD*%
D44*
%TO.C,C27*%
X169568000Y-124267000D03*
X169568000Y-125817000D03*
%TD*%
D14*
%TO.C,C40*%
X135890000Y-104648000D03*
X134340000Y-104648000D03*
%TD*%
D60*
%TO.C,U18*%
X132183000Y-107665000D03*
X133233000Y-108715000D03*
X132183000Y-108715000D03*
X133233000Y-107665000D03*
D61*
X131733000Y-110140000D03*
X132383000Y-110140000D03*
X133033000Y-110140000D03*
X133683000Y-110140000D03*
D62*
X134658000Y-109165000D03*
X134658000Y-108515000D03*
X134658000Y-107865000D03*
X134658000Y-107215000D03*
D61*
X133683000Y-106240000D03*
X133033000Y-106240000D03*
X132383000Y-106240000D03*
X131733000Y-106240000D03*
D62*
X130758000Y-107215000D03*
X130758000Y-107865000D03*
X130758000Y-108515000D03*
X130758000Y-109165000D03*
%TD*%
D28*
%TO.C,U8*%
X153110000Y-114935000D03*
X153110000Y-113665000D03*
X153110000Y-112395000D03*
X153110000Y-111125000D03*
X153110000Y-109855000D03*
X153110000Y-108585000D03*
X153110000Y-107315000D03*
X153110000Y-106045000D03*
X146610000Y-106045000D03*
X146610000Y-107315000D03*
X146610000Y-108585000D03*
X146610000Y-109855000D03*
X146610000Y-111125000D03*
X146610000Y-112395000D03*
X146610000Y-113665000D03*
X146610000Y-114935000D03*
%TD*%
D11*
%TO.C,R15*%
X177800000Y-132271000D03*
X177800000Y-133921000D03*
%TD*%
D18*
%TO.C,D1*%
X134137500Y-118110000D03*
X132562500Y-118110000D03*
%TD*%
D45*
%TO.C,R4*%
X145756000Y-126238000D03*
X143756000Y-126238000D03*
%TD*%
D63*
%TO.C,U10*%
X170907000Y-103885000D03*
X167557000Y-106935000D03*
X167557000Y-103885000D03*
X170907000Y-106935000D03*
D64*
X162932000Y-103130000D03*
X162932000Y-107690000D03*
%TD*%
D65*
%TO.C,L1*%
X120116000Y-115174000D03*
X120116000Y-105274000D03*
%TD*%
D11*
%TO.C,R8*%
X132842000Y-136843000D03*
X132842000Y-138493000D03*
%TD*%
D23*
%TO.C,RN7*%
X143740000Y-115792000D03*
X143740000Y-114452000D03*
X143740000Y-113132000D03*
X143740000Y-111792000D03*
X140740000Y-111792000D03*
X140740000Y-113132000D03*
X140740000Y-114452000D03*
X140740000Y-115792000D03*
%TD*%
D66*
%TO.C,Q8*%
X163134000Y-100505500D03*
X165034000Y-100505500D03*
X164084000Y-98630500D03*
%TD*%
D15*
%TO.C,R25*%
X180594000Y-113093000D03*
X180594000Y-111443000D03*
%TD*%
D23*
%TO.C,RN3*%
X154006000Y-132848000D03*
X154006000Y-134188000D03*
X154006000Y-135508000D03*
X154006000Y-136848000D03*
X157006000Y-136848000D03*
X157006000Y-135508000D03*
X157006000Y-134188000D03*
X157006000Y-132848000D03*
%TD*%
D32*
%TO.C,D7*%
X184632500Y-115316000D03*
X186207500Y-115316000D03*
%TD*%
D12*
%TO.C,R13*%
X181419000Y-128778000D03*
X179769000Y-128778000D03*
%TD*%
D14*
%TO.C,C26*%
X128273000Y-122258000D03*
X126723000Y-122258000D03*
%TD*%
D18*
%TO.C,D12*%
X134391500Y-112558000D03*
X132816500Y-112558000D03*
%TD*%
D67*
%TO.C,Q5*%
X130126500Y-102646000D03*
X130126500Y-104546000D03*
X132001500Y-103596000D03*
%TD*%
D23*
%TO.C,RN10*%
X176506000Y-127042000D03*
X176506000Y-125702000D03*
X176506000Y-124382000D03*
X176506000Y-123042000D03*
X173506000Y-123042000D03*
X173506000Y-124382000D03*
X173506000Y-125702000D03*
X173506000Y-127042000D03*
%TD*%
D13*
%TO.C,D21*%
X163068000Y-124254500D03*
X163068000Y-125829500D03*
%TD*%
D40*
%TO.C,Q6*%
X143431500Y-103835000D03*
X143431500Y-101935000D03*
X141556500Y-102885000D03*
%TD*%
%TO.C,Q1*%
X143397500Y-130236000D03*
X143397500Y-128336000D03*
X141522500Y-129286000D03*
%TD*%
D18*
%TO.C,D15*%
X170459500Y-99060000D03*
X168884500Y-99060000D03*
%TD*%
%TO.C,D4*%
X134137500Y-123444000D03*
X132562500Y-123444000D03*
%TD*%
D68*
%TO.C,R7*%
X113792000Y-134427500D03*
X113792000Y-137352500D03*
%TD*%
D45*
%TO.C,R3*%
X145756000Y-123444000D03*
X143756000Y-123444000D03*
%TD*%
D69*
%TO.C,SW1*%
X181154000Y-106244000D03*
X174954000Y-106244000D03*
X174954000Y-102544000D03*
X181154000Y-102544000D03*
%TD*%
D10*
%TO.C,C37*%
X173228000Y-116717000D03*
X173228000Y-115167000D03*
%TD*%
D40*
%TO.C,Q4*%
X143431500Y-100010000D03*
X143431500Y-98110000D03*
X141556500Y-99060000D03*
%TD*%
D38*
%TO.C,D18*%
X116332000Y-128650000D03*
X116332000Y-125350000D03*
%TD*%
D70*
%TO.C,U6*%
X169926000Y-137160000D03*
D31*
X170676000Y-135710000D03*
X170176000Y-135710000D03*
X169676000Y-135710000D03*
X169176000Y-135710000D03*
X169176000Y-138610000D03*
X169676000Y-138610000D03*
X170176000Y-138610000D03*
X170676000Y-138610000D03*
%TD*%
D18*
%TO.C,D24*%
X152451000Y-103886000D03*
X150876000Y-103886000D03*
%TD*%
G36*
X171646121Y-139212002D02*
G01*
X171692614Y-139265658D01*
X171704000Y-139318000D01*
X171704000Y-143384000D01*
X171683998Y-143452121D01*
X171630342Y-143498614D01*
X171578000Y-143510000D01*
X171322000Y-143510000D01*
X171253879Y-143489998D01*
X171207386Y-143436342D01*
X171196000Y-143384000D01*
X171196000Y-139318000D01*
X171216002Y-139249879D01*
X171269658Y-139203386D01*
X171322000Y-139192000D01*
X171578000Y-139192000D01*
X171646121Y-139212002D01*
G37*
G36*
X134562121Y-135402002D02*
G01*
X134608614Y-135455658D01*
X134620000Y-135508000D01*
X134620000Y-137395885D01*
X134624475Y-137411124D01*
X134625865Y-137412329D01*
X134633548Y-137414000D01*
X135002000Y-137414000D01*
X135070121Y-137434002D01*
X135116614Y-137487658D01*
X135128000Y-137540000D01*
X135128000Y-140336000D01*
X135107998Y-140404121D01*
X135054342Y-140450614D01*
X135002000Y-140462000D01*
X134238000Y-140462000D01*
X134169879Y-140441998D01*
X134123386Y-140388342D01*
X134112000Y-140336000D01*
X134112000Y-135508000D01*
X134132002Y-135439879D01*
X134185658Y-135393386D01*
X134238000Y-135382000D01*
X134494000Y-135382000D01*
X134562121Y-135402002D01*
G37*
G36*
X170122121Y-139212002D02*
G01*
X170168614Y-139265658D01*
X170180000Y-139318000D01*
X170180000Y-143384000D01*
X170159998Y-143452121D01*
X170106342Y-143498614D01*
X170054000Y-143510000D01*
X169798000Y-143510000D01*
X169729879Y-143489998D01*
X169683386Y-143436342D01*
X169672000Y-143384000D01*
X169672000Y-139318000D01*
X169692002Y-139249879D01*
X169745658Y-139203386D01*
X169798000Y-139192000D01*
X170054000Y-139192000D01*
X170122121Y-139212002D01*
G37*
G36*
X140404121Y-138196002D02*
G01*
X140450614Y-138249658D01*
X140462000Y-138302000D01*
X140462000Y-143638000D01*
X140441998Y-143706121D01*
X140388342Y-143752614D01*
X140336000Y-143764000D01*
X139826000Y-143764000D01*
X139757879Y-143743998D01*
X139711386Y-143690342D01*
X139700000Y-143638000D01*
X139700000Y-138302000D01*
X139720002Y-138233879D01*
X139773658Y-138187386D01*
X139826000Y-138176000D01*
X140336000Y-138176000D01*
X140404121Y-138196002D01*
G37*
G36*
X125926121Y-102890002D02*
G01*
X125972614Y-102943658D01*
X125984000Y-102996000D01*
X125984000Y-106554000D01*
X125963998Y-106622121D01*
X125910342Y-106668614D01*
X125858000Y-106680000D01*
X125602000Y-106680000D01*
X125533879Y-106659998D01*
X125487386Y-106606342D01*
X125476000Y-106554000D01*
X125476000Y-103396115D01*
X125471525Y-103380876D01*
X125470135Y-103379671D01*
X125462452Y-103378000D01*
X125348000Y-103378000D01*
X125279879Y-103357998D01*
X125233386Y-103304342D01*
X125222000Y-103252000D01*
X125222000Y-102996000D01*
X125242002Y-102927879D01*
X125295658Y-102881386D01*
X125348000Y-102870000D01*
X125858000Y-102870000D01*
X125926121Y-102890002D01*
G37*
G36*
X129228121Y-96286002D02*
G01*
X129274614Y-96339658D01*
X129286000Y-96392000D01*
X129286000Y-96648000D01*
X129265998Y-96716121D01*
X129212342Y-96762614D01*
X129160000Y-96774000D01*
X125602000Y-96774000D01*
X125533879Y-96753998D01*
X125487386Y-96700342D01*
X125476000Y-96648000D01*
X125476000Y-96392000D01*
X125496002Y-96323879D01*
X125549658Y-96277386D01*
X125602000Y-96266000D01*
X129160000Y-96266000D01*
X129228121Y-96286002D01*
G37*
G36*
X125672121Y-135910002D02*
G01*
X125718614Y-135963658D01*
X125730000Y-136016000D01*
X125730000Y-136526000D01*
X125709998Y-136594121D01*
X125656342Y-136640614D01*
X125604000Y-136652000D01*
X124224115Y-136652000D01*
X124208876Y-136656475D01*
X124207671Y-136657865D01*
X124206000Y-136665548D01*
X124206000Y-138304000D01*
X124185998Y-138372121D01*
X124132342Y-138418614D01*
X124080000Y-138430000D01*
X122533862Y-138430000D01*
X122465741Y-138409998D01*
X122419248Y-138356342D01*
X122409144Y-138286068D01*
X122438638Y-138221488D01*
X122484228Y-138188188D01*
X123681348Y-137675136D01*
X123692973Y-137665533D01*
X123698000Y-137649128D01*
X123698000Y-136016000D01*
X123718002Y-135947879D01*
X123771658Y-135901386D01*
X123824000Y-135890000D01*
X125604000Y-135890000D01*
X125672121Y-135910002D01*
G37*
G36*
X125164121Y-102890002D02*
G01*
X125210614Y-102943658D01*
X125222000Y-102996000D01*
X125222000Y-103252000D01*
X125201998Y-103320121D01*
X125148342Y-103366614D01*
X125096000Y-103378000D01*
X124986115Y-103378000D01*
X124970876Y-103382475D01*
X124969671Y-103383865D01*
X124968000Y-103391548D01*
X124968000Y-106554000D01*
X124947998Y-106622121D01*
X124894342Y-106668614D01*
X124842000Y-106680000D01*
X124586000Y-106680000D01*
X124517879Y-106659998D01*
X124471386Y-106606342D01*
X124460000Y-106554000D01*
X124460000Y-103396115D01*
X124455525Y-103380876D01*
X124454135Y-103379671D01*
X124446452Y-103378000D01*
X124332000Y-103378000D01*
X124263879Y-103357998D01*
X124217386Y-103304342D01*
X124206000Y-103252000D01*
X124206000Y-102996000D01*
X124226002Y-102927879D01*
X124279658Y-102881386D01*
X124332000Y-102870000D01*
X125096000Y-102870000D01*
X125164121Y-102890002D01*
G37*
G36*
X125926121Y-102890002D02*
G01*
X125972614Y-102943658D01*
X125984000Y-102996000D01*
X125984000Y-103506000D01*
X125963998Y-103574121D01*
X125910342Y-103620614D01*
X125858000Y-103632000D01*
X125602000Y-103632000D01*
X125533879Y-103611998D01*
X125487386Y-103558342D01*
X125476000Y-103506000D01*
X125476000Y-103396115D01*
X125471525Y-103380876D01*
X125470135Y-103379671D01*
X125462452Y-103378000D01*
X120268000Y-103378000D01*
X120199879Y-103357998D01*
X120153386Y-103304342D01*
X120142000Y-103252000D01*
X120142000Y-102996000D01*
X120162002Y-102927879D01*
X120215658Y-102881386D01*
X120268000Y-102870000D01*
X125858000Y-102870000D01*
X125926121Y-102890002D01*
G37*
G36*
X120846121Y-99334002D02*
G01*
X120892614Y-99387658D01*
X120904000Y-99440000D01*
X120904000Y-102851885D01*
X120908475Y-102867124D01*
X120909865Y-102868329D01*
X120917548Y-102870000D01*
X121032000Y-102870000D01*
X121100121Y-102890002D01*
X121146614Y-102943658D01*
X121158000Y-102996000D01*
X121158000Y-103252000D01*
X121137998Y-103320121D01*
X121084342Y-103366614D01*
X121032000Y-103378000D01*
X120522000Y-103378000D01*
X120453879Y-103357998D01*
X120407386Y-103304342D01*
X120396000Y-103252000D01*
X120396000Y-102996000D01*
X120416002Y-102927879D01*
X120469658Y-102881386D01*
X120522000Y-102870000D01*
X120631885Y-102870000D01*
X120647124Y-102865525D01*
X120648329Y-102864135D01*
X120650000Y-102856452D01*
X120650000Y-99440000D01*
X120670002Y-99371879D01*
X120723658Y-99325386D01*
X120776000Y-99314000D01*
X120778000Y-99314000D01*
X120846121Y-99334002D01*
G37*
G36*
X129228121Y-97302002D02*
G01*
X129274614Y-97355658D01*
X129286000Y-97408000D01*
X129286000Y-97664000D01*
X129265998Y-97732121D01*
X129212342Y-97778614D01*
X129160000Y-97790000D01*
X125602000Y-97790000D01*
X125533879Y-97769998D01*
X125487386Y-97716342D01*
X125476000Y-97664000D01*
X125476000Y-97408000D01*
X125496002Y-97339879D01*
X125549658Y-97293386D01*
X125602000Y-97282000D01*
X129160000Y-97282000D01*
X129228121Y-97302002D01*
G37*
G36*
X141420121Y-124734002D02*
G01*
X141466614Y-124787658D01*
X141478000Y-124840000D01*
X141478000Y-125350000D01*
X141457998Y-125418121D01*
X141404342Y-125464614D01*
X141352000Y-125476000D01*
X135254000Y-125476000D01*
X135185879Y-125455998D01*
X135139386Y-125402342D01*
X135128000Y-125350000D01*
X135128000Y-124840000D01*
X135148002Y-124771879D01*
X135201658Y-124725386D01*
X135254000Y-124714000D01*
X141352000Y-124714000D01*
X141420121Y-124734002D01*
G37*
G36*
X128466121Y-100858002D02*
G01*
X128512614Y-100911658D01*
X128524000Y-100964000D01*
X128524000Y-105792000D01*
X128503998Y-105860121D01*
X128450342Y-105906614D01*
X128398000Y-105918000D01*
X128142000Y-105918000D01*
X128073879Y-105897998D01*
X128027386Y-105844342D01*
X128016000Y-105792000D01*
X128016000Y-100964000D01*
X128036002Y-100895879D01*
X128089658Y-100849386D01*
X128142000Y-100838000D01*
X128398000Y-100838000D01*
X128466121Y-100858002D01*
G37*
G36*
X129482121Y-142260002D02*
G01*
X129528614Y-142313658D01*
X129540000Y-142366000D01*
X129540000Y-142622000D01*
X129519998Y-142690121D01*
X129466342Y-142736614D01*
X129414000Y-142748000D01*
X123824000Y-142748000D01*
X123755879Y-142727998D01*
X123709386Y-142674342D01*
X123698000Y-142622000D01*
X123698000Y-142366000D01*
X123718002Y-142297879D01*
X123771658Y-142251386D01*
X123824000Y-142240000D01*
X129414000Y-142240000D01*
X129482121Y-142260002D01*
G37*
G36*
X141420121Y-126004002D02*
G01*
X141466614Y-126057658D01*
X141478000Y-126110000D01*
X141478000Y-126620000D01*
X141457998Y-126688121D01*
X141404342Y-126734614D01*
X141352000Y-126746000D01*
X135254000Y-126746000D01*
X135185879Y-126725998D01*
X135139386Y-126672342D01*
X135128000Y-126620000D01*
X135128000Y-126110000D01*
X135148002Y-126041879D01*
X135201658Y-125995386D01*
X135254000Y-125984000D01*
X141352000Y-125984000D01*
X141420121Y-126004002D01*
G37*
G36*
X118179121Y-129560002D02*
G01*
X118225614Y-129613658D01*
X118237000Y-129666000D01*
X118237000Y-130430000D01*
X118216998Y-130498121D01*
X118163342Y-130544614D01*
X118111000Y-130556000D01*
X115950000Y-130556000D01*
X115881879Y-130535998D01*
X115835386Y-130482342D01*
X115824000Y-130430000D01*
X115824000Y-129812115D01*
X115819525Y-129796876D01*
X115818135Y-129795671D01*
X115810452Y-129794000D01*
X114680000Y-129794000D01*
X114611879Y-129773998D01*
X114565386Y-129720342D01*
X114554000Y-129668000D01*
X114554000Y-129666000D01*
X114574002Y-129597879D01*
X114627658Y-129551386D01*
X114680000Y-129540000D01*
X118111000Y-129540000D01*
X118179121Y-129560002D01*
G37*
G36*
X129482121Y-143276002D02*
G01*
X129528614Y-143329658D01*
X129540000Y-143382000D01*
X129540000Y-143638000D01*
X129519998Y-143706121D01*
X129466342Y-143752614D01*
X129414000Y-143764000D01*
X124078000Y-143764000D01*
X124009879Y-143743998D01*
X123963386Y-143690342D01*
X123952000Y-143638000D01*
X123952000Y-143382000D01*
X123972002Y-143313879D01*
X124025658Y-143267386D01*
X124078000Y-143256000D01*
X129414000Y-143256000D01*
X129482121Y-143276002D01*
G37*
G36*
X120846121Y-97556002D02*
G01*
X120892614Y-97609658D01*
X120904000Y-97662000D01*
X120904000Y-97918000D01*
X120883998Y-97986121D01*
X120830342Y-98032614D01*
X120778000Y-98044000D01*
X118490000Y-98044000D01*
X118421879Y-98023998D01*
X118375386Y-97970342D01*
X118364000Y-97918000D01*
X118364000Y-97662000D01*
X118384002Y-97593879D01*
X118437658Y-97547386D01*
X118490000Y-97536000D01*
X120778000Y-97536000D01*
X120846121Y-97556002D01*
G37*
G36*
X123132121Y-99334002D02*
G01*
X123178614Y-99387658D01*
X123190000Y-99440000D01*
X123190000Y-102851885D01*
X123194475Y-102867124D01*
X123195865Y-102868329D01*
X123203548Y-102870000D01*
X123318000Y-102870000D01*
X123386121Y-102890002D01*
X123432614Y-102943658D01*
X123444000Y-102996000D01*
X123444000Y-103252000D01*
X123423998Y-103320121D01*
X123370342Y-103366614D01*
X123318000Y-103378000D01*
X122554000Y-103378000D01*
X122485879Y-103357998D01*
X122439386Y-103304342D01*
X122428000Y-103252000D01*
X122428000Y-102996000D01*
X122448002Y-102927879D01*
X122501658Y-102881386D01*
X122554000Y-102870000D01*
X122663885Y-102870000D01*
X122679124Y-102865525D01*
X122680329Y-102864135D01*
X122682000Y-102856452D01*
X122682000Y-99440000D01*
X122702002Y-99371879D01*
X122755658Y-99325386D01*
X122808000Y-99314000D01*
X123064000Y-99314000D01*
X123132121Y-99334002D01*
G37*
G36*
X120846121Y-96540002D02*
G01*
X120892614Y-96593658D01*
X120904000Y-96646000D01*
X120904000Y-96902000D01*
X120883998Y-96970121D01*
X120830342Y-97016614D01*
X120778000Y-97028000D01*
X118490000Y-97028000D01*
X118421879Y-97007998D01*
X118375386Y-96954342D01*
X118364000Y-96902000D01*
X118364000Y-96646000D01*
X118384002Y-96577879D01*
X118437658Y-96531386D01*
X118490000Y-96520000D01*
X120778000Y-96520000D01*
X120846121Y-96540002D01*
G37*
G36*
X130498121Y-98318002D02*
G01*
X130544614Y-98371658D01*
X130556000Y-98424000D01*
X130556000Y-98680000D01*
X130535998Y-98748121D01*
X130482342Y-98794614D01*
X130430000Y-98806000D01*
X126544190Y-98806000D01*
X126476069Y-98785998D01*
X126455095Y-98769095D01*
X126250812Y-98564812D01*
X126227350Y-98552000D01*
X123570000Y-98552000D01*
X123501879Y-98531998D01*
X123455386Y-98478342D01*
X123444000Y-98426000D01*
X123444000Y-98424000D01*
X123464002Y-98355879D01*
X123517658Y-98309386D01*
X123570000Y-98298000D01*
X130430000Y-98298000D01*
X130498121Y-98318002D01*
G37*
G36*
X124148121Y-102890002D02*
G01*
X124194614Y-102943658D01*
X124206000Y-102996000D01*
X124206000Y-103252000D01*
X124185998Y-103320121D01*
X124132342Y-103366614D01*
X124080000Y-103378000D01*
X123970115Y-103378000D01*
X123954876Y-103382475D01*
X123953671Y-103383865D01*
X123952000Y-103391548D01*
X123952000Y-106554000D01*
X123931998Y-106622121D01*
X123878342Y-106668614D01*
X123826000Y-106680000D01*
X123570000Y-106680000D01*
X123501879Y-106659998D01*
X123455386Y-106606342D01*
X123444000Y-106554000D01*
X123444000Y-103396115D01*
X123439525Y-103380876D01*
X123438135Y-103379671D01*
X123430452Y-103378000D01*
X123316000Y-103378000D01*
X123247879Y-103357998D01*
X123201386Y-103304342D01*
X123190000Y-103252000D01*
X123190000Y-102996000D01*
X123210002Y-102927879D01*
X123263658Y-102881386D01*
X123316000Y-102870000D01*
X124080000Y-102870000D01*
X124148121Y-102890002D01*
G37*
G36*
X172662121Y-134640002D02*
G01*
X172708614Y-134693658D01*
X172720000Y-134746000D01*
X172720000Y-135002000D01*
X172699998Y-135070121D01*
X172646342Y-135116614D01*
X172594000Y-135128000D01*
X169798000Y-135128000D01*
X169729879Y-135107998D01*
X169683386Y-135054342D01*
X169672000Y-135002000D01*
X169672000Y-134892115D01*
X169667525Y-134876876D01*
X169666135Y-134875671D01*
X169658452Y-134874000D01*
X168274000Y-134874000D01*
X168205879Y-134853998D01*
X168159386Y-134800342D01*
X168148000Y-134748000D01*
X168148000Y-134746000D01*
X168168002Y-134677879D01*
X168221658Y-134631386D01*
X168274000Y-134620000D01*
X172594000Y-134620000D01*
X172662121Y-134640002D01*
G37*
G36*
X168598121Y-136672002D02*
G01*
X168644614Y-136725658D01*
X168656000Y-136778000D01*
X168656000Y-146178000D01*
X168635998Y-146246121D01*
X168582342Y-146292614D01*
X168530000Y-146304000D01*
X168274000Y-146304000D01*
X168205879Y-146283998D01*
X168159386Y-146230342D01*
X168148000Y-146178000D01*
X168148000Y-136778000D01*
X168168002Y-136709879D01*
X168221658Y-136663386D01*
X168274000Y-136652000D01*
X168530000Y-136652000D01*
X168598121Y-136672002D01*
G37*
G36*
X127450121Y-102382002D02*
G01*
X127496614Y-102435658D01*
X127508000Y-102488000D01*
X127508000Y-107316000D01*
X127487998Y-107384121D01*
X127434342Y-107430614D01*
X127382000Y-107442000D01*
X127126000Y-107442000D01*
X127057879Y-107421998D01*
X127011386Y-107368342D01*
X127000000Y-107316000D01*
X127000000Y-102488000D01*
X127020002Y-102419879D01*
X127073658Y-102373386D01*
X127126000Y-102362000D01*
X127382000Y-102362000D01*
X127450121Y-102382002D01*
G37*
G36*
X129482121Y-141244002D02*
G01*
X129528614Y-141297658D01*
X129540000Y-141350000D01*
X129540000Y-141606000D01*
X129519998Y-141674121D01*
X129466342Y-141720614D01*
X129414000Y-141732000D01*
X123824000Y-141732000D01*
X123755879Y-141711998D01*
X123709386Y-141658342D01*
X123698000Y-141606000D01*
X123698000Y-141350000D01*
X123718002Y-141281879D01*
X123771658Y-141235386D01*
X123824000Y-141224000D01*
X129414000Y-141224000D01*
X129482121Y-141244002D01*
G37*
G36*
X122116121Y-117876002D02*
G01*
X122162614Y-117929658D01*
X122174000Y-117982000D01*
X122174000Y-118238000D01*
X122153998Y-118306121D01*
X122100342Y-118352614D01*
X122048000Y-118364000D01*
X117220000Y-118364000D01*
X117151879Y-118343998D01*
X117105386Y-118290342D01*
X117094000Y-118238000D01*
X117094000Y-117982000D01*
X117114002Y-117913879D01*
X117167658Y-117867386D01*
X117220000Y-117856000D01*
X122048000Y-117856000D01*
X122116121Y-117876002D01*
G37*
G36*
X172662121Y-133878002D02*
G01*
X172708614Y-133931658D01*
X172720000Y-133984000D01*
X172720000Y-134240000D01*
X172699998Y-134308121D01*
X172646342Y-134354614D01*
X172594000Y-134366000D01*
X168274000Y-134366000D01*
X168205879Y-134345998D01*
X168159386Y-134292342D01*
X168148000Y-134240000D01*
X168148000Y-133984000D01*
X168168002Y-133915879D01*
X168221658Y-133869386D01*
X168274000Y-133858000D01*
X172594000Y-133858000D01*
X172662121Y-133878002D01*
G37*
G36*
X139134121Y-140736002D02*
G01*
X139180614Y-140789658D01*
X139192000Y-140842000D01*
X139192000Y-143638000D01*
X139171998Y-143706121D01*
X139118342Y-143752614D01*
X139066000Y-143764000D01*
X138556000Y-143764000D01*
X138487879Y-143743998D01*
X138441386Y-143690342D01*
X138430000Y-143638000D01*
X138430000Y-140842000D01*
X138450002Y-140773879D01*
X138503658Y-140727386D01*
X138556000Y-140716000D01*
X139066000Y-140716000D01*
X139134121Y-140736002D01*
G37*
G36*
X134816121Y-130068002D02*
G01*
X134862614Y-130121658D01*
X134874000Y-130174000D01*
X134874000Y-131954000D01*
X134853998Y-132022121D01*
X134800342Y-132068614D01*
X134748000Y-132080000D01*
X134638115Y-132080000D01*
X134622876Y-132084475D01*
X134621671Y-132085865D01*
X134620000Y-132093548D01*
X134620000Y-133986000D01*
X134599998Y-134054121D01*
X134546342Y-134100614D01*
X134494000Y-134112000D01*
X134238000Y-134112000D01*
X134169879Y-134091998D01*
X134123386Y-134038342D01*
X134112000Y-133986000D01*
X134112000Y-130174000D01*
X134132002Y-130105879D01*
X134185658Y-130059386D01*
X134238000Y-130048000D01*
X134748000Y-130048000D01*
X134816121Y-130068002D01*
G37*
G36*
X125418121Y-130322002D02*
G01*
X125464614Y-130375658D01*
X125476000Y-130428000D01*
X125476000Y-130938000D01*
X125455998Y-131006121D01*
X125402342Y-131052614D01*
X125350000Y-131064000D01*
X122334462Y-131064000D01*
X122271948Y-131047399D01*
X121426277Y-130564158D01*
X121395556Y-130556000D01*
X119252000Y-130556000D01*
X119183879Y-130535998D01*
X119137386Y-130482342D01*
X119126000Y-130430000D01*
X119126000Y-130428000D01*
X119146002Y-130359879D01*
X119199658Y-130313386D01*
X119252000Y-130302000D01*
X125350000Y-130302000D01*
X125418121Y-130322002D01*
G37*
G36*
X122370121Y-117114002D02*
G01*
X122416614Y-117167658D01*
X122428000Y-117220000D01*
X122428000Y-117476000D01*
X122407998Y-117544121D01*
X122354342Y-117590614D01*
X122302000Y-117602000D01*
X117220000Y-117602000D01*
X117151879Y-117581998D01*
X117105386Y-117528342D01*
X117094000Y-117476000D01*
X117094000Y-117220000D01*
X117114002Y-117151879D01*
X117167658Y-117105386D01*
X117220000Y-117094000D01*
X122302000Y-117094000D01*
X122370121Y-117114002D01*
G37*
M02*
