%TF.GenerationSoftware,KiCad,Pcbnew,6.0.11+dfsg-1~bpo11+1*%
%TF.CreationDate,2024-02-19T16:01:41-06:00*%
%TF.ProjectId,BTMS,42544d53-2e6b-4696-9361-645f70636258,rev?*%
%TF.SameCoordinates,Original*%
%TF.FileFunction,Paste,Bot*%
%TF.FilePolarity,Positive*%
%FSLAX46Y46*%
G04 Gerber Fmt 4.6, Leading zero omitted, Abs format (unit mm)*
G04 Created by KiCad (PCBNEW 6.0.11+dfsg-1~bpo11+1) date 2024-02-19 16:01:41*
%MOMM*%
%LPD*%
G01*
G04 APERTURE LIST*
G04 APERTURE END LIST*
G36*
X159024229Y-136418002D02*
G01*
X159068806Y-136467651D01*
X159196806Y-136723651D01*
X159209380Y-136793525D01*
X159182181Y-136859105D01*
X159123845Y-136899570D01*
X159084108Y-136906000D01*
X159022115Y-136906000D01*
X159008584Y-136909973D01*
X159008066Y-136913579D01*
X159008528Y-136915056D01*
X159503899Y-137905798D01*
X159515535Y-137918307D01*
X159528984Y-137922000D01*
X169907885Y-137922000D01*
X169923124Y-137917525D01*
X169924329Y-137916135D01*
X169926000Y-137908452D01*
X169926000Y-137794000D01*
X169946002Y-137725879D01*
X169999658Y-137679386D01*
X170052000Y-137668000D01*
X170308000Y-137668000D01*
X170376121Y-137688002D01*
X170422614Y-137741658D01*
X170434000Y-137794000D01*
X170434000Y-138304000D01*
X170413998Y-138372121D01*
X170360342Y-138418614D01*
X170308000Y-138430000D01*
X158837318Y-138430000D01*
X158769197Y-138409998D01*
X158722704Y-138356342D01*
X158719341Y-138348242D01*
X158280110Y-137176961D01*
X158270570Y-137164264D01*
X158259077Y-137160000D01*
X158089796Y-137160000D01*
X158021675Y-137139998D01*
X157975182Y-137086342D01*
X157971819Y-137078242D01*
X157780568Y-136568242D01*
X157775377Y-136497435D01*
X157809292Y-136435063D01*
X157871543Y-136400927D01*
X157898545Y-136398000D01*
X158956108Y-136398000D01*
X159024229Y-136418002D01*
G37*
G36*
X158994248Y-136926002D02*
G01*
X159038825Y-136975651D01*
X159122899Y-137143798D01*
X159134535Y-137156307D01*
X159147984Y-137160000D01*
X169907885Y-137160000D01*
X169923124Y-137155525D01*
X169924329Y-137154135D01*
X169926000Y-137146452D01*
X169926000Y-137032000D01*
X169946002Y-136963879D01*
X169999658Y-136917386D01*
X170052000Y-136906000D01*
X170308000Y-136906000D01*
X170376121Y-136926002D01*
X170422614Y-136979658D01*
X170434000Y-137032000D01*
X170434000Y-137796000D01*
X170413998Y-137864121D01*
X170360342Y-137910614D01*
X170308000Y-137922000D01*
X170052000Y-137922000D01*
X169983879Y-137901998D01*
X169937386Y-137848342D01*
X169926000Y-137796000D01*
X169926000Y-137686115D01*
X169921525Y-137670876D01*
X169920135Y-137669671D01*
X169912452Y-137668000D01*
X159403115Y-137668000D01*
X159389584Y-137671973D01*
X159389066Y-137675579D01*
X159389529Y-137677059D01*
X159420825Y-137739652D01*
X159433399Y-137809526D01*
X159406200Y-137875106D01*
X159347863Y-137915570D01*
X159308127Y-137922000D01*
X158646818Y-137922000D01*
X158578697Y-137901998D01*
X158532204Y-137848342D01*
X158528841Y-137840242D01*
X158273750Y-137160000D01*
X158274201Y-137159831D01*
X158256209Y-137111854D01*
X158267964Y-137048781D01*
X158269340Y-137045871D01*
X158275178Y-137034948D01*
X158281627Y-137024190D01*
X158288489Y-137013921D01*
X158295967Y-137003837D01*
X158303821Y-136994267D01*
X158312244Y-136984975D01*
X158320975Y-136976244D01*
X158330267Y-136967821D01*
X158339837Y-136959967D01*
X158349921Y-136952489D01*
X158360190Y-136945627D01*
X158370948Y-136939178D01*
X158381859Y-136933346D01*
X158393202Y-136927981D01*
X158404629Y-136923248D01*
X158416435Y-136919024D01*
X158428267Y-136915435D01*
X158440448Y-136912384D01*
X158452574Y-136909972D01*
X158464985Y-136908131D01*
X158477291Y-136906919D01*
X158492906Y-136906152D01*
X158499088Y-136906000D01*
X158926127Y-136906000D01*
X158994248Y-136926002D01*
G37*
G36*
X168344121Y-130830002D02*
G01*
X168390614Y-130883658D01*
X168402000Y-130936000D01*
X168402000Y-137903885D01*
X168406475Y-137919124D01*
X168407865Y-137920329D01*
X168415548Y-137922000D01*
X168530000Y-137922000D01*
X168598121Y-137942002D01*
X168644614Y-137995658D01*
X168656000Y-138048000D01*
X168656000Y-138304000D01*
X168635998Y-138372121D01*
X168582342Y-138418614D01*
X168530000Y-138430000D01*
X167766000Y-138430000D01*
X167697879Y-138409998D01*
X167651386Y-138356342D01*
X167640000Y-138304000D01*
X167640000Y-138048000D01*
X167660002Y-137979879D01*
X167713658Y-137933386D01*
X167766000Y-137922000D01*
X167875885Y-137922000D01*
X167891124Y-137917525D01*
X167892329Y-137916135D01*
X167894000Y-137908452D01*
X167894000Y-130936000D01*
X167914002Y-130867879D01*
X167967658Y-130821386D01*
X168020000Y-130810000D01*
X168276000Y-130810000D01*
X168344121Y-130830002D01*
G37*
G36*
X170376121Y-130830002D02*
G01*
X170422614Y-130883658D01*
X170434000Y-130936000D01*
X170434000Y-138304000D01*
X170413998Y-138372121D01*
X170360342Y-138418614D01*
X170308000Y-138430000D01*
X169798000Y-138430000D01*
X169729879Y-138409998D01*
X169683386Y-138356342D01*
X169672000Y-138304000D01*
X169672000Y-138048000D01*
X169692002Y-137979879D01*
X169745658Y-137933386D01*
X169798000Y-137922000D01*
X169907885Y-137922000D01*
X169923124Y-137917525D01*
X169924329Y-137916135D01*
X169926000Y-137908452D01*
X169926000Y-130936000D01*
X169946002Y-130867879D01*
X169999658Y-130821386D01*
X170052000Y-130810000D01*
X170308000Y-130810000D01*
X170376121Y-130830002D01*
G37*
G36*
X172408121Y-130830002D02*
G01*
X172454614Y-130883658D01*
X172466000Y-130936000D01*
X172466000Y-136780000D01*
X172445998Y-136848121D01*
X172392342Y-136894614D01*
X172340000Y-136906000D01*
X171830000Y-136906000D01*
X171761879Y-136885998D01*
X171715386Y-136832342D01*
X171704000Y-136780000D01*
X171704000Y-136524000D01*
X171724002Y-136455879D01*
X171777658Y-136409386D01*
X171830000Y-136398000D01*
X171939885Y-136398000D01*
X171955124Y-136393525D01*
X171956329Y-136392135D01*
X171958000Y-136384452D01*
X171958000Y-130936000D01*
X171978002Y-130867879D01*
X172031658Y-130821386D01*
X172084000Y-130810000D01*
X172340000Y-130810000D01*
X172408121Y-130830002D01*
G37*
G36*
X147008121Y-137688002D02*
G01*
X147054614Y-137741658D01*
X147066000Y-137794000D01*
X147066000Y-137903885D01*
X147070475Y-137919124D01*
X147071865Y-137920329D01*
X147079548Y-137922000D01*
X154506249Y-137922000D01*
X154535173Y-137913507D01*
X154813370Y-137694924D01*
X154879292Y-137668565D01*
X154891215Y-137668000D01*
X155698912Y-137668000D01*
X155705094Y-137668152D01*
X155720709Y-137668919D01*
X155733022Y-137670132D01*
X155740037Y-137671173D01*
X155804484Y-137700958D01*
X155842597Y-137760857D01*
X155842276Y-137831853D01*
X155800254Y-137894197D01*
X154847514Y-138656389D01*
X154781825Y-138683325D01*
X154768802Y-138684000D01*
X153918851Y-138684000D01*
X153850730Y-138663998D01*
X153804237Y-138610342D01*
X153794133Y-138540068D01*
X153823627Y-138475488D01*
X153841005Y-138458924D01*
X153863572Y-138441192D01*
X153870243Y-138431834D01*
X153866690Y-138430000D01*
X147084115Y-138430000D01*
X147068876Y-138434475D01*
X147067671Y-138435865D01*
X147066000Y-138443548D01*
X147066000Y-138558000D01*
X147045998Y-138626121D01*
X146992342Y-138672614D01*
X146940000Y-138684000D01*
X146684000Y-138684000D01*
X146615879Y-138663998D01*
X146569386Y-138610342D01*
X146558000Y-138558000D01*
X146558000Y-137794000D01*
X146578002Y-137725879D01*
X146631658Y-137679386D01*
X146684000Y-137668000D01*
X146940000Y-137668000D01*
X147008121Y-137688002D01*
G37*
G36*
X147008121Y-138450002D02*
G01*
X147054614Y-138503658D01*
X147066000Y-138556000D01*
X147066000Y-138665885D01*
X147070475Y-138681124D01*
X147071865Y-138682329D01*
X147079548Y-138684000D01*
X153536430Y-138684000D01*
X153565354Y-138675507D01*
X153843551Y-138456924D01*
X153909473Y-138430565D01*
X153921396Y-138430000D01*
X154682912Y-138430000D01*
X154689094Y-138430152D01*
X154704709Y-138430919D01*
X154717015Y-138432131D01*
X154729426Y-138433972D01*
X154741552Y-138436384D01*
X154753733Y-138439435D01*
X154765565Y-138443024D01*
X154777371Y-138447248D01*
X154788798Y-138451981D01*
X154800141Y-138457346D01*
X154811048Y-138463176D01*
X154814463Y-138465223D01*
X154862607Y-138517402D01*
X154874899Y-138587326D01*
X154847436Y-138652796D01*
X154828395Y-138671684D01*
X154212514Y-139164389D01*
X154146825Y-139191325D01*
X154133802Y-139192000D01*
X146684000Y-139192000D01*
X146615879Y-139171998D01*
X146569386Y-139118342D01*
X146558000Y-139066000D01*
X146558000Y-138556000D01*
X146578002Y-138487879D01*
X146631658Y-138441386D01*
X146684000Y-138430000D01*
X146940000Y-138430000D01*
X147008121Y-138450002D01*
G37*
G36*
X145230121Y-136926002D02*
G01*
X145276614Y-136979658D01*
X145288000Y-137032000D01*
X145288000Y-137141885D01*
X145292475Y-137157124D01*
X145293865Y-137158329D01*
X145301548Y-137160000D01*
X151804682Y-137160000D01*
X151872803Y-137180002D01*
X151919296Y-137233658D01*
X151922659Y-137241758D01*
X152457140Y-138667039D01*
X152466680Y-138679736D01*
X152478173Y-138684000D01*
X152647454Y-138684000D01*
X152715575Y-138704002D01*
X152762068Y-138757658D01*
X152765431Y-138765758D01*
X152861432Y-139021758D01*
X152866623Y-139092565D01*
X152832708Y-139154937D01*
X152770457Y-139189073D01*
X152743455Y-139192000D01*
X151461076Y-139192000D01*
X151392955Y-139171998D01*
X151346462Y-139118342D01*
X151341542Y-139105845D01*
X151256209Y-138849845D01*
X151253643Y-138778894D01*
X151289843Y-138717820D01*
X151353315Y-138686012D01*
X151375743Y-138684000D01*
X151450552Y-138684000D01*
X151464083Y-138680027D01*
X151465065Y-138673194D01*
X151135729Y-137685186D01*
X151126664Y-137672143D01*
X151116649Y-137668000D01*
X144906000Y-137668000D01*
X144837879Y-137647998D01*
X144791386Y-137594342D01*
X144780000Y-137542000D01*
X144780000Y-137032000D01*
X144800002Y-136963879D01*
X144853658Y-136917386D01*
X144906000Y-136906000D01*
X145162000Y-136906000D01*
X145230121Y-136926002D01*
G37*
G36*
X149040121Y-128036002D02*
G01*
X149086614Y-128089658D01*
X149098000Y-128142000D01*
X149098000Y-138665885D01*
X149102475Y-138681124D01*
X149103865Y-138682329D01*
X149111548Y-138684000D01*
X149226000Y-138684000D01*
X149294121Y-138704002D01*
X149340614Y-138757658D01*
X149352000Y-138810000D01*
X149352000Y-139066000D01*
X149331998Y-139134121D01*
X149278342Y-139180614D01*
X149226000Y-139192000D01*
X148462000Y-139192000D01*
X148393879Y-139171998D01*
X148347386Y-139118342D01*
X148336000Y-139066000D01*
X148336000Y-138810000D01*
X148356002Y-138741879D01*
X148409658Y-138695386D01*
X148462000Y-138684000D01*
X148571885Y-138684000D01*
X148587124Y-138679525D01*
X148588329Y-138678135D01*
X148590000Y-138670452D01*
X148590000Y-128142000D01*
X148610002Y-128073879D01*
X148663658Y-128027386D01*
X148716000Y-128016000D01*
X148972000Y-128016000D01*
X149040121Y-128036002D01*
G37*
G36*
X147008121Y-127020002D02*
G01*
X147054614Y-127073658D01*
X147066000Y-127126000D01*
X147066000Y-138665885D01*
X147070475Y-138681124D01*
X147071865Y-138682329D01*
X147079548Y-138684000D01*
X147194000Y-138684000D01*
X147262121Y-138704002D01*
X147308614Y-138757658D01*
X147320000Y-138810000D01*
X147320000Y-139066000D01*
X147299998Y-139134121D01*
X147246342Y-139180614D01*
X147194000Y-139192000D01*
X146684000Y-139192000D01*
X146615879Y-139171998D01*
X146569386Y-139118342D01*
X146558000Y-139066000D01*
X146558000Y-127126000D01*
X146578002Y-127057879D01*
X146631658Y-127011386D01*
X146684000Y-127000000D01*
X146940000Y-127000000D01*
X147008121Y-127020002D01*
G37*
G36*
X145230121Y-129052002D02*
G01*
X145276614Y-129105658D01*
X145288000Y-129158000D01*
X145288000Y-137141885D01*
X145292475Y-137157124D01*
X145293865Y-137158329D01*
X145301548Y-137160000D01*
X145416000Y-137160000D01*
X145484121Y-137180002D01*
X145530614Y-137233658D01*
X145542000Y-137286000D01*
X145542000Y-137542000D01*
X145521998Y-137610121D01*
X145468342Y-137656614D01*
X145416000Y-137668000D01*
X144906000Y-137668000D01*
X144837879Y-137647998D01*
X144791386Y-137594342D01*
X144780000Y-137542000D01*
X144780000Y-129158000D01*
X144800002Y-129089879D01*
X144853658Y-129043386D01*
X144906000Y-129032000D01*
X145162000Y-129032000D01*
X145230121Y-129052002D01*
G37*
G36*
X143452121Y-110764002D02*
G01*
X143498614Y-110817658D01*
X143510000Y-110870000D01*
X143510000Y-134240000D01*
X143489998Y-134308121D01*
X143436342Y-134354614D01*
X143384000Y-134366000D01*
X143128000Y-134366000D01*
X143059879Y-134345998D01*
X143013386Y-134292342D01*
X143002000Y-134240000D01*
X143002000Y-110870000D01*
X143022002Y-110801879D01*
X143075658Y-110755386D01*
X143128000Y-110744000D01*
X143384000Y-110744000D01*
X143452121Y-110764002D01*
G37*
G36*
X140912121Y-97048002D02*
G01*
X140958614Y-97101658D01*
X140970000Y-97154000D01*
X140970000Y-132970000D01*
X140949998Y-133038121D01*
X140896342Y-133084614D01*
X140844000Y-133096000D01*
X140588000Y-133096000D01*
X140519879Y-133075998D01*
X140473386Y-133022342D01*
X140462000Y-132970000D01*
X140462000Y-97154000D01*
X140482002Y-97085879D01*
X140535658Y-97039386D01*
X140588000Y-97028000D01*
X140844000Y-97028000D01*
X140912121Y-97048002D01*
G37*
G36*
X137864121Y-106192002D02*
G01*
X137910614Y-106245658D01*
X137922000Y-106298000D01*
X137922000Y-128652000D01*
X137901998Y-128720121D01*
X137848342Y-128766614D01*
X137796000Y-128778000D01*
X137540000Y-128778000D01*
X137471879Y-128757998D01*
X137425386Y-128704342D01*
X137414000Y-128652000D01*
X137414000Y-106298000D01*
X137434002Y-106229879D01*
X137487658Y-106183386D01*
X137540000Y-106172000D01*
X137796000Y-106172000D01*
X137864121Y-106192002D01*
G37*
G36*
X135832121Y-113812002D02*
G01*
X135878614Y-113865658D01*
X135890000Y-113918000D01*
X135890000Y-128652000D01*
X135869998Y-128720121D01*
X135816342Y-128766614D01*
X135764000Y-128778000D01*
X135508000Y-128778000D01*
X135439879Y-128757998D01*
X135393386Y-128704342D01*
X135382000Y-128652000D01*
X135382000Y-113918000D01*
X135402002Y-113849879D01*
X135455658Y-113803386D01*
X135508000Y-113792000D01*
X135764000Y-113792000D01*
X135832121Y-113812002D01*
G37*
G36*
X143452121Y-97048002D02*
G01*
X143498614Y-97101658D01*
X143510000Y-97154000D01*
X143510000Y-108332000D01*
X143489998Y-108400121D01*
X143436342Y-108446614D01*
X143384000Y-108458000D01*
X143128000Y-108458000D01*
X143059879Y-108437998D01*
X143013386Y-108384342D01*
X143002000Y-108332000D01*
X143002000Y-97154000D01*
X143022002Y-97085879D01*
X143075658Y-97039386D01*
X143128000Y-97028000D01*
X143384000Y-97028000D01*
X143452121Y-97048002D01*
G37*
G36*
X172408121Y-136164002D02*
G01*
X172454614Y-136217658D01*
X172466000Y-136270000D01*
X172466000Y-136780000D01*
X172445998Y-136848121D01*
X172392342Y-136894614D01*
X172340000Y-136906000D01*
X159022115Y-136906000D01*
X159008584Y-136909973D01*
X159008066Y-136913579D01*
X159008528Y-136915056D01*
X159061243Y-137020487D01*
X159073817Y-137090362D01*
X159046618Y-137155942D01*
X159004894Y-137189534D01*
X158612354Y-137385804D01*
X158606754Y-137388434D01*
X158592444Y-137394731D01*
X158580895Y-137399150D01*
X158568966Y-137403055D01*
X158557042Y-137406320D01*
X158544793Y-137409036D01*
X158532612Y-137411117D01*
X158519311Y-137412722D01*
X158508683Y-137413550D01*
X158498224Y-137413921D01*
X158493757Y-137414000D01*
X158456318Y-137414000D01*
X158388197Y-137393998D01*
X158341704Y-137340342D01*
X158338341Y-137332242D01*
X158280110Y-137176961D01*
X158270570Y-137164264D01*
X158259077Y-137160000D01*
X156736115Y-137160000D01*
X156707496Y-137168403D01*
X154212514Y-139164389D01*
X154146825Y-139191325D01*
X154133802Y-139192000D01*
X152861184Y-139192000D01*
X152793063Y-139171998D01*
X152746570Y-139118342D01*
X152736466Y-139048068D01*
X152765960Y-138983488D01*
X152783338Y-138966924D01*
X153109156Y-138710924D01*
X153175079Y-138684565D01*
X153187002Y-138684000D01*
X153536430Y-138684000D01*
X153565354Y-138675507D01*
X156429733Y-136424924D01*
X156495656Y-136398565D01*
X156507579Y-136398000D01*
X171939885Y-136398000D01*
X171955124Y-136393525D01*
X171956329Y-136392135D01*
X171958000Y-136384452D01*
X171958000Y-136270000D01*
X171978002Y-136201879D01*
X172031658Y-136155386D01*
X172084000Y-136144000D01*
X172340000Y-136144000D01*
X172408121Y-136164002D01*
G37*
M02*
