M48
; DRILL file {KiCad 6.0.11+dfsg-1~bpo11+1} date Sun 18 Feb 2024 09:51:49 PM CST
; FORMAT={-:-/ absolute / inch / decimal}
; #@! TF.CreationDate,2024-02-18T21:51:49-06:00
; #@! TF.GenerationSoftware,Kicad,Pcbnew,6.0.11+dfsg-1~bpo11+1
; #@! TF.FileFunction,Plated,1,4,PTH
FMAT,2
INCH
; #@! TA.AperFunction,Plated,PTH,ComponentDrill
T1C0.0079
; #@! TA.AperFunction,Plated,PTH,ViaDrill
T2C0.0098
; #@! TA.AperFunction,Plated,PTH,ViaDrill
T3C0.0118
; #@! TA.AperFunction,Plated,PTH,ViaDrill
T4C0.0157
; #@! TA.AperFunction,Plated,PTH,ComponentDrill
T5C0.0157
; #@! TA.AperFunction,Plated,PTH,ComponentDrill
T6C0.0236
; #@! TA.AperFunction,Plated,PTH,ComponentDrill
T7C0.0394
; #@! TA.AperFunction,Plated,PTH,ComponentDrill
T8C0.0669
%
G90
G05
T1
X4.5754Y-4.7149
X4.5754Y-4.7602
X4.6124Y-4.7149
X4.6124Y-4.7602
X4.6494Y-4.7149
X4.6494Y-4.7602
X4.733Y-4.713
X4.733Y-4.7582
X4.77Y-4.713
X4.77Y-4.7582
X4.807Y-4.713
X4.807Y-4.7582
X4.8724Y-4.9706
X4.8724Y-5.01
X4.8724Y-5.0494
X4.9203Y-3.9435
X4.9203Y-3.9805
X4.9203Y-4.0175
X4.9276Y-4.9706
X4.9276Y-5.01
X4.9276Y-5.0494
X4.9656Y-3.9435
X4.9656Y-3.9805
X4.9656Y-4.0175
T2
X6.01Y-4.61
X6.29Y-5.53
X6.37Y-5.53
X6.4Y-5.84
X6.58Y-4.32
X6.72Y-4.32
X6.83Y-4.34
X6.838Y-4.2084
X6.85Y-4.58
X6.87Y-4.42
X6.9Y-4.23
X6.94Y-4.04
X7.08Y-4.04
X7.13Y-4.23
T3
X4.42Y-4.02
X4.42Y-4.05
X4.42Y-4.08
X4.42Y-4.11
X4.43Y-5.18
X4.43Y-5.22
X4.43Y-5.25
X4.43Y-5.31
X4.43Y-5.34
X4.45Y-4.82
X4.45Y-4.89
X4.45Y-5.66
X4.46Y-4.02
X4.46Y-4.05
X4.46Y-4.08
X4.46Y-4.11
X4.46Y-5.25
X4.46Y-5.34
X4.47Y-5.64
X4.475Y-4.765
X4.49Y-4.82
X4.49Y-4.89
X4.49Y-5.66
X4.5Y-3.81
X4.5Y-4.02
X4.5Y-4.05
X4.5Y-4.08
X4.5Y-4.11
X4.5Y-5.18
X4.5Y-5.22
X4.5Y-5.25
X4.5Y-5.34
X4.51Y-5.64
X4.53Y-3.81
X4.53Y-5.25
X4.53Y-5.31
X4.53Y-5.34
X4.53Y-5.58
X4.53Y-5.62
X4.53Y-5.66
X4.54Y-5.4
X4.55Y-5.18
X4.55Y-5.22
X4.55Y-5.6
X4.55Y-5.64
X4.57Y-5.11
X4.57Y-5.14
X4.58Y-5.44
X4.58Y-5.49
X4.59Y-4.83
X4.59Y-4.86
X4.62Y-4.83
X4.62Y-4.86
X4.62Y-5.12
X4.62Y-5.15
X4.62Y-5.18
X4.62Y-5.21
X4.64Y-5.56
X4.65Y-4.83
X4.65Y-4.86
X4.67Y-5.49
X4.68Y-5.3
X4.71Y-4.78
X4.71Y-4.82
X4.72Y-5.5726
X4.725Y-4.935
X4.73Y-5.31
X4.74Y-5.03
X4.74Y-5.52
X4.77Y-5.64
X4.82Y-4.84
X4.82Y-4.88
X4.82Y-5.28
X4.82Y-5.6
X4.82Y-5.64
X4.86Y-3.81
X4.86Y-3.85
X4.86Y-4.84
X4.86Y-4.88
X4.86Y-5.46
X4.86Y-5.49
X4.87Y-5.28
X4.87Y-5.6
X4.87Y-5.65
X4.88Y-5.34
X4.88Y-5.4
X4.89Y-5.37
X4.89Y-5.43
X4.89Y-5.46
X4.89Y-5.49
X4.9Y-4.84
X4.9Y-4.88
X4.9Y-5.28
X4.91Y-5.34
X4.91Y-5.4
X4.92Y-5.37
X4.92Y-5.6
X4.92Y-5.65
X4.93Y-5.28
X4.94Y-5.34
X4.94Y-5.4
X4.94Y-5.471
X4.95Y-5.37
X4.96Y-3.82
X4.96Y-3.86
X4.9697Y-5.24
X4.97Y-5.32
X4.9891Y-4.7591
X4.99Y-4.08
X4.99Y-4.11
X4.99Y-4.14
X5.0Y-3.82
X5.0Y-3.86
X5.0Y-3.9
X5.02Y-5.12
X5.03Y-4.08
X5.03Y-4.11
X5.03Y-4.14
X5.0326Y-5.23
X5.04Y-3.82
X5.04Y-3.86
X5.04Y-3.9
X5.05Y-4.85
X5.05Y-5.31
X5.05Y-5.37
X5.0559Y-5.01
X5.06Y-4.37
X5.07Y-4.08
X5.07Y-4.11
X5.08Y-3.82
X5.08Y-3.86
X5.08Y-3.9
X5.08Y-4.63
X5.1Y-4.16
X5.1Y-4.39
X5.1052Y-4.9448
X5.11Y-4.99
X5.11Y-5.31
X5.11Y-5.37
X5.12Y-3.86
X5.12Y-3.9
X5.14Y-5.62
X5.16Y-5.02
X5.17Y-5.52
X5.19Y-4.12
X5.19Y-4.37
X5.1901Y-5.3297
X5.1915Y-5.3006
X5.1986Y-5.39
X5.2Y-3.82
X5.2Y-4.23
X5.2Y-4.28
X5.21Y-4.55
X5.24Y-4.68
X5.24Y-5.17
X5.25Y-4.15
X5.25Y-4.23
X5.25Y-4.28
X5.25Y-4.3926
X5.25Y-4.75
X5.25Y-4.82
X5.25Y-4.89
X5.25Y-5.1
X5.27Y-3.84
X5.28Y-4.46
X5.28Y-4.57
X5.28Y-4.93
X5.28Y-5.12
X5.28Y-5.17
X5.28Y-5.22
X5.28Y-5.27
X5.28Y-5.33
X5.28Y-5.38
X5.28Y-5.48
X5.28Y-5.53
X5.2899Y-4.6026
X5.3Y-3.87
X5.3105Y-3.9105
X5.32Y-4.92
X5.32Y-4.98
X5.32Y-5.04
X5.32Y-5.42
X5.32Y-5.48
X5.32Y-5.53
X5.33Y-4.09
X5.33Y-4.45
X5.34Y-5.12
X5.34Y-5.17
X5.34Y-5.57
X5.35Y-5.8
X5.36Y-4.95
X5.36Y-5.07
X5.37Y-4.0
X5.37Y-5.26
X5.37Y-5.36
X5.37Y-5.42
X5.39Y-3.8294
X5.39Y-5.53
X5.4Y-4.92
X5.4Y-4.98
X5.4Y-5.22
X5.42Y-3.8
X5.42Y-4.01
X5.43Y-5.19
X5.43Y-5.44
X5.43Y-5.54
X5.44Y-4.95
X5.44Y-5.07
X5.45Y-4.14
X5.46Y-5.1
X5.46Y-5.24
X5.47Y-4.6926
X5.47Y-4.73
X5.47Y-5.44
X5.47Y-5.54
X5.48Y-3.94
X5.48Y-4.92
X5.48Y-4.98
X5.48Y-5.04
X5.48Y-5.28
X5.48Y-5.34
X5.5Y-4.68
X5.5Y-4.83
X5.51Y-5.44
X5.51Y-5.49
X5.51Y-5.54
X5.52Y-4.95
X5.52Y-5.01
X5.56Y-4.92
X5.56Y-4.98
X5.5731Y-3.9669
X5.58Y-4.41
X5.58Y-4.46
X5.58Y-4.51
X5.58Y-4.56
X5.58Y-5.6
X5.591Y-5.385
X5.6Y-5.05
X5.6Y-5.09
X5.6Y-5.13
X5.613Y-5.363
X5.6591Y-4.3109
X5.69Y-5.05
X5.71Y-3.94
X5.71Y-5.51
X5.7198Y-5.8101
X5.72Y-3.8569
X5.72Y-4.25
X5.72Y-4.47
X5.72Y-4.5
X5.72Y-4.53
X5.72Y-4.56
X5.72Y-5.45
X5.7253Y-5.8653
X5.75Y-5.51
X5.78Y-3.77
X5.78Y-3.97
X5.78Y-4.65
X5.78Y-5.51
X5.79Y-4.74
X5.79Y-4.84
X5.79Y-4.95
X5.8Y-4.81
X5.81Y-4.61
X5.81Y-4.71
X5.81Y-4.92
X5.81Y-5.51
X5.82Y-3.93
X5.84Y-4.29
X5.84Y-4.33
X5.84Y-4.38
X5.84Y-5.51
X5.86Y-3.77
X5.86Y-4.44
X5.86Y-5.01
X5.87Y-4.27
X5.9Y-4.08
X5.9Y-4.25
X5.9Y-5.52
X5.906Y-3.984
X5.91Y-5.0
X5.91Y-5.35
X5.92Y-4.8
X5.92Y-4.91
X5.94Y-4.23
X5.94Y-5.69
X5.96Y-4.99
X5.9624Y-4.8376
X5.97Y-4.17
X5.97Y-4.27
X5.97Y-4.37
X5.97Y-4.4474
X5.99Y-4.74
X6.0Y-5.0
X6.0Y-5.34
X6.01Y-5.39
X6.02Y-4.64
X6.04Y-4.02
X6.05Y-3.94
X6.05Y-5.53
X6.07Y-4.74
X6.07Y-5.66
X6.08Y-4.0
X6.1Y-3.93
X6.1Y-5.38
X6.1213Y-5.2913
X6.16Y-4.32
X6.16Y-5.47
X6.1674Y-4.3474
X6.17Y-4.21
X6.18Y-4.6374
X6.2Y-4.6
X6.2Y-5.43
X6.21Y-4.96
X6.22Y-4.69
X6.22Y-5.06
X6.22Y-5.3
X6.22Y-5.52
X6.22Y-5.65
X6.2226Y-4.5526
X6.23Y-5.23
X6.2401Y-4.5798
X6.25Y-4.76
X6.25Y-4.82
X6.25Y-4.87
X6.25Y-4.92
X6.2519Y-4.61
X6.26Y-3.97
X6.27Y-4.11
X6.2745Y-4.32
X6.28Y-4.7526
X6.29Y-4.12
X6.3Y-4.353
X6.31Y-4.11
X6.33Y-4.12
X6.34Y-4.38
X6.34Y-5.6
X6.35Y-4.04
X6.35Y-5.01
X6.36Y-4.21
X6.36Y-4.25
X6.37Y-4.4
X6.37Y-4.49
X6.37Y-4.79
X6.38Y-4.6
X6.38Y-4.6874
X6.39Y-4.82
X6.41Y-4.48
X6.41Y-4.51
X6.41Y-5.01
X6.411Y-4.441
X6.42Y-4.71
X6.43Y-4.0
X6.45Y-4.42
X6.4626Y-4.78
X6.47Y-4.81
X6.47Y-4.98
X6.49Y-3.88
X6.49Y-4.6
X6.5Y-4.01
X6.5Y-4.21
X6.5Y-4.25
X6.5Y-5.0253
X6.5026Y-5.19
X6.52Y-4.98
X6.54Y-4.38
X6.55Y-4.09
X6.55Y-4.13
X6.55Y-4.17
X6.55Y-4.21
X6.55Y-4.25
X6.55Y-5.85
X6.57Y-3.96
X6.57Y-5.36
X6.57Y-5.51
X6.58Y-4.98
X6.58Y-5.07
X6.59Y-3.83
X6.59Y-3.88
X6.59Y-4.05
X6.59Y-4.09
X6.59Y-4.13
X6.59Y-4.17
X6.59Y-4.21
X6.59Y-4.25
X6.6Y-4.81
X6.6Y-5.03
X6.61Y-5.11
X6.61Y-5.85
X6.63Y-4.05
X6.63Y-4.09
X6.63Y-4.13
X6.63Y-4.17
X6.63Y-4.21
X6.63Y-4.25
X6.6307Y-4.7893
X6.6308Y-5.0812
X6.64Y-4.98
X6.64Y-5.26
X6.64Y-5.3
X6.65Y-4.38
X6.65Y-5.49
X6.65Y-5.52
X6.6563Y-4.7637
X6.67Y-4.05
X6.67Y-4.09
X6.67Y-4.13
X6.67Y-4.17
X6.67Y-4.21
X6.67Y-4.25
X6.68Y-5.26
X6.68Y-5.3
X6.68Y-5.49
X6.68Y-5.52
X6.6807Y-4.3709
X6.6819Y-4.8174
X6.71Y-4.05
X6.71Y-4.09
X6.71Y-4.13
X6.71Y-4.17
X6.71Y-4.21
X6.71Y-4.25
X6.71Y-4.98
X6.71Y-5.49
X6.71Y-5.52
X6.72Y-4.59
X6.72Y-5.26
X6.72Y-5.3
X6.73Y-5.04
X6.74Y-4.35
X6.74Y-5.49
X6.74Y-5.52
X6.75Y-4.05
X6.75Y-4.09
X6.75Y-4.13
X6.75Y-4.17
X6.75Y-4.21
X6.75Y-4.25
X6.76Y-4.98
X6.76Y-5.18
X6.76Y-5.22
X6.76Y-5.26
X6.76Y-5.3
X6.76Y-5.34
X6.77Y-4.3874
X6.77Y-4.42
X6.78Y-3.87
X6.79Y-4.979
X6.8Y-5.18
X6.8Y-5.22
X6.8Y-5.26
X6.8Y-5.3
X6.8Y-5.34
X6.81Y-4.48
X6.83Y-4.3051
X6.83Y-4.76
X6.84Y-5.0626
X6.84Y-5.17
X6.87Y-4.9726
X6.87Y-5.01
X6.8776Y-4.2776
X6.8787Y-5.1787
X6.8872Y-4.6828
X6.8875Y-4.7225
X6.89Y-3.88
X6.89Y-4.34
X6.89Y-4.64
X6.89Y-4.8174
X6.895Y-4.595
X6.91Y-5.01
X6.917Y-4.48
X6.92Y-5.06
X6.94Y-5.57
X6.97Y-5.52
X6.98Y-4.44
X6.99Y-4.31
X7.0Y-4.95
X7.0Y-4.99
X7.01Y-5.88
X7.03Y-4.5
X7.03Y-4.55
X7.03Y-4.61
X7.03Y-4.67
X7.03Y-4.73
X7.03Y-4.78
X7.07Y-5.04
X7.07Y-5.56
X7.08Y-4.34
X7.08Y-4.96
X7.08Y-5.33
X7.1074Y-4.59
X7.1074Y-4.64
X7.11Y-5.16
X7.11Y-5.62
X7.11Y-5.82
X7.12Y-3.94
X7.12Y-4.35
X7.12Y-5.3
X7.15Y-3.8
X7.2Y-4.02
X7.22Y-3.8
X7.22Y-4.54
X7.22Y-4.67
X7.22Y-4.8
X7.22Y-4.92
X7.25Y-4.98
X7.26Y-4.4826
X7.33Y-4.43
X7.33Y-4.5
X7.36Y-4.46
T4
X4.5Y-4.59
X4.51Y-4.24
X4.58Y-4.14
X4.9Y-4.62
X4.93Y-4.24
X5.11Y-4.31
T5
X4.54Y-5.7015
X4.54Y-5.7547
X4.5735Y-5.7015
X4.5735Y-5.7547
X4.6069Y-5.7015
X4.6069Y-5.7547
X4.6404Y-5.7015
X4.6404Y-5.7547
X4.6739Y-5.7015
X4.6739Y-5.7547
X4.7073Y-5.7015
X4.7073Y-5.7547
X4.7408Y-5.7015
X4.7408Y-5.7547
X4.7743Y-5.7015
X4.7743Y-5.7547
T7
X6.4Y-5.1694
X6.4Y-5.2694
X6.4Y-5.3694
X6.9598Y-3.87
X7.0598Y-3.87
X7.15Y-5.73
X7.25Y-5.73
X7.26Y-3.97
X7.26Y-4.07
X7.26Y-4.17
X7.26Y-4.27
X7.26Y-4.37
X7.26Y-5.08
X7.26Y-5.18
X7.26Y-5.28
X7.26Y-5.38
X7.26Y-5.48
T8
X5.0392Y-5.7333
X5.1951Y-5.7333
X5.4692Y-5.7333
X5.6251Y-5.7333
X5.8571Y-5.73
X6.013Y-5.73
X6.1689Y-5.73
X6.3248Y-5.73
X6.4807Y-5.73
X6.7571Y-5.73
X6.913Y-5.73
T6
G00X4.4869Y-5.7106
M15
G01X4.4869Y-5.7696
M16
G05
G00X4.4869Y-5.8574
M15
G01X4.4869Y-5.8889
M16
G05
G00X4.8274Y-5.7106
M15
G01X4.8274Y-5.7696
M16
G05
G00X4.8274Y-5.8574
M15
G01X4.8274Y-5.8889
M16
G05
T0
M30
