%TF.GenerationSoftware,KiCad,Pcbnew,6.0.11+dfsg-1~bpo11+1*%
%TF.CreationDate,2024-02-18T17:22:31-06:00*%
%TF.ProjectId,BTMS,42544d53-2e6b-4696-9361-645f70636258,rev?*%
%TF.SameCoordinates,Original*%
%TF.FileFunction,Legend,Bot*%
%TF.FilePolarity,Positive*%
%FSLAX46Y46*%
G04 Gerber Fmt 4.6, Leading zero omitted, Abs format (unit mm)*
G04 Created by KiCad (PCBNEW 6.0.11+dfsg-1~bpo11+1) date 2024-02-18 17:22:31*
%MOMM*%
%LPD*%
G01*
G04 APERTURE LIST*
%ADD10C,0.125000*%
%ADD11C,0.150000*%
G04 APERTURE END LIST*
D10*
X132805714Y-148815904D02*
X132805714Y-148015904D01*
X133110476Y-148015904D01*
X133186666Y-148054000D01*
X133224761Y-148092095D01*
X133262857Y-148168285D01*
X133262857Y-148282571D01*
X133224761Y-148358761D01*
X133186666Y-148396857D01*
X133110476Y-148434952D01*
X132805714Y-148434952D01*
X133605714Y-148815904D02*
X133605714Y-148282571D01*
X133605714Y-148434952D02*
X133643809Y-148358761D01*
X133681904Y-148320666D01*
X133758095Y-148282571D01*
X133834285Y-148282571D01*
X134215238Y-148815904D02*
X134139047Y-148777809D01*
X134100952Y-148739714D01*
X134062857Y-148663523D01*
X134062857Y-148434952D01*
X134100952Y-148358761D01*
X134139047Y-148320666D01*
X134215238Y-148282571D01*
X134329523Y-148282571D01*
X134405714Y-148320666D01*
X134443809Y-148358761D01*
X134481904Y-148434952D01*
X134481904Y-148663523D01*
X134443809Y-148739714D01*
X134405714Y-148777809D01*
X134329523Y-148815904D01*
X134215238Y-148815904D01*
X135167619Y-148282571D02*
X135167619Y-148930190D01*
X135129523Y-149006380D01*
X135091428Y-149044476D01*
X135015238Y-149082571D01*
X134900952Y-149082571D01*
X134824761Y-149044476D01*
X135167619Y-148777809D02*
X135091428Y-148815904D01*
X134939047Y-148815904D01*
X134862857Y-148777809D01*
X134824761Y-148739714D01*
X134786666Y-148663523D01*
X134786666Y-148434952D01*
X134824761Y-148358761D01*
X134862857Y-148320666D01*
X134939047Y-148282571D01*
X135091428Y-148282571D01*
X135167619Y-148320666D01*
X135548571Y-148815904D02*
X135548571Y-148282571D01*
X135548571Y-148434952D02*
X135586666Y-148358761D01*
X135624761Y-148320666D01*
X135700952Y-148282571D01*
X135777142Y-148282571D01*
X136386666Y-148815904D02*
X136386666Y-148396857D01*
X136348571Y-148320666D01*
X136272380Y-148282571D01*
X136120000Y-148282571D01*
X136043809Y-148320666D01*
X136386666Y-148777809D02*
X136310476Y-148815904D01*
X136120000Y-148815904D01*
X136043809Y-148777809D01*
X136005714Y-148701619D01*
X136005714Y-148625428D01*
X136043809Y-148549238D01*
X136120000Y-148511142D01*
X136310476Y-148511142D01*
X136386666Y-148473047D01*
X136767619Y-148815904D02*
X136767619Y-148282571D01*
X136767619Y-148358761D02*
X136805714Y-148320666D01*
X136881904Y-148282571D01*
X136996190Y-148282571D01*
X137072380Y-148320666D01*
X137110476Y-148396857D01*
X137110476Y-148815904D01*
X137110476Y-148396857D02*
X137148571Y-148320666D01*
X137224761Y-148282571D01*
X137339047Y-148282571D01*
X137415238Y-148320666D01*
X137453333Y-148396857D01*
X137453333Y-148815904D01*
X138177142Y-148815904D02*
X138177142Y-148396857D01*
X138139047Y-148320666D01*
X138062857Y-148282571D01*
X137910476Y-148282571D01*
X137834285Y-148320666D01*
X138177142Y-148777809D02*
X138100952Y-148815904D01*
X137910476Y-148815904D01*
X137834285Y-148777809D01*
X137796190Y-148701619D01*
X137796190Y-148625428D01*
X137834285Y-148549238D01*
X137910476Y-148511142D01*
X138100952Y-148511142D01*
X138177142Y-148473047D01*
X138558095Y-148815904D02*
X138558095Y-148015904D01*
X138558095Y-148320666D02*
X138634285Y-148282571D01*
X138786666Y-148282571D01*
X138862857Y-148320666D01*
X138900952Y-148358761D01*
X138939047Y-148434952D01*
X138939047Y-148663523D01*
X138900952Y-148739714D01*
X138862857Y-148777809D01*
X138786666Y-148815904D01*
X138634285Y-148815904D01*
X138558095Y-148777809D01*
X139396190Y-148815904D02*
X139320000Y-148777809D01*
X139281904Y-148701619D01*
X139281904Y-148015904D01*
X140005714Y-148777809D02*
X139929523Y-148815904D01*
X139777142Y-148815904D01*
X139700952Y-148777809D01*
X139662857Y-148701619D01*
X139662857Y-148396857D01*
X139700952Y-148320666D01*
X139777142Y-148282571D01*
X139929523Y-148282571D01*
X140005714Y-148320666D01*
X140043809Y-148396857D01*
X140043809Y-148473047D01*
X139662857Y-148549238D01*
X141377142Y-148815904D02*
X140996190Y-148815904D01*
X140996190Y-148015904D01*
X141643809Y-148815904D02*
X141643809Y-148282571D01*
X141643809Y-148015904D02*
X141605714Y-148054000D01*
X141643809Y-148092095D01*
X141681904Y-148054000D01*
X141643809Y-148015904D01*
X141643809Y-148092095D01*
X141910476Y-148282571D02*
X142215238Y-148282571D01*
X142024761Y-148015904D02*
X142024761Y-148701619D01*
X142062857Y-148777809D01*
X142139047Y-148815904D01*
X142215238Y-148815904D01*
X142481904Y-148815904D02*
X142481904Y-148015904D01*
X142824761Y-148815904D02*
X142824761Y-148396857D01*
X142786666Y-148320666D01*
X142710476Y-148282571D01*
X142596190Y-148282571D01*
X142520000Y-148320666D01*
X142481904Y-148358761D01*
X143205714Y-148815904D02*
X143205714Y-148282571D01*
X143205714Y-148015904D02*
X143167619Y-148054000D01*
X143205714Y-148092095D01*
X143243809Y-148054000D01*
X143205714Y-148015904D01*
X143205714Y-148092095D01*
X143929523Y-148282571D02*
X143929523Y-148815904D01*
X143586666Y-148282571D02*
X143586666Y-148701619D01*
X143624761Y-148777809D01*
X143700952Y-148815904D01*
X143815238Y-148815904D01*
X143891428Y-148777809D01*
X143929523Y-148739714D01*
X144310476Y-148815904D02*
X144310476Y-148282571D01*
X144310476Y-148358761D02*
X144348571Y-148320666D01*
X144424761Y-148282571D01*
X144539047Y-148282571D01*
X144615238Y-148320666D01*
X144653333Y-148396857D01*
X144653333Y-148815904D01*
X144653333Y-148396857D02*
X144691428Y-148320666D01*
X144767619Y-148282571D01*
X144881904Y-148282571D01*
X144958095Y-148320666D01*
X144996190Y-148396857D01*
X144996190Y-148815904D01*
X145986666Y-148815904D02*
X145986666Y-148015904D01*
X145986666Y-148320666D02*
X146062857Y-148282571D01*
X146215238Y-148282571D01*
X146291428Y-148320666D01*
X146329523Y-148358761D01*
X146367619Y-148434952D01*
X146367619Y-148663523D01*
X146329523Y-148739714D01*
X146291428Y-148777809D01*
X146215238Y-148815904D01*
X146062857Y-148815904D01*
X145986666Y-148777809D01*
X147053333Y-148815904D02*
X147053333Y-148396857D01*
X147015238Y-148320666D01*
X146939047Y-148282571D01*
X146786666Y-148282571D01*
X146710476Y-148320666D01*
X147053333Y-148777809D02*
X146977142Y-148815904D01*
X146786666Y-148815904D01*
X146710476Y-148777809D01*
X146672380Y-148701619D01*
X146672380Y-148625428D01*
X146710476Y-148549238D01*
X146786666Y-148511142D01*
X146977142Y-148511142D01*
X147053333Y-148473047D01*
X147320000Y-148282571D02*
X147624761Y-148282571D01*
X147434285Y-148015904D02*
X147434285Y-148701619D01*
X147472380Y-148777809D01*
X147548571Y-148815904D01*
X147624761Y-148815904D01*
X147777142Y-148282571D02*
X148081904Y-148282571D01*
X147891428Y-148015904D02*
X147891428Y-148701619D01*
X147929523Y-148777809D01*
X148005714Y-148815904D01*
X148081904Y-148815904D01*
X148653333Y-148777809D02*
X148577142Y-148815904D01*
X148424761Y-148815904D01*
X148348571Y-148777809D01*
X148310476Y-148701619D01*
X148310476Y-148396857D01*
X148348571Y-148320666D01*
X148424761Y-148282571D01*
X148577142Y-148282571D01*
X148653333Y-148320666D01*
X148691428Y-148396857D01*
X148691428Y-148473047D01*
X148310476Y-148549238D01*
X149034285Y-148815904D02*
X149034285Y-148282571D01*
X149034285Y-148434952D02*
X149072380Y-148358761D01*
X149110476Y-148320666D01*
X149186666Y-148282571D01*
X149262857Y-148282571D01*
X149453333Y-148282571D02*
X149643809Y-148815904D01*
X149834285Y-148282571D02*
X149643809Y-148815904D01*
X149567619Y-149006380D01*
X149529523Y-149044476D01*
X149453333Y-149082571D01*
X151091428Y-148777809D02*
X151015238Y-148815904D01*
X150862857Y-148815904D01*
X150786666Y-148777809D01*
X150748571Y-148739714D01*
X150710476Y-148663523D01*
X150710476Y-148434952D01*
X150748571Y-148358761D01*
X150786666Y-148320666D01*
X150862857Y-148282571D01*
X151015238Y-148282571D01*
X151091428Y-148320666D01*
X151434285Y-148815904D02*
X151434285Y-148015904D01*
X151777142Y-148815904D02*
X151777142Y-148396857D01*
X151739047Y-148320666D01*
X151662857Y-148282571D01*
X151548571Y-148282571D01*
X151472380Y-148320666D01*
X151434285Y-148358761D01*
X152500952Y-148815904D02*
X152500952Y-148396857D01*
X152462857Y-148320666D01*
X152386666Y-148282571D01*
X152234285Y-148282571D01*
X152158095Y-148320666D01*
X152500952Y-148777809D02*
X152424761Y-148815904D01*
X152234285Y-148815904D01*
X152158095Y-148777809D01*
X152120000Y-148701619D01*
X152120000Y-148625428D01*
X152158095Y-148549238D01*
X152234285Y-148511142D01*
X152424761Y-148511142D01*
X152500952Y-148473047D01*
X152881904Y-148815904D02*
X152881904Y-148282571D01*
X152881904Y-148434952D02*
X152920000Y-148358761D01*
X152958095Y-148320666D01*
X153034285Y-148282571D01*
X153110476Y-148282571D01*
X153720000Y-148282571D02*
X153720000Y-148930190D01*
X153681904Y-149006380D01*
X153643809Y-149044476D01*
X153567619Y-149082571D01*
X153453333Y-149082571D01*
X153377142Y-149044476D01*
X153720000Y-148777809D02*
X153643809Y-148815904D01*
X153491428Y-148815904D01*
X153415238Y-148777809D01*
X153377142Y-148739714D01*
X153339047Y-148663523D01*
X153339047Y-148434952D01*
X153377142Y-148358761D01*
X153415238Y-148320666D01*
X153491428Y-148282571D01*
X153643809Y-148282571D01*
X153720000Y-148320666D01*
X154405714Y-148777809D02*
X154329523Y-148815904D01*
X154177142Y-148815904D01*
X154100952Y-148777809D01*
X154062857Y-148701619D01*
X154062857Y-148396857D01*
X154100952Y-148320666D01*
X154177142Y-148282571D01*
X154329523Y-148282571D01*
X154405714Y-148320666D01*
X154443809Y-148396857D01*
X154443809Y-148473047D01*
X154062857Y-148549238D01*
X155739047Y-148777809D02*
X155662857Y-148815904D01*
X155510476Y-148815904D01*
X155434285Y-148777809D01*
X155396190Y-148739714D01*
X155358095Y-148663523D01*
X155358095Y-148434952D01*
X155396190Y-148358761D01*
X155434285Y-148320666D01*
X155510476Y-148282571D01*
X155662857Y-148282571D01*
X155739047Y-148320666D01*
X156196190Y-148815904D02*
X156120000Y-148777809D01*
X156081904Y-148739714D01*
X156043809Y-148663523D01*
X156043809Y-148434952D01*
X156081904Y-148358761D01*
X156120000Y-148320666D01*
X156196190Y-148282571D01*
X156310476Y-148282571D01*
X156386666Y-148320666D01*
X156424761Y-148358761D01*
X156462857Y-148434952D01*
X156462857Y-148663523D01*
X156424761Y-148739714D01*
X156386666Y-148777809D01*
X156310476Y-148815904D01*
X156196190Y-148815904D01*
X156805714Y-148282571D02*
X156805714Y-148815904D01*
X156805714Y-148358761D02*
X156843809Y-148320666D01*
X156920000Y-148282571D01*
X157034285Y-148282571D01*
X157110476Y-148320666D01*
X157148571Y-148396857D01*
X157148571Y-148815904D01*
X157415238Y-148282571D02*
X157720000Y-148282571D01*
X157529523Y-148015904D02*
X157529523Y-148701619D01*
X157567619Y-148777809D01*
X157643809Y-148815904D01*
X157720000Y-148815904D01*
X157986666Y-148815904D02*
X157986666Y-148282571D01*
X157986666Y-148434952D02*
X158024761Y-148358761D01*
X158062857Y-148320666D01*
X158139047Y-148282571D01*
X158215238Y-148282571D01*
X158596190Y-148815904D02*
X158520000Y-148777809D01*
X158481904Y-148739714D01*
X158443809Y-148663523D01*
X158443809Y-148434952D01*
X158481904Y-148358761D01*
X158520000Y-148320666D01*
X158596190Y-148282571D01*
X158710476Y-148282571D01*
X158786666Y-148320666D01*
X158824761Y-148358761D01*
X158862857Y-148434952D01*
X158862857Y-148663523D01*
X158824761Y-148739714D01*
X158786666Y-148777809D01*
X158710476Y-148815904D01*
X158596190Y-148815904D01*
X159320000Y-148815904D02*
X159243809Y-148777809D01*
X159205714Y-148701619D01*
X159205714Y-148015904D01*
X159739047Y-148815904D02*
X159662857Y-148777809D01*
X159624761Y-148701619D01*
X159624761Y-148015904D01*
X160348571Y-148777809D02*
X160272380Y-148815904D01*
X160120000Y-148815904D01*
X160043809Y-148777809D01*
X160005714Y-148701619D01*
X160005714Y-148396857D01*
X160043809Y-148320666D01*
X160120000Y-148282571D01*
X160272380Y-148282571D01*
X160348571Y-148320666D01*
X160386666Y-148396857D01*
X160386666Y-148473047D01*
X160005714Y-148549238D01*
X160729523Y-148815904D02*
X160729523Y-148282571D01*
X160729523Y-148434952D02*
X160767619Y-148358761D01*
X160805714Y-148320666D01*
X160881904Y-148282571D01*
X160958095Y-148282571D01*
X161262857Y-148777809D02*
X161262857Y-148815904D01*
X161224761Y-148892095D01*
X161186666Y-148930190D01*
X129624761Y-149684857D02*
X129739047Y-149722952D01*
X129777142Y-149761047D01*
X129815238Y-149837238D01*
X129815238Y-149951523D01*
X129777142Y-150027714D01*
X129739047Y-150065809D01*
X129662857Y-150103904D01*
X129358095Y-150103904D01*
X129358095Y-149303904D01*
X129624761Y-149303904D01*
X129700952Y-149342000D01*
X129739047Y-149380095D01*
X129777142Y-149456285D01*
X129777142Y-149532476D01*
X129739047Y-149608666D01*
X129700952Y-149646761D01*
X129624761Y-149684857D01*
X129358095Y-149684857D01*
X130500952Y-150103904D02*
X130500952Y-149684857D01*
X130462857Y-149608666D01*
X130386666Y-149570571D01*
X130234285Y-149570571D01*
X130158095Y-149608666D01*
X130500952Y-150065809D02*
X130424761Y-150103904D01*
X130234285Y-150103904D01*
X130158095Y-150065809D01*
X130120000Y-149989619D01*
X130120000Y-149913428D01*
X130158095Y-149837238D01*
X130234285Y-149799142D01*
X130424761Y-149799142D01*
X130500952Y-149761047D01*
X130767619Y-149570571D02*
X131072380Y-149570571D01*
X130881904Y-149303904D02*
X130881904Y-149989619D01*
X130920000Y-150065809D01*
X130996190Y-150103904D01*
X131072380Y-150103904D01*
X131224761Y-149570571D02*
X131529523Y-149570571D01*
X131339047Y-149303904D02*
X131339047Y-149989619D01*
X131377142Y-150065809D01*
X131453333Y-150103904D01*
X131529523Y-150103904D01*
X132100952Y-150065809D02*
X132024761Y-150103904D01*
X131872380Y-150103904D01*
X131796190Y-150065809D01*
X131758095Y-149989619D01*
X131758095Y-149684857D01*
X131796190Y-149608666D01*
X131872380Y-149570571D01*
X132024761Y-149570571D01*
X132100952Y-149608666D01*
X132139047Y-149684857D01*
X132139047Y-149761047D01*
X131758095Y-149837238D01*
X132481904Y-150103904D02*
X132481904Y-149570571D01*
X132481904Y-149722952D02*
X132520000Y-149646761D01*
X132558095Y-149608666D01*
X132634285Y-149570571D01*
X132710476Y-149570571D01*
X132900952Y-149570571D02*
X133091428Y-150103904D01*
X133281904Y-149570571D02*
X133091428Y-150103904D01*
X133015238Y-150294380D01*
X132977142Y-150332476D01*
X132900952Y-150370571D01*
X134196190Y-150103904D02*
X134196190Y-149303904D01*
X134462857Y-149875333D01*
X134729523Y-149303904D01*
X134729523Y-150103904D01*
X135453333Y-150103904D02*
X135453333Y-149684857D01*
X135415238Y-149608666D01*
X135339047Y-149570571D01*
X135186666Y-149570571D01*
X135110476Y-149608666D01*
X135453333Y-150065809D02*
X135377142Y-150103904D01*
X135186666Y-150103904D01*
X135110476Y-150065809D01*
X135072380Y-149989619D01*
X135072380Y-149913428D01*
X135110476Y-149837238D01*
X135186666Y-149799142D01*
X135377142Y-149799142D01*
X135453333Y-149761047D01*
X135834285Y-149570571D02*
X135834285Y-150103904D01*
X135834285Y-149646761D02*
X135872380Y-149608666D01*
X135948571Y-149570571D01*
X136062857Y-149570571D01*
X136139047Y-149608666D01*
X136177142Y-149684857D01*
X136177142Y-150103904D01*
X136900952Y-150103904D02*
X136900952Y-149684857D01*
X136862857Y-149608666D01*
X136786666Y-149570571D01*
X136634285Y-149570571D01*
X136558095Y-149608666D01*
X136900952Y-150065809D02*
X136824761Y-150103904D01*
X136634285Y-150103904D01*
X136558095Y-150065809D01*
X136520000Y-149989619D01*
X136520000Y-149913428D01*
X136558095Y-149837238D01*
X136634285Y-149799142D01*
X136824761Y-149799142D01*
X136900952Y-149761047D01*
X137624761Y-149570571D02*
X137624761Y-150218190D01*
X137586666Y-150294380D01*
X137548571Y-150332476D01*
X137472380Y-150370571D01*
X137358095Y-150370571D01*
X137281904Y-150332476D01*
X137624761Y-150065809D02*
X137548571Y-150103904D01*
X137396190Y-150103904D01*
X137320000Y-150065809D01*
X137281904Y-150027714D01*
X137243809Y-149951523D01*
X137243809Y-149722952D01*
X137281904Y-149646761D01*
X137320000Y-149608666D01*
X137396190Y-149570571D01*
X137548571Y-149570571D01*
X137624761Y-149608666D01*
X138005714Y-150103904D02*
X138005714Y-149570571D01*
X138005714Y-149646761D02*
X138043809Y-149608666D01*
X138120000Y-149570571D01*
X138234285Y-149570571D01*
X138310476Y-149608666D01*
X138348571Y-149684857D01*
X138348571Y-150103904D01*
X138348571Y-149684857D02*
X138386666Y-149608666D01*
X138462857Y-149570571D01*
X138577142Y-149570571D01*
X138653333Y-149608666D01*
X138691428Y-149684857D01*
X138691428Y-150103904D01*
X139377142Y-150065809D02*
X139300952Y-150103904D01*
X139148571Y-150103904D01*
X139072380Y-150065809D01*
X139034285Y-149989619D01*
X139034285Y-149684857D01*
X139072380Y-149608666D01*
X139148571Y-149570571D01*
X139300952Y-149570571D01*
X139377142Y-149608666D01*
X139415238Y-149684857D01*
X139415238Y-149761047D01*
X139034285Y-149837238D01*
X139758095Y-149570571D02*
X139758095Y-150103904D01*
X139758095Y-149646761D02*
X139796190Y-149608666D01*
X139872380Y-149570571D01*
X139986666Y-149570571D01*
X140062857Y-149608666D01*
X140100952Y-149684857D01*
X140100952Y-150103904D01*
X140367619Y-149570571D02*
X140672380Y-149570571D01*
X140481904Y-149303904D02*
X140481904Y-149989619D01*
X140520000Y-150065809D01*
X140596190Y-150103904D01*
X140672380Y-150103904D01*
X141510476Y-150065809D02*
X141624761Y-150103904D01*
X141815238Y-150103904D01*
X141891428Y-150065809D01*
X141929523Y-150027714D01*
X141967619Y-149951523D01*
X141967619Y-149875333D01*
X141929523Y-149799142D01*
X141891428Y-149761047D01*
X141815238Y-149722952D01*
X141662857Y-149684857D01*
X141586666Y-149646761D01*
X141548571Y-149608666D01*
X141510476Y-149532476D01*
X141510476Y-149456285D01*
X141548571Y-149380095D01*
X141586666Y-149342000D01*
X141662857Y-149303904D01*
X141853333Y-149303904D01*
X141967619Y-149342000D01*
X142234285Y-149570571D02*
X142424761Y-150103904D01*
X142615238Y-149570571D02*
X142424761Y-150103904D01*
X142348571Y-150294380D01*
X142310476Y-150332476D01*
X142234285Y-150370571D01*
X142881904Y-150065809D02*
X142958095Y-150103904D01*
X143110476Y-150103904D01*
X143186666Y-150065809D01*
X143224761Y-149989619D01*
X143224761Y-149951523D01*
X143186666Y-149875333D01*
X143110476Y-149837238D01*
X142996190Y-149837238D01*
X142920000Y-149799142D01*
X142881904Y-149722952D01*
X142881904Y-149684857D01*
X142920000Y-149608666D01*
X142996190Y-149570571D01*
X143110476Y-149570571D01*
X143186666Y-149608666D01*
X143453333Y-149570571D02*
X143758095Y-149570571D01*
X143567619Y-149303904D02*
X143567619Y-149989619D01*
X143605714Y-150065809D01*
X143681904Y-150103904D01*
X143758095Y-150103904D01*
X144329523Y-150065809D02*
X144253333Y-150103904D01*
X144100952Y-150103904D01*
X144024761Y-150065809D01*
X143986666Y-149989619D01*
X143986666Y-149684857D01*
X144024761Y-149608666D01*
X144100952Y-149570571D01*
X144253333Y-149570571D01*
X144329523Y-149608666D01*
X144367619Y-149684857D01*
X144367619Y-149761047D01*
X143986666Y-149837238D01*
X144710476Y-150103904D02*
X144710476Y-149570571D01*
X144710476Y-149646761D02*
X144748571Y-149608666D01*
X144824761Y-149570571D01*
X144939047Y-149570571D01*
X145015238Y-149608666D01*
X145053333Y-149684857D01*
X145053333Y-150103904D01*
X145053333Y-149684857D02*
X145091428Y-149608666D01*
X145167619Y-149570571D01*
X145281904Y-149570571D01*
X145358095Y-149608666D01*
X145396190Y-149684857D01*
X145396190Y-150103904D01*
X145815238Y-150065809D02*
X145815238Y-150103904D01*
X145777142Y-150180095D01*
X145739047Y-150218190D01*
X147110476Y-150103904D02*
X147110476Y-149684857D01*
X147072380Y-149608666D01*
X146996190Y-149570571D01*
X146843809Y-149570571D01*
X146767619Y-149608666D01*
X147110476Y-150065809D02*
X147034285Y-150103904D01*
X146843809Y-150103904D01*
X146767619Y-150065809D01*
X146729523Y-149989619D01*
X146729523Y-149913428D01*
X146767619Y-149837238D01*
X146843809Y-149799142D01*
X147034285Y-149799142D01*
X147110476Y-149761047D01*
X147491428Y-149570571D02*
X147491428Y-150103904D01*
X147491428Y-149646761D02*
X147529523Y-149608666D01*
X147605714Y-149570571D01*
X147720000Y-149570571D01*
X147796190Y-149608666D01*
X147834285Y-149684857D01*
X147834285Y-150103904D01*
X148558095Y-150103904D02*
X148558095Y-149303904D01*
X148558095Y-150065809D02*
X148481904Y-150103904D01*
X148329523Y-150103904D01*
X148253333Y-150065809D01*
X148215238Y-150027714D01*
X148177142Y-149951523D01*
X148177142Y-149722952D01*
X148215238Y-149646761D01*
X148253333Y-149608666D01*
X148329523Y-149570571D01*
X148481904Y-149570571D01*
X148558095Y-149608666D01*
X149548571Y-150103904D02*
X149548571Y-149303904D01*
X149853333Y-149303904D01*
X149929523Y-149342000D01*
X149967619Y-149380095D01*
X150005714Y-149456285D01*
X150005714Y-149570571D01*
X149967619Y-149646761D01*
X149929523Y-149684857D01*
X149853333Y-149722952D01*
X149548571Y-149722952D01*
X150462857Y-150103904D02*
X150386666Y-150065809D01*
X150348571Y-150027714D01*
X150310476Y-149951523D01*
X150310476Y-149722952D01*
X150348571Y-149646761D01*
X150386666Y-149608666D01*
X150462857Y-149570571D01*
X150577142Y-149570571D01*
X150653333Y-149608666D01*
X150691428Y-149646761D01*
X150729523Y-149722952D01*
X150729523Y-149951523D01*
X150691428Y-150027714D01*
X150653333Y-150065809D01*
X150577142Y-150103904D01*
X150462857Y-150103904D01*
X150996190Y-149570571D02*
X151148571Y-150103904D01*
X151300952Y-149722952D01*
X151453333Y-150103904D01*
X151605714Y-149570571D01*
X152215238Y-150065809D02*
X152139047Y-150103904D01*
X151986666Y-150103904D01*
X151910476Y-150065809D01*
X151872380Y-149989619D01*
X151872380Y-149684857D01*
X151910476Y-149608666D01*
X151986666Y-149570571D01*
X152139047Y-149570571D01*
X152215238Y-149608666D01*
X152253333Y-149684857D01*
X152253333Y-149761047D01*
X151872380Y-149837238D01*
X152596190Y-150103904D02*
X152596190Y-149570571D01*
X152596190Y-149722952D02*
X152634285Y-149646761D01*
X152672380Y-149608666D01*
X152748571Y-149570571D01*
X152824761Y-149570571D01*
X153700952Y-150103904D02*
X153700952Y-149303904D01*
X153967619Y-149875333D01*
X154234285Y-149303904D01*
X154234285Y-150103904D01*
X154958095Y-150103904D02*
X154958095Y-149684857D01*
X154920000Y-149608666D01*
X154843809Y-149570571D01*
X154691428Y-149570571D01*
X154615238Y-149608666D01*
X154958095Y-150065809D02*
X154881904Y-150103904D01*
X154691428Y-150103904D01*
X154615238Y-150065809D01*
X154577142Y-149989619D01*
X154577142Y-149913428D01*
X154615238Y-149837238D01*
X154691428Y-149799142D01*
X154881904Y-149799142D01*
X154958095Y-149761047D01*
X155339047Y-149570571D02*
X155339047Y-150103904D01*
X155339047Y-149646761D02*
X155377142Y-149608666D01*
X155453333Y-149570571D01*
X155567619Y-149570571D01*
X155643809Y-149608666D01*
X155681904Y-149684857D01*
X155681904Y-150103904D01*
X156405714Y-150103904D02*
X156405714Y-149684857D01*
X156367619Y-149608666D01*
X156291428Y-149570571D01*
X156139047Y-149570571D01*
X156062857Y-149608666D01*
X156405714Y-150065809D02*
X156329523Y-150103904D01*
X156139047Y-150103904D01*
X156062857Y-150065809D01*
X156024761Y-149989619D01*
X156024761Y-149913428D01*
X156062857Y-149837238D01*
X156139047Y-149799142D01*
X156329523Y-149799142D01*
X156405714Y-149761047D01*
X157129523Y-149570571D02*
X157129523Y-150218190D01*
X157091428Y-150294380D01*
X157053333Y-150332476D01*
X156977142Y-150370571D01*
X156862857Y-150370571D01*
X156786666Y-150332476D01*
X157129523Y-150065809D02*
X157053333Y-150103904D01*
X156900952Y-150103904D01*
X156824761Y-150065809D01*
X156786666Y-150027714D01*
X156748571Y-149951523D01*
X156748571Y-149722952D01*
X156786666Y-149646761D01*
X156824761Y-149608666D01*
X156900952Y-149570571D01*
X157053333Y-149570571D01*
X157129523Y-149608666D01*
X157510476Y-150103904D02*
X157510476Y-149570571D01*
X157510476Y-149646761D02*
X157548571Y-149608666D01*
X157624761Y-149570571D01*
X157739047Y-149570571D01*
X157815238Y-149608666D01*
X157853333Y-149684857D01*
X157853333Y-150103904D01*
X157853333Y-149684857D02*
X157891428Y-149608666D01*
X157967619Y-149570571D01*
X158081904Y-149570571D01*
X158158095Y-149608666D01*
X158196190Y-149684857D01*
X158196190Y-150103904D01*
X158881904Y-150065809D02*
X158805714Y-150103904D01*
X158653333Y-150103904D01*
X158577142Y-150065809D01*
X158539047Y-149989619D01*
X158539047Y-149684857D01*
X158577142Y-149608666D01*
X158653333Y-149570571D01*
X158805714Y-149570571D01*
X158881904Y-149608666D01*
X158920000Y-149684857D01*
X158920000Y-149761047D01*
X158539047Y-149837238D01*
X159262857Y-149570571D02*
X159262857Y-150103904D01*
X159262857Y-149646761D02*
X159300952Y-149608666D01*
X159377142Y-149570571D01*
X159491428Y-149570571D01*
X159567619Y-149608666D01*
X159605714Y-149684857D01*
X159605714Y-150103904D01*
X159872380Y-149570571D02*
X160177142Y-149570571D01*
X159986666Y-149303904D02*
X159986666Y-149989619D01*
X160024761Y-150065809D01*
X160100952Y-150103904D01*
X160177142Y-150103904D01*
X161015238Y-150065809D02*
X161129523Y-150103904D01*
X161320000Y-150103904D01*
X161396190Y-150065809D01*
X161434285Y-150027714D01*
X161472380Y-149951523D01*
X161472380Y-149875333D01*
X161434285Y-149799142D01*
X161396190Y-149761047D01*
X161320000Y-149722952D01*
X161167619Y-149684857D01*
X161091428Y-149646761D01*
X161053333Y-149608666D01*
X161015238Y-149532476D01*
X161015238Y-149456285D01*
X161053333Y-149380095D01*
X161091428Y-149342000D01*
X161167619Y-149303904D01*
X161358095Y-149303904D01*
X161472380Y-149342000D01*
X161739047Y-149570571D02*
X161929523Y-150103904D01*
X162120000Y-149570571D02*
X161929523Y-150103904D01*
X161853333Y-150294380D01*
X161815238Y-150332476D01*
X161739047Y-150370571D01*
X162386666Y-150065809D02*
X162462857Y-150103904D01*
X162615238Y-150103904D01*
X162691428Y-150065809D01*
X162729523Y-149989619D01*
X162729523Y-149951523D01*
X162691428Y-149875333D01*
X162615238Y-149837238D01*
X162500952Y-149837238D01*
X162424761Y-149799142D01*
X162386666Y-149722952D01*
X162386666Y-149684857D01*
X162424761Y-149608666D01*
X162500952Y-149570571D01*
X162615238Y-149570571D01*
X162691428Y-149608666D01*
X162958095Y-149570571D02*
X163262857Y-149570571D01*
X163072380Y-149303904D02*
X163072380Y-149989619D01*
X163110476Y-150065809D01*
X163186666Y-150103904D01*
X163262857Y-150103904D01*
X163834285Y-150065809D02*
X163758095Y-150103904D01*
X163605714Y-150103904D01*
X163529523Y-150065809D01*
X163491428Y-149989619D01*
X163491428Y-149684857D01*
X163529523Y-149608666D01*
X163605714Y-149570571D01*
X163758095Y-149570571D01*
X163834285Y-149608666D01*
X163872380Y-149684857D01*
X163872380Y-149761047D01*
X163491428Y-149837238D01*
X164215238Y-150103904D02*
X164215238Y-149570571D01*
X164215238Y-149646761D02*
X164253333Y-149608666D01*
X164329523Y-149570571D01*
X164443809Y-149570571D01*
X164520000Y-149608666D01*
X164558095Y-149684857D01*
X164558095Y-150103904D01*
X164558095Y-149684857D02*
X164596190Y-149608666D01*
X164672380Y-149570571D01*
X164786666Y-149570571D01*
X164862857Y-149608666D01*
X164900952Y-149684857D01*
X164900952Y-150103904D01*
X165281904Y-150027714D02*
X165319999Y-150065809D01*
X165281904Y-150103904D01*
X165243809Y-150065809D01*
X165281904Y-150027714D01*
X165281904Y-150103904D01*
D11*
X109324571Y-113142380D02*
X109324571Y-112142380D01*
X109562666Y-112142380D01*
X109705523Y-112190000D01*
X109800761Y-112285238D01*
X109848380Y-112380476D01*
X109896000Y-112570952D01*
X109896000Y-112713809D01*
X109848380Y-112904285D01*
X109800761Y-112999523D01*
X109705523Y-113094761D01*
X109562666Y-113142380D01*
X109324571Y-113142380D01*
X110705523Y-113094761D02*
X110610285Y-113142380D01*
X110419809Y-113142380D01*
X110324571Y-113094761D01*
X110276952Y-112999523D01*
X110276952Y-112618571D01*
X110324571Y-112523333D01*
X110419809Y-112475714D01*
X110610285Y-112475714D01*
X110705523Y-112523333D01*
X110753142Y-112618571D01*
X110753142Y-112713809D01*
X110276952Y-112809047D01*
X111134095Y-113094761D02*
X111229333Y-113142380D01*
X111419809Y-113142380D01*
X111515047Y-113094761D01*
X111562666Y-112999523D01*
X111562666Y-112951904D01*
X111515047Y-112856666D01*
X111419809Y-112809047D01*
X111276952Y-112809047D01*
X111181714Y-112761428D01*
X111134095Y-112666190D01*
X111134095Y-112618571D01*
X111181714Y-112523333D01*
X111276952Y-112475714D01*
X111419809Y-112475714D01*
X111515047Y-112523333D01*
X111991238Y-113142380D02*
X111991238Y-112475714D01*
X111991238Y-112142380D02*
X111943619Y-112190000D01*
X111991238Y-112237619D01*
X112038857Y-112190000D01*
X111991238Y-112142380D01*
X111991238Y-112237619D01*
X112896000Y-112475714D02*
X112896000Y-113285238D01*
X112848380Y-113380476D01*
X112800761Y-113428095D01*
X112705523Y-113475714D01*
X112562666Y-113475714D01*
X112467428Y-113428095D01*
X112896000Y-113094761D02*
X112800761Y-113142380D01*
X112610285Y-113142380D01*
X112515047Y-113094761D01*
X112467428Y-113047142D01*
X112419809Y-112951904D01*
X112419809Y-112666190D01*
X112467428Y-112570952D01*
X112515047Y-112523333D01*
X112610285Y-112475714D01*
X112800761Y-112475714D01*
X112896000Y-112523333D01*
X113372190Y-112475714D02*
X113372190Y-113142380D01*
X113372190Y-112570952D02*
X113419809Y-112523333D01*
X113515047Y-112475714D01*
X113657904Y-112475714D01*
X113753142Y-112523333D01*
X113800761Y-112618571D01*
X113800761Y-113142380D01*
X114657904Y-113094761D02*
X114562666Y-113142380D01*
X114372190Y-113142380D01*
X114276952Y-113094761D01*
X114229333Y-112999523D01*
X114229333Y-112618571D01*
X114276952Y-112523333D01*
X114372190Y-112475714D01*
X114562666Y-112475714D01*
X114657904Y-112523333D01*
X114705523Y-112618571D01*
X114705523Y-112713809D01*
X114229333Y-112809047D01*
X115562666Y-113142380D02*
X115562666Y-112142380D01*
X115562666Y-113094761D02*
X115467428Y-113142380D01*
X115276952Y-113142380D01*
X115181714Y-113094761D01*
X115134095Y-113047142D01*
X115086476Y-112951904D01*
X115086476Y-112666190D01*
X115134095Y-112570952D01*
X115181714Y-112523333D01*
X115276952Y-112475714D01*
X115467428Y-112475714D01*
X115562666Y-112523333D01*
X116800761Y-113142380D02*
X116800761Y-112142380D01*
X116800761Y-112523333D02*
X116896000Y-112475714D01*
X117086476Y-112475714D01*
X117181714Y-112523333D01*
X117229333Y-112570952D01*
X117276952Y-112666190D01*
X117276952Y-112951904D01*
X117229333Y-113047142D01*
X117181714Y-113094761D01*
X117086476Y-113142380D01*
X116896000Y-113142380D01*
X116800761Y-113094761D01*
X117610285Y-112475714D02*
X117848380Y-113142380D01*
X118086476Y-112475714D02*
X117848380Y-113142380D01*
X117753142Y-113380476D01*
X117705523Y-113428095D01*
X117610285Y-113475714D01*
X119515047Y-112142380D02*
X119515047Y-112856666D01*
X119467428Y-112999523D01*
X119372190Y-113094761D01*
X119229333Y-113142380D01*
X119134095Y-113142380D01*
X120419809Y-113142380D02*
X120419809Y-112618571D01*
X120372190Y-112523333D01*
X120276952Y-112475714D01*
X120086476Y-112475714D01*
X119991238Y-112523333D01*
X120419809Y-113094761D02*
X120324571Y-113142380D01*
X120086476Y-113142380D01*
X119991238Y-113094761D01*
X119943619Y-112999523D01*
X119943619Y-112904285D01*
X119991238Y-112809047D01*
X120086476Y-112761428D01*
X120324571Y-112761428D01*
X120419809Y-112713809D01*
X120896000Y-113142380D02*
X120896000Y-112475714D01*
X120896000Y-112666190D02*
X120943619Y-112570952D01*
X120991238Y-112523333D01*
X121086476Y-112475714D01*
X121181714Y-112475714D01*
X121515047Y-113142380D02*
X121515047Y-112475714D01*
X121515047Y-112666190D02*
X121562666Y-112570952D01*
X121610285Y-112523333D01*
X121705523Y-112475714D01*
X121800761Y-112475714D01*
X122515047Y-113094761D02*
X122419809Y-113142380D01*
X122229333Y-113142380D01*
X122134095Y-113094761D01*
X122086476Y-112999523D01*
X122086476Y-112618571D01*
X122134095Y-112523333D01*
X122229333Y-112475714D01*
X122419809Y-112475714D01*
X122515047Y-112523333D01*
X122562666Y-112618571D01*
X122562666Y-112713809D01*
X122086476Y-112809047D01*
X122848380Y-112475714D02*
X123229333Y-112475714D01*
X122991238Y-112142380D02*
X122991238Y-112999523D01*
X123038857Y-113094761D01*
X123134095Y-113142380D01*
X123229333Y-113142380D01*
X123419809Y-112475714D02*
X123800761Y-112475714D01*
X123562666Y-112142380D02*
X123562666Y-112999523D01*
X123610285Y-113094761D01*
X123705523Y-113142380D01*
X123800761Y-113142380D01*
X125467428Y-113047142D02*
X125419809Y-113094761D01*
X125276952Y-113142380D01*
X125181714Y-113142380D01*
X125038857Y-113094761D01*
X124943619Y-112999523D01*
X124896000Y-112904285D01*
X124848380Y-112713809D01*
X124848380Y-112570952D01*
X124896000Y-112380476D01*
X124943619Y-112285238D01*
X125038857Y-112190000D01*
X125181714Y-112142380D01*
X125276952Y-112142380D01*
X125419809Y-112190000D01*
X125467428Y-112237619D01*
X125896000Y-113142380D02*
X125896000Y-112475714D01*
X125896000Y-112142380D02*
X125848380Y-112190000D01*
X125896000Y-112237619D01*
X125943619Y-112190000D01*
X125896000Y-112142380D01*
X125896000Y-112237619D01*
X126800761Y-112475714D02*
X126800761Y-113285238D01*
X126753142Y-113380476D01*
X126705523Y-113428095D01*
X126610285Y-113475714D01*
X126467428Y-113475714D01*
X126372190Y-113428095D01*
X126800761Y-113094761D02*
X126705523Y-113142380D01*
X126515047Y-113142380D01*
X126419809Y-113094761D01*
X126372190Y-113047142D01*
X126324571Y-112951904D01*
X126324571Y-112666190D01*
X126372190Y-112570952D01*
X126419809Y-112523333D01*
X126515047Y-112475714D01*
X126705523Y-112475714D01*
X126800761Y-112523333D01*
X127705523Y-113142380D02*
X127705523Y-112618571D01*
X127657904Y-112523333D01*
X127562666Y-112475714D01*
X127372190Y-112475714D01*
X127276952Y-112523333D01*
X127705523Y-113094761D02*
X127610285Y-113142380D01*
X127372190Y-113142380D01*
X127276952Y-113094761D01*
X127229333Y-112999523D01*
X127229333Y-112904285D01*
X127276952Y-112809047D01*
X127372190Y-112761428D01*
X127610285Y-112761428D01*
X127705523Y-112713809D01*
X128181714Y-113142380D02*
X128181714Y-112475714D01*
X128181714Y-112142380D02*
X128134095Y-112190000D01*
X128181714Y-112237619D01*
X128229333Y-112190000D01*
X128181714Y-112142380D01*
X128181714Y-112237619D01*
X128657904Y-112475714D02*
X128657904Y-113142380D01*
X128657904Y-112570952D02*
X128705523Y-112523333D01*
X128800761Y-112475714D01*
X128943619Y-112475714D01*
X129038857Y-112523333D01*
X129086476Y-112618571D01*
X129086476Y-113142380D01*
X129943619Y-113094761D02*
X129848380Y-113142380D01*
X129657904Y-113142380D01*
X129562666Y-113094761D01*
X129515047Y-112999523D01*
X129515047Y-112618571D01*
X129562666Y-112523333D01*
X129657904Y-112475714D01*
X129848380Y-112475714D01*
X129943619Y-112523333D01*
X129991238Y-112618571D01*
X129991238Y-112713809D01*
X129515047Y-112809047D01*
X130419809Y-113142380D02*
X130419809Y-112475714D01*
X130419809Y-112666190D02*
X130467428Y-112570952D01*
X130515047Y-112523333D01*
X130610285Y-112475714D01*
X130705523Y-112475714D01*
X131181714Y-113142380D02*
X131086476Y-113094761D01*
X131038857Y-113047142D01*
X130991238Y-112951904D01*
X130991238Y-112666190D01*
X131038857Y-112570952D01*
X131086476Y-112523333D01*
X131181714Y-112475714D01*
X131324571Y-112475714D01*
X131419809Y-112523333D01*
X131467428Y-112570952D01*
X131515047Y-112666190D01*
X131515047Y-112951904D01*
X131467428Y-113047142D01*
X131419809Y-113094761D01*
X131324571Y-113142380D01*
X131181714Y-113142380D01*
X112657904Y-114752380D02*
X112657904Y-113752380D01*
X112657904Y-114228571D02*
X113229333Y-114228571D01*
X113229333Y-114752380D02*
X113229333Y-113752380D01*
X114134095Y-114752380D02*
X114134095Y-114228571D01*
X114086476Y-114133333D01*
X113991238Y-114085714D01*
X113800761Y-114085714D01*
X113705523Y-114133333D01*
X114134095Y-114704761D02*
X114038857Y-114752380D01*
X113800761Y-114752380D01*
X113705523Y-114704761D01*
X113657904Y-114609523D01*
X113657904Y-114514285D01*
X113705523Y-114419047D01*
X113800761Y-114371428D01*
X114038857Y-114371428D01*
X114134095Y-114323809D01*
X114610285Y-114085714D02*
X114610285Y-115085714D01*
X114610285Y-114133333D02*
X114705523Y-114085714D01*
X114896000Y-114085714D01*
X114991238Y-114133333D01*
X115038857Y-114180952D01*
X115086476Y-114276190D01*
X115086476Y-114561904D01*
X115038857Y-114657142D01*
X114991238Y-114704761D01*
X114896000Y-114752380D01*
X114705523Y-114752380D01*
X114610285Y-114704761D01*
X115372190Y-114085714D02*
X115753142Y-114085714D01*
X115515047Y-113752380D02*
X115515047Y-114609523D01*
X115562666Y-114704761D01*
X115657904Y-114752380D01*
X115753142Y-114752380D01*
X116086476Y-114752380D02*
X116086476Y-114085714D01*
X116086476Y-113752380D02*
X116038857Y-113800000D01*
X116086476Y-113847619D01*
X116134095Y-113800000D01*
X116086476Y-113752380D01*
X116086476Y-113847619D01*
X116991238Y-114704761D02*
X116896000Y-114752380D01*
X116705523Y-114752380D01*
X116610285Y-114704761D01*
X116562666Y-114657142D01*
X116515047Y-114561904D01*
X116515047Y-114276190D01*
X116562666Y-114180952D01*
X116610285Y-114133333D01*
X116705523Y-114085714D01*
X116896000Y-114085714D01*
X116991238Y-114133333D01*
X118134095Y-114704761D02*
X118276952Y-114752380D01*
X118515047Y-114752380D01*
X118610285Y-114704761D01*
X118657904Y-114657142D01*
X118705523Y-114561904D01*
X118705523Y-114466666D01*
X118657904Y-114371428D01*
X118610285Y-114323809D01*
X118515047Y-114276190D01*
X118324571Y-114228571D01*
X118229333Y-114180952D01*
X118181714Y-114133333D01*
X118134095Y-114038095D01*
X118134095Y-113942857D01*
X118181714Y-113847619D01*
X118229333Y-113800000D01*
X118324571Y-113752380D01*
X118562666Y-113752380D01*
X118705523Y-113800000D01*
X119276952Y-114752380D02*
X119181714Y-114704761D01*
X119134095Y-114657142D01*
X119086476Y-114561904D01*
X119086476Y-114276190D01*
X119134095Y-114180952D01*
X119181714Y-114133333D01*
X119276952Y-114085714D01*
X119419809Y-114085714D01*
X119515047Y-114133333D01*
X119562666Y-114180952D01*
X119610285Y-114276190D01*
X119610285Y-114561904D01*
X119562666Y-114657142D01*
X119515047Y-114704761D01*
X119419809Y-114752380D01*
X119276952Y-114752380D01*
X120181714Y-114752380D02*
X120086476Y-114704761D01*
X120038857Y-114609523D01*
X120038857Y-113752380D01*
X120991238Y-114085714D02*
X120991238Y-114752380D01*
X120562666Y-114085714D02*
X120562666Y-114609523D01*
X120610285Y-114704761D01*
X120705523Y-114752380D01*
X120848380Y-114752380D01*
X120943619Y-114704761D01*
X120991238Y-114657142D01*
X121324571Y-114085714D02*
X121705523Y-114085714D01*
X121467428Y-113752380D02*
X121467428Y-114609523D01*
X121515047Y-114704761D01*
X121610285Y-114752380D01*
X121705523Y-114752380D01*
X122038857Y-114752380D02*
X122038857Y-114085714D01*
X122038857Y-113752380D02*
X121991238Y-113800000D01*
X122038857Y-113847619D01*
X122086476Y-113800000D01*
X122038857Y-113752380D01*
X122038857Y-113847619D01*
X122657904Y-114752380D02*
X122562666Y-114704761D01*
X122515047Y-114657142D01*
X122467428Y-114561904D01*
X122467428Y-114276190D01*
X122515047Y-114180952D01*
X122562666Y-114133333D01*
X122657904Y-114085714D01*
X122800761Y-114085714D01*
X122896000Y-114133333D01*
X122943619Y-114180952D01*
X122991238Y-114276190D01*
X122991238Y-114561904D01*
X122943619Y-114657142D01*
X122896000Y-114704761D01*
X122800761Y-114752380D01*
X122657904Y-114752380D01*
X123419809Y-114085714D02*
X123419809Y-114752380D01*
X123419809Y-114180952D02*
X123467428Y-114133333D01*
X123562666Y-114085714D01*
X123705523Y-114085714D01*
X123800761Y-114133333D01*
X123848380Y-114228571D01*
X123848380Y-114752380D01*
X124276952Y-114704761D02*
X124372190Y-114752380D01*
X124562666Y-114752380D01*
X124657904Y-114704761D01*
X124705523Y-114609523D01*
X124705523Y-114561904D01*
X124657904Y-114466666D01*
X124562666Y-114419047D01*
X124419809Y-114419047D01*
X124324571Y-114371428D01*
X124276952Y-114276190D01*
X124276952Y-114228571D01*
X124324571Y-114133333D01*
X124419809Y-114085714D01*
X124562666Y-114085714D01*
X124657904Y-114133333D01*
X125896000Y-114752380D02*
X125896000Y-113752380D01*
X126372190Y-114085714D02*
X126372190Y-114752380D01*
X126372190Y-114180952D02*
X126419809Y-114133333D01*
X126515047Y-114085714D01*
X126657904Y-114085714D01*
X126753142Y-114133333D01*
X126800761Y-114228571D01*
X126800761Y-114752380D01*
X127705523Y-114704761D02*
X127610285Y-114752380D01*
X127419809Y-114752380D01*
X127324571Y-114704761D01*
X127276952Y-114657142D01*
X127229333Y-114561904D01*
X127229333Y-114276190D01*
X127276952Y-114180952D01*
X127324571Y-114133333D01*
X127419809Y-114085714D01*
X127610285Y-114085714D01*
X127705523Y-114133333D01*
X128134095Y-114657142D02*
X128181714Y-114704761D01*
X128134095Y-114752380D01*
X128086476Y-114704761D01*
X128134095Y-114657142D01*
X128134095Y-114752380D01*
X111776952Y-115838571D02*
X111443619Y-115838571D01*
X111443619Y-116362380D02*
X111443619Y-115362380D01*
X111919809Y-115362380D01*
X112681714Y-116314761D02*
X112586476Y-116362380D01*
X112396000Y-116362380D01*
X112300761Y-116314761D01*
X112253142Y-116219523D01*
X112253142Y-115838571D01*
X112300761Y-115743333D01*
X112396000Y-115695714D01*
X112586476Y-115695714D01*
X112681714Y-115743333D01*
X112729333Y-115838571D01*
X112729333Y-115933809D01*
X112253142Y-116029047D01*
X113157904Y-116362380D02*
X113157904Y-115362380D01*
X113157904Y-115743333D02*
X113253142Y-115695714D01*
X113443619Y-115695714D01*
X113538857Y-115743333D01*
X113586476Y-115790952D01*
X113634095Y-115886190D01*
X113634095Y-116171904D01*
X113586476Y-116267142D01*
X113538857Y-116314761D01*
X113443619Y-116362380D01*
X113253142Y-116362380D01*
X113157904Y-116314761D01*
X115348380Y-116362380D02*
X114776952Y-116362380D01*
X115062666Y-116362380D02*
X115062666Y-115362380D01*
X114967428Y-115505238D01*
X114872190Y-115600476D01*
X114776952Y-115648095D01*
X115919809Y-115790952D02*
X115824571Y-115743333D01*
X115776952Y-115695714D01*
X115729333Y-115600476D01*
X115729333Y-115552857D01*
X115776952Y-115457619D01*
X115824571Y-115410000D01*
X115919809Y-115362380D01*
X116110285Y-115362380D01*
X116205523Y-115410000D01*
X116253142Y-115457619D01*
X116300761Y-115552857D01*
X116300761Y-115600476D01*
X116253142Y-115695714D01*
X116205523Y-115743333D01*
X116110285Y-115790952D01*
X115919809Y-115790952D01*
X115824571Y-115838571D01*
X115776952Y-115886190D01*
X115729333Y-115981428D01*
X115729333Y-116171904D01*
X115776952Y-116267142D01*
X115824571Y-116314761D01*
X115919809Y-116362380D01*
X116110285Y-116362380D01*
X116205523Y-116314761D01*
X116253142Y-116267142D01*
X116300761Y-116171904D01*
X116300761Y-115981428D01*
X116253142Y-115886190D01*
X116205523Y-115838571D01*
X116110285Y-115790952D01*
X116776952Y-116314761D02*
X116776952Y-116362380D01*
X116729333Y-116457619D01*
X116681714Y-116505238D01*
X117919809Y-115457619D02*
X117967428Y-115410000D01*
X118062666Y-115362380D01*
X118300761Y-115362380D01*
X118396000Y-115410000D01*
X118443619Y-115457619D01*
X118491238Y-115552857D01*
X118491238Y-115648095D01*
X118443619Y-115790952D01*
X117872190Y-116362380D01*
X118491238Y-116362380D01*
X119110285Y-115362380D02*
X119205523Y-115362380D01*
X119300761Y-115410000D01*
X119348380Y-115457619D01*
X119396000Y-115552857D01*
X119443619Y-115743333D01*
X119443619Y-115981428D01*
X119396000Y-116171904D01*
X119348380Y-116267142D01*
X119300761Y-116314761D01*
X119205523Y-116362380D01*
X119110285Y-116362380D01*
X119015047Y-116314761D01*
X118967428Y-116267142D01*
X118919809Y-116171904D01*
X118872190Y-115981428D01*
X118872190Y-115743333D01*
X118919809Y-115552857D01*
X118967428Y-115457619D01*
X119015047Y-115410000D01*
X119110285Y-115362380D01*
X119824571Y-115457619D02*
X119872190Y-115410000D01*
X119967428Y-115362380D01*
X120205523Y-115362380D01*
X120300761Y-115410000D01*
X120348380Y-115457619D01*
X120396000Y-115552857D01*
X120396000Y-115648095D01*
X120348380Y-115790952D01*
X119776952Y-116362380D01*
X120396000Y-116362380D01*
X121253142Y-115695714D02*
X121253142Y-116362380D01*
X121015047Y-115314761D02*
X120776952Y-116029047D01*
X121396000Y-116029047D01*
X123110285Y-116362380D02*
X122776952Y-115886190D01*
X122538857Y-116362380D02*
X122538857Y-115362380D01*
X122919809Y-115362380D01*
X123015047Y-115410000D01*
X123062666Y-115457619D01*
X123110285Y-115552857D01*
X123110285Y-115695714D01*
X123062666Y-115790952D01*
X123015047Y-115838571D01*
X122919809Y-115886190D01*
X122538857Y-115886190D01*
X123538857Y-115838571D02*
X123872190Y-115838571D01*
X124015047Y-116362380D02*
X123538857Y-116362380D01*
X123538857Y-115362380D01*
X124015047Y-115362380D01*
X124300761Y-115362380D02*
X124634095Y-116362380D01*
X124967428Y-115362380D01*
X125300761Y-116267142D02*
X125348380Y-116314761D01*
X125300761Y-116362380D01*
X125253142Y-116314761D01*
X125300761Y-116267142D01*
X125300761Y-116362380D01*
X126824571Y-116743333D02*
X126776952Y-116695714D01*
X126681714Y-116552857D01*
X126634095Y-116457619D01*
X126586476Y-116314761D01*
X126538857Y-116076666D01*
X126538857Y-115886190D01*
X126586476Y-115648095D01*
X126634095Y-115505238D01*
X126681714Y-115410000D01*
X126776952Y-115267142D01*
X126824571Y-115219523D01*
X127729333Y-116362380D02*
X127157904Y-116362380D01*
X127443619Y-116362380D02*
X127443619Y-115362380D01*
X127348380Y-115505238D01*
X127253142Y-115600476D01*
X127157904Y-115648095D01*
X128062666Y-116743333D02*
X128110285Y-116695714D01*
X128205523Y-116552857D01*
X128253142Y-116457619D01*
X128300761Y-116314761D01*
X128348380Y-116076666D01*
X128348380Y-115886190D01*
X128300761Y-115648095D01*
X128253142Y-115505238D01*
X128205523Y-115410000D01*
X128110285Y-115267142D01*
X128062666Y-115219523D01*
X128824571Y-116362380D02*
X128824571Y-115362380D01*
X129205523Y-115362380D01*
X129300761Y-115410000D01*
X129348380Y-115457619D01*
X129395999Y-115552857D01*
X129395999Y-115695714D01*
X129348380Y-115790952D01*
X129300761Y-115838571D01*
X129205523Y-115886190D01*
X128824571Y-115886190D01*
M02*
