M48
; DRILL file {KiCad 6.0.11+dfsg-1~bpo11+1} date Thu 21 Mar 2024 06:33:53 PM CDT
; FORMAT={-:-/ absolute / inch / decimal}
; #@! TF.CreationDate,2024-03-21T18:33:53-05:00
; #@! TF.GenerationSoftware,Kicad,Pcbnew,6.0.11+dfsg-1~bpo11+1
; #@! TF.FileFunction,Plated,1,4,PTH
FMAT,2
INCH
; #@! TA.AperFunction,Plated,PTH,ViaDrill
T1C0.0098
; #@! TA.AperFunction,Plated,PTH,ComponentDrill
T2C0.0157
; #@! TA.AperFunction,Plated,PTH,ComponentDrill
T3C0.0236
; #@! TA.AperFunction,Plated,PTH,ComponentDrill
T4C0.0374
; #@! TA.AperFunction,Plated,PTH,ComponentDrill
T5C0.0394
; #@! TA.AperFunction,Plated,PTH,ComponentDrill
T6C0.0669
%
G90
G05
T1
X4.29Y-3.875
X4.29Y-3.925
X4.29Y-3.975
X4.29Y-4.025
X4.29Y-4.075
X4.29Y-4.125
X4.29Y-4.175
X4.29Y-4.225
X4.29Y-4.275
X4.29Y-4.325
X4.29Y-4.375
X4.29Y-4.425
X4.29Y-4.475
X4.29Y-4.525
X4.29Y-4.575
X4.29Y-4.625
X4.29Y-4.675
X4.29Y-4.725
X4.29Y-4.775
X4.29Y-4.825
X4.29Y-4.875
X4.29Y-4.925
X4.29Y-4.975
X4.29Y-5.025
X4.29Y-5.075
X4.29Y-5.125
X4.29Y-5.175
X4.29Y-5.225
X4.29Y-5.275
X4.29Y-5.325
X4.29Y-5.375
X4.29Y-5.425
X4.29Y-5.475
X4.29Y-5.525
X4.29Y-5.575
X4.29Y-5.625
X4.29Y-5.675
X4.29Y-5.725
X4.29Y-5.775
X4.33Y-4.81
X4.33Y-4.85
X4.33Y-4.89
X4.33Y-4.93
X4.33Y-5.15
X4.36Y-4.79
X4.36Y-4.83
X4.36Y-4.87
X4.36Y-4.91
X4.365Y-4.44
X4.39Y-4.44
X4.41Y-3.755
X4.41Y-5.925
X4.415Y-4.44
X4.43Y-4.465
X4.43Y-4.49
X4.44Y-4.44
X4.44Y-5.64
X4.46Y-3.755
X4.46Y-5.925
X4.465Y-4.44
X4.47Y-4.78
X4.47Y-4.805
X4.47Y-5.64
X4.49Y-4.44
X4.5Y-4.78
X4.5Y-4.805
X4.5Y-5.64
X4.5003Y-5.2697
X4.51Y-3.755
X4.51Y-5.925
X4.53Y-4.78
X4.53Y-4.805
X4.53Y-5.55
X4.53Y-5.58
X4.53Y-5.61
X4.53Y-5.64
X4.54Y-4.85
X4.54Y-4.875
X4.54Y-4.9
X4.55Y-4.67
X4.56Y-3.755
X4.56Y-4.075
X4.56Y-4.265
X4.56Y-4.35
X4.56Y-4.43
X4.56Y-4.61
X4.56Y-4.97
X4.56Y-5.06
X4.56Y-5.12
X4.56Y-5.17
X4.56Y-5.2
X4.56Y-5.23
X4.56Y-5.925
X4.57Y-4.85
X4.57Y-4.875
X4.57Y-4.9
X4.58Y-4.72
X4.58Y-4.76
X4.59Y-4.97
X4.59Y-5.06
X4.59Y-5.32
X4.59Y-5.43
X4.6Y-4.85
X4.6Y-4.875
X4.6Y-4.93
X4.6098Y-5.6202
X4.61Y-3.755
X4.61Y-4.72
X4.61Y-4.76
X4.61Y-5.925
X4.62Y-4.97
X4.62Y-5.06
X4.62Y-5.14
X4.62Y-5.17
X4.62Y-5.2
X4.62Y-5.23
X4.64Y-4.72
X4.64Y-4.76
X4.64Y-4.89
X4.64Y-4.93
X4.65Y-4.97
X4.65Y-5.06
X4.65Y-5.54
X4.66Y-3.755
X4.66Y-5.09
X4.66Y-5.12
X4.66Y-5.925
X4.67Y-4.075
X4.67Y-4.265
X4.67Y-4.35
X4.67Y-4.43
X4.67Y-4.61
X4.68Y-4.89
X4.68Y-4.93
X4.69Y-5.62
X4.71Y-3.755
X4.71Y-5.925
X4.72Y-4.93
X4.73Y-4.83
X4.74Y-4.72
X4.74Y-4.76
X4.755Y-3.925
X4.755Y-3.95
X4.755Y-3.995
X4.755Y-4.02
X4.76Y-3.755
X4.76Y-4.83
X4.76Y-5.5
X4.76Y-5.53
X4.76Y-5.56
X4.76Y-5.59
X4.76Y-5.62
X4.76Y-5.925
X4.77Y-4.72
X4.77Y-4.76
X4.7894Y-4.8706
X4.79Y-4.075
X4.79Y-4.265
X4.79Y-4.35
X4.79Y-4.43
X4.79Y-4.61
X4.79Y-5.23
X4.79Y-5.3
X4.79Y-5.34
X4.79Y-5.5
X4.79Y-5.56
X4.79Y-5.62
X4.8Y-4.72
X4.8Y-4.76
X4.81Y-3.755
X4.81Y-4.98
X4.81Y-5.925
X4.82Y-4.84
X4.82Y-4.91
X4.82Y-5.5
X4.82Y-5.56
X4.82Y-5.62
X4.84Y-4.82
X4.85Y-5.5
X4.85Y-5.56
X4.85Y-5.62
X4.86Y-3.755
X4.86Y-4.91
X4.86Y-5.925
X4.88Y-5.5
X4.885Y-5.18
X4.89Y-3.8
X4.89Y-3.85
X4.89Y-5.69
X4.91Y-3.755
X4.91Y-5.5
X4.91Y-5.925
X4.915Y-5.14
X4.915Y-5.295
X4.915Y-5.35
X4.915Y-5.4
X4.92Y-3.8
X4.92Y-3.85
X4.92Y-4.43
X4.92Y-4.61
X4.92Y-4.7
X4.92Y-4.87
X4.92Y-4.97
X4.92Y-5.02
X4.92Y-5.24
X4.925Y-3.95
X4.925Y-3.98
X4.925Y-4.01
X4.925Y-4.075
X4.925Y-4.265
X4.925Y-4.35
X4.93Y-4.8
X4.95Y-3.8
X4.95Y-3.85
X4.95Y-4.91
X4.95Y-4.97
X4.955Y-3.95
X4.955Y-3.98
X4.955Y-4.01
X4.96Y-3.755
X4.96Y-5.925
X4.98Y-3.8
X4.98Y-3.85
X4.99Y-4.74
X4.99Y-5.24
X5.01Y-3.755
X5.01Y-3.8
X5.01Y-3.85
X5.01Y-5.34
X5.01Y-5.37
X5.01Y-5.41
X5.01Y-5.51
X5.01Y-5.925
X5.02Y-4.43
X5.02Y-4.61
X5.02Y-5.18
X5.02Y-5.23
X5.02Y-5.26
X5.02Y-5.29
X5.025Y-4.075
X5.025Y-4.265
X5.025Y-4.35
X5.03Y-4.845
X5.03Y-4.89
X5.04Y-3.97
X5.04Y-4.03
X5.04Y-5.14
X5.04Y-5.51
X5.0507Y-4.62
X5.055Y-4.82
X5.06Y-3.755
X5.06Y-5.925
X5.07Y-3.97
X5.07Y-4.03
X5.07Y-5.51
X5.075Y-4.85
X5.08Y-4.47
X5.08Y-5.08
X5.09Y-5.025
X5.095Y-3.915
X5.095Y-4.95
X5.095Y-5.2
X5.1Y-3.97
X5.1Y-4.03
X5.1Y-4.06
X5.1Y-4.09
X5.1Y-4.12
X5.1Y-4.15
X5.1Y-4.18
X5.1Y-4.49
X5.1Y-5.51
X5.1Y-5.54
X5.1Y-5.57
X5.1Y-5.6
X5.1Y-5.63
X5.105Y-5.125
X5.11Y-3.755
X5.11Y-5.925
X5.125Y-4.575
X5.13Y-5.085
X5.135Y-4.95
X5.14Y-5.51
X5.16Y-3.755
X5.16Y-5.925
X5.165Y-5.205
X5.165Y-5.275
X5.17Y-4.52
X5.1809Y-5.3437
X5.185Y-3.795
X5.185Y-3.86
X5.19Y-4.77
X5.1964Y-4.04
X5.205Y-4.965
X5.21Y-3.755
X5.21Y-4.84
X5.21Y-4.875
X5.21Y-5.59
X5.215Y-3.795
X5.215Y-3.86
X5.215Y-4.665
X5.22Y-4.63
X5.22Y-4.7
X5.22Y-4.735
X5.235Y-4.445
X5.235Y-4.89
X5.235Y-4.915
X5.235Y-4.94
X5.235Y-4.965
X5.235Y-4.99
X5.235Y-5.015
X5.235Y-5.04
X5.24Y-5.19
X5.24Y-5.23
X5.24Y-5.4
X5.245Y-3.795
X5.245Y-3.86
X5.26Y-3.755
X5.265Y-4.965
X5.265Y-5.055
X5.28Y-4.81
X5.285Y-4.585
X5.29Y-4.38
X5.3Y-4.48
X5.305Y-5.155
X5.31Y-3.755
X5.31Y-4.51
X5.315Y-4.43
X5.315Y-4.895
X5.315Y-4.925
X5.315Y-4.955
X5.315Y-4.985
X5.315Y-5.015
X5.315Y-5.045
X5.34Y-4.665
X5.345Y-3.89
X5.35Y-3.86
X5.355Y-4.015
X5.355Y-4.895
X5.355Y-4.925
X5.355Y-4.955
X5.355Y-4.985
X5.36Y-3.755
X5.36Y-3.8
X5.36Y-4.04
X5.38Y-4.435
X5.38Y-4.535
X5.385Y-4.615
X5.385Y-4.895
X5.385Y-4.925
X5.385Y-4.955
X5.385Y-4.985
X5.39Y-4.14
X5.39Y-4.34
X5.405Y-3.955
X5.405Y-4.175
X5.405Y-4.685
X5.41Y-3.755
X5.41Y-5.35
X5.435Y-3.96
X5.435Y-3.99
X5.44Y-4.06
X5.45Y-4.4
X5.45Y-4.43
X5.45Y-5.47
X5.45Y-5.6
X5.46Y-3.755
X5.47Y-3.83
X5.48Y-4.67
X5.48Y-4.72
X5.48Y-4.76
X5.48Y-4.8
X5.48Y-4.85
X5.48Y-4.9
X5.48Y-4.94
X5.48Y-4.98
X5.49Y-4.62
X5.49Y-5.6
X5.5Y-4.06
X5.505Y-3.965
X5.51Y-3.755
X5.51Y-4.215
X5.515Y-4.375
X5.52Y-4.59
X5.52Y-5.185
X5.53Y-3.855
X5.53Y-3.925
X5.53Y-5.51
X5.53Y-5.54
X5.53Y-5.57
X5.53Y-5.6
X5.54Y-4.455
X5.545Y-4.56
X5.55Y-4.62
X5.56Y-3.755
X5.57Y-4.265
X5.58Y-4.055
X5.58Y-4.56
X5.6Y-5.05
X5.6Y-5.13
X5.6Y-5.34
X5.6Y-5.39
X5.61Y-3.755
X5.61Y-4.27
X5.61Y-4.56
X5.635Y-3.915
X5.635Y-4.4
X5.645Y-3.81
X5.645Y-3.96
X5.645Y-4.475
X5.65Y-4.56
X5.65Y-5.485
X5.66Y-3.755
X5.665Y-3.83
X5.67Y-4.94
X5.67Y-5.34
X5.68Y-4.32
X5.68Y-4.56
X5.68Y-4.68
X5.68Y-4.75
X5.68Y-4.88
X5.68Y-5.63
X5.685Y-4.065
X5.69Y-4.13
X5.69Y-4.17
X5.69Y-5.05
X5.695Y-4.465
X5.705Y-5.405
X5.71Y-3.755
X5.71Y-3.92
X5.71Y-5.27
X5.71Y-5.87
X5.725Y-3.83
X5.73Y-4.61
X5.73Y-5.91
X5.74Y-4.43
X5.74Y-5.19
X5.76Y-3.755
X5.76Y-3.83
X5.76Y-4.95
X5.77Y-4.75
X5.775Y-3.97
X5.78Y-3.915
X5.78Y-4.195
X5.785Y-4.27
X5.7866Y-4.2211
X5.8Y-4.83
X5.81Y-3.755
X5.81Y-4.355
X5.82Y-5.57
X5.8224Y-4.2925
X5.825Y-4.225
X5.825Y-4.495
X5.825Y-4.555
X5.83Y-3.925
X5.83Y-5.125
X5.83Y-5.25
X5.8448Y-4.1653
X5.8448Y-4.2498
X5.8448Y-4.3248
X5.845Y-4.13
X5.8454Y-4.0639
X5.85Y-5.1
X5.86Y-3.755
X5.86Y-3.89
X5.86Y-5.25
X5.87Y-5.37
X5.87Y-5.43
X5.87Y-5.46
X5.87Y-5.5
X5.8776Y-4.2925
X5.88Y-5.57
X5.89Y-5.25
X5.91Y-3.755
X5.9126Y-4.5809
X5.915Y-4.195
X5.915Y-4.26
X5.915Y-4.48
X5.915Y-5.065
X5.92Y-5.39
X5.93Y-5.25
X5.93Y-5.48
X5.95Y-5.47
X5.9528Y-5.4028
X5.955Y-4.195
X5.96Y-3.755
X5.98Y-4.87
X5.98Y-4.96
X5.98Y-5.29
X5.99Y-4.67
X5.99Y-4.77
X5.99Y-5.47
X6.01Y-3.755
X6.02Y-4.225
X6.02Y-4.295
X6.02Y-4.575
X6.03Y-3.935
X6.03Y-5.4
X6.045Y-4.315
X6.045Y-4.425
X6.045Y-4.47
X6.045Y-4.63
X6.055Y-4.075
X6.055Y-5.135
X6.06Y-3.755
X6.07Y-4.45
X6.095Y-4.45
X6.1Y-3.835
X6.1Y-4.2
X6.1Y-4.375
X6.105Y-4.07
X6.105Y-4.425
X6.11Y-3.755
X6.11Y-4.5
X6.115Y-4.715
X6.115Y-4.815
X6.1151Y-3.9749
X6.12Y-3.935
X6.12Y-4.135
X6.12Y-4.91
X6.12Y-5.025
X6.14Y-4.565
X6.145Y-4.165
X6.1544Y-5.1944
X6.155Y-4.815
X6.155Y-4.915
X6.155Y-5.015
X6.16Y-3.755
X6.16Y-4.22
X6.16Y-4.42
X6.16Y-4.715
X6.165Y-4.33
X6.165Y-4.515
X6.175Y-3.83
X6.19Y-5.235
X6.1911Y-5.12
X6.195Y-5.195
X6.2Y-5.605
X6.205Y-3.93
X6.21Y-3.755
X6.24Y-4.625
X6.24Y-5.045
X6.25Y-4.98
X6.26Y-3.755
X6.26Y-5.015
X6.265Y-4.61
X6.269Y-5.511
X6.27Y-4.65
X6.275Y-5.235
X6.28Y-5.16
X6.28Y-5.415
X6.285Y-5.12
X6.3Y-4.375
X6.3Y-5.24
X6.305Y-4.0
X6.305Y-4.78
X6.305Y-5.07
X6.31Y-3.755
X6.31Y-4.11
X6.32Y-5.29
X6.325Y-3.83
X6.325Y-4.185
X6.33Y-4.955
X6.33Y-5.16
X6.335Y-4.69
X6.339Y-5.511
X6.34Y-4.555
X6.34Y-5.24
X6.345Y-5.46
X6.36Y-3.755
X6.365Y-4.585
X6.365Y-4.625
X6.37Y-3.905
X6.37Y-4.525
X6.375Y-3.84
X6.375Y-4.45
X6.375Y-4.945
X6.39Y-4.475
X6.395Y-4.875
X6.4Y-4.78
X6.4Y-5.2
X6.405Y-4.5
X6.405Y-4.535
X6.4075Y-5.0025
X6.409Y-5.511
X6.41Y-3.755
X6.41Y-4.11
X6.41Y-4.295
X6.41Y-4.45
X6.415Y-4.66
X6.415Y-5.415
X6.4185Y-3.9775
X6.42Y-4.185
X6.425Y-4.365
X6.425Y-5.29
X6.435Y-4.765
X6.44Y-5.215
X6.445Y-3.78
X6.455Y-5.29
X6.46Y-3.755
X6.46Y-5.04
X6.46Y-5.115
X6.46Y-5.16
X6.47Y-4.38
X6.475Y-5.24
X6.48Y-5.33
X6.485Y-5.91
X6.495Y-4.335
X6.5Y-5.295
X6.5Y-5.4
X6.51Y-3.755
X6.51Y-5.925
X6.515Y-4.38
X6.515Y-4.465
X6.515Y-4.575
X6.515Y-4.695
X6.52Y-4.785
X6.52Y-5.12
X6.52Y-5.87
X6.54Y-3.93
X6.55Y-4.895
X6.5539Y-5.3657
X6.56Y-3.755
X6.56Y-4.23
X6.56Y-5.925
X6.565Y-4.345
X6.57Y-4.765
X6.575Y-4.955
X6.59Y-5.265
X6.595Y-5.185
X6.6Y-4.895
X6.605Y-4.345
X6.605Y-4.565
X6.605Y-4.695
X6.61Y-3.755
X6.61Y-3.84
X6.61Y-4.12
X6.61Y-4.465
X6.61Y-5.925
X6.62Y-3.9
X6.62Y-5.14
X6.6225Y-3.9775
X6.63Y-4.77
X6.635Y-4.365
X6.635Y-4.795
X6.635Y-5.385
X6.635Y-5.41
X6.635Y-5.435
X6.635Y-5.46
X6.635Y-5.485
X6.64Y-4.025
X6.64Y-4.395
X6.64Y-4.895
X6.645Y-4.2
X6.655Y-5.275
X6.66Y-3.755
X6.66Y-5.41
X6.66Y-5.925
X6.665Y-4.135
X6.665Y-4.295
X6.665Y-4.8
X6.67Y-5.04
X6.67Y-5.075
X6.67Y-5.385
X6.68Y-4.895
X6.68Y-5.275
X6.685Y-4.415
X6.685Y-5.25
X6.685Y-5.41
X6.69Y-5.345
X6.695Y-4.295
X6.695Y-5.385
X6.7Y-4.8
X6.7Y-5.115
X6.7Y-5.16
X6.705Y-4.065
X6.705Y-5.275
X6.71Y-3.755
X6.71Y-4.77
X6.71Y-5.41
X6.71Y-5.925
X6.7125Y-3.9775
X6.715Y-3.93
X6.715Y-5.345
X6.72Y-3.835
X6.72Y-4.465
X6.72Y-4.53
X6.72Y-4.59
X6.72Y-4.895
X6.72Y-5.385
X6.725Y-4.3
X6.725Y-4.695
X6.73Y-5.275
X6.735Y-4.96
X6.74Y-5.345
X6.755Y-5.275
X6.76Y-3.755
X6.76Y-5.925
X6.765Y-4.335
X6.77Y-5.385
X6.77Y-5.41
X6.77Y-5.435
X6.77Y-5.46
X6.77Y-5.485
X6.775Y-4.38
X6.775Y-5.175
X6.775Y-5.25
X6.78Y-4.875
X6.78Y-5.275
X6.78Y-5.305
X6.78Y-5.335
X6.785Y-3.82
X6.785Y-4.11
X6.785Y-5.075
X6.805Y-4.985
X6.81Y-3.755
X6.81Y-5.925
X6.815Y-4.345
X6.815Y-4.39
X6.815Y-5.06
X6.8175Y-4.7325
X6.82Y-4.705
X6.8228Y-4.6572
X6.8234Y-4.6316
X6.825Y-3.855
X6.825Y-3.975
X6.825Y-4.79
X6.826Y-4.606
X6.835Y-4.105
X6.835Y-4.13
X6.835Y-4.155
X6.835Y-4.18
X6.835Y-4.22
X6.84Y-5.07
X6.84Y-5.25
X6.84Y-5.41
X6.845Y-4.41
X6.845Y-4.48
X6.845Y-4.52
X6.845Y-4.56
X6.855Y-4.245
X6.86Y-3.755
X6.86Y-3.93
X6.86Y-5.04
X6.86Y-5.14
X6.86Y-5.925
X6.87Y-4.89
X6.87Y-5.505
X6.89Y-5.17
X6.91Y-3.755
X6.91Y-5.925
X6.92Y-4.63
X6.92Y-4.67
X6.92Y-4.71
X6.92Y-4.75
X6.93Y-5.17
X6.93Y-5.245
X6.935Y-4.925
X6.94Y-4.18
X6.94Y-5.345
X6.945Y-5.065
X6.96Y-3.755
X6.96Y-4.57
X6.96Y-4.605
X6.96Y-4.905
X6.96Y-5.925
X6.98Y-4.45
X6.98Y-4.975
X6.985Y-4.345
X7.0Y-4.725
X7.0Y-5.805
X7.0Y-5.88
X7.005Y-4.81
X7.005Y-4.87
X7.01Y-3.755
X7.01Y-5.925
X7.015Y-4.435
X7.02Y-5.39
X7.025Y-4.93
X7.025Y-5.035
X7.03Y-4.08
X7.03Y-4.31
X7.03Y-4.995
X7.035Y-4.28
X7.035Y-4.775
X7.035Y-4.815
X7.04Y-4.84
X7.055Y-4.265
X7.06Y-3.755
X7.06Y-5.925
X7.08Y-4.18
X7.08Y-4.5
X7.08Y-4.535
X7.09Y-4.24
X7.11Y-3.755
X7.11Y-5.925
X7.13Y-4.85
X7.135Y-4.915
X7.145Y-5.415
X7.15Y-4.51
X7.16Y-3.755
X7.16Y-5.925
X7.175Y-3.96
X7.175Y-4.73
X7.18Y-4.52
X7.185Y-4.89
X7.19Y-4.28
X7.19Y-4.34
X7.19Y-4.4
X7.19Y-4.7
X7.2Y-4.37
X7.2Y-5.095
X7.205Y-4.63
X7.21Y-3.755
X7.21Y-4.52
X7.21Y-4.87
X7.21Y-5.925
X7.215Y-4.305
X7.23Y-4.905
X7.245Y-4.46
X7.26Y-3.755
X7.26Y-4.79
X7.26Y-4.93
X7.26Y-5.925
X7.32Y-4.455
X7.32Y-4.49
X7.32Y-4.535
X7.32Y-4.58
X7.32Y-4.84
X7.32Y-4.87
X7.32Y-4.9
X7.32Y-4.93
X7.325Y-4.72
X7.325Y-4.75
X7.325Y-4.785
X7.335Y-4.6
X7.335Y-5.08
X7.365Y-5.02
X7.365Y-5.6
X7.3931Y-5.1369
X7.405Y-3.91
X7.405Y-3.96
X7.405Y-4.01
X7.405Y-4.06
X7.405Y-4.11
X7.405Y-4.16
X7.405Y-4.21
X7.405Y-4.26
X7.405Y-4.31
X7.405Y-4.36
X7.405Y-4.41
X7.405Y-4.46
X7.405Y-4.5
X7.41Y-5.165
X7.41Y-5.215
X7.41Y-5.265
X7.41Y-5.315
X7.41Y-5.365
X7.41Y-5.415
X7.41Y-5.465
X7.41Y-5.515
X7.41Y-5.565
X7.41Y-5.615
X7.41Y-5.665
X7.41Y-5.715
X7.41Y-5.765
X7.41Y-5.815
T2
X4.5429Y-5.7015
X4.5429Y-5.7547
X4.5763Y-5.7015
X4.5763Y-5.7547
X4.6098Y-5.7015
X4.6098Y-5.7547
X4.6433Y-5.7015
X4.6433Y-5.7547
X4.6767Y-5.7015
X4.6767Y-5.7547
X4.7102Y-5.7015
X4.7102Y-5.7547
X4.7437Y-5.7015
X4.7437Y-5.7547
X4.7771Y-5.7015
X4.7771Y-5.7547
T4
X5.8647Y-5.74
X5.9631Y-5.74
X6.0616Y-5.74
X6.16Y-5.74
X6.2584Y-5.74
T5
X6.9598Y-3.87
X7.0598Y-3.87
X7.06Y-4.6198
X7.06Y-4.7198
X7.15Y-5.73
X7.25Y-5.73
X7.26Y-3.97
X7.26Y-4.07
X7.26Y-4.17
X7.26Y-4.27
X7.26Y-4.37
X7.26Y-5.08
X7.26Y-5.18
X7.26Y-5.28
X7.26Y-5.38
X7.26Y-5.48
T6
X5.0392Y-5.7333
X5.1951Y-5.7333
X5.4692Y-5.7333
X5.6251Y-5.7333
X6.7571Y-5.73
X6.913Y-5.73
T3
G00X4.4897Y-5.7106
M15
G01X4.4897Y-5.7696
M16
G05
G00X4.4897Y-5.8574
M15
G01X4.4897Y-5.8889
M16
G05
G00X4.8303Y-5.7106
M15
G01X4.8303Y-5.7696
M16
G05
G00X4.8303Y-5.8574
M15
G01X4.8303Y-5.8889
M16
G05
T0
M30
