%TF.GenerationSoftware,KiCad,Pcbnew,6.0.11+dfsg-1~bpo11+1*%
%TF.CreationDate,2024-07-10T21:49:50-05:00*%
%TF.ProjectId,BTMS,42544d53-2e6b-4696-9361-645f70636258,rev?*%
%TF.SameCoordinates,Original*%
%TF.FileFunction,Legend,Bot*%
%TF.FilePolarity,Positive*%
%FSLAX46Y46*%
G04 Gerber Fmt 4.6, Leading zero omitted, Abs format (unit mm)*
G04 Created by KiCad (PCBNEW 6.0.11+dfsg-1~bpo11+1) date 2024-07-10 21:49:50*
%MOMM*%
%LPD*%
G01*
G04 APERTURE LIST*
%ADD10C,0.120000*%
%ADD11C,0.100000*%
%ADD12C,0.150000*%
%ADD13C,0.125000*%
G04 APERTURE END LIST*
D10*
X168021000Y-98044000D02*
X168021000Y-97028000D01*
D11*
G36*
X161417000Y-99568000D02*
G01*
X160147000Y-99568000D01*
X160147000Y-100584000D01*
X158369000Y-100584000D01*
X158369000Y-99568000D01*
X159131000Y-99568000D01*
X159131000Y-98806000D01*
X160147000Y-98806000D01*
X160147000Y-97536000D01*
X161417000Y-97536000D01*
X161417000Y-99568000D01*
G37*
X161417000Y-99568000D02*
X160147000Y-99568000D01*
X160147000Y-100584000D01*
X158369000Y-100584000D01*
X158369000Y-99568000D01*
X159131000Y-99568000D01*
X159131000Y-98806000D01*
X160147000Y-98806000D01*
X160147000Y-97536000D01*
X161417000Y-97536000D01*
X161417000Y-99568000D01*
G36*
X155575000Y-106934000D02*
G01*
X154305000Y-106934000D01*
X154305000Y-106172000D01*
X155575000Y-106172000D01*
X155575000Y-106934000D01*
G37*
X155575000Y-106934000D02*
X154305000Y-106934000D01*
X154305000Y-106172000D01*
X155575000Y-106172000D01*
X155575000Y-106934000D01*
D10*
X146685000Y-102362000D02*
X147955000Y-100838000D01*
D11*
G36*
X161417000Y-103632000D02*
G01*
X153797000Y-103632000D01*
X153797000Y-103378000D01*
X161417000Y-103378000D01*
X161417000Y-103632000D01*
G37*
X161417000Y-103632000D02*
X153797000Y-103632000D01*
X153797000Y-103378000D01*
X161417000Y-103378000D01*
X161417000Y-103632000D01*
D10*
X163703000Y-107950000D02*
X167513000Y-98044000D01*
X146939000Y-102362000D02*
X146177000Y-103632000D01*
X146939000Y-102362000D02*
X145923000Y-101092000D01*
X156337000Y-98298000D02*
X155067000Y-98298000D01*
D11*
G36*
X153797000Y-97980500D02*
G01*
X152273000Y-97980500D01*
X152273000Y-97091500D01*
X153797000Y-97091500D01*
X153797000Y-97980500D01*
G37*
X153797000Y-97980500D02*
X152273000Y-97980500D01*
X152273000Y-97091500D01*
X153797000Y-97091500D01*
X153797000Y-97980500D01*
G36*
X155067000Y-125730000D02*
G01*
X153543000Y-127254000D01*
X153543000Y-131826000D01*
X154559000Y-132842000D01*
X154305000Y-133096000D01*
X153289000Y-132080000D01*
X153289000Y-133858000D01*
X153035000Y-133858000D01*
X153035000Y-132080000D01*
X152273000Y-132080000D01*
X151511000Y-132588000D01*
X151511000Y-132334000D01*
X152273000Y-131826000D01*
X153035000Y-131826000D01*
X153035000Y-127254000D01*
X154559000Y-125476000D01*
X155067000Y-125730000D01*
G37*
X155067000Y-125730000D02*
X153543000Y-127254000D01*
X153543000Y-131826000D01*
X154559000Y-132842000D01*
X154305000Y-133096000D01*
X153289000Y-132080000D01*
X153289000Y-133858000D01*
X153035000Y-133858000D01*
X153035000Y-132080000D01*
X152273000Y-132080000D01*
X151511000Y-132588000D01*
X151511000Y-132334000D01*
X152273000Y-131826000D01*
X153035000Y-131826000D01*
X153035000Y-127254000D01*
X154559000Y-125476000D01*
X155067000Y-125730000D01*
D10*
X161417000Y-108204000D02*
X161417000Y-97536000D01*
D11*
G36*
X157353000Y-104902000D02*
G01*
X156083000Y-104902000D01*
X156083000Y-103632000D01*
X157353000Y-103632000D01*
X157353000Y-104902000D01*
G37*
X157353000Y-104902000D02*
X156083000Y-104902000D01*
X156083000Y-103632000D01*
X157353000Y-103632000D01*
X157353000Y-104902000D01*
D10*
X159385000Y-108204000D02*
X161417000Y-108204000D01*
X158877000Y-97282000D02*
X156337000Y-97282000D01*
D11*
G36*
X163703000Y-107696000D02*
G01*
X164465000Y-108712000D01*
X164973000Y-113284000D01*
X164973000Y-119634000D01*
X164465000Y-121666000D01*
X162687000Y-124460000D01*
X159893000Y-126746000D01*
X155575000Y-126492000D01*
X153289000Y-124460000D01*
X151257000Y-120650000D01*
X151257000Y-115316000D01*
X151511000Y-115316000D01*
X151511000Y-120650000D01*
X153543000Y-124206000D01*
X155829000Y-126238000D01*
X159639000Y-126492000D01*
X162433000Y-124206000D01*
X164211000Y-121412000D01*
X164719000Y-119634000D01*
X164719000Y-113284000D01*
X164211000Y-108966000D01*
X163449000Y-107950000D01*
X162179000Y-107442000D01*
X161671000Y-107442000D01*
X161671000Y-108204000D01*
X161417000Y-108204000D01*
X161417000Y-107188000D01*
X162179000Y-107188000D01*
X163703000Y-107696000D01*
G37*
X163703000Y-107696000D02*
X164465000Y-108712000D01*
X164973000Y-113284000D01*
X164973000Y-119634000D01*
X164465000Y-121666000D01*
X162687000Y-124460000D01*
X159893000Y-126746000D01*
X155575000Y-126492000D01*
X153289000Y-124460000D01*
X151257000Y-120650000D01*
X151257000Y-115316000D01*
X151511000Y-115316000D01*
X151511000Y-120650000D01*
X153543000Y-124206000D01*
X155829000Y-126238000D01*
X159639000Y-126492000D01*
X162433000Y-124206000D01*
X164211000Y-121412000D01*
X164719000Y-119634000D01*
X164719000Y-113284000D01*
X164211000Y-108966000D01*
X163449000Y-107950000D01*
X162179000Y-107442000D01*
X161671000Y-107442000D01*
X161671000Y-108204000D01*
X161417000Y-108204000D01*
X161417000Y-107188000D01*
X162179000Y-107188000D01*
X163703000Y-107696000D01*
D10*
X160147000Y-98298000D02*
X158877000Y-98298000D01*
D11*
G36*
X156845000Y-102108000D02*
G01*
X156083000Y-102108000D01*
X156083000Y-101346000D01*
X156845000Y-101346000D01*
X156845000Y-102108000D01*
G37*
X156845000Y-102108000D02*
X156083000Y-102108000D01*
X156083000Y-101346000D01*
X156845000Y-101346000D01*
X156845000Y-102108000D01*
G36*
X163957000Y-126492000D02*
G01*
X163957000Y-132334000D01*
X164465000Y-132588000D01*
X164465000Y-132842000D01*
X165481000Y-134366000D01*
X165481000Y-134747000D01*
X165227000Y-134747000D01*
X165227000Y-134620000D01*
X163957000Y-132842000D01*
X163957000Y-134620000D01*
X163703000Y-134620000D01*
X163703000Y-132842000D01*
X162941000Y-133604000D01*
X162687000Y-133350000D01*
X163449000Y-132588000D01*
X163449000Y-126492000D01*
X162941000Y-124206000D01*
X163195000Y-123698000D01*
X163957000Y-126492000D01*
G37*
X163957000Y-126492000D02*
X163957000Y-132334000D01*
X164465000Y-132588000D01*
X164465000Y-132842000D01*
X165481000Y-134366000D01*
X165481000Y-134747000D01*
X165227000Y-134747000D01*
X165227000Y-134620000D01*
X163957000Y-132842000D01*
X163957000Y-134620000D01*
X163703000Y-134620000D01*
X163703000Y-132842000D01*
X162941000Y-133604000D01*
X162687000Y-133350000D01*
X163449000Y-132588000D01*
X163449000Y-126492000D01*
X162941000Y-124206000D01*
X163195000Y-123698000D01*
X163957000Y-126492000D01*
G36*
X159131000Y-107442000D02*
G01*
X157861000Y-107442000D01*
X157861000Y-106426000D01*
X159131000Y-106426000D01*
X159131000Y-107442000D01*
G37*
X159131000Y-107442000D02*
X157861000Y-107442000D01*
X157861000Y-106426000D01*
X159131000Y-106426000D01*
X159131000Y-107442000D01*
D10*
X168021000Y-97028000D02*
X167259000Y-95250000D01*
D11*
G36*
X145923000Y-101092000D02*
G01*
X146939000Y-102108000D01*
X147955000Y-100838000D01*
X148209000Y-101092000D01*
X147193000Y-102108000D01*
X149733000Y-103632000D01*
X153543000Y-106934000D01*
X153797000Y-107442000D01*
X147193000Y-102616000D01*
X146177000Y-103632000D01*
X145923000Y-103632000D01*
X146685000Y-102362000D01*
X144653000Y-102362000D01*
X144653000Y-102108000D01*
X146431000Y-102108000D01*
X145669000Y-101092000D01*
X145669000Y-100330000D01*
X145923000Y-100330000D01*
X145923000Y-101092000D01*
G37*
X145923000Y-101092000D02*
X146939000Y-102108000D01*
X147955000Y-100838000D01*
X148209000Y-101092000D01*
X147193000Y-102108000D01*
X149733000Y-103632000D01*
X153543000Y-106934000D01*
X153797000Y-107442000D01*
X147193000Y-102616000D01*
X146177000Y-103632000D01*
X145923000Y-103632000D01*
X146685000Y-102362000D01*
X144653000Y-102362000D01*
X144653000Y-102108000D01*
X146431000Y-102108000D01*
X145669000Y-101092000D01*
X145669000Y-100330000D01*
X145923000Y-100330000D01*
X145923000Y-101092000D01*
G36*
X157353000Y-107442000D02*
G01*
X156083000Y-107442000D01*
X156083000Y-106426000D01*
X157353000Y-106426000D01*
X157353000Y-107442000D01*
G37*
X157353000Y-107442000D02*
X156083000Y-107442000D01*
X156083000Y-106426000D01*
X157353000Y-106426000D01*
X157353000Y-107442000D01*
G36*
X160909000Y-106934000D02*
G01*
X159639000Y-106934000D01*
X159639000Y-106172000D01*
X160909000Y-106172000D01*
X160909000Y-106934000D01*
G37*
X160909000Y-106934000D02*
X159639000Y-106934000D01*
X159639000Y-106172000D01*
X160909000Y-106172000D01*
X160909000Y-106934000D01*
D10*
X153797000Y-107442000D02*
X149733000Y-103886000D01*
X168021000Y-97028000D02*
X165735000Y-96012000D01*
D11*
G36*
X155575000Y-104902000D02*
G01*
X154305000Y-104902000D01*
X154305000Y-103632000D01*
X155575000Y-103632000D01*
X155575000Y-104902000D01*
G37*
X155575000Y-104902000D02*
X154305000Y-104902000D01*
X154305000Y-103632000D01*
X155575000Y-103632000D01*
X155575000Y-104902000D01*
D10*
X145923000Y-101092000D02*
X145923000Y-100330000D01*
D11*
G36*
X151511000Y-116078000D02*
G01*
X151257000Y-116078000D01*
X151257000Y-114808000D01*
X151765000Y-112268000D01*
X152019000Y-112268000D01*
X151511000Y-116078000D01*
G37*
X151511000Y-116078000D02*
X151257000Y-116078000D01*
X151257000Y-114808000D01*
X151765000Y-112268000D01*
X152019000Y-112268000D01*
X151511000Y-116078000D01*
G36*
X159131000Y-104902000D02*
G01*
X157861000Y-104902000D01*
X157861000Y-103632000D01*
X159131000Y-103632000D01*
X159131000Y-104902000D01*
G37*
X159131000Y-104902000D02*
X157861000Y-104902000D01*
X157861000Y-103632000D01*
X159131000Y-103632000D01*
X159131000Y-104902000D01*
G36*
X168021000Y-96520000D02*
G01*
X168529000Y-95758000D01*
X168275000Y-97028000D01*
X168275000Y-97790000D01*
X169037000Y-97790000D01*
X169037000Y-98044000D01*
X167767000Y-98044000D01*
X163703000Y-108204000D01*
X163449000Y-107950000D01*
X167513000Y-97790000D01*
X167767000Y-97790000D01*
X167767000Y-97028000D01*
X166243000Y-96266000D01*
X165227000Y-96266000D01*
X165227000Y-96012000D01*
X166243000Y-96012000D01*
X167513000Y-96520000D01*
X167005000Y-95250000D01*
X167259000Y-95250000D01*
X168021000Y-96520000D01*
G37*
X168021000Y-96520000D02*
X168529000Y-95758000D01*
X168275000Y-97028000D01*
X168275000Y-97790000D01*
X169037000Y-97790000D01*
X169037000Y-98044000D01*
X167767000Y-98044000D01*
X163703000Y-108204000D01*
X163449000Y-107950000D01*
X167513000Y-97790000D01*
X167767000Y-97790000D01*
X167767000Y-97028000D01*
X166243000Y-96266000D01*
X165227000Y-96266000D01*
X165227000Y-96012000D01*
X166243000Y-96012000D01*
X167513000Y-96520000D01*
X167005000Y-95250000D01*
X167259000Y-95250000D01*
X168021000Y-96520000D01*
G36*
X159131000Y-98044000D02*
G01*
X159893000Y-98044000D01*
X159893000Y-97282000D01*
X161671000Y-97282000D01*
X161671000Y-108204000D01*
X161417000Y-108204000D01*
X161417000Y-97536000D01*
X160147000Y-97536000D01*
X160147000Y-98298000D01*
X158877000Y-98298000D01*
X158877000Y-97282000D01*
X156337000Y-97282000D01*
X156337000Y-98298000D01*
X155067000Y-98298000D01*
X155067000Y-97536000D01*
X153797000Y-97536000D01*
X153797000Y-107950000D01*
X156083000Y-107950000D01*
X156083000Y-108966000D01*
X159385000Y-108966000D01*
X159385000Y-108204000D01*
X161163000Y-108204000D01*
X161163000Y-108458000D01*
X159639000Y-108458000D01*
X159639000Y-109220000D01*
X155829000Y-109220000D01*
X155829000Y-108204000D01*
X153543000Y-108204000D01*
X153543000Y-97282000D01*
X155321000Y-97282000D01*
X155321000Y-98044000D01*
X156083000Y-98044000D01*
X156083000Y-97028000D01*
X159131000Y-97028000D01*
X159131000Y-98044000D01*
G37*
X159131000Y-98044000D02*
X159893000Y-98044000D01*
X159893000Y-97282000D01*
X161671000Y-97282000D01*
X161671000Y-108204000D01*
X161417000Y-108204000D01*
X161417000Y-97536000D01*
X160147000Y-97536000D01*
X160147000Y-98298000D01*
X158877000Y-98298000D01*
X158877000Y-97282000D01*
X156337000Y-97282000D01*
X156337000Y-98298000D01*
X155067000Y-98298000D01*
X155067000Y-97536000D01*
X153797000Y-97536000D01*
X153797000Y-107950000D01*
X156083000Y-107950000D01*
X156083000Y-108966000D01*
X159385000Y-108966000D01*
X159385000Y-108204000D01*
X161163000Y-108204000D01*
X161163000Y-108458000D01*
X159639000Y-108458000D01*
X159639000Y-109220000D01*
X155829000Y-109220000D01*
X155829000Y-108204000D01*
X153543000Y-108204000D01*
X153543000Y-97282000D01*
X155321000Y-97282000D01*
X155321000Y-98044000D01*
X156083000Y-98044000D01*
X156083000Y-97028000D01*
X159131000Y-97028000D01*
X159131000Y-98044000D01*
D10*
X155067000Y-98552000D02*
X155067000Y-97536000D01*
X156083000Y-108966000D02*
X159385000Y-108966000D01*
D11*
G36*
X160909000Y-104902000D02*
G01*
X159639000Y-104902000D01*
X159639000Y-103632000D01*
X160909000Y-103632000D01*
X160909000Y-104902000D01*
G37*
X160909000Y-104902000D02*
X159639000Y-104902000D01*
X159639000Y-103632000D01*
X160909000Y-103632000D01*
X160909000Y-104902000D01*
G36*
X156083000Y-107442000D02*
G01*
X159131000Y-107442000D01*
X159131000Y-106934000D01*
X161417000Y-106934000D01*
X161417000Y-107188000D01*
X159385000Y-107188000D01*
X159385000Y-107696000D01*
X155829000Y-107696000D01*
X155829000Y-107188000D01*
X153797000Y-107188000D01*
X153797000Y-106934000D01*
X156083000Y-106934000D01*
X156083000Y-107442000D01*
G37*
X156083000Y-107442000D02*
X159131000Y-107442000D01*
X159131000Y-106934000D01*
X161417000Y-106934000D01*
X161417000Y-107188000D01*
X159385000Y-107188000D01*
X159385000Y-107696000D01*
X155829000Y-107696000D01*
X155829000Y-107188000D01*
X153797000Y-107188000D01*
X153797000Y-106934000D01*
X156083000Y-106934000D01*
X156083000Y-107442000D01*
D10*
X158877000Y-98298000D02*
X158877000Y-97536000D01*
X147193000Y-102362000D02*
X144907000Y-102108000D01*
X149733000Y-103886000D02*
X147193000Y-102362000D01*
D11*
G36*
X155067000Y-98806000D02*
G01*
X156083000Y-98806000D01*
X156083000Y-99568000D01*
X156845000Y-99568000D01*
X156845000Y-100584000D01*
X155067000Y-100584000D01*
X155067000Y-99568000D01*
X153797000Y-99568000D01*
X153797000Y-97536000D01*
X155067000Y-97536000D01*
X155067000Y-98806000D01*
G37*
X155067000Y-98806000D02*
X156083000Y-98806000D01*
X156083000Y-99568000D01*
X156845000Y-99568000D01*
X156845000Y-100584000D01*
X155067000Y-100584000D01*
X155067000Y-99568000D01*
X153797000Y-99568000D01*
X153797000Y-97536000D01*
X155067000Y-97536000D01*
X155067000Y-98806000D01*
G36*
X159131000Y-102108000D02*
G01*
X158369000Y-102108000D01*
X158369000Y-101346000D01*
X159131000Y-101346000D01*
X159131000Y-102108000D01*
G37*
X159131000Y-102108000D02*
X158369000Y-102108000D01*
X158369000Y-101346000D01*
X159131000Y-101346000D01*
X159131000Y-102108000D01*
G36*
X162687000Y-97980500D02*
G01*
X161163000Y-97980500D01*
X161163000Y-97091500D01*
X162687000Y-97091500D01*
X162687000Y-97980500D01*
G37*
X162687000Y-97980500D02*
X161163000Y-97980500D01*
X161163000Y-97091500D01*
X162687000Y-97091500D01*
X162687000Y-97980500D01*
D10*
X153797000Y-97536000D02*
X153797000Y-107950000D01*
X155067000Y-97536000D02*
X153797000Y-97536000D01*
X156083000Y-107950000D02*
X156083000Y-108966000D01*
X167513000Y-98044000D02*
X168783000Y-98044000D01*
X153797000Y-107950000D02*
X156083000Y-107950000D01*
X159385000Y-108966000D02*
X159385000Y-108204000D01*
D11*
G36*
X152019000Y-112268000D02*
G01*
X151765000Y-112268000D01*
X153289000Y-108204000D01*
X153797000Y-108204000D01*
X152019000Y-112268000D01*
G37*
X152019000Y-112268000D02*
X151765000Y-112268000D01*
X153289000Y-108204000D01*
X153797000Y-108204000D01*
X152019000Y-112268000D01*
D10*
X160401000Y-97536000D02*
X160147000Y-97536000D01*
X160147000Y-97536000D02*
X160147000Y-98552000D01*
X161417000Y-97536000D02*
X160401000Y-97536000D01*
X156337000Y-97536000D02*
X156337000Y-98298000D01*
D12*
X169911380Y-105641571D02*
X168911380Y-105641571D01*
X168911380Y-105879666D01*
X168959000Y-106022523D01*
X169054238Y-106117761D01*
X169149476Y-106165380D01*
X169339952Y-106213000D01*
X169482809Y-106213000D01*
X169673285Y-106165380D01*
X169768523Y-106117761D01*
X169863761Y-106022523D01*
X169911380Y-105879666D01*
X169911380Y-105641571D01*
X169863761Y-107022523D02*
X169911380Y-106927285D01*
X169911380Y-106736809D01*
X169863761Y-106641571D01*
X169768523Y-106593952D01*
X169387571Y-106593952D01*
X169292333Y-106641571D01*
X169244714Y-106736809D01*
X169244714Y-106927285D01*
X169292333Y-107022523D01*
X169387571Y-107070142D01*
X169482809Y-107070142D01*
X169578047Y-106593952D01*
X169863761Y-107451095D02*
X169911380Y-107546333D01*
X169911380Y-107736809D01*
X169863761Y-107832047D01*
X169768523Y-107879666D01*
X169720904Y-107879666D01*
X169625666Y-107832047D01*
X169578047Y-107736809D01*
X169578047Y-107593952D01*
X169530428Y-107498714D01*
X169435190Y-107451095D01*
X169387571Y-107451095D01*
X169292333Y-107498714D01*
X169244714Y-107593952D01*
X169244714Y-107736809D01*
X169292333Y-107832047D01*
X169911380Y-108308238D02*
X169244714Y-108308238D01*
X168911380Y-108308238D02*
X168959000Y-108260619D01*
X169006619Y-108308238D01*
X168959000Y-108355857D01*
X168911380Y-108308238D01*
X169006619Y-108308238D01*
X169244714Y-109213000D02*
X170054238Y-109213000D01*
X170149476Y-109165380D01*
X170197095Y-109117761D01*
X170244714Y-109022523D01*
X170244714Y-108879666D01*
X170197095Y-108784428D01*
X169863761Y-109213000D02*
X169911380Y-109117761D01*
X169911380Y-108927285D01*
X169863761Y-108832047D01*
X169816142Y-108784428D01*
X169720904Y-108736809D01*
X169435190Y-108736809D01*
X169339952Y-108784428D01*
X169292333Y-108832047D01*
X169244714Y-108927285D01*
X169244714Y-109117761D01*
X169292333Y-109213000D01*
X169244714Y-109689190D02*
X169911380Y-109689190D01*
X169339952Y-109689190D02*
X169292333Y-109736809D01*
X169244714Y-109832047D01*
X169244714Y-109974904D01*
X169292333Y-110070142D01*
X169387571Y-110117761D01*
X169911380Y-110117761D01*
X169863761Y-110974904D02*
X169911380Y-110879666D01*
X169911380Y-110689190D01*
X169863761Y-110593952D01*
X169768523Y-110546333D01*
X169387571Y-110546333D01*
X169292333Y-110593952D01*
X169244714Y-110689190D01*
X169244714Y-110879666D01*
X169292333Y-110974904D01*
X169387571Y-111022523D01*
X169482809Y-111022523D01*
X169578047Y-110546333D01*
X169911380Y-111879666D02*
X168911380Y-111879666D01*
X169863761Y-111879666D02*
X169911380Y-111784428D01*
X169911380Y-111593952D01*
X169863761Y-111498714D01*
X169816142Y-111451095D01*
X169720904Y-111403476D01*
X169435190Y-111403476D01*
X169339952Y-111451095D01*
X169292333Y-111498714D01*
X169244714Y-111593952D01*
X169244714Y-111784428D01*
X169292333Y-111879666D01*
X169911380Y-113117761D02*
X168911380Y-113117761D01*
X169292333Y-113117761D02*
X169244714Y-113213000D01*
X169244714Y-113403476D01*
X169292333Y-113498714D01*
X169339952Y-113546333D01*
X169435190Y-113593952D01*
X169720904Y-113593952D01*
X169816142Y-113546333D01*
X169863761Y-113498714D01*
X169911380Y-113403476D01*
X169911380Y-113213000D01*
X169863761Y-113117761D01*
X169244714Y-113927285D02*
X169911380Y-114165380D01*
X169244714Y-114403476D02*
X169911380Y-114165380D01*
X170149476Y-114070142D01*
X170197095Y-114022523D01*
X170244714Y-113927285D01*
X168911380Y-115832047D02*
X169625666Y-115832047D01*
X169768523Y-115784428D01*
X169863761Y-115689190D01*
X169911380Y-115546333D01*
X169911380Y-115451095D01*
X169911380Y-116736809D02*
X169387571Y-116736809D01*
X169292333Y-116689190D01*
X169244714Y-116593952D01*
X169244714Y-116403476D01*
X169292333Y-116308238D01*
X169863761Y-116736809D02*
X169911380Y-116641571D01*
X169911380Y-116403476D01*
X169863761Y-116308238D01*
X169768523Y-116260619D01*
X169673285Y-116260619D01*
X169578047Y-116308238D01*
X169530428Y-116403476D01*
X169530428Y-116641571D01*
X169482809Y-116736809D01*
X169911380Y-117213000D02*
X169244714Y-117213000D01*
X169435190Y-117213000D02*
X169339952Y-117260619D01*
X169292333Y-117308238D01*
X169244714Y-117403476D01*
X169244714Y-117498714D01*
X169911380Y-117832047D02*
X169244714Y-117832047D01*
X169435190Y-117832047D02*
X169339952Y-117879666D01*
X169292333Y-117927285D01*
X169244714Y-118022523D01*
X169244714Y-118117761D01*
X169863761Y-118832047D02*
X169911380Y-118736809D01*
X169911380Y-118546333D01*
X169863761Y-118451095D01*
X169768523Y-118403476D01*
X169387571Y-118403476D01*
X169292333Y-118451095D01*
X169244714Y-118546333D01*
X169244714Y-118736809D01*
X169292333Y-118832047D01*
X169387571Y-118879666D01*
X169482809Y-118879666D01*
X169578047Y-118403476D01*
X169244714Y-119165380D02*
X169244714Y-119546333D01*
X168911380Y-119308238D02*
X169768523Y-119308238D01*
X169863761Y-119355857D01*
X169911380Y-119451095D01*
X169911380Y-119546333D01*
X169244714Y-119736809D02*
X169244714Y-120117761D01*
X168911380Y-119879666D02*
X169768523Y-119879666D01*
X169863761Y-119927285D01*
X169911380Y-120022523D01*
X169911380Y-120117761D01*
X169816142Y-121784428D02*
X169863761Y-121736809D01*
X169911380Y-121593952D01*
X169911380Y-121498714D01*
X169863761Y-121355857D01*
X169768523Y-121260619D01*
X169673285Y-121213000D01*
X169482809Y-121165380D01*
X169339952Y-121165380D01*
X169149476Y-121213000D01*
X169054238Y-121260619D01*
X168959000Y-121355857D01*
X168911380Y-121498714D01*
X168911380Y-121593952D01*
X168959000Y-121736809D01*
X169006619Y-121784428D01*
X169911380Y-122213000D02*
X169244714Y-122213000D01*
X168911380Y-122213000D02*
X168959000Y-122165380D01*
X169006619Y-122213000D01*
X168959000Y-122260619D01*
X168911380Y-122213000D01*
X169006619Y-122213000D01*
X169244714Y-123117761D02*
X170054238Y-123117761D01*
X170149476Y-123070142D01*
X170197095Y-123022523D01*
X170244714Y-122927285D01*
X170244714Y-122784428D01*
X170197095Y-122689190D01*
X169863761Y-123117761D02*
X169911380Y-123022523D01*
X169911380Y-122832047D01*
X169863761Y-122736809D01*
X169816142Y-122689190D01*
X169720904Y-122641571D01*
X169435190Y-122641571D01*
X169339952Y-122689190D01*
X169292333Y-122736809D01*
X169244714Y-122832047D01*
X169244714Y-123022523D01*
X169292333Y-123117761D01*
X169911380Y-124022523D02*
X169387571Y-124022523D01*
X169292333Y-123974904D01*
X169244714Y-123879666D01*
X169244714Y-123689190D01*
X169292333Y-123593952D01*
X169863761Y-124022523D02*
X169911380Y-123927285D01*
X169911380Y-123689190D01*
X169863761Y-123593952D01*
X169768523Y-123546333D01*
X169673285Y-123546333D01*
X169578047Y-123593952D01*
X169530428Y-123689190D01*
X169530428Y-123927285D01*
X169482809Y-124022523D01*
X169911380Y-124498714D02*
X169244714Y-124498714D01*
X168911380Y-124498714D02*
X168959000Y-124451095D01*
X169006619Y-124498714D01*
X168959000Y-124546333D01*
X168911380Y-124498714D01*
X169006619Y-124498714D01*
X169244714Y-124974904D02*
X169911380Y-124974904D01*
X169339952Y-124974904D02*
X169292333Y-125022523D01*
X169244714Y-125117761D01*
X169244714Y-125260619D01*
X169292333Y-125355857D01*
X169387571Y-125403476D01*
X169911380Y-125403476D01*
X169863761Y-126260619D02*
X169911380Y-126165380D01*
X169911380Y-125974904D01*
X169863761Y-125879666D01*
X169768523Y-125832047D01*
X169387571Y-125832047D01*
X169292333Y-125879666D01*
X169244714Y-125974904D01*
X169244714Y-126165380D01*
X169292333Y-126260619D01*
X169387571Y-126308238D01*
X169482809Y-126308238D01*
X169578047Y-125832047D01*
X169911380Y-126736809D02*
X169244714Y-126736809D01*
X169435190Y-126736809D02*
X169339952Y-126784428D01*
X169292333Y-126832047D01*
X169244714Y-126927285D01*
X169244714Y-127022523D01*
X169911380Y-127498714D02*
X169863761Y-127403476D01*
X169816142Y-127355857D01*
X169720904Y-127308238D01*
X169435190Y-127308238D01*
X169339952Y-127355857D01*
X169292333Y-127403476D01*
X169244714Y-127498714D01*
X169244714Y-127641571D01*
X169292333Y-127736809D01*
X169339952Y-127784428D01*
X169435190Y-127832047D01*
X169720904Y-127832047D01*
X169816142Y-127784428D01*
X169863761Y-127736809D01*
X169911380Y-127641571D01*
X169911380Y-127498714D01*
X171521380Y-108974904D02*
X170521380Y-108974904D01*
X170997571Y-108974904D02*
X170997571Y-109546333D01*
X171521380Y-109546333D02*
X170521380Y-109546333D01*
X171521380Y-110451095D02*
X170997571Y-110451095D01*
X170902333Y-110403476D01*
X170854714Y-110308238D01*
X170854714Y-110117761D01*
X170902333Y-110022523D01*
X171473761Y-110451095D02*
X171521380Y-110355857D01*
X171521380Y-110117761D01*
X171473761Y-110022523D01*
X171378523Y-109974904D01*
X171283285Y-109974904D01*
X171188047Y-110022523D01*
X171140428Y-110117761D01*
X171140428Y-110355857D01*
X171092809Y-110451095D01*
X170854714Y-110927285D02*
X171854714Y-110927285D01*
X170902333Y-110927285D02*
X170854714Y-111022523D01*
X170854714Y-111213000D01*
X170902333Y-111308238D01*
X170949952Y-111355857D01*
X171045190Y-111403476D01*
X171330904Y-111403476D01*
X171426142Y-111355857D01*
X171473761Y-111308238D01*
X171521380Y-111213000D01*
X171521380Y-111022523D01*
X171473761Y-110927285D01*
X170854714Y-111689190D02*
X170854714Y-112070142D01*
X170521380Y-111832047D02*
X171378523Y-111832047D01*
X171473761Y-111879666D01*
X171521380Y-111974904D01*
X171521380Y-112070142D01*
X171521380Y-112403476D02*
X170854714Y-112403476D01*
X170521380Y-112403476D02*
X170569000Y-112355857D01*
X170616619Y-112403476D01*
X170569000Y-112451095D01*
X170521380Y-112403476D01*
X170616619Y-112403476D01*
X171473761Y-113308238D02*
X171521380Y-113213000D01*
X171521380Y-113022523D01*
X171473761Y-112927285D01*
X171426142Y-112879666D01*
X171330904Y-112832047D01*
X171045190Y-112832047D01*
X170949952Y-112879666D01*
X170902333Y-112927285D01*
X170854714Y-113022523D01*
X170854714Y-113213000D01*
X170902333Y-113308238D01*
X171473761Y-114451095D02*
X171521380Y-114593952D01*
X171521380Y-114832047D01*
X171473761Y-114927285D01*
X171426142Y-114974904D01*
X171330904Y-115022523D01*
X171235666Y-115022523D01*
X171140428Y-114974904D01*
X171092809Y-114927285D01*
X171045190Y-114832047D01*
X170997571Y-114641571D01*
X170949952Y-114546333D01*
X170902333Y-114498714D01*
X170807095Y-114451095D01*
X170711857Y-114451095D01*
X170616619Y-114498714D01*
X170569000Y-114546333D01*
X170521380Y-114641571D01*
X170521380Y-114879666D01*
X170569000Y-115022523D01*
X171521380Y-115593952D02*
X171473761Y-115498714D01*
X171426142Y-115451095D01*
X171330904Y-115403476D01*
X171045190Y-115403476D01*
X170949952Y-115451095D01*
X170902333Y-115498714D01*
X170854714Y-115593952D01*
X170854714Y-115736809D01*
X170902333Y-115832047D01*
X170949952Y-115879666D01*
X171045190Y-115927285D01*
X171330904Y-115927285D01*
X171426142Y-115879666D01*
X171473761Y-115832047D01*
X171521380Y-115736809D01*
X171521380Y-115593952D01*
X171521380Y-116498714D02*
X171473761Y-116403476D01*
X171378523Y-116355857D01*
X170521380Y-116355857D01*
X170854714Y-117308238D02*
X171521380Y-117308238D01*
X170854714Y-116879666D02*
X171378523Y-116879666D01*
X171473761Y-116927285D01*
X171521380Y-117022523D01*
X171521380Y-117165380D01*
X171473761Y-117260619D01*
X171426142Y-117308238D01*
X170854714Y-117641571D02*
X170854714Y-118022523D01*
X170521380Y-117784428D02*
X171378523Y-117784428D01*
X171473761Y-117832047D01*
X171521380Y-117927285D01*
X171521380Y-118022523D01*
X171521380Y-118355857D02*
X170854714Y-118355857D01*
X170521380Y-118355857D02*
X170569000Y-118308238D01*
X170616619Y-118355857D01*
X170569000Y-118403476D01*
X170521380Y-118355857D01*
X170616619Y-118355857D01*
X171521380Y-118974904D02*
X171473761Y-118879666D01*
X171426142Y-118832047D01*
X171330904Y-118784428D01*
X171045190Y-118784428D01*
X170949952Y-118832047D01*
X170902333Y-118879666D01*
X170854714Y-118974904D01*
X170854714Y-119117761D01*
X170902333Y-119213000D01*
X170949952Y-119260619D01*
X171045190Y-119308238D01*
X171330904Y-119308238D01*
X171426142Y-119260619D01*
X171473761Y-119213000D01*
X171521380Y-119117761D01*
X171521380Y-118974904D01*
X170854714Y-119736809D02*
X171521380Y-119736809D01*
X170949952Y-119736809D02*
X170902333Y-119784428D01*
X170854714Y-119879666D01*
X170854714Y-120022523D01*
X170902333Y-120117761D01*
X170997571Y-120165380D01*
X171521380Y-120165380D01*
X171473761Y-120593952D02*
X171521380Y-120689190D01*
X171521380Y-120879666D01*
X171473761Y-120974904D01*
X171378523Y-121022523D01*
X171330904Y-121022523D01*
X171235666Y-120974904D01*
X171188047Y-120879666D01*
X171188047Y-120736809D01*
X171140428Y-120641571D01*
X171045190Y-120593952D01*
X170997571Y-120593952D01*
X170902333Y-120641571D01*
X170854714Y-120736809D01*
X170854714Y-120879666D01*
X170902333Y-120974904D01*
X171521380Y-122213000D02*
X170521380Y-122213000D01*
X170854714Y-122689190D02*
X171521380Y-122689190D01*
X170949952Y-122689190D02*
X170902333Y-122736809D01*
X170854714Y-122832047D01*
X170854714Y-122974904D01*
X170902333Y-123070142D01*
X170997571Y-123117761D01*
X171521380Y-123117761D01*
X171473761Y-124022523D02*
X171521380Y-123927285D01*
X171521380Y-123736809D01*
X171473761Y-123641571D01*
X171426142Y-123593952D01*
X171330904Y-123546333D01*
X171045190Y-123546333D01*
X170949952Y-123593952D01*
X170902333Y-123641571D01*
X170854714Y-123736809D01*
X170854714Y-123927285D01*
X170902333Y-124022523D01*
X171426142Y-124451095D02*
X171473761Y-124498714D01*
X171521380Y-124451095D01*
X171473761Y-124403476D01*
X171426142Y-124451095D01*
X171521380Y-124451095D01*
X172131380Y-107379666D02*
X172845666Y-107379666D01*
X172988523Y-107332047D01*
X173083761Y-107236809D01*
X173131380Y-107093952D01*
X173131380Y-106998714D01*
X172464714Y-108284428D02*
X173131380Y-108284428D01*
X172464714Y-107855857D02*
X172988523Y-107855857D01*
X173083761Y-107903476D01*
X173131380Y-107998714D01*
X173131380Y-108141571D01*
X173083761Y-108236809D01*
X173036142Y-108284428D01*
X173131380Y-108903476D02*
X173083761Y-108808238D01*
X172988523Y-108760619D01*
X172131380Y-108760619D01*
X172464714Y-109189190D02*
X173131380Y-109427285D01*
X172464714Y-109665380D02*
X173131380Y-109427285D01*
X173369476Y-109332047D01*
X173417095Y-109284428D01*
X173464714Y-109189190D01*
X173131380Y-111332047D02*
X173131380Y-110760619D01*
X173131380Y-111046333D02*
X172131380Y-111046333D01*
X172274238Y-110951095D01*
X172369476Y-110855857D01*
X172417095Y-110760619D01*
X172131380Y-111951095D02*
X172131380Y-112046333D01*
X172179000Y-112141571D01*
X172226619Y-112189190D01*
X172321857Y-112236809D01*
X172512333Y-112284428D01*
X172750428Y-112284428D01*
X172940904Y-112236809D01*
X173036142Y-112189190D01*
X173083761Y-112141571D01*
X173131380Y-112046333D01*
X173131380Y-111951095D01*
X173083761Y-111855857D01*
X173036142Y-111808238D01*
X172940904Y-111760619D01*
X172750428Y-111713000D01*
X172512333Y-111713000D01*
X172321857Y-111760619D01*
X172226619Y-111808238D01*
X172179000Y-111855857D01*
X172131380Y-111951095D01*
X173083761Y-112760619D02*
X173131380Y-112760619D01*
X173226619Y-112713000D01*
X173274238Y-112665380D01*
X172226619Y-113903476D02*
X172179000Y-113951095D01*
X172131380Y-114046333D01*
X172131380Y-114284428D01*
X172179000Y-114379666D01*
X172226619Y-114427285D01*
X172321857Y-114474904D01*
X172417095Y-114474904D01*
X172559952Y-114427285D01*
X173131380Y-113855857D01*
X173131380Y-114474904D01*
X172131380Y-115093952D02*
X172131380Y-115189190D01*
X172179000Y-115284428D01*
X172226619Y-115332047D01*
X172321857Y-115379666D01*
X172512333Y-115427285D01*
X172750428Y-115427285D01*
X172940904Y-115379666D01*
X173036142Y-115332047D01*
X173083761Y-115284428D01*
X173131380Y-115189190D01*
X173131380Y-115093952D01*
X173083761Y-114998714D01*
X173036142Y-114951095D01*
X172940904Y-114903476D01*
X172750428Y-114855857D01*
X172512333Y-114855857D01*
X172321857Y-114903476D01*
X172226619Y-114951095D01*
X172179000Y-114998714D01*
X172131380Y-115093952D01*
X172226619Y-115808238D02*
X172179000Y-115855857D01*
X172131380Y-115951095D01*
X172131380Y-116189190D01*
X172179000Y-116284428D01*
X172226619Y-116332047D01*
X172321857Y-116379666D01*
X172417095Y-116379666D01*
X172559952Y-116332047D01*
X173131380Y-115760619D01*
X173131380Y-116379666D01*
X172464714Y-117236809D02*
X173131380Y-117236809D01*
X172083761Y-116998714D02*
X172798047Y-116760619D01*
X172798047Y-117379666D01*
X173131380Y-119093952D02*
X172655190Y-118760619D01*
X173131380Y-118522523D02*
X172131380Y-118522523D01*
X172131380Y-118903476D01*
X172179000Y-118998714D01*
X172226619Y-119046333D01*
X172321857Y-119093952D01*
X172464714Y-119093952D01*
X172559952Y-119046333D01*
X172607571Y-118998714D01*
X172655190Y-118903476D01*
X172655190Y-118522523D01*
X172607571Y-119522523D02*
X172607571Y-119855857D01*
X173131380Y-119998714D02*
X173131380Y-119522523D01*
X172131380Y-119522523D01*
X172131380Y-119998714D01*
X172131380Y-120284428D02*
X173131380Y-120617761D01*
X172131380Y-120951095D01*
X173036142Y-121284428D02*
X173083761Y-121332047D01*
X173131380Y-121284428D01*
X173083761Y-121236809D01*
X173036142Y-121284428D01*
X173131380Y-121284428D01*
X173512333Y-122808238D02*
X173464714Y-122760619D01*
X173321857Y-122665380D01*
X173226619Y-122617761D01*
X173083761Y-122570142D01*
X172845666Y-122522523D01*
X172655190Y-122522523D01*
X172417095Y-122570142D01*
X172274238Y-122617761D01*
X172179000Y-122665380D01*
X172036142Y-122760619D01*
X171988523Y-122808238D01*
X173131380Y-123713000D02*
X173131380Y-123141571D01*
X173131380Y-123427285D02*
X172131380Y-123427285D01*
X172274238Y-123332047D01*
X172369476Y-123236809D01*
X172417095Y-123141571D01*
X172607571Y-124474904D02*
X172655190Y-124617761D01*
X172702809Y-124665380D01*
X172798047Y-124713000D01*
X172940904Y-124713000D01*
X173036142Y-124665380D01*
X173083761Y-124617761D01*
X173131380Y-124522523D01*
X173131380Y-124141571D01*
X172131380Y-124141571D01*
X172131380Y-124474904D01*
X172179000Y-124570142D01*
X172226619Y-124617761D01*
X172321857Y-124665380D01*
X172417095Y-124665380D01*
X172512333Y-124617761D01*
X172559952Y-124570142D01*
X172607571Y-124474904D01*
X172607571Y-124141571D01*
X173512333Y-125046333D02*
X173464714Y-125093952D01*
X173321857Y-125189190D01*
X173226619Y-125236809D01*
X173083761Y-125284428D01*
X172845666Y-125332047D01*
X172655190Y-125332047D01*
X172417095Y-125284428D01*
X172274238Y-125236809D01*
X172179000Y-125189190D01*
X172036142Y-125093952D01*
X171988523Y-125046333D01*
X173131380Y-125808238D02*
X172131380Y-125808238D01*
X172131380Y-126189190D01*
X172179000Y-126284428D01*
X172226619Y-126332047D01*
X172321857Y-126379666D01*
X172464714Y-126379666D01*
X172559952Y-126332047D01*
X172607571Y-126284428D01*
X172655190Y-126189190D01*
X172655190Y-125808238D01*
D13*
X158024285Y-148815904D02*
X158024285Y-148015904D01*
X157719523Y-148015904D01*
X157643333Y-148054000D01*
X157605238Y-148092095D01*
X157567142Y-148168285D01*
X157567142Y-148282571D01*
X157605238Y-148358761D01*
X157643333Y-148396857D01*
X157719523Y-148434952D01*
X158024285Y-148434952D01*
X157224285Y-148815904D02*
X157224285Y-148282571D01*
X157224285Y-148434952D02*
X157186190Y-148358761D01*
X157148095Y-148320666D01*
X157071904Y-148282571D01*
X156995714Y-148282571D01*
X156614761Y-148815904D02*
X156690952Y-148777809D01*
X156729047Y-148739714D01*
X156767142Y-148663523D01*
X156767142Y-148434952D01*
X156729047Y-148358761D01*
X156690952Y-148320666D01*
X156614761Y-148282571D01*
X156500476Y-148282571D01*
X156424285Y-148320666D01*
X156386190Y-148358761D01*
X156348095Y-148434952D01*
X156348095Y-148663523D01*
X156386190Y-148739714D01*
X156424285Y-148777809D01*
X156500476Y-148815904D01*
X156614761Y-148815904D01*
X155662380Y-148282571D02*
X155662380Y-148930190D01*
X155700476Y-149006380D01*
X155738571Y-149044476D01*
X155814761Y-149082571D01*
X155929047Y-149082571D01*
X156005238Y-149044476D01*
X155662380Y-148777809D02*
X155738571Y-148815904D01*
X155890952Y-148815904D01*
X155967142Y-148777809D01*
X156005238Y-148739714D01*
X156043333Y-148663523D01*
X156043333Y-148434952D01*
X156005238Y-148358761D01*
X155967142Y-148320666D01*
X155890952Y-148282571D01*
X155738571Y-148282571D01*
X155662380Y-148320666D01*
X155281428Y-148815904D02*
X155281428Y-148282571D01*
X155281428Y-148434952D02*
X155243333Y-148358761D01*
X155205238Y-148320666D01*
X155129047Y-148282571D01*
X155052857Y-148282571D01*
X154443333Y-148815904D02*
X154443333Y-148396857D01*
X154481428Y-148320666D01*
X154557619Y-148282571D01*
X154710000Y-148282571D01*
X154786190Y-148320666D01*
X154443333Y-148777809D02*
X154519523Y-148815904D01*
X154710000Y-148815904D01*
X154786190Y-148777809D01*
X154824285Y-148701619D01*
X154824285Y-148625428D01*
X154786190Y-148549238D01*
X154710000Y-148511142D01*
X154519523Y-148511142D01*
X154443333Y-148473047D01*
X154062380Y-148815904D02*
X154062380Y-148282571D01*
X154062380Y-148358761D02*
X154024285Y-148320666D01*
X153948095Y-148282571D01*
X153833809Y-148282571D01*
X153757619Y-148320666D01*
X153719523Y-148396857D01*
X153719523Y-148815904D01*
X153719523Y-148396857D02*
X153681428Y-148320666D01*
X153605238Y-148282571D01*
X153490952Y-148282571D01*
X153414761Y-148320666D01*
X153376666Y-148396857D01*
X153376666Y-148815904D01*
X152652857Y-148815904D02*
X152652857Y-148396857D01*
X152690952Y-148320666D01*
X152767142Y-148282571D01*
X152919523Y-148282571D01*
X152995714Y-148320666D01*
X152652857Y-148777809D02*
X152729047Y-148815904D01*
X152919523Y-148815904D01*
X152995714Y-148777809D01*
X153033809Y-148701619D01*
X153033809Y-148625428D01*
X152995714Y-148549238D01*
X152919523Y-148511142D01*
X152729047Y-148511142D01*
X152652857Y-148473047D01*
X152271904Y-148815904D02*
X152271904Y-148015904D01*
X152271904Y-148320666D02*
X152195714Y-148282571D01*
X152043333Y-148282571D01*
X151967142Y-148320666D01*
X151929047Y-148358761D01*
X151890952Y-148434952D01*
X151890952Y-148663523D01*
X151929047Y-148739714D01*
X151967142Y-148777809D01*
X152043333Y-148815904D01*
X152195714Y-148815904D01*
X152271904Y-148777809D01*
X151433809Y-148815904D02*
X151510000Y-148777809D01*
X151548095Y-148701619D01*
X151548095Y-148015904D01*
X150824285Y-148777809D02*
X150900476Y-148815904D01*
X151052857Y-148815904D01*
X151129047Y-148777809D01*
X151167142Y-148701619D01*
X151167142Y-148396857D01*
X151129047Y-148320666D01*
X151052857Y-148282571D01*
X150900476Y-148282571D01*
X150824285Y-148320666D01*
X150786190Y-148396857D01*
X150786190Y-148473047D01*
X151167142Y-148549238D01*
X149452857Y-148815904D02*
X149833809Y-148815904D01*
X149833809Y-148015904D01*
X149186190Y-148815904D02*
X149186190Y-148282571D01*
X149186190Y-148015904D02*
X149224285Y-148054000D01*
X149186190Y-148092095D01*
X149148095Y-148054000D01*
X149186190Y-148015904D01*
X149186190Y-148092095D01*
X148919523Y-148282571D02*
X148614761Y-148282571D01*
X148805238Y-148015904D02*
X148805238Y-148701619D01*
X148767142Y-148777809D01*
X148690952Y-148815904D01*
X148614761Y-148815904D01*
X148348095Y-148815904D02*
X148348095Y-148015904D01*
X148005238Y-148815904D02*
X148005238Y-148396857D01*
X148043333Y-148320666D01*
X148119523Y-148282571D01*
X148233809Y-148282571D01*
X148310000Y-148320666D01*
X148348095Y-148358761D01*
X147624285Y-148815904D02*
X147624285Y-148282571D01*
X147624285Y-148015904D02*
X147662380Y-148054000D01*
X147624285Y-148092095D01*
X147586190Y-148054000D01*
X147624285Y-148015904D01*
X147624285Y-148092095D01*
X146900476Y-148282571D02*
X146900476Y-148815904D01*
X147243333Y-148282571D02*
X147243333Y-148701619D01*
X147205238Y-148777809D01*
X147129047Y-148815904D01*
X147014761Y-148815904D01*
X146938571Y-148777809D01*
X146900476Y-148739714D01*
X146519523Y-148815904D02*
X146519523Y-148282571D01*
X146519523Y-148358761D02*
X146481428Y-148320666D01*
X146405238Y-148282571D01*
X146290952Y-148282571D01*
X146214761Y-148320666D01*
X146176666Y-148396857D01*
X146176666Y-148815904D01*
X146176666Y-148396857D02*
X146138571Y-148320666D01*
X146062380Y-148282571D01*
X145948095Y-148282571D01*
X145871904Y-148320666D01*
X145833809Y-148396857D01*
X145833809Y-148815904D01*
X144843333Y-148815904D02*
X144843333Y-148015904D01*
X144843333Y-148320666D02*
X144767142Y-148282571D01*
X144614761Y-148282571D01*
X144538571Y-148320666D01*
X144500476Y-148358761D01*
X144462380Y-148434952D01*
X144462380Y-148663523D01*
X144500476Y-148739714D01*
X144538571Y-148777809D01*
X144614761Y-148815904D01*
X144767142Y-148815904D01*
X144843333Y-148777809D01*
X143776666Y-148815904D02*
X143776666Y-148396857D01*
X143814761Y-148320666D01*
X143890952Y-148282571D01*
X144043333Y-148282571D01*
X144119523Y-148320666D01*
X143776666Y-148777809D02*
X143852857Y-148815904D01*
X144043333Y-148815904D01*
X144119523Y-148777809D01*
X144157619Y-148701619D01*
X144157619Y-148625428D01*
X144119523Y-148549238D01*
X144043333Y-148511142D01*
X143852857Y-148511142D01*
X143776666Y-148473047D01*
X143510000Y-148282571D02*
X143205238Y-148282571D01*
X143395714Y-148015904D02*
X143395714Y-148701619D01*
X143357619Y-148777809D01*
X143281428Y-148815904D01*
X143205238Y-148815904D01*
X143052857Y-148282571D02*
X142748095Y-148282571D01*
X142938571Y-148015904D02*
X142938571Y-148701619D01*
X142900476Y-148777809D01*
X142824285Y-148815904D01*
X142748095Y-148815904D01*
X142176666Y-148777809D02*
X142252857Y-148815904D01*
X142405238Y-148815904D01*
X142481428Y-148777809D01*
X142519523Y-148701619D01*
X142519523Y-148396857D01*
X142481428Y-148320666D01*
X142405238Y-148282571D01*
X142252857Y-148282571D01*
X142176666Y-148320666D01*
X142138571Y-148396857D01*
X142138571Y-148473047D01*
X142519523Y-148549238D01*
X141795714Y-148815904D02*
X141795714Y-148282571D01*
X141795714Y-148434952D02*
X141757619Y-148358761D01*
X141719523Y-148320666D01*
X141643333Y-148282571D01*
X141567142Y-148282571D01*
X141376666Y-148282571D02*
X141186190Y-148815904D01*
X140995714Y-148282571D02*
X141186190Y-148815904D01*
X141262380Y-149006380D01*
X141300476Y-149044476D01*
X141376666Y-149082571D01*
X139738571Y-148777809D02*
X139814761Y-148815904D01*
X139967142Y-148815904D01*
X140043333Y-148777809D01*
X140081428Y-148739714D01*
X140119523Y-148663523D01*
X140119523Y-148434952D01*
X140081428Y-148358761D01*
X140043333Y-148320666D01*
X139967142Y-148282571D01*
X139814761Y-148282571D01*
X139738571Y-148320666D01*
X139395714Y-148815904D02*
X139395714Y-148015904D01*
X139052857Y-148815904D02*
X139052857Y-148396857D01*
X139090952Y-148320666D01*
X139167142Y-148282571D01*
X139281428Y-148282571D01*
X139357619Y-148320666D01*
X139395714Y-148358761D01*
X138329047Y-148815904D02*
X138329047Y-148396857D01*
X138367142Y-148320666D01*
X138443333Y-148282571D01*
X138595714Y-148282571D01*
X138671904Y-148320666D01*
X138329047Y-148777809D02*
X138405238Y-148815904D01*
X138595714Y-148815904D01*
X138671904Y-148777809D01*
X138710000Y-148701619D01*
X138710000Y-148625428D01*
X138671904Y-148549238D01*
X138595714Y-148511142D01*
X138405238Y-148511142D01*
X138329047Y-148473047D01*
X137948095Y-148815904D02*
X137948095Y-148282571D01*
X137948095Y-148434952D02*
X137910000Y-148358761D01*
X137871904Y-148320666D01*
X137795714Y-148282571D01*
X137719523Y-148282571D01*
X137110000Y-148282571D02*
X137110000Y-148930190D01*
X137148095Y-149006380D01*
X137186190Y-149044476D01*
X137262380Y-149082571D01*
X137376666Y-149082571D01*
X137452857Y-149044476D01*
X137110000Y-148777809D02*
X137186190Y-148815904D01*
X137338571Y-148815904D01*
X137414761Y-148777809D01*
X137452857Y-148739714D01*
X137490952Y-148663523D01*
X137490952Y-148434952D01*
X137452857Y-148358761D01*
X137414761Y-148320666D01*
X137338571Y-148282571D01*
X137186190Y-148282571D01*
X137110000Y-148320666D01*
X136424285Y-148777809D02*
X136500476Y-148815904D01*
X136652857Y-148815904D01*
X136729047Y-148777809D01*
X136767142Y-148701619D01*
X136767142Y-148396857D01*
X136729047Y-148320666D01*
X136652857Y-148282571D01*
X136500476Y-148282571D01*
X136424285Y-148320666D01*
X136386190Y-148396857D01*
X136386190Y-148473047D01*
X136767142Y-148549238D01*
X135090952Y-148777809D02*
X135167142Y-148815904D01*
X135319523Y-148815904D01*
X135395714Y-148777809D01*
X135433809Y-148739714D01*
X135471904Y-148663523D01*
X135471904Y-148434952D01*
X135433809Y-148358761D01*
X135395714Y-148320666D01*
X135319523Y-148282571D01*
X135167142Y-148282571D01*
X135090952Y-148320666D01*
X134633809Y-148815904D02*
X134710000Y-148777809D01*
X134748095Y-148739714D01*
X134786190Y-148663523D01*
X134786190Y-148434952D01*
X134748095Y-148358761D01*
X134710000Y-148320666D01*
X134633809Y-148282571D01*
X134519523Y-148282571D01*
X134443333Y-148320666D01*
X134405238Y-148358761D01*
X134367142Y-148434952D01*
X134367142Y-148663523D01*
X134405238Y-148739714D01*
X134443333Y-148777809D01*
X134519523Y-148815904D01*
X134633809Y-148815904D01*
X134024285Y-148282571D02*
X134024285Y-148815904D01*
X134024285Y-148358761D02*
X133986190Y-148320666D01*
X133910000Y-148282571D01*
X133795714Y-148282571D01*
X133719523Y-148320666D01*
X133681428Y-148396857D01*
X133681428Y-148815904D01*
X133414761Y-148282571D02*
X133110000Y-148282571D01*
X133300476Y-148015904D02*
X133300476Y-148701619D01*
X133262380Y-148777809D01*
X133186190Y-148815904D01*
X133110000Y-148815904D01*
X132843333Y-148815904D02*
X132843333Y-148282571D01*
X132843333Y-148434952D02*
X132805238Y-148358761D01*
X132767142Y-148320666D01*
X132690952Y-148282571D01*
X132614761Y-148282571D01*
X132233809Y-148815904D02*
X132310000Y-148777809D01*
X132348095Y-148739714D01*
X132386190Y-148663523D01*
X132386190Y-148434952D01*
X132348095Y-148358761D01*
X132310000Y-148320666D01*
X132233809Y-148282571D01*
X132119523Y-148282571D01*
X132043333Y-148320666D01*
X132005238Y-148358761D01*
X131967142Y-148434952D01*
X131967142Y-148663523D01*
X132005238Y-148739714D01*
X132043333Y-148777809D01*
X132119523Y-148815904D01*
X132233809Y-148815904D01*
X131510000Y-148815904D02*
X131586190Y-148777809D01*
X131624285Y-148701619D01*
X131624285Y-148015904D01*
X131090952Y-148815904D02*
X131167142Y-148777809D01*
X131205238Y-148701619D01*
X131205238Y-148015904D01*
X130481428Y-148777809D02*
X130557619Y-148815904D01*
X130710000Y-148815904D01*
X130786190Y-148777809D01*
X130824285Y-148701619D01*
X130824285Y-148396857D01*
X130786190Y-148320666D01*
X130710000Y-148282571D01*
X130557619Y-148282571D01*
X130481428Y-148320666D01*
X130443333Y-148396857D01*
X130443333Y-148473047D01*
X130824285Y-148549238D01*
X130100476Y-148815904D02*
X130100476Y-148282571D01*
X130100476Y-148434952D02*
X130062380Y-148358761D01*
X130024285Y-148320666D01*
X129948095Y-148282571D01*
X129871904Y-148282571D01*
X129567142Y-148777809D02*
X129567142Y-148815904D01*
X129605238Y-148892095D01*
X129643333Y-148930190D01*
X161205238Y-149684857D02*
X161090952Y-149722952D01*
X161052857Y-149761047D01*
X161014761Y-149837238D01*
X161014761Y-149951523D01*
X161052857Y-150027714D01*
X161090952Y-150065809D01*
X161167142Y-150103904D01*
X161471904Y-150103904D01*
X161471904Y-149303904D01*
X161205238Y-149303904D01*
X161129047Y-149342000D01*
X161090952Y-149380095D01*
X161052857Y-149456285D01*
X161052857Y-149532476D01*
X161090952Y-149608666D01*
X161129047Y-149646761D01*
X161205238Y-149684857D01*
X161471904Y-149684857D01*
X160329047Y-150103904D02*
X160329047Y-149684857D01*
X160367142Y-149608666D01*
X160443333Y-149570571D01*
X160595714Y-149570571D01*
X160671904Y-149608666D01*
X160329047Y-150065809D02*
X160405238Y-150103904D01*
X160595714Y-150103904D01*
X160671904Y-150065809D01*
X160710000Y-149989619D01*
X160710000Y-149913428D01*
X160671904Y-149837238D01*
X160595714Y-149799142D01*
X160405238Y-149799142D01*
X160329047Y-149761047D01*
X160062380Y-149570571D02*
X159757619Y-149570571D01*
X159948095Y-149303904D02*
X159948095Y-149989619D01*
X159910000Y-150065809D01*
X159833809Y-150103904D01*
X159757619Y-150103904D01*
X159605238Y-149570571D02*
X159300476Y-149570571D01*
X159490952Y-149303904D02*
X159490952Y-149989619D01*
X159452857Y-150065809D01*
X159376666Y-150103904D01*
X159300476Y-150103904D01*
X158729047Y-150065809D02*
X158805238Y-150103904D01*
X158957619Y-150103904D01*
X159033809Y-150065809D01*
X159071904Y-149989619D01*
X159071904Y-149684857D01*
X159033809Y-149608666D01*
X158957619Y-149570571D01*
X158805238Y-149570571D01*
X158729047Y-149608666D01*
X158690952Y-149684857D01*
X158690952Y-149761047D01*
X159071904Y-149837238D01*
X158348095Y-150103904D02*
X158348095Y-149570571D01*
X158348095Y-149722952D02*
X158310000Y-149646761D01*
X158271904Y-149608666D01*
X158195714Y-149570571D01*
X158119523Y-149570571D01*
X157929047Y-149570571D02*
X157738571Y-150103904D01*
X157548095Y-149570571D02*
X157738571Y-150103904D01*
X157814761Y-150294380D01*
X157852857Y-150332476D01*
X157929047Y-150370571D01*
X156633809Y-150103904D02*
X156633809Y-149303904D01*
X156367142Y-149875333D01*
X156100476Y-149303904D01*
X156100476Y-150103904D01*
X155376666Y-150103904D02*
X155376666Y-149684857D01*
X155414761Y-149608666D01*
X155490952Y-149570571D01*
X155643333Y-149570571D01*
X155719523Y-149608666D01*
X155376666Y-150065809D02*
X155452857Y-150103904D01*
X155643333Y-150103904D01*
X155719523Y-150065809D01*
X155757619Y-149989619D01*
X155757619Y-149913428D01*
X155719523Y-149837238D01*
X155643333Y-149799142D01*
X155452857Y-149799142D01*
X155376666Y-149761047D01*
X154995714Y-149570571D02*
X154995714Y-150103904D01*
X154995714Y-149646761D02*
X154957619Y-149608666D01*
X154881428Y-149570571D01*
X154767142Y-149570571D01*
X154690952Y-149608666D01*
X154652857Y-149684857D01*
X154652857Y-150103904D01*
X153929047Y-150103904D02*
X153929047Y-149684857D01*
X153967142Y-149608666D01*
X154043333Y-149570571D01*
X154195714Y-149570571D01*
X154271904Y-149608666D01*
X153929047Y-150065809D02*
X154005238Y-150103904D01*
X154195714Y-150103904D01*
X154271904Y-150065809D01*
X154310000Y-149989619D01*
X154310000Y-149913428D01*
X154271904Y-149837238D01*
X154195714Y-149799142D01*
X154005238Y-149799142D01*
X153929047Y-149761047D01*
X153205238Y-149570571D02*
X153205238Y-150218190D01*
X153243333Y-150294380D01*
X153281428Y-150332476D01*
X153357619Y-150370571D01*
X153471904Y-150370571D01*
X153548095Y-150332476D01*
X153205238Y-150065809D02*
X153281428Y-150103904D01*
X153433809Y-150103904D01*
X153510000Y-150065809D01*
X153548095Y-150027714D01*
X153586190Y-149951523D01*
X153586190Y-149722952D01*
X153548095Y-149646761D01*
X153510000Y-149608666D01*
X153433809Y-149570571D01*
X153281428Y-149570571D01*
X153205238Y-149608666D01*
X152824285Y-150103904D02*
X152824285Y-149570571D01*
X152824285Y-149646761D02*
X152786190Y-149608666D01*
X152710000Y-149570571D01*
X152595714Y-149570571D01*
X152519523Y-149608666D01*
X152481428Y-149684857D01*
X152481428Y-150103904D01*
X152481428Y-149684857D02*
X152443333Y-149608666D01*
X152367142Y-149570571D01*
X152252857Y-149570571D01*
X152176666Y-149608666D01*
X152138571Y-149684857D01*
X152138571Y-150103904D01*
X151452857Y-150065809D02*
X151529047Y-150103904D01*
X151681428Y-150103904D01*
X151757619Y-150065809D01*
X151795714Y-149989619D01*
X151795714Y-149684857D01*
X151757619Y-149608666D01*
X151681428Y-149570571D01*
X151529047Y-149570571D01*
X151452857Y-149608666D01*
X151414761Y-149684857D01*
X151414761Y-149761047D01*
X151795714Y-149837238D01*
X151071904Y-149570571D02*
X151071904Y-150103904D01*
X151071904Y-149646761D02*
X151033809Y-149608666D01*
X150957619Y-149570571D01*
X150843333Y-149570571D01*
X150767142Y-149608666D01*
X150729047Y-149684857D01*
X150729047Y-150103904D01*
X150462380Y-149570571D02*
X150157619Y-149570571D01*
X150348095Y-149303904D02*
X150348095Y-149989619D01*
X150310000Y-150065809D01*
X150233809Y-150103904D01*
X150157619Y-150103904D01*
X149319523Y-150065809D02*
X149205238Y-150103904D01*
X149014761Y-150103904D01*
X148938571Y-150065809D01*
X148900476Y-150027714D01*
X148862380Y-149951523D01*
X148862380Y-149875333D01*
X148900476Y-149799142D01*
X148938571Y-149761047D01*
X149014761Y-149722952D01*
X149167142Y-149684857D01*
X149243333Y-149646761D01*
X149281428Y-149608666D01*
X149319523Y-149532476D01*
X149319523Y-149456285D01*
X149281428Y-149380095D01*
X149243333Y-149342000D01*
X149167142Y-149303904D01*
X148976666Y-149303904D01*
X148862380Y-149342000D01*
X148595714Y-149570571D02*
X148405238Y-150103904D01*
X148214761Y-149570571D02*
X148405238Y-150103904D01*
X148481428Y-150294380D01*
X148519523Y-150332476D01*
X148595714Y-150370571D01*
X147948095Y-150065809D02*
X147871904Y-150103904D01*
X147719523Y-150103904D01*
X147643333Y-150065809D01*
X147605238Y-149989619D01*
X147605238Y-149951523D01*
X147643333Y-149875333D01*
X147719523Y-149837238D01*
X147833809Y-149837238D01*
X147910000Y-149799142D01*
X147948095Y-149722952D01*
X147948095Y-149684857D01*
X147910000Y-149608666D01*
X147833809Y-149570571D01*
X147719523Y-149570571D01*
X147643333Y-149608666D01*
X147376666Y-149570571D02*
X147071904Y-149570571D01*
X147262380Y-149303904D02*
X147262380Y-149989619D01*
X147224285Y-150065809D01*
X147148095Y-150103904D01*
X147071904Y-150103904D01*
X146500476Y-150065809D02*
X146576666Y-150103904D01*
X146729047Y-150103904D01*
X146805238Y-150065809D01*
X146843333Y-149989619D01*
X146843333Y-149684857D01*
X146805238Y-149608666D01*
X146729047Y-149570571D01*
X146576666Y-149570571D01*
X146500476Y-149608666D01*
X146462380Y-149684857D01*
X146462380Y-149761047D01*
X146843333Y-149837238D01*
X146119523Y-150103904D02*
X146119523Y-149570571D01*
X146119523Y-149646761D02*
X146081428Y-149608666D01*
X146005238Y-149570571D01*
X145890952Y-149570571D01*
X145814761Y-149608666D01*
X145776666Y-149684857D01*
X145776666Y-150103904D01*
X145776666Y-149684857D02*
X145738571Y-149608666D01*
X145662380Y-149570571D01*
X145548095Y-149570571D01*
X145471904Y-149608666D01*
X145433809Y-149684857D01*
X145433809Y-150103904D01*
X145014761Y-150065809D02*
X145014761Y-150103904D01*
X145052857Y-150180095D01*
X145090952Y-150218190D01*
X143719523Y-150103904D02*
X143719523Y-149684857D01*
X143757619Y-149608666D01*
X143833809Y-149570571D01*
X143986190Y-149570571D01*
X144062380Y-149608666D01*
X143719523Y-150065809D02*
X143795714Y-150103904D01*
X143986190Y-150103904D01*
X144062380Y-150065809D01*
X144100476Y-149989619D01*
X144100476Y-149913428D01*
X144062380Y-149837238D01*
X143986190Y-149799142D01*
X143795714Y-149799142D01*
X143719523Y-149761047D01*
X143338571Y-149570571D02*
X143338571Y-150103904D01*
X143338571Y-149646761D02*
X143300476Y-149608666D01*
X143224285Y-149570571D01*
X143110000Y-149570571D01*
X143033809Y-149608666D01*
X142995714Y-149684857D01*
X142995714Y-150103904D01*
X142271904Y-150103904D02*
X142271904Y-149303904D01*
X142271904Y-150065809D02*
X142348095Y-150103904D01*
X142500476Y-150103904D01*
X142576666Y-150065809D01*
X142614761Y-150027714D01*
X142652857Y-149951523D01*
X142652857Y-149722952D01*
X142614761Y-149646761D01*
X142576666Y-149608666D01*
X142500476Y-149570571D01*
X142348095Y-149570571D01*
X142271904Y-149608666D01*
X141281428Y-150103904D02*
X141281428Y-149303904D01*
X140976666Y-149303904D01*
X140900476Y-149342000D01*
X140862380Y-149380095D01*
X140824285Y-149456285D01*
X140824285Y-149570571D01*
X140862380Y-149646761D01*
X140900476Y-149684857D01*
X140976666Y-149722952D01*
X141281428Y-149722952D01*
X140367142Y-150103904D02*
X140443333Y-150065809D01*
X140481428Y-150027714D01*
X140519523Y-149951523D01*
X140519523Y-149722952D01*
X140481428Y-149646761D01*
X140443333Y-149608666D01*
X140367142Y-149570571D01*
X140252857Y-149570571D01*
X140176666Y-149608666D01*
X140138571Y-149646761D01*
X140100476Y-149722952D01*
X140100476Y-149951523D01*
X140138571Y-150027714D01*
X140176666Y-150065809D01*
X140252857Y-150103904D01*
X140367142Y-150103904D01*
X139833809Y-149570571D02*
X139681428Y-150103904D01*
X139529047Y-149722952D01*
X139376666Y-150103904D01*
X139224285Y-149570571D01*
X138614761Y-150065809D02*
X138690952Y-150103904D01*
X138843333Y-150103904D01*
X138919523Y-150065809D01*
X138957619Y-149989619D01*
X138957619Y-149684857D01*
X138919523Y-149608666D01*
X138843333Y-149570571D01*
X138690952Y-149570571D01*
X138614761Y-149608666D01*
X138576666Y-149684857D01*
X138576666Y-149761047D01*
X138957619Y-149837238D01*
X138233809Y-150103904D02*
X138233809Y-149570571D01*
X138233809Y-149722952D02*
X138195714Y-149646761D01*
X138157619Y-149608666D01*
X138081428Y-149570571D01*
X138005238Y-149570571D01*
X137129047Y-150103904D02*
X137129047Y-149303904D01*
X136862380Y-149875333D01*
X136595714Y-149303904D01*
X136595714Y-150103904D01*
X135871904Y-150103904D02*
X135871904Y-149684857D01*
X135910000Y-149608666D01*
X135986190Y-149570571D01*
X136138571Y-149570571D01*
X136214761Y-149608666D01*
X135871904Y-150065809D02*
X135948095Y-150103904D01*
X136138571Y-150103904D01*
X136214761Y-150065809D01*
X136252857Y-149989619D01*
X136252857Y-149913428D01*
X136214761Y-149837238D01*
X136138571Y-149799142D01*
X135948095Y-149799142D01*
X135871904Y-149761047D01*
X135490952Y-149570571D02*
X135490952Y-150103904D01*
X135490952Y-149646761D02*
X135452857Y-149608666D01*
X135376666Y-149570571D01*
X135262380Y-149570571D01*
X135186190Y-149608666D01*
X135148095Y-149684857D01*
X135148095Y-150103904D01*
X134424285Y-150103904D02*
X134424285Y-149684857D01*
X134462380Y-149608666D01*
X134538571Y-149570571D01*
X134690952Y-149570571D01*
X134767142Y-149608666D01*
X134424285Y-150065809D02*
X134500476Y-150103904D01*
X134690952Y-150103904D01*
X134767142Y-150065809D01*
X134805238Y-149989619D01*
X134805238Y-149913428D01*
X134767142Y-149837238D01*
X134690952Y-149799142D01*
X134500476Y-149799142D01*
X134424285Y-149761047D01*
X133700476Y-149570571D02*
X133700476Y-150218190D01*
X133738571Y-150294380D01*
X133776666Y-150332476D01*
X133852857Y-150370571D01*
X133967142Y-150370571D01*
X134043333Y-150332476D01*
X133700476Y-150065809D02*
X133776666Y-150103904D01*
X133929047Y-150103904D01*
X134005238Y-150065809D01*
X134043333Y-150027714D01*
X134081428Y-149951523D01*
X134081428Y-149722952D01*
X134043333Y-149646761D01*
X134005238Y-149608666D01*
X133929047Y-149570571D01*
X133776666Y-149570571D01*
X133700476Y-149608666D01*
X133319523Y-150103904D02*
X133319523Y-149570571D01*
X133319523Y-149646761D02*
X133281428Y-149608666D01*
X133205238Y-149570571D01*
X133090952Y-149570571D01*
X133014761Y-149608666D01*
X132976666Y-149684857D01*
X132976666Y-150103904D01*
X132976666Y-149684857D02*
X132938571Y-149608666D01*
X132862380Y-149570571D01*
X132748095Y-149570571D01*
X132671904Y-149608666D01*
X132633809Y-149684857D01*
X132633809Y-150103904D01*
X131948095Y-150065809D02*
X132024285Y-150103904D01*
X132176666Y-150103904D01*
X132252857Y-150065809D01*
X132290952Y-149989619D01*
X132290952Y-149684857D01*
X132252857Y-149608666D01*
X132176666Y-149570571D01*
X132024285Y-149570571D01*
X131948095Y-149608666D01*
X131909999Y-149684857D01*
X131909999Y-149761047D01*
X132290952Y-149837238D01*
X131567142Y-149570571D02*
X131567142Y-150103904D01*
X131567142Y-149646761D02*
X131529047Y-149608666D01*
X131452857Y-149570571D01*
X131338571Y-149570571D01*
X131262380Y-149608666D01*
X131224285Y-149684857D01*
X131224285Y-150103904D01*
X130957619Y-149570571D02*
X130652857Y-149570571D01*
X130843333Y-149303904D02*
X130843333Y-149989619D01*
X130805238Y-150065809D01*
X130729047Y-150103904D01*
X130652857Y-150103904D01*
X129814761Y-150065809D02*
X129700476Y-150103904D01*
X129509999Y-150103904D01*
X129433809Y-150065809D01*
X129395714Y-150027714D01*
X129357619Y-149951523D01*
X129357619Y-149875333D01*
X129395714Y-149799142D01*
X129433809Y-149761047D01*
X129509999Y-149722952D01*
X129662380Y-149684857D01*
X129738571Y-149646761D01*
X129776666Y-149608666D01*
X129814761Y-149532476D01*
X129814761Y-149456285D01*
X129776666Y-149380095D01*
X129738571Y-149342000D01*
X129662380Y-149303904D01*
X129471904Y-149303904D01*
X129357619Y-149342000D01*
X129090952Y-149570571D02*
X128900476Y-150103904D01*
X128709999Y-149570571D02*
X128900476Y-150103904D01*
X128976666Y-150294380D01*
X129014761Y-150332476D01*
X129090952Y-150370571D01*
X128443333Y-150065809D02*
X128367142Y-150103904D01*
X128214761Y-150103904D01*
X128138571Y-150065809D01*
X128100476Y-149989619D01*
X128100476Y-149951523D01*
X128138571Y-149875333D01*
X128214761Y-149837238D01*
X128329047Y-149837238D01*
X128405238Y-149799142D01*
X128443333Y-149722952D01*
X128443333Y-149684857D01*
X128405238Y-149608666D01*
X128329047Y-149570571D01*
X128214761Y-149570571D01*
X128138571Y-149608666D01*
X127871904Y-149570571D02*
X127567142Y-149570571D01*
X127757619Y-149303904D02*
X127757619Y-149989619D01*
X127719523Y-150065809D01*
X127643333Y-150103904D01*
X127567142Y-150103904D01*
X126995714Y-150065809D02*
X127071904Y-150103904D01*
X127224285Y-150103904D01*
X127300476Y-150065809D01*
X127338571Y-149989619D01*
X127338571Y-149684857D01*
X127300476Y-149608666D01*
X127224285Y-149570571D01*
X127071904Y-149570571D01*
X126995714Y-149608666D01*
X126957619Y-149684857D01*
X126957619Y-149761047D01*
X127338571Y-149837238D01*
X126614761Y-150103904D02*
X126614761Y-149570571D01*
X126614761Y-149646761D02*
X126576666Y-149608666D01*
X126500476Y-149570571D01*
X126386190Y-149570571D01*
X126309999Y-149608666D01*
X126271904Y-149684857D01*
X126271904Y-150103904D01*
X126271904Y-149684857D02*
X126233809Y-149608666D01*
X126157619Y-149570571D01*
X126043333Y-149570571D01*
X125967142Y-149608666D01*
X125929047Y-149684857D01*
X125929047Y-150103904D01*
X125548095Y-150027714D02*
X125509999Y-150065809D01*
X125548095Y-150103904D01*
X125586190Y-150065809D01*
X125548095Y-150027714D01*
X125548095Y-150103904D01*
M02*
