%TF.GenerationSoftware,KiCad,Pcbnew,8.0.5+1*%
%TF.CreationDate,2024-10-16T07:36:50-05:00*%
%TF.ProjectId,BTMS,42544d53-2e6b-4696-9361-645f70636258,rev?*%
%TF.SameCoordinates,Original*%
%TF.FileFunction,Legend,Bot*%
%TF.FilePolarity,Positive*%
%FSLAX46Y46*%
G04 Gerber Fmt 4.6, Leading zero omitted, Abs format (unit mm)*
G04 Created by KiCad (PCBNEW 8.0.5+1) date 2024-10-16 07:36:50*
%MOMM*%
%LPD*%
G01*
G04 APERTURE LIST*
%ADD10C,0.120000*%
%ADD11C,0.100000*%
%ADD12C,0.150000*%
%ADD13C,0.125000*%
G04 APERTURE END LIST*
D10*
X168021000Y-98044000D02*
X168021000Y-97028000D01*
D11*
X161417000Y-99568000D02*
X160147000Y-99568000D01*
X160147000Y-100584000D01*
X158369000Y-100584000D01*
X158369000Y-99568000D01*
X159131000Y-99568000D01*
X159131000Y-98806000D01*
X160147000Y-98806000D01*
X160147000Y-97536000D01*
X161417000Y-97536000D01*
X161417000Y-99568000D01*
G36*
X161417000Y-99568000D02*
G01*
X160147000Y-99568000D01*
X160147000Y-100584000D01*
X158369000Y-100584000D01*
X158369000Y-99568000D01*
X159131000Y-99568000D01*
X159131000Y-98806000D01*
X160147000Y-98806000D01*
X160147000Y-97536000D01*
X161417000Y-97536000D01*
X161417000Y-99568000D01*
G37*
X155575000Y-106934000D02*
X154305000Y-106934000D01*
X154305000Y-106172000D01*
X155575000Y-106172000D01*
X155575000Y-106934000D01*
G36*
X155575000Y-106934000D02*
G01*
X154305000Y-106934000D01*
X154305000Y-106172000D01*
X155575000Y-106172000D01*
X155575000Y-106934000D01*
G37*
D10*
X146685000Y-102362000D02*
X147955000Y-100838000D01*
D11*
X161417000Y-103632000D02*
X153797000Y-103632000D01*
X153797000Y-103378000D01*
X161417000Y-103378000D01*
X161417000Y-103632000D01*
G36*
X161417000Y-103632000D02*
G01*
X153797000Y-103632000D01*
X153797000Y-103378000D01*
X161417000Y-103378000D01*
X161417000Y-103632000D01*
G37*
D10*
X163703000Y-107950000D02*
X167513000Y-98044000D01*
X146939000Y-102362000D02*
X146177000Y-103632000D01*
X146939000Y-102362000D02*
X145923000Y-101092000D01*
X156337000Y-98298000D02*
X155067000Y-98298000D01*
D11*
X153797000Y-97980500D02*
X152273000Y-97980500D01*
X152273000Y-97091500D01*
X153797000Y-97091500D01*
X153797000Y-97980500D01*
G36*
X153797000Y-97980500D02*
G01*
X152273000Y-97980500D01*
X152273000Y-97091500D01*
X153797000Y-97091500D01*
X153797000Y-97980500D01*
G37*
X155067000Y-125730000D02*
X153543000Y-127254000D01*
X153543000Y-131826000D01*
X154559000Y-132842000D01*
X154305000Y-133096000D01*
X153289000Y-132080000D01*
X153289000Y-133858000D01*
X153035000Y-133858000D01*
X153035000Y-132080000D01*
X152273000Y-132080000D01*
X151511000Y-132588000D01*
X151511000Y-132334000D01*
X152273000Y-131826000D01*
X153035000Y-131826000D01*
X153035000Y-127254000D01*
X154559000Y-125476000D01*
X155067000Y-125730000D01*
G36*
X155067000Y-125730000D02*
G01*
X153543000Y-127254000D01*
X153543000Y-131826000D01*
X154559000Y-132842000D01*
X154305000Y-133096000D01*
X153289000Y-132080000D01*
X153289000Y-133858000D01*
X153035000Y-133858000D01*
X153035000Y-132080000D01*
X152273000Y-132080000D01*
X151511000Y-132588000D01*
X151511000Y-132334000D01*
X152273000Y-131826000D01*
X153035000Y-131826000D01*
X153035000Y-127254000D01*
X154559000Y-125476000D01*
X155067000Y-125730000D01*
G37*
D10*
X161417000Y-108204000D02*
X161417000Y-97536000D01*
D11*
X157353000Y-104902000D02*
X156083000Y-104902000D01*
X156083000Y-103632000D01*
X157353000Y-103632000D01*
X157353000Y-104902000D01*
G36*
X157353000Y-104902000D02*
G01*
X156083000Y-104902000D01*
X156083000Y-103632000D01*
X157353000Y-103632000D01*
X157353000Y-104902000D01*
G37*
D10*
X159385000Y-108204000D02*
X161417000Y-108204000D01*
X158877000Y-97282000D02*
X156337000Y-97282000D01*
D11*
X163703000Y-107696000D02*
X164465000Y-108712000D01*
X164973000Y-113284000D01*
X164973000Y-119634000D01*
X164465000Y-121666000D01*
X162687000Y-124460000D01*
X159893000Y-126746000D01*
X155575000Y-126492000D01*
X153289000Y-124460000D01*
X151257000Y-120650000D01*
X151257000Y-115316000D01*
X151511000Y-115316000D01*
X151511000Y-120650000D01*
X153543000Y-124206000D01*
X155829000Y-126238000D01*
X159639000Y-126492000D01*
X162433000Y-124206000D01*
X164211000Y-121412000D01*
X164719000Y-119634000D01*
X164719000Y-113284000D01*
X164211000Y-108966000D01*
X163449000Y-107950000D01*
X162179000Y-107442000D01*
X161671000Y-107442000D01*
X161671000Y-108204000D01*
X161417000Y-108204000D01*
X161417000Y-107188000D01*
X162179000Y-107188000D01*
X163703000Y-107696000D01*
G36*
X163703000Y-107696000D02*
G01*
X164465000Y-108712000D01*
X164973000Y-113284000D01*
X164973000Y-119634000D01*
X164465000Y-121666000D01*
X162687000Y-124460000D01*
X159893000Y-126746000D01*
X155575000Y-126492000D01*
X153289000Y-124460000D01*
X151257000Y-120650000D01*
X151257000Y-115316000D01*
X151511000Y-115316000D01*
X151511000Y-120650000D01*
X153543000Y-124206000D01*
X155829000Y-126238000D01*
X159639000Y-126492000D01*
X162433000Y-124206000D01*
X164211000Y-121412000D01*
X164719000Y-119634000D01*
X164719000Y-113284000D01*
X164211000Y-108966000D01*
X163449000Y-107950000D01*
X162179000Y-107442000D01*
X161671000Y-107442000D01*
X161671000Y-108204000D01*
X161417000Y-108204000D01*
X161417000Y-107188000D01*
X162179000Y-107188000D01*
X163703000Y-107696000D01*
G37*
D10*
X160147000Y-98298000D02*
X158877000Y-98298000D01*
D11*
X156845000Y-102108000D02*
X156083000Y-102108000D01*
X156083000Y-101346000D01*
X156845000Y-101346000D01*
X156845000Y-102108000D01*
G36*
X156845000Y-102108000D02*
G01*
X156083000Y-102108000D01*
X156083000Y-101346000D01*
X156845000Y-101346000D01*
X156845000Y-102108000D01*
G37*
X163957000Y-126492000D02*
X163957000Y-132334000D01*
X164465000Y-132588000D01*
X164465000Y-132842000D01*
X165481000Y-134366000D01*
X165481000Y-134747000D01*
X165227000Y-134747000D01*
X165227000Y-134620000D01*
X163957000Y-132842000D01*
X163957000Y-134620000D01*
X163703000Y-134620000D01*
X163703000Y-132842000D01*
X162941000Y-133604000D01*
X162687000Y-133350000D01*
X163449000Y-132588000D01*
X163449000Y-126492000D01*
X162941000Y-124206000D01*
X163195000Y-123698000D01*
X163957000Y-126492000D01*
G36*
X163957000Y-126492000D02*
G01*
X163957000Y-132334000D01*
X164465000Y-132588000D01*
X164465000Y-132842000D01*
X165481000Y-134366000D01*
X165481000Y-134747000D01*
X165227000Y-134747000D01*
X165227000Y-134620000D01*
X163957000Y-132842000D01*
X163957000Y-134620000D01*
X163703000Y-134620000D01*
X163703000Y-132842000D01*
X162941000Y-133604000D01*
X162687000Y-133350000D01*
X163449000Y-132588000D01*
X163449000Y-126492000D01*
X162941000Y-124206000D01*
X163195000Y-123698000D01*
X163957000Y-126492000D01*
G37*
X159131000Y-107442000D02*
X157861000Y-107442000D01*
X157861000Y-106426000D01*
X159131000Y-106426000D01*
X159131000Y-107442000D01*
G36*
X159131000Y-107442000D02*
G01*
X157861000Y-107442000D01*
X157861000Y-106426000D01*
X159131000Y-106426000D01*
X159131000Y-107442000D01*
G37*
D10*
X168021000Y-97028000D02*
X167259000Y-95250000D01*
D11*
X145923000Y-101092000D02*
X146939000Y-102108000D01*
X147955000Y-100838000D01*
X148209000Y-101092000D01*
X147193000Y-102108000D01*
X149733000Y-103632000D01*
X153543000Y-106934000D01*
X153797000Y-107442000D01*
X147193000Y-102616000D01*
X146177000Y-103632000D01*
X145923000Y-103632000D01*
X146685000Y-102362000D01*
X144653000Y-102362000D01*
X144653000Y-102108000D01*
X146431000Y-102108000D01*
X145669000Y-101092000D01*
X145669000Y-100330000D01*
X145923000Y-100330000D01*
X145923000Y-101092000D01*
G36*
X145923000Y-101092000D02*
G01*
X146939000Y-102108000D01*
X147955000Y-100838000D01*
X148209000Y-101092000D01*
X147193000Y-102108000D01*
X149733000Y-103632000D01*
X153543000Y-106934000D01*
X153797000Y-107442000D01*
X147193000Y-102616000D01*
X146177000Y-103632000D01*
X145923000Y-103632000D01*
X146685000Y-102362000D01*
X144653000Y-102362000D01*
X144653000Y-102108000D01*
X146431000Y-102108000D01*
X145669000Y-101092000D01*
X145669000Y-100330000D01*
X145923000Y-100330000D01*
X145923000Y-101092000D01*
G37*
X157353000Y-107442000D02*
X156083000Y-107442000D01*
X156083000Y-106426000D01*
X157353000Y-106426000D01*
X157353000Y-107442000D01*
G36*
X157353000Y-107442000D02*
G01*
X156083000Y-107442000D01*
X156083000Y-106426000D01*
X157353000Y-106426000D01*
X157353000Y-107442000D01*
G37*
X160909000Y-106934000D02*
X159639000Y-106934000D01*
X159639000Y-106172000D01*
X160909000Y-106172000D01*
X160909000Y-106934000D01*
G36*
X160909000Y-106934000D02*
G01*
X159639000Y-106934000D01*
X159639000Y-106172000D01*
X160909000Y-106172000D01*
X160909000Y-106934000D01*
G37*
D10*
X153797000Y-107442000D02*
X149733000Y-103886000D01*
X168021000Y-97028000D02*
X165735000Y-96012000D01*
D11*
X155575000Y-104902000D02*
X154305000Y-104902000D01*
X154305000Y-103632000D01*
X155575000Y-103632000D01*
X155575000Y-104902000D01*
G36*
X155575000Y-104902000D02*
G01*
X154305000Y-104902000D01*
X154305000Y-103632000D01*
X155575000Y-103632000D01*
X155575000Y-104902000D01*
G37*
D10*
X145923000Y-101092000D02*
X145923000Y-100330000D01*
D11*
X151511000Y-116078000D02*
X151257000Y-116078000D01*
X151257000Y-114808000D01*
X151765000Y-112268000D01*
X152019000Y-112268000D01*
X151511000Y-116078000D01*
G36*
X151511000Y-116078000D02*
G01*
X151257000Y-116078000D01*
X151257000Y-114808000D01*
X151765000Y-112268000D01*
X152019000Y-112268000D01*
X151511000Y-116078000D01*
G37*
X159131000Y-104902000D02*
X157861000Y-104902000D01*
X157861000Y-103632000D01*
X159131000Y-103632000D01*
X159131000Y-104902000D01*
G36*
X159131000Y-104902000D02*
G01*
X157861000Y-104902000D01*
X157861000Y-103632000D01*
X159131000Y-103632000D01*
X159131000Y-104902000D01*
G37*
X168021000Y-96520000D02*
X168529000Y-95758000D01*
X168275000Y-97028000D01*
X168275000Y-97790000D01*
X169037000Y-97790000D01*
X169037000Y-98044000D01*
X167767000Y-98044000D01*
X163703000Y-108204000D01*
X163449000Y-107950000D01*
X167513000Y-97790000D01*
X167767000Y-97790000D01*
X167767000Y-97028000D01*
X166243000Y-96266000D01*
X165227000Y-96266000D01*
X165227000Y-96012000D01*
X166243000Y-96012000D01*
X167513000Y-96520000D01*
X167005000Y-95250000D01*
X167259000Y-95250000D01*
X168021000Y-96520000D01*
G36*
X168021000Y-96520000D02*
G01*
X168529000Y-95758000D01*
X168275000Y-97028000D01*
X168275000Y-97790000D01*
X169037000Y-97790000D01*
X169037000Y-98044000D01*
X167767000Y-98044000D01*
X163703000Y-108204000D01*
X163449000Y-107950000D01*
X167513000Y-97790000D01*
X167767000Y-97790000D01*
X167767000Y-97028000D01*
X166243000Y-96266000D01*
X165227000Y-96266000D01*
X165227000Y-96012000D01*
X166243000Y-96012000D01*
X167513000Y-96520000D01*
X167005000Y-95250000D01*
X167259000Y-95250000D01*
X168021000Y-96520000D01*
G37*
X159131000Y-98044000D02*
X159893000Y-98044000D01*
X159893000Y-97282000D01*
X161671000Y-97282000D01*
X161671000Y-108204000D01*
X161417000Y-108204000D01*
X161417000Y-97536000D01*
X160147000Y-97536000D01*
X160147000Y-98298000D01*
X158877000Y-98298000D01*
X158877000Y-97282000D01*
X156337000Y-97282000D01*
X156337000Y-98298000D01*
X155067000Y-98298000D01*
X155067000Y-97536000D01*
X153797000Y-97536000D01*
X153797000Y-107950000D01*
X156083000Y-107950000D01*
X156083000Y-108966000D01*
X159385000Y-108966000D01*
X159385000Y-108204000D01*
X161163000Y-108204000D01*
X161163000Y-108458000D01*
X159639000Y-108458000D01*
X159639000Y-109220000D01*
X155829000Y-109220000D01*
X155829000Y-108204000D01*
X153543000Y-108204000D01*
X153543000Y-97282000D01*
X155321000Y-97282000D01*
X155321000Y-98044000D01*
X156083000Y-98044000D01*
X156083000Y-97028000D01*
X159131000Y-97028000D01*
X159131000Y-98044000D01*
G36*
X159131000Y-98044000D02*
G01*
X159893000Y-98044000D01*
X159893000Y-97282000D01*
X161671000Y-97282000D01*
X161671000Y-108204000D01*
X161417000Y-108204000D01*
X161417000Y-97536000D01*
X160147000Y-97536000D01*
X160147000Y-98298000D01*
X158877000Y-98298000D01*
X158877000Y-97282000D01*
X156337000Y-97282000D01*
X156337000Y-98298000D01*
X155067000Y-98298000D01*
X155067000Y-97536000D01*
X153797000Y-97536000D01*
X153797000Y-107950000D01*
X156083000Y-107950000D01*
X156083000Y-108966000D01*
X159385000Y-108966000D01*
X159385000Y-108204000D01*
X161163000Y-108204000D01*
X161163000Y-108458000D01*
X159639000Y-108458000D01*
X159639000Y-109220000D01*
X155829000Y-109220000D01*
X155829000Y-108204000D01*
X153543000Y-108204000D01*
X153543000Y-97282000D01*
X155321000Y-97282000D01*
X155321000Y-98044000D01*
X156083000Y-98044000D01*
X156083000Y-97028000D01*
X159131000Y-97028000D01*
X159131000Y-98044000D01*
G37*
D10*
X155067000Y-98552000D02*
X155067000Y-97536000D01*
X156083000Y-108966000D02*
X159385000Y-108966000D01*
D11*
X160909000Y-104902000D02*
X159639000Y-104902000D01*
X159639000Y-103632000D01*
X160909000Y-103632000D01*
X160909000Y-104902000D01*
G36*
X160909000Y-104902000D02*
G01*
X159639000Y-104902000D01*
X159639000Y-103632000D01*
X160909000Y-103632000D01*
X160909000Y-104902000D01*
G37*
X156083000Y-107442000D02*
X159131000Y-107442000D01*
X159131000Y-106934000D01*
X161417000Y-106934000D01*
X161417000Y-107188000D01*
X159385000Y-107188000D01*
X159385000Y-107696000D01*
X155829000Y-107696000D01*
X155829000Y-107188000D01*
X153797000Y-107188000D01*
X153797000Y-106934000D01*
X156083000Y-106934000D01*
X156083000Y-107442000D01*
G36*
X156083000Y-107442000D02*
G01*
X159131000Y-107442000D01*
X159131000Y-106934000D01*
X161417000Y-106934000D01*
X161417000Y-107188000D01*
X159385000Y-107188000D01*
X159385000Y-107696000D01*
X155829000Y-107696000D01*
X155829000Y-107188000D01*
X153797000Y-107188000D01*
X153797000Y-106934000D01*
X156083000Y-106934000D01*
X156083000Y-107442000D01*
G37*
D10*
X158877000Y-98298000D02*
X158877000Y-97536000D01*
X147193000Y-102362000D02*
X144907000Y-102108000D01*
X149733000Y-103886000D02*
X147193000Y-102362000D01*
D11*
X155067000Y-98806000D02*
X156083000Y-98806000D01*
X156083000Y-99568000D01*
X156845000Y-99568000D01*
X156845000Y-100584000D01*
X155067000Y-100584000D01*
X155067000Y-99568000D01*
X153797000Y-99568000D01*
X153797000Y-97536000D01*
X155067000Y-97536000D01*
X155067000Y-98806000D01*
G36*
X155067000Y-98806000D02*
G01*
X156083000Y-98806000D01*
X156083000Y-99568000D01*
X156845000Y-99568000D01*
X156845000Y-100584000D01*
X155067000Y-100584000D01*
X155067000Y-99568000D01*
X153797000Y-99568000D01*
X153797000Y-97536000D01*
X155067000Y-97536000D01*
X155067000Y-98806000D01*
G37*
X159131000Y-102108000D02*
X158369000Y-102108000D01*
X158369000Y-101346000D01*
X159131000Y-101346000D01*
X159131000Y-102108000D01*
G36*
X159131000Y-102108000D02*
G01*
X158369000Y-102108000D01*
X158369000Y-101346000D01*
X159131000Y-101346000D01*
X159131000Y-102108000D01*
G37*
X162687000Y-97980500D02*
X161163000Y-97980500D01*
X161163000Y-97091500D01*
X162687000Y-97091500D01*
X162687000Y-97980500D01*
G36*
X162687000Y-97980500D02*
G01*
X161163000Y-97980500D01*
X161163000Y-97091500D01*
X162687000Y-97091500D01*
X162687000Y-97980500D01*
G37*
D10*
X153797000Y-97536000D02*
X153797000Y-107950000D01*
X155067000Y-97536000D02*
X153797000Y-97536000D01*
X156083000Y-107950000D02*
X156083000Y-108966000D01*
X167513000Y-98044000D02*
X168783000Y-98044000D01*
X153797000Y-107950000D02*
X156083000Y-107950000D01*
X159385000Y-108966000D02*
X159385000Y-108204000D01*
D11*
X152019000Y-112268000D02*
X151765000Y-112268000D01*
X153289000Y-108204000D01*
X153797000Y-108204000D01*
X152019000Y-112268000D01*
G36*
X152019000Y-112268000D02*
G01*
X151765000Y-112268000D01*
X153289000Y-108204000D01*
X153797000Y-108204000D01*
X152019000Y-112268000D01*
G37*
D10*
X160401000Y-97536000D02*
X160147000Y-97536000D01*
X160147000Y-97536000D02*
X160147000Y-98552000D01*
X161417000Y-97536000D02*
X160401000Y-97536000D01*
X156337000Y-97536000D02*
X156337000Y-98298000D01*
D12*
X169913875Y-105641570D02*
X168913875Y-105641570D01*
X168913875Y-105641570D02*
X168913875Y-105879665D01*
X168913875Y-105879665D02*
X168961494Y-106022522D01*
X168961494Y-106022522D02*
X169056732Y-106117760D01*
X169056732Y-106117760D02*
X169151970Y-106165379D01*
X169151970Y-106165379D02*
X169342446Y-106212998D01*
X169342446Y-106212998D02*
X169485303Y-106212998D01*
X169485303Y-106212998D02*
X169675779Y-106165379D01*
X169675779Y-106165379D02*
X169771017Y-106117760D01*
X169771017Y-106117760D02*
X169866256Y-106022522D01*
X169866256Y-106022522D02*
X169913875Y-105879665D01*
X169913875Y-105879665D02*
X169913875Y-105641570D01*
X169866256Y-107022522D02*
X169913875Y-106927284D01*
X169913875Y-106927284D02*
X169913875Y-106736808D01*
X169913875Y-106736808D02*
X169866256Y-106641570D01*
X169866256Y-106641570D02*
X169771017Y-106593951D01*
X169771017Y-106593951D02*
X169390065Y-106593951D01*
X169390065Y-106593951D02*
X169294827Y-106641570D01*
X169294827Y-106641570D02*
X169247208Y-106736808D01*
X169247208Y-106736808D02*
X169247208Y-106927284D01*
X169247208Y-106927284D02*
X169294827Y-107022522D01*
X169294827Y-107022522D02*
X169390065Y-107070141D01*
X169390065Y-107070141D02*
X169485303Y-107070141D01*
X169485303Y-107070141D02*
X169580541Y-106593951D01*
X169866256Y-107451094D02*
X169913875Y-107546332D01*
X169913875Y-107546332D02*
X169913875Y-107736808D01*
X169913875Y-107736808D02*
X169866256Y-107832046D01*
X169866256Y-107832046D02*
X169771017Y-107879665D01*
X169771017Y-107879665D02*
X169723398Y-107879665D01*
X169723398Y-107879665D02*
X169628160Y-107832046D01*
X169628160Y-107832046D02*
X169580541Y-107736808D01*
X169580541Y-107736808D02*
X169580541Y-107593951D01*
X169580541Y-107593951D02*
X169532922Y-107498713D01*
X169532922Y-107498713D02*
X169437684Y-107451094D01*
X169437684Y-107451094D02*
X169390065Y-107451094D01*
X169390065Y-107451094D02*
X169294827Y-107498713D01*
X169294827Y-107498713D02*
X169247208Y-107593951D01*
X169247208Y-107593951D02*
X169247208Y-107736808D01*
X169247208Y-107736808D02*
X169294827Y-107832046D01*
X169913875Y-108308237D02*
X169247208Y-108308237D01*
X168913875Y-108308237D02*
X168961494Y-108260618D01*
X168961494Y-108260618D02*
X169009113Y-108308237D01*
X169009113Y-108308237D02*
X168961494Y-108355856D01*
X168961494Y-108355856D02*
X168913875Y-108308237D01*
X168913875Y-108308237D02*
X169009113Y-108308237D01*
X169247208Y-109212998D02*
X170056732Y-109212998D01*
X170056732Y-109212998D02*
X170151970Y-109165379D01*
X170151970Y-109165379D02*
X170199589Y-109117760D01*
X170199589Y-109117760D02*
X170247208Y-109022522D01*
X170247208Y-109022522D02*
X170247208Y-108879665D01*
X170247208Y-108879665D02*
X170199589Y-108784427D01*
X169866256Y-109212998D02*
X169913875Y-109117760D01*
X169913875Y-109117760D02*
X169913875Y-108927284D01*
X169913875Y-108927284D02*
X169866256Y-108832046D01*
X169866256Y-108832046D02*
X169818636Y-108784427D01*
X169818636Y-108784427D02*
X169723398Y-108736808D01*
X169723398Y-108736808D02*
X169437684Y-108736808D01*
X169437684Y-108736808D02*
X169342446Y-108784427D01*
X169342446Y-108784427D02*
X169294827Y-108832046D01*
X169294827Y-108832046D02*
X169247208Y-108927284D01*
X169247208Y-108927284D02*
X169247208Y-109117760D01*
X169247208Y-109117760D02*
X169294827Y-109212998D01*
X169247208Y-109689189D02*
X169913875Y-109689189D01*
X169342446Y-109689189D02*
X169294827Y-109736808D01*
X169294827Y-109736808D02*
X169247208Y-109832046D01*
X169247208Y-109832046D02*
X169247208Y-109974903D01*
X169247208Y-109974903D02*
X169294827Y-110070141D01*
X169294827Y-110070141D02*
X169390065Y-110117760D01*
X169390065Y-110117760D02*
X169913875Y-110117760D01*
X169866256Y-110974903D02*
X169913875Y-110879665D01*
X169913875Y-110879665D02*
X169913875Y-110689189D01*
X169913875Y-110689189D02*
X169866256Y-110593951D01*
X169866256Y-110593951D02*
X169771017Y-110546332D01*
X169771017Y-110546332D02*
X169390065Y-110546332D01*
X169390065Y-110546332D02*
X169294827Y-110593951D01*
X169294827Y-110593951D02*
X169247208Y-110689189D01*
X169247208Y-110689189D02*
X169247208Y-110879665D01*
X169247208Y-110879665D02*
X169294827Y-110974903D01*
X169294827Y-110974903D02*
X169390065Y-111022522D01*
X169390065Y-111022522D02*
X169485303Y-111022522D01*
X169485303Y-111022522D02*
X169580541Y-110546332D01*
X169913875Y-111879665D02*
X168913875Y-111879665D01*
X169866256Y-111879665D02*
X169913875Y-111784427D01*
X169913875Y-111784427D02*
X169913875Y-111593951D01*
X169913875Y-111593951D02*
X169866256Y-111498713D01*
X169866256Y-111498713D02*
X169818636Y-111451094D01*
X169818636Y-111451094D02*
X169723398Y-111403475D01*
X169723398Y-111403475D02*
X169437684Y-111403475D01*
X169437684Y-111403475D02*
X169342446Y-111451094D01*
X169342446Y-111451094D02*
X169294827Y-111498713D01*
X169294827Y-111498713D02*
X169247208Y-111593951D01*
X169247208Y-111593951D02*
X169247208Y-111784427D01*
X169247208Y-111784427D02*
X169294827Y-111879665D01*
X169913875Y-113117761D02*
X168913875Y-113117761D01*
X169294827Y-113117761D02*
X169247208Y-113212999D01*
X169247208Y-113212999D02*
X169247208Y-113403475D01*
X169247208Y-113403475D02*
X169294827Y-113498713D01*
X169294827Y-113498713D02*
X169342446Y-113546332D01*
X169342446Y-113546332D02*
X169437684Y-113593951D01*
X169437684Y-113593951D02*
X169723398Y-113593951D01*
X169723398Y-113593951D02*
X169818636Y-113546332D01*
X169818636Y-113546332D02*
X169866256Y-113498713D01*
X169866256Y-113498713D02*
X169913875Y-113403475D01*
X169913875Y-113403475D02*
X169913875Y-113212999D01*
X169913875Y-113212999D02*
X169866256Y-113117761D01*
X169247208Y-113927285D02*
X169913875Y-114165380D01*
X169247208Y-114403475D02*
X169913875Y-114165380D01*
X169913875Y-114165380D02*
X170151970Y-114070142D01*
X170151970Y-114070142D02*
X170199589Y-114022523D01*
X170199589Y-114022523D02*
X170247208Y-113927285D01*
X168913875Y-115832047D02*
X169628160Y-115832047D01*
X169628160Y-115832047D02*
X169771017Y-115784428D01*
X169771017Y-115784428D02*
X169866256Y-115689190D01*
X169866256Y-115689190D02*
X169913875Y-115546333D01*
X169913875Y-115546333D02*
X169913875Y-115451095D01*
X169913875Y-116736809D02*
X169390065Y-116736809D01*
X169390065Y-116736809D02*
X169294827Y-116689190D01*
X169294827Y-116689190D02*
X169247208Y-116593952D01*
X169247208Y-116593952D02*
X169247208Y-116403476D01*
X169247208Y-116403476D02*
X169294827Y-116308238D01*
X169866256Y-116736809D02*
X169913875Y-116641571D01*
X169913875Y-116641571D02*
X169913875Y-116403476D01*
X169913875Y-116403476D02*
X169866256Y-116308238D01*
X169866256Y-116308238D02*
X169771017Y-116260619D01*
X169771017Y-116260619D02*
X169675779Y-116260619D01*
X169675779Y-116260619D02*
X169580541Y-116308238D01*
X169580541Y-116308238D02*
X169532922Y-116403476D01*
X169532922Y-116403476D02*
X169532922Y-116641571D01*
X169532922Y-116641571D02*
X169485303Y-116736809D01*
X169913875Y-117213000D02*
X169247208Y-117213000D01*
X169437684Y-117213000D02*
X169342446Y-117260619D01*
X169342446Y-117260619D02*
X169294827Y-117308238D01*
X169294827Y-117308238D02*
X169247208Y-117403476D01*
X169247208Y-117403476D02*
X169247208Y-117498714D01*
X169913875Y-117832048D02*
X169247208Y-117832048D01*
X169437684Y-117832048D02*
X169342446Y-117879667D01*
X169342446Y-117879667D02*
X169294827Y-117927286D01*
X169294827Y-117927286D02*
X169247208Y-118022524D01*
X169247208Y-118022524D02*
X169247208Y-118117762D01*
X169866256Y-118832048D02*
X169913875Y-118736810D01*
X169913875Y-118736810D02*
X169913875Y-118546334D01*
X169913875Y-118546334D02*
X169866256Y-118451096D01*
X169866256Y-118451096D02*
X169771017Y-118403477D01*
X169771017Y-118403477D02*
X169390065Y-118403477D01*
X169390065Y-118403477D02*
X169294827Y-118451096D01*
X169294827Y-118451096D02*
X169247208Y-118546334D01*
X169247208Y-118546334D02*
X169247208Y-118736810D01*
X169247208Y-118736810D02*
X169294827Y-118832048D01*
X169294827Y-118832048D02*
X169390065Y-118879667D01*
X169390065Y-118879667D02*
X169485303Y-118879667D01*
X169485303Y-118879667D02*
X169580541Y-118403477D01*
X169247208Y-119165382D02*
X169247208Y-119546334D01*
X168913875Y-119308239D02*
X169771017Y-119308239D01*
X169771017Y-119308239D02*
X169866256Y-119355858D01*
X169866256Y-119355858D02*
X169913875Y-119451096D01*
X169913875Y-119451096D02*
X169913875Y-119546334D01*
X169247208Y-119736811D02*
X169247208Y-120117763D01*
X168913875Y-119879668D02*
X169771017Y-119879668D01*
X169771017Y-119879668D02*
X169866256Y-119927287D01*
X169866256Y-119927287D02*
X169913875Y-120022525D01*
X169913875Y-120022525D02*
X169913875Y-120117763D01*
X169818636Y-121784430D02*
X169866256Y-121736811D01*
X169866256Y-121736811D02*
X169913875Y-121593954D01*
X169913875Y-121593954D02*
X169913875Y-121498716D01*
X169913875Y-121498716D02*
X169866256Y-121355859D01*
X169866256Y-121355859D02*
X169771017Y-121260621D01*
X169771017Y-121260621D02*
X169675779Y-121213002D01*
X169675779Y-121213002D02*
X169485303Y-121165383D01*
X169485303Y-121165383D02*
X169342446Y-121165383D01*
X169342446Y-121165383D02*
X169151970Y-121213002D01*
X169151970Y-121213002D02*
X169056732Y-121260621D01*
X169056732Y-121260621D02*
X168961494Y-121355859D01*
X168961494Y-121355859D02*
X168913875Y-121498716D01*
X168913875Y-121498716D02*
X168913875Y-121593954D01*
X168913875Y-121593954D02*
X168961494Y-121736811D01*
X168961494Y-121736811D02*
X169009113Y-121784430D01*
X169913875Y-122213002D02*
X169247208Y-122213002D01*
X168913875Y-122213002D02*
X168961494Y-122165383D01*
X168961494Y-122165383D02*
X169009113Y-122213002D01*
X169009113Y-122213002D02*
X168961494Y-122260621D01*
X168961494Y-122260621D02*
X168913875Y-122213002D01*
X168913875Y-122213002D02*
X169009113Y-122213002D01*
X169247208Y-123117763D02*
X170056732Y-123117763D01*
X170056732Y-123117763D02*
X170151970Y-123070144D01*
X170151970Y-123070144D02*
X170199589Y-123022525D01*
X170199589Y-123022525D02*
X170247208Y-122927287D01*
X170247208Y-122927287D02*
X170247208Y-122784430D01*
X170247208Y-122784430D02*
X170199589Y-122689192D01*
X169866256Y-123117763D02*
X169913875Y-123022525D01*
X169913875Y-123022525D02*
X169913875Y-122832049D01*
X169913875Y-122832049D02*
X169866256Y-122736811D01*
X169866256Y-122736811D02*
X169818636Y-122689192D01*
X169818636Y-122689192D02*
X169723398Y-122641573D01*
X169723398Y-122641573D02*
X169437684Y-122641573D01*
X169437684Y-122641573D02*
X169342446Y-122689192D01*
X169342446Y-122689192D02*
X169294827Y-122736811D01*
X169294827Y-122736811D02*
X169247208Y-122832049D01*
X169247208Y-122832049D02*
X169247208Y-123022525D01*
X169247208Y-123022525D02*
X169294827Y-123117763D01*
X169913875Y-124022525D02*
X169390065Y-124022525D01*
X169390065Y-124022525D02*
X169294827Y-123974906D01*
X169294827Y-123974906D02*
X169247208Y-123879668D01*
X169247208Y-123879668D02*
X169247208Y-123689192D01*
X169247208Y-123689192D02*
X169294827Y-123593954D01*
X169866256Y-124022525D02*
X169913875Y-123927287D01*
X169913875Y-123927287D02*
X169913875Y-123689192D01*
X169913875Y-123689192D02*
X169866256Y-123593954D01*
X169866256Y-123593954D02*
X169771017Y-123546335D01*
X169771017Y-123546335D02*
X169675779Y-123546335D01*
X169675779Y-123546335D02*
X169580541Y-123593954D01*
X169580541Y-123593954D02*
X169532922Y-123689192D01*
X169532922Y-123689192D02*
X169532922Y-123927287D01*
X169532922Y-123927287D02*
X169485303Y-124022525D01*
X169913875Y-124498716D02*
X169247208Y-124498716D01*
X168913875Y-124498716D02*
X168961494Y-124451097D01*
X168961494Y-124451097D02*
X169009113Y-124498716D01*
X169009113Y-124498716D02*
X168961494Y-124546335D01*
X168961494Y-124546335D02*
X168913875Y-124498716D01*
X168913875Y-124498716D02*
X169009113Y-124498716D01*
X169247208Y-124974906D02*
X169913875Y-124974906D01*
X169342446Y-124974906D02*
X169294827Y-125022525D01*
X169294827Y-125022525D02*
X169247208Y-125117763D01*
X169247208Y-125117763D02*
X169247208Y-125260620D01*
X169247208Y-125260620D02*
X169294827Y-125355858D01*
X169294827Y-125355858D02*
X169390065Y-125403477D01*
X169390065Y-125403477D02*
X169913875Y-125403477D01*
X169866256Y-126260620D02*
X169913875Y-126165382D01*
X169913875Y-126165382D02*
X169913875Y-125974906D01*
X169913875Y-125974906D02*
X169866256Y-125879668D01*
X169866256Y-125879668D02*
X169771017Y-125832049D01*
X169771017Y-125832049D02*
X169390065Y-125832049D01*
X169390065Y-125832049D02*
X169294827Y-125879668D01*
X169294827Y-125879668D02*
X169247208Y-125974906D01*
X169247208Y-125974906D02*
X169247208Y-126165382D01*
X169247208Y-126165382D02*
X169294827Y-126260620D01*
X169294827Y-126260620D02*
X169390065Y-126308239D01*
X169390065Y-126308239D02*
X169485303Y-126308239D01*
X169485303Y-126308239D02*
X169580541Y-125832049D01*
X169913875Y-126736811D02*
X169247208Y-126736811D01*
X169437684Y-126736811D02*
X169342446Y-126784430D01*
X169342446Y-126784430D02*
X169294827Y-126832049D01*
X169294827Y-126832049D02*
X169247208Y-126927287D01*
X169247208Y-126927287D02*
X169247208Y-127022525D01*
X169913875Y-127498716D02*
X169866256Y-127403478D01*
X169866256Y-127403478D02*
X169818636Y-127355859D01*
X169818636Y-127355859D02*
X169723398Y-127308240D01*
X169723398Y-127308240D02*
X169437684Y-127308240D01*
X169437684Y-127308240D02*
X169342446Y-127355859D01*
X169342446Y-127355859D02*
X169294827Y-127403478D01*
X169294827Y-127403478D02*
X169247208Y-127498716D01*
X169247208Y-127498716D02*
X169247208Y-127641573D01*
X169247208Y-127641573D02*
X169294827Y-127736811D01*
X169294827Y-127736811D02*
X169342446Y-127784430D01*
X169342446Y-127784430D02*
X169437684Y-127832049D01*
X169437684Y-127832049D02*
X169723398Y-127832049D01*
X169723398Y-127832049D02*
X169818636Y-127784430D01*
X169818636Y-127784430D02*
X169866256Y-127736811D01*
X169866256Y-127736811D02*
X169913875Y-127641573D01*
X169913875Y-127641573D02*
X169913875Y-127498716D01*
X171523819Y-108974904D02*
X170523819Y-108974904D01*
X171000009Y-108974904D02*
X171000009Y-109546332D01*
X171523819Y-109546332D02*
X170523819Y-109546332D01*
X171523819Y-110451094D02*
X171000009Y-110451094D01*
X171000009Y-110451094D02*
X170904771Y-110403475D01*
X170904771Y-110403475D02*
X170857152Y-110308237D01*
X170857152Y-110308237D02*
X170857152Y-110117761D01*
X170857152Y-110117761D02*
X170904771Y-110022523D01*
X171476200Y-110451094D02*
X171523819Y-110355856D01*
X171523819Y-110355856D02*
X171523819Y-110117761D01*
X171523819Y-110117761D02*
X171476200Y-110022523D01*
X171476200Y-110022523D02*
X171380961Y-109974904D01*
X171380961Y-109974904D02*
X171285723Y-109974904D01*
X171285723Y-109974904D02*
X171190485Y-110022523D01*
X171190485Y-110022523D02*
X171142866Y-110117761D01*
X171142866Y-110117761D02*
X171142866Y-110355856D01*
X171142866Y-110355856D02*
X171095247Y-110451094D01*
X170857152Y-110927285D02*
X171857152Y-110927285D01*
X170904771Y-110927285D02*
X170857152Y-111022523D01*
X170857152Y-111022523D02*
X170857152Y-111212999D01*
X170857152Y-111212999D02*
X170904771Y-111308237D01*
X170904771Y-111308237D02*
X170952390Y-111355856D01*
X170952390Y-111355856D02*
X171047628Y-111403475D01*
X171047628Y-111403475D02*
X171333342Y-111403475D01*
X171333342Y-111403475D02*
X171428580Y-111355856D01*
X171428580Y-111355856D02*
X171476200Y-111308237D01*
X171476200Y-111308237D02*
X171523819Y-111212999D01*
X171523819Y-111212999D02*
X171523819Y-111022523D01*
X171523819Y-111022523D02*
X171476200Y-110927285D01*
X170857152Y-111689190D02*
X170857152Y-112070142D01*
X170523819Y-111832047D02*
X171380961Y-111832047D01*
X171380961Y-111832047D02*
X171476200Y-111879666D01*
X171476200Y-111879666D02*
X171523819Y-111974904D01*
X171523819Y-111974904D02*
X171523819Y-112070142D01*
X171523819Y-112403476D02*
X170857152Y-112403476D01*
X170523819Y-112403476D02*
X170571438Y-112355857D01*
X170571438Y-112355857D02*
X170619057Y-112403476D01*
X170619057Y-112403476D02*
X170571438Y-112451095D01*
X170571438Y-112451095D02*
X170523819Y-112403476D01*
X170523819Y-112403476D02*
X170619057Y-112403476D01*
X171476200Y-113308237D02*
X171523819Y-113212999D01*
X171523819Y-113212999D02*
X171523819Y-113022523D01*
X171523819Y-113022523D02*
X171476200Y-112927285D01*
X171476200Y-112927285D02*
X171428580Y-112879666D01*
X171428580Y-112879666D02*
X171333342Y-112832047D01*
X171333342Y-112832047D02*
X171047628Y-112832047D01*
X171047628Y-112832047D02*
X170952390Y-112879666D01*
X170952390Y-112879666D02*
X170904771Y-112927285D01*
X170904771Y-112927285D02*
X170857152Y-113022523D01*
X170857152Y-113022523D02*
X170857152Y-113212999D01*
X170857152Y-113212999D02*
X170904771Y-113308237D01*
X171476200Y-114451095D02*
X171523819Y-114593952D01*
X171523819Y-114593952D02*
X171523819Y-114832047D01*
X171523819Y-114832047D02*
X171476200Y-114927285D01*
X171476200Y-114927285D02*
X171428580Y-114974904D01*
X171428580Y-114974904D02*
X171333342Y-115022523D01*
X171333342Y-115022523D02*
X171238104Y-115022523D01*
X171238104Y-115022523D02*
X171142866Y-114974904D01*
X171142866Y-114974904D02*
X171095247Y-114927285D01*
X171095247Y-114927285D02*
X171047628Y-114832047D01*
X171047628Y-114832047D02*
X171000009Y-114641571D01*
X171000009Y-114641571D02*
X170952390Y-114546333D01*
X170952390Y-114546333D02*
X170904771Y-114498714D01*
X170904771Y-114498714D02*
X170809533Y-114451095D01*
X170809533Y-114451095D02*
X170714295Y-114451095D01*
X170714295Y-114451095D02*
X170619057Y-114498714D01*
X170619057Y-114498714D02*
X170571438Y-114546333D01*
X170571438Y-114546333D02*
X170523819Y-114641571D01*
X170523819Y-114641571D02*
X170523819Y-114879666D01*
X170523819Y-114879666D02*
X170571438Y-115022523D01*
X171523819Y-115593952D02*
X171476200Y-115498714D01*
X171476200Y-115498714D02*
X171428580Y-115451095D01*
X171428580Y-115451095D02*
X171333342Y-115403476D01*
X171333342Y-115403476D02*
X171047628Y-115403476D01*
X171047628Y-115403476D02*
X170952390Y-115451095D01*
X170952390Y-115451095D02*
X170904771Y-115498714D01*
X170904771Y-115498714D02*
X170857152Y-115593952D01*
X170857152Y-115593952D02*
X170857152Y-115736809D01*
X170857152Y-115736809D02*
X170904771Y-115832047D01*
X170904771Y-115832047D02*
X170952390Y-115879666D01*
X170952390Y-115879666D02*
X171047628Y-115927285D01*
X171047628Y-115927285D02*
X171333342Y-115927285D01*
X171333342Y-115927285D02*
X171428580Y-115879666D01*
X171428580Y-115879666D02*
X171476200Y-115832047D01*
X171476200Y-115832047D02*
X171523819Y-115736809D01*
X171523819Y-115736809D02*
X171523819Y-115593952D01*
X171523819Y-116498714D02*
X171476200Y-116403476D01*
X171476200Y-116403476D02*
X171380961Y-116355857D01*
X171380961Y-116355857D02*
X170523819Y-116355857D01*
X170857152Y-117308238D02*
X171523819Y-117308238D01*
X170857152Y-116879667D02*
X171380961Y-116879667D01*
X171380961Y-116879667D02*
X171476200Y-116927286D01*
X171476200Y-116927286D02*
X171523819Y-117022524D01*
X171523819Y-117022524D02*
X171523819Y-117165381D01*
X171523819Y-117165381D02*
X171476200Y-117260619D01*
X171476200Y-117260619D02*
X171428580Y-117308238D01*
X170857152Y-117641572D02*
X170857152Y-118022524D01*
X170523819Y-117784429D02*
X171380961Y-117784429D01*
X171380961Y-117784429D02*
X171476200Y-117832048D01*
X171476200Y-117832048D02*
X171523819Y-117927286D01*
X171523819Y-117927286D02*
X171523819Y-118022524D01*
X171523819Y-118355858D02*
X170857152Y-118355858D01*
X170523819Y-118355858D02*
X170571438Y-118308239D01*
X170571438Y-118308239D02*
X170619057Y-118355858D01*
X170619057Y-118355858D02*
X170571438Y-118403477D01*
X170571438Y-118403477D02*
X170523819Y-118355858D01*
X170523819Y-118355858D02*
X170619057Y-118355858D01*
X171523819Y-118974905D02*
X171476200Y-118879667D01*
X171476200Y-118879667D02*
X171428580Y-118832048D01*
X171428580Y-118832048D02*
X171333342Y-118784429D01*
X171333342Y-118784429D02*
X171047628Y-118784429D01*
X171047628Y-118784429D02*
X170952390Y-118832048D01*
X170952390Y-118832048D02*
X170904771Y-118879667D01*
X170904771Y-118879667D02*
X170857152Y-118974905D01*
X170857152Y-118974905D02*
X170857152Y-119117762D01*
X170857152Y-119117762D02*
X170904771Y-119213000D01*
X170904771Y-119213000D02*
X170952390Y-119260619D01*
X170952390Y-119260619D02*
X171047628Y-119308238D01*
X171047628Y-119308238D02*
X171333342Y-119308238D01*
X171333342Y-119308238D02*
X171428580Y-119260619D01*
X171428580Y-119260619D02*
X171476200Y-119213000D01*
X171476200Y-119213000D02*
X171523819Y-119117762D01*
X171523819Y-119117762D02*
X171523819Y-118974905D01*
X170857152Y-119736810D02*
X171523819Y-119736810D01*
X170952390Y-119736810D02*
X170904771Y-119784429D01*
X170904771Y-119784429D02*
X170857152Y-119879667D01*
X170857152Y-119879667D02*
X170857152Y-120022524D01*
X170857152Y-120022524D02*
X170904771Y-120117762D01*
X170904771Y-120117762D02*
X171000009Y-120165381D01*
X171000009Y-120165381D02*
X171523819Y-120165381D01*
X171476200Y-120593953D02*
X171523819Y-120689191D01*
X171523819Y-120689191D02*
X171523819Y-120879667D01*
X171523819Y-120879667D02*
X171476200Y-120974905D01*
X171476200Y-120974905D02*
X171380961Y-121022524D01*
X171380961Y-121022524D02*
X171333342Y-121022524D01*
X171333342Y-121022524D02*
X171238104Y-120974905D01*
X171238104Y-120974905D02*
X171190485Y-120879667D01*
X171190485Y-120879667D02*
X171190485Y-120736810D01*
X171190485Y-120736810D02*
X171142866Y-120641572D01*
X171142866Y-120641572D02*
X171047628Y-120593953D01*
X171047628Y-120593953D02*
X171000009Y-120593953D01*
X171000009Y-120593953D02*
X170904771Y-120641572D01*
X170904771Y-120641572D02*
X170857152Y-120736810D01*
X170857152Y-120736810D02*
X170857152Y-120879667D01*
X170857152Y-120879667D02*
X170904771Y-120974905D01*
X171523819Y-122213001D02*
X170523819Y-122213001D01*
X170857152Y-122689191D02*
X171523819Y-122689191D01*
X170952390Y-122689191D02*
X170904771Y-122736810D01*
X170904771Y-122736810D02*
X170857152Y-122832048D01*
X170857152Y-122832048D02*
X170857152Y-122974905D01*
X170857152Y-122974905D02*
X170904771Y-123070143D01*
X170904771Y-123070143D02*
X171000009Y-123117762D01*
X171000009Y-123117762D02*
X171523819Y-123117762D01*
X171476200Y-124022524D02*
X171523819Y-123927286D01*
X171523819Y-123927286D02*
X171523819Y-123736810D01*
X171523819Y-123736810D02*
X171476200Y-123641572D01*
X171476200Y-123641572D02*
X171428580Y-123593953D01*
X171428580Y-123593953D02*
X171333342Y-123546334D01*
X171333342Y-123546334D02*
X171047628Y-123546334D01*
X171047628Y-123546334D02*
X170952390Y-123593953D01*
X170952390Y-123593953D02*
X170904771Y-123641572D01*
X170904771Y-123641572D02*
X170857152Y-123736810D01*
X170857152Y-123736810D02*
X170857152Y-123927286D01*
X170857152Y-123927286D02*
X170904771Y-124022524D01*
X171428580Y-124451096D02*
X171476200Y-124498715D01*
X171476200Y-124498715D02*
X171523819Y-124451096D01*
X171523819Y-124451096D02*
X171476200Y-124403477D01*
X171476200Y-124403477D02*
X171428580Y-124451096D01*
X171428580Y-124451096D02*
X171523819Y-124451096D01*
X172133763Y-107379665D02*
X172848048Y-107379665D01*
X172848048Y-107379665D02*
X172990905Y-107332046D01*
X172990905Y-107332046D02*
X173086144Y-107236808D01*
X173086144Y-107236808D02*
X173133763Y-107093951D01*
X173133763Y-107093951D02*
X173133763Y-106998713D01*
X172467096Y-108284427D02*
X173133763Y-108284427D01*
X172467096Y-107855856D02*
X172990905Y-107855856D01*
X172990905Y-107855856D02*
X173086144Y-107903475D01*
X173086144Y-107903475D02*
X173133763Y-107998713D01*
X173133763Y-107998713D02*
X173133763Y-108141570D01*
X173133763Y-108141570D02*
X173086144Y-108236808D01*
X173086144Y-108236808D02*
X173038524Y-108284427D01*
X173133763Y-108903475D02*
X173086144Y-108808237D01*
X173086144Y-108808237D02*
X172990905Y-108760618D01*
X172990905Y-108760618D02*
X172133763Y-108760618D01*
X172467096Y-109189190D02*
X173133763Y-109427285D01*
X172467096Y-109665380D02*
X173133763Y-109427285D01*
X173133763Y-109427285D02*
X173371858Y-109332047D01*
X173371858Y-109332047D02*
X173419477Y-109284428D01*
X173419477Y-109284428D02*
X173467096Y-109189190D01*
X173133763Y-111332047D02*
X173133763Y-110760619D01*
X173133763Y-111046333D02*
X172133763Y-111046333D01*
X172133763Y-111046333D02*
X172276620Y-110951095D01*
X172276620Y-110951095D02*
X172371858Y-110855857D01*
X172371858Y-110855857D02*
X172419477Y-110760619D01*
X172133763Y-111951095D02*
X172133763Y-112046333D01*
X172133763Y-112046333D02*
X172181382Y-112141571D01*
X172181382Y-112141571D02*
X172229001Y-112189190D01*
X172229001Y-112189190D02*
X172324239Y-112236809D01*
X172324239Y-112236809D02*
X172514715Y-112284428D01*
X172514715Y-112284428D02*
X172752810Y-112284428D01*
X172752810Y-112284428D02*
X172943286Y-112236809D01*
X172943286Y-112236809D02*
X173038524Y-112189190D01*
X173038524Y-112189190D02*
X173086144Y-112141571D01*
X173086144Y-112141571D02*
X173133763Y-112046333D01*
X173133763Y-112046333D02*
X173133763Y-111951095D01*
X173133763Y-111951095D02*
X173086144Y-111855857D01*
X173086144Y-111855857D02*
X173038524Y-111808238D01*
X173038524Y-111808238D02*
X172943286Y-111760619D01*
X172943286Y-111760619D02*
X172752810Y-111713000D01*
X172752810Y-111713000D02*
X172514715Y-111713000D01*
X172514715Y-111713000D02*
X172324239Y-111760619D01*
X172324239Y-111760619D02*
X172229001Y-111808238D01*
X172229001Y-111808238D02*
X172181382Y-111855857D01*
X172181382Y-111855857D02*
X172133763Y-111951095D01*
X173086144Y-112760619D02*
X173133763Y-112760619D01*
X173133763Y-112760619D02*
X173229001Y-112713000D01*
X173229001Y-112713000D02*
X173276620Y-112665381D01*
X172229001Y-113903476D02*
X172181382Y-113951095D01*
X172181382Y-113951095D02*
X172133763Y-114046333D01*
X172133763Y-114046333D02*
X172133763Y-114284428D01*
X172133763Y-114284428D02*
X172181382Y-114379666D01*
X172181382Y-114379666D02*
X172229001Y-114427285D01*
X172229001Y-114427285D02*
X172324239Y-114474904D01*
X172324239Y-114474904D02*
X172419477Y-114474904D01*
X172419477Y-114474904D02*
X172562334Y-114427285D01*
X172562334Y-114427285D02*
X173133763Y-113855857D01*
X173133763Y-113855857D02*
X173133763Y-114474904D01*
X172133763Y-115093952D02*
X172133763Y-115189190D01*
X172133763Y-115189190D02*
X172181382Y-115284428D01*
X172181382Y-115284428D02*
X172229001Y-115332047D01*
X172229001Y-115332047D02*
X172324239Y-115379666D01*
X172324239Y-115379666D02*
X172514715Y-115427285D01*
X172514715Y-115427285D02*
X172752810Y-115427285D01*
X172752810Y-115427285D02*
X172943286Y-115379666D01*
X172943286Y-115379666D02*
X173038524Y-115332047D01*
X173038524Y-115332047D02*
X173086144Y-115284428D01*
X173086144Y-115284428D02*
X173133763Y-115189190D01*
X173133763Y-115189190D02*
X173133763Y-115093952D01*
X173133763Y-115093952D02*
X173086144Y-114998714D01*
X173086144Y-114998714D02*
X173038524Y-114951095D01*
X173038524Y-114951095D02*
X172943286Y-114903476D01*
X172943286Y-114903476D02*
X172752810Y-114855857D01*
X172752810Y-114855857D02*
X172514715Y-114855857D01*
X172514715Y-114855857D02*
X172324239Y-114903476D01*
X172324239Y-114903476D02*
X172229001Y-114951095D01*
X172229001Y-114951095D02*
X172181382Y-114998714D01*
X172181382Y-114998714D02*
X172133763Y-115093952D01*
X172229001Y-115808238D02*
X172181382Y-115855857D01*
X172181382Y-115855857D02*
X172133763Y-115951095D01*
X172133763Y-115951095D02*
X172133763Y-116189190D01*
X172133763Y-116189190D02*
X172181382Y-116284428D01*
X172181382Y-116284428D02*
X172229001Y-116332047D01*
X172229001Y-116332047D02*
X172324239Y-116379666D01*
X172324239Y-116379666D02*
X172419477Y-116379666D01*
X172419477Y-116379666D02*
X172562334Y-116332047D01*
X172562334Y-116332047D02*
X173133763Y-115760619D01*
X173133763Y-115760619D02*
X173133763Y-116379666D01*
X172467096Y-117236809D02*
X173133763Y-117236809D01*
X172086144Y-116998714D02*
X172800429Y-116760619D01*
X172800429Y-116760619D02*
X172800429Y-117379666D01*
X173133763Y-119093952D02*
X172657572Y-118760619D01*
X173133763Y-118522524D02*
X172133763Y-118522524D01*
X172133763Y-118522524D02*
X172133763Y-118903476D01*
X172133763Y-118903476D02*
X172181382Y-118998714D01*
X172181382Y-118998714D02*
X172229001Y-119046333D01*
X172229001Y-119046333D02*
X172324239Y-119093952D01*
X172324239Y-119093952D02*
X172467096Y-119093952D01*
X172467096Y-119093952D02*
X172562334Y-119046333D01*
X172562334Y-119046333D02*
X172609953Y-118998714D01*
X172609953Y-118998714D02*
X172657572Y-118903476D01*
X172657572Y-118903476D02*
X172657572Y-118522524D01*
X172609953Y-119522524D02*
X172609953Y-119855857D01*
X173133763Y-119998714D02*
X173133763Y-119522524D01*
X173133763Y-119522524D02*
X172133763Y-119522524D01*
X172133763Y-119522524D02*
X172133763Y-119998714D01*
X172133763Y-120284429D02*
X173133763Y-120617762D01*
X173133763Y-120617762D02*
X172133763Y-120951095D01*
X173038524Y-121284429D02*
X173086144Y-121332048D01*
X173086144Y-121332048D02*
X173133763Y-121284429D01*
X173133763Y-121284429D02*
X173086144Y-121236810D01*
X173086144Y-121236810D02*
X173038524Y-121284429D01*
X173038524Y-121284429D02*
X173133763Y-121284429D01*
X173514715Y-122808238D02*
X173467096Y-122760619D01*
X173467096Y-122760619D02*
X173324239Y-122665381D01*
X173324239Y-122665381D02*
X173229001Y-122617762D01*
X173229001Y-122617762D02*
X173086144Y-122570143D01*
X173086144Y-122570143D02*
X172848048Y-122522524D01*
X172848048Y-122522524D02*
X172657572Y-122522524D01*
X172657572Y-122522524D02*
X172419477Y-122570143D01*
X172419477Y-122570143D02*
X172276620Y-122617762D01*
X172276620Y-122617762D02*
X172181382Y-122665381D01*
X172181382Y-122665381D02*
X172038524Y-122760619D01*
X172038524Y-122760619D02*
X171990905Y-122808238D01*
X173133763Y-123713000D02*
X173133763Y-123141572D01*
X173133763Y-123427286D02*
X172133763Y-123427286D01*
X172133763Y-123427286D02*
X172276620Y-123332048D01*
X172276620Y-123332048D02*
X172371858Y-123236810D01*
X172371858Y-123236810D02*
X172419477Y-123141572D01*
X172609953Y-124474905D02*
X172657572Y-124617762D01*
X172657572Y-124617762D02*
X172705191Y-124665381D01*
X172705191Y-124665381D02*
X172800429Y-124713000D01*
X172800429Y-124713000D02*
X172943286Y-124713000D01*
X172943286Y-124713000D02*
X173038524Y-124665381D01*
X173038524Y-124665381D02*
X173086144Y-124617762D01*
X173086144Y-124617762D02*
X173133763Y-124522524D01*
X173133763Y-124522524D02*
X173133763Y-124141572D01*
X173133763Y-124141572D02*
X172133763Y-124141572D01*
X172133763Y-124141572D02*
X172133763Y-124474905D01*
X172133763Y-124474905D02*
X172181382Y-124570143D01*
X172181382Y-124570143D02*
X172229001Y-124617762D01*
X172229001Y-124617762D02*
X172324239Y-124665381D01*
X172324239Y-124665381D02*
X172419477Y-124665381D01*
X172419477Y-124665381D02*
X172514715Y-124617762D01*
X172514715Y-124617762D02*
X172562334Y-124570143D01*
X172562334Y-124570143D02*
X172609953Y-124474905D01*
X172609953Y-124474905D02*
X172609953Y-124141572D01*
X173514715Y-125046334D02*
X173467096Y-125093953D01*
X173467096Y-125093953D02*
X173324239Y-125189191D01*
X173324239Y-125189191D02*
X173229001Y-125236810D01*
X173229001Y-125236810D02*
X173086144Y-125284429D01*
X173086144Y-125284429D02*
X172848048Y-125332048D01*
X172848048Y-125332048D02*
X172657572Y-125332048D01*
X172657572Y-125332048D02*
X172419477Y-125284429D01*
X172419477Y-125284429D02*
X172276620Y-125236810D01*
X172276620Y-125236810D02*
X172181382Y-125189191D01*
X172181382Y-125189191D02*
X172038524Y-125093953D01*
X172038524Y-125093953D02*
X171990905Y-125046334D01*
X173133763Y-125808239D02*
X172133763Y-125808239D01*
X172133763Y-125808239D02*
X172133763Y-126189191D01*
X172133763Y-126189191D02*
X172181382Y-126284429D01*
X172181382Y-126284429D02*
X172229001Y-126332048D01*
X172229001Y-126332048D02*
X172324239Y-126379667D01*
X172324239Y-126379667D02*
X172467096Y-126379667D01*
X172467096Y-126379667D02*
X172562334Y-126332048D01*
X172562334Y-126332048D02*
X172609953Y-126284429D01*
X172609953Y-126284429D02*
X172657572Y-126189191D01*
X172657572Y-126189191D02*
X172657572Y-125808239D01*
D13*
X158024288Y-148817618D02*
X158024288Y-148017618D01*
X158024288Y-148017618D02*
X157719526Y-148017618D01*
X157719526Y-148017618D02*
X157643336Y-148055713D01*
X157643336Y-148055713D02*
X157605241Y-148093808D01*
X157605241Y-148093808D02*
X157567145Y-148169999D01*
X157567145Y-148169999D02*
X157567145Y-148284284D01*
X157567145Y-148284284D02*
X157605241Y-148360475D01*
X157605241Y-148360475D02*
X157643336Y-148398570D01*
X157643336Y-148398570D02*
X157719526Y-148436665D01*
X157719526Y-148436665D02*
X158024288Y-148436665D01*
X157224288Y-148817618D02*
X157224288Y-148284284D01*
X157224288Y-148436665D02*
X157186193Y-148360475D01*
X157186193Y-148360475D02*
X157148098Y-148322380D01*
X157148098Y-148322380D02*
X157071907Y-148284284D01*
X157071907Y-148284284D02*
X156995717Y-148284284D01*
X156614765Y-148817618D02*
X156690955Y-148779523D01*
X156690955Y-148779523D02*
X156729050Y-148741427D01*
X156729050Y-148741427D02*
X156767146Y-148665237D01*
X156767146Y-148665237D02*
X156767146Y-148436665D01*
X156767146Y-148436665D02*
X156729050Y-148360475D01*
X156729050Y-148360475D02*
X156690955Y-148322380D01*
X156690955Y-148322380D02*
X156614765Y-148284284D01*
X156614765Y-148284284D02*
X156500479Y-148284284D01*
X156500479Y-148284284D02*
X156424288Y-148322380D01*
X156424288Y-148322380D02*
X156386193Y-148360475D01*
X156386193Y-148360475D02*
X156348098Y-148436665D01*
X156348098Y-148436665D02*
X156348098Y-148665237D01*
X156348098Y-148665237D02*
X156386193Y-148741427D01*
X156386193Y-148741427D02*
X156424288Y-148779523D01*
X156424288Y-148779523D02*
X156500479Y-148817618D01*
X156500479Y-148817618D02*
X156614765Y-148817618D01*
X155662383Y-148284284D02*
X155662383Y-148931903D01*
X155662383Y-148931903D02*
X155700478Y-149008094D01*
X155700478Y-149008094D02*
X155738574Y-149046189D01*
X155738574Y-149046189D02*
X155814764Y-149084284D01*
X155814764Y-149084284D02*
X155929050Y-149084284D01*
X155929050Y-149084284D02*
X156005240Y-149046189D01*
X155662383Y-148779523D02*
X155738574Y-148817618D01*
X155738574Y-148817618D02*
X155890955Y-148817618D01*
X155890955Y-148817618D02*
X155967145Y-148779523D01*
X155967145Y-148779523D02*
X156005240Y-148741427D01*
X156005240Y-148741427D02*
X156043336Y-148665237D01*
X156043336Y-148665237D02*
X156043336Y-148436665D01*
X156043336Y-148436665D02*
X156005240Y-148360475D01*
X156005240Y-148360475D02*
X155967145Y-148322380D01*
X155967145Y-148322380D02*
X155890955Y-148284284D01*
X155890955Y-148284284D02*
X155738574Y-148284284D01*
X155738574Y-148284284D02*
X155662383Y-148322380D01*
X155281430Y-148817618D02*
X155281430Y-148284284D01*
X155281430Y-148436665D02*
X155243335Y-148360475D01*
X155243335Y-148360475D02*
X155205240Y-148322380D01*
X155205240Y-148322380D02*
X155129049Y-148284284D01*
X155129049Y-148284284D02*
X155052859Y-148284284D01*
X154443335Y-148817618D02*
X154443335Y-148398570D01*
X154443335Y-148398570D02*
X154481430Y-148322380D01*
X154481430Y-148322380D02*
X154557621Y-148284284D01*
X154557621Y-148284284D02*
X154710002Y-148284284D01*
X154710002Y-148284284D02*
X154786192Y-148322380D01*
X154443335Y-148779523D02*
X154519526Y-148817618D01*
X154519526Y-148817618D02*
X154710002Y-148817618D01*
X154710002Y-148817618D02*
X154786192Y-148779523D01*
X154786192Y-148779523D02*
X154824288Y-148703332D01*
X154824288Y-148703332D02*
X154824288Y-148627142D01*
X154824288Y-148627142D02*
X154786192Y-148550951D01*
X154786192Y-148550951D02*
X154710002Y-148512856D01*
X154710002Y-148512856D02*
X154519526Y-148512856D01*
X154519526Y-148512856D02*
X154443335Y-148474761D01*
X154062382Y-148817618D02*
X154062382Y-148284284D01*
X154062382Y-148360475D02*
X154024287Y-148322380D01*
X154024287Y-148322380D02*
X153948097Y-148284284D01*
X153948097Y-148284284D02*
X153833811Y-148284284D01*
X153833811Y-148284284D02*
X153757620Y-148322380D01*
X153757620Y-148322380D02*
X153719525Y-148398570D01*
X153719525Y-148398570D02*
X153719525Y-148817618D01*
X153719525Y-148398570D02*
X153681430Y-148322380D01*
X153681430Y-148322380D02*
X153605239Y-148284284D01*
X153605239Y-148284284D02*
X153490954Y-148284284D01*
X153490954Y-148284284D02*
X153414763Y-148322380D01*
X153414763Y-148322380D02*
X153376668Y-148398570D01*
X153376668Y-148398570D02*
X153376668Y-148817618D01*
X152652858Y-148817618D02*
X152652858Y-148398570D01*
X152652858Y-148398570D02*
X152690953Y-148322380D01*
X152690953Y-148322380D02*
X152767144Y-148284284D01*
X152767144Y-148284284D02*
X152919525Y-148284284D01*
X152919525Y-148284284D02*
X152995715Y-148322380D01*
X152652858Y-148779523D02*
X152729049Y-148817618D01*
X152729049Y-148817618D02*
X152919525Y-148817618D01*
X152919525Y-148817618D02*
X152995715Y-148779523D01*
X152995715Y-148779523D02*
X153033811Y-148703332D01*
X153033811Y-148703332D02*
X153033811Y-148627142D01*
X153033811Y-148627142D02*
X152995715Y-148550951D01*
X152995715Y-148550951D02*
X152919525Y-148512856D01*
X152919525Y-148512856D02*
X152729049Y-148512856D01*
X152729049Y-148512856D02*
X152652858Y-148474761D01*
X152271905Y-148817618D02*
X152271905Y-148017618D01*
X152271905Y-148322380D02*
X152195715Y-148284284D01*
X152195715Y-148284284D02*
X152043334Y-148284284D01*
X152043334Y-148284284D02*
X151967143Y-148322380D01*
X151967143Y-148322380D02*
X151929048Y-148360475D01*
X151929048Y-148360475D02*
X151890953Y-148436665D01*
X151890953Y-148436665D02*
X151890953Y-148665237D01*
X151890953Y-148665237D02*
X151929048Y-148741427D01*
X151929048Y-148741427D02*
X151967143Y-148779523D01*
X151967143Y-148779523D02*
X152043334Y-148817618D01*
X152043334Y-148817618D02*
X152195715Y-148817618D01*
X152195715Y-148817618D02*
X152271905Y-148779523D01*
X151433810Y-148817618D02*
X151510000Y-148779523D01*
X151510000Y-148779523D02*
X151548095Y-148703332D01*
X151548095Y-148703332D02*
X151548095Y-148017618D01*
X150824285Y-148779523D02*
X150900476Y-148817618D01*
X150900476Y-148817618D02*
X151052857Y-148817618D01*
X151052857Y-148817618D02*
X151129047Y-148779523D01*
X151129047Y-148779523D02*
X151167143Y-148703332D01*
X151167143Y-148703332D02*
X151167143Y-148398570D01*
X151167143Y-148398570D02*
X151129047Y-148322380D01*
X151129047Y-148322380D02*
X151052857Y-148284284D01*
X151052857Y-148284284D02*
X150900476Y-148284284D01*
X150900476Y-148284284D02*
X150824285Y-148322380D01*
X150824285Y-148322380D02*
X150786190Y-148398570D01*
X150786190Y-148398570D02*
X150786190Y-148474761D01*
X150786190Y-148474761D02*
X151167143Y-148550951D01*
X149452857Y-148817618D02*
X149833809Y-148817618D01*
X149833809Y-148817618D02*
X149833809Y-148017618D01*
X149186190Y-148817618D02*
X149186190Y-148284284D01*
X149186190Y-148017618D02*
X149224286Y-148055713D01*
X149224286Y-148055713D02*
X149186190Y-148093808D01*
X149186190Y-148093808D02*
X149148095Y-148055713D01*
X149148095Y-148055713D02*
X149186190Y-148017618D01*
X149186190Y-148017618D02*
X149186190Y-148093808D01*
X148919524Y-148284284D02*
X148614762Y-148284284D01*
X148805238Y-148017618D02*
X148805238Y-148703332D01*
X148805238Y-148703332D02*
X148767143Y-148779523D01*
X148767143Y-148779523D02*
X148690953Y-148817618D01*
X148690953Y-148817618D02*
X148614762Y-148817618D01*
X148348095Y-148817618D02*
X148348095Y-148017618D01*
X148005238Y-148817618D02*
X148005238Y-148398570D01*
X148005238Y-148398570D02*
X148043333Y-148322380D01*
X148043333Y-148322380D02*
X148119524Y-148284284D01*
X148119524Y-148284284D02*
X148233810Y-148284284D01*
X148233810Y-148284284D02*
X148310000Y-148322380D01*
X148310000Y-148322380D02*
X148348095Y-148360475D01*
X147624285Y-148817618D02*
X147624285Y-148284284D01*
X147624285Y-148017618D02*
X147662381Y-148055713D01*
X147662381Y-148055713D02*
X147624285Y-148093808D01*
X147624285Y-148093808D02*
X147586190Y-148055713D01*
X147586190Y-148055713D02*
X147624285Y-148017618D01*
X147624285Y-148017618D02*
X147624285Y-148093808D01*
X146900476Y-148284284D02*
X146900476Y-148817618D01*
X147243333Y-148284284D02*
X147243333Y-148703332D01*
X147243333Y-148703332D02*
X147205238Y-148779523D01*
X147205238Y-148779523D02*
X147129048Y-148817618D01*
X147129048Y-148817618D02*
X147014762Y-148817618D01*
X147014762Y-148817618D02*
X146938571Y-148779523D01*
X146938571Y-148779523D02*
X146900476Y-148741427D01*
X146519523Y-148817618D02*
X146519523Y-148284284D01*
X146519523Y-148360475D02*
X146481428Y-148322380D01*
X146481428Y-148322380D02*
X146405238Y-148284284D01*
X146405238Y-148284284D02*
X146290952Y-148284284D01*
X146290952Y-148284284D02*
X146214761Y-148322380D01*
X146214761Y-148322380D02*
X146176666Y-148398570D01*
X146176666Y-148398570D02*
X146176666Y-148817618D01*
X146176666Y-148398570D02*
X146138571Y-148322380D01*
X146138571Y-148322380D02*
X146062380Y-148284284D01*
X146062380Y-148284284D02*
X145948095Y-148284284D01*
X145948095Y-148284284D02*
X145871904Y-148322380D01*
X145871904Y-148322380D02*
X145833809Y-148398570D01*
X145833809Y-148398570D02*
X145833809Y-148817618D01*
X144843332Y-148817618D02*
X144843332Y-148017618D01*
X144843332Y-148322380D02*
X144767142Y-148284284D01*
X144767142Y-148284284D02*
X144614761Y-148284284D01*
X144614761Y-148284284D02*
X144538570Y-148322380D01*
X144538570Y-148322380D02*
X144500475Y-148360475D01*
X144500475Y-148360475D02*
X144462380Y-148436665D01*
X144462380Y-148436665D02*
X144462380Y-148665237D01*
X144462380Y-148665237D02*
X144500475Y-148741427D01*
X144500475Y-148741427D02*
X144538570Y-148779523D01*
X144538570Y-148779523D02*
X144614761Y-148817618D01*
X144614761Y-148817618D02*
X144767142Y-148817618D01*
X144767142Y-148817618D02*
X144843332Y-148779523D01*
X143776665Y-148817618D02*
X143776665Y-148398570D01*
X143776665Y-148398570D02*
X143814760Y-148322380D01*
X143814760Y-148322380D02*
X143890951Y-148284284D01*
X143890951Y-148284284D02*
X144043332Y-148284284D01*
X144043332Y-148284284D02*
X144119522Y-148322380D01*
X143776665Y-148779523D02*
X143852856Y-148817618D01*
X143852856Y-148817618D02*
X144043332Y-148817618D01*
X144043332Y-148817618D02*
X144119522Y-148779523D01*
X144119522Y-148779523D02*
X144157618Y-148703332D01*
X144157618Y-148703332D02*
X144157618Y-148627142D01*
X144157618Y-148627142D02*
X144119522Y-148550951D01*
X144119522Y-148550951D02*
X144043332Y-148512856D01*
X144043332Y-148512856D02*
X143852856Y-148512856D01*
X143852856Y-148512856D02*
X143776665Y-148474761D01*
X143509998Y-148284284D02*
X143205236Y-148284284D01*
X143395712Y-148017618D02*
X143395712Y-148703332D01*
X143395712Y-148703332D02*
X143357617Y-148779523D01*
X143357617Y-148779523D02*
X143281427Y-148817618D01*
X143281427Y-148817618D02*
X143205236Y-148817618D01*
X143052855Y-148284284D02*
X142748093Y-148284284D01*
X142938569Y-148017618D02*
X142938569Y-148703332D01*
X142938569Y-148703332D02*
X142900474Y-148779523D01*
X142900474Y-148779523D02*
X142824284Y-148817618D01*
X142824284Y-148817618D02*
X142748093Y-148817618D01*
X142176664Y-148779523D02*
X142252855Y-148817618D01*
X142252855Y-148817618D02*
X142405236Y-148817618D01*
X142405236Y-148817618D02*
X142481426Y-148779523D01*
X142481426Y-148779523D02*
X142519522Y-148703332D01*
X142519522Y-148703332D02*
X142519522Y-148398570D01*
X142519522Y-148398570D02*
X142481426Y-148322380D01*
X142481426Y-148322380D02*
X142405236Y-148284284D01*
X142405236Y-148284284D02*
X142252855Y-148284284D01*
X142252855Y-148284284D02*
X142176664Y-148322380D01*
X142176664Y-148322380D02*
X142138569Y-148398570D01*
X142138569Y-148398570D02*
X142138569Y-148474761D01*
X142138569Y-148474761D02*
X142519522Y-148550951D01*
X141795712Y-148817618D02*
X141795712Y-148284284D01*
X141795712Y-148436665D02*
X141757617Y-148360475D01*
X141757617Y-148360475D02*
X141719522Y-148322380D01*
X141719522Y-148322380D02*
X141643331Y-148284284D01*
X141643331Y-148284284D02*
X141567141Y-148284284D01*
X141376665Y-148284284D02*
X141186189Y-148817618D01*
X140995712Y-148284284D02*
X141186189Y-148817618D01*
X141186189Y-148817618D02*
X141262379Y-149008094D01*
X141262379Y-149008094D02*
X141300474Y-149046189D01*
X141300474Y-149046189D02*
X141376665Y-149084284D01*
X139738569Y-148779523D02*
X139814760Y-148817618D01*
X139814760Y-148817618D02*
X139967141Y-148817618D01*
X139967141Y-148817618D02*
X140043331Y-148779523D01*
X140043331Y-148779523D02*
X140081426Y-148741427D01*
X140081426Y-148741427D02*
X140119522Y-148665237D01*
X140119522Y-148665237D02*
X140119522Y-148436665D01*
X140119522Y-148436665D02*
X140081426Y-148360475D01*
X140081426Y-148360475D02*
X140043331Y-148322380D01*
X140043331Y-148322380D02*
X139967141Y-148284284D01*
X139967141Y-148284284D02*
X139814760Y-148284284D01*
X139814760Y-148284284D02*
X139738569Y-148322380D01*
X139395712Y-148817618D02*
X139395712Y-148017618D01*
X139052855Y-148817618D02*
X139052855Y-148398570D01*
X139052855Y-148398570D02*
X139090950Y-148322380D01*
X139090950Y-148322380D02*
X139167141Y-148284284D01*
X139167141Y-148284284D02*
X139281427Y-148284284D01*
X139281427Y-148284284D02*
X139357617Y-148322380D01*
X139357617Y-148322380D02*
X139395712Y-148360475D01*
X138329045Y-148817618D02*
X138329045Y-148398570D01*
X138329045Y-148398570D02*
X138367140Y-148322380D01*
X138367140Y-148322380D02*
X138443331Y-148284284D01*
X138443331Y-148284284D02*
X138595712Y-148284284D01*
X138595712Y-148284284D02*
X138671902Y-148322380D01*
X138329045Y-148779523D02*
X138405236Y-148817618D01*
X138405236Y-148817618D02*
X138595712Y-148817618D01*
X138595712Y-148817618D02*
X138671902Y-148779523D01*
X138671902Y-148779523D02*
X138709998Y-148703332D01*
X138709998Y-148703332D02*
X138709998Y-148627142D01*
X138709998Y-148627142D02*
X138671902Y-148550951D01*
X138671902Y-148550951D02*
X138595712Y-148512856D01*
X138595712Y-148512856D02*
X138405236Y-148512856D01*
X138405236Y-148512856D02*
X138329045Y-148474761D01*
X137948092Y-148817618D02*
X137948092Y-148284284D01*
X137948092Y-148436665D02*
X137909997Y-148360475D01*
X137909997Y-148360475D02*
X137871902Y-148322380D01*
X137871902Y-148322380D02*
X137795711Y-148284284D01*
X137795711Y-148284284D02*
X137719521Y-148284284D01*
X137109997Y-148284284D02*
X137109997Y-148931903D01*
X137109997Y-148931903D02*
X137148092Y-149008094D01*
X137148092Y-149008094D02*
X137186188Y-149046189D01*
X137186188Y-149046189D02*
X137262378Y-149084284D01*
X137262378Y-149084284D02*
X137376664Y-149084284D01*
X137376664Y-149084284D02*
X137452854Y-149046189D01*
X137109997Y-148779523D02*
X137186188Y-148817618D01*
X137186188Y-148817618D02*
X137338569Y-148817618D01*
X137338569Y-148817618D02*
X137414759Y-148779523D01*
X137414759Y-148779523D02*
X137452854Y-148741427D01*
X137452854Y-148741427D02*
X137490950Y-148665237D01*
X137490950Y-148665237D02*
X137490950Y-148436665D01*
X137490950Y-148436665D02*
X137452854Y-148360475D01*
X137452854Y-148360475D02*
X137414759Y-148322380D01*
X137414759Y-148322380D02*
X137338569Y-148284284D01*
X137338569Y-148284284D02*
X137186188Y-148284284D01*
X137186188Y-148284284D02*
X137109997Y-148322380D01*
X136424282Y-148779523D02*
X136500473Y-148817618D01*
X136500473Y-148817618D02*
X136652854Y-148817618D01*
X136652854Y-148817618D02*
X136729044Y-148779523D01*
X136729044Y-148779523D02*
X136767140Y-148703332D01*
X136767140Y-148703332D02*
X136767140Y-148398570D01*
X136767140Y-148398570D02*
X136729044Y-148322380D01*
X136729044Y-148322380D02*
X136652854Y-148284284D01*
X136652854Y-148284284D02*
X136500473Y-148284284D01*
X136500473Y-148284284D02*
X136424282Y-148322380D01*
X136424282Y-148322380D02*
X136386187Y-148398570D01*
X136386187Y-148398570D02*
X136386187Y-148474761D01*
X136386187Y-148474761D02*
X136767140Y-148550951D01*
X135090949Y-148779523D02*
X135167140Y-148817618D01*
X135167140Y-148817618D02*
X135319521Y-148817618D01*
X135319521Y-148817618D02*
X135395711Y-148779523D01*
X135395711Y-148779523D02*
X135433806Y-148741427D01*
X135433806Y-148741427D02*
X135471902Y-148665237D01*
X135471902Y-148665237D02*
X135471902Y-148436665D01*
X135471902Y-148436665D02*
X135433806Y-148360475D01*
X135433806Y-148360475D02*
X135395711Y-148322380D01*
X135395711Y-148322380D02*
X135319521Y-148284284D01*
X135319521Y-148284284D02*
X135167140Y-148284284D01*
X135167140Y-148284284D02*
X135090949Y-148322380D01*
X134633807Y-148817618D02*
X134709997Y-148779523D01*
X134709997Y-148779523D02*
X134748092Y-148741427D01*
X134748092Y-148741427D02*
X134786188Y-148665237D01*
X134786188Y-148665237D02*
X134786188Y-148436665D01*
X134786188Y-148436665D02*
X134748092Y-148360475D01*
X134748092Y-148360475D02*
X134709997Y-148322380D01*
X134709997Y-148322380D02*
X134633807Y-148284284D01*
X134633807Y-148284284D02*
X134519521Y-148284284D01*
X134519521Y-148284284D02*
X134443330Y-148322380D01*
X134443330Y-148322380D02*
X134405235Y-148360475D01*
X134405235Y-148360475D02*
X134367140Y-148436665D01*
X134367140Y-148436665D02*
X134367140Y-148665237D01*
X134367140Y-148665237D02*
X134405235Y-148741427D01*
X134405235Y-148741427D02*
X134443330Y-148779523D01*
X134443330Y-148779523D02*
X134519521Y-148817618D01*
X134519521Y-148817618D02*
X134633807Y-148817618D01*
X134024282Y-148284284D02*
X134024282Y-148817618D01*
X134024282Y-148360475D02*
X133986187Y-148322380D01*
X133986187Y-148322380D02*
X133909997Y-148284284D01*
X133909997Y-148284284D02*
X133795711Y-148284284D01*
X133795711Y-148284284D02*
X133719520Y-148322380D01*
X133719520Y-148322380D02*
X133681425Y-148398570D01*
X133681425Y-148398570D02*
X133681425Y-148817618D01*
X133414758Y-148284284D02*
X133109996Y-148284284D01*
X133300472Y-148017618D02*
X133300472Y-148703332D01*
X133300472Y-148703332D02*
X133262377Y-148779523D01*
X133262377Y-148779523D02*
X133186187Y-148817618D01*
X133186187Y-148817618D02*
X133109996Y-148817618D01*
X132843329Y-148817618D02*
X132843329Y-148284284D01*
X132843329Y-148436665D02*
X132805234Y-148360475D01*
X132805234Y-148360475D02*
X132767139Y-148322380D01*
X132767139Y-148322380D02*
X132690948Y-148284284D01*
X132690948Y-148284284D02*
X132614758Y-148284284D01*
X132233806Y-148817618D02*
X132309996Y-148779523D01*
X132309996Y-148779523D02*
X132348091Y-148741427D01*
X132348091Y-148741427D02*
X132386187Y-148665237D01*
X132386187Y-148665237D02*
X132386187Y-148436665D01*
X132386187Y-148436665D02*
X132348091Y-148360475D01*
X132348091Y-148360475D02*
X132309996Y-148322380D01*
X132309996Y-148322380D02*
X132233806Y-148284284D01*
X132233806Y-148284284D02*
X132119520Y-148284284D01*
X132119520Y-148284284D02*
X132043329Y-148322380D01*
X132043329Y-148322380D02*
X132005234Y-148360475D01*
X132005234Y-148360475D02*
X131967139Y-148436665D01*
X131967139Y-148436665D02*
X131967139Y-148665237D01*
X131967139Y-148665237D02*
X132005234Y-148741427D01*
X132005234Y-148741427D02*
X132043329Y-148779523D01*
X132043329Y-148779523D02*
X132119520Y-148817618D01*
X132119520Y-148817618D02*
X132233806Y-148817618D01*
X131509996Y-148817618D02*
X131586186Y-148779523D01*
X131586186Y-148779523D02*
X131624281Y-148703332D01*
X131624281Y-148703332D02*
X131624281Y-148017618D01*
X131090948Y-148817618D02*
X131167138Y-148779523D01*
X131167138Y-148779523D02*
X131205233Y-148703332D01*
X131205233Y-148703332D02*
X131205233Y-148017618D01*
X130481423Y-148779523D02*
X130557614Y-148817618D01*
X130557614Y-148817618D02*
X130709995Y-148817618D01*
X130709995Y-148817618D02*
X130786185Y-148779523D01*
X130786185Y-148779523D02*
X130824281Y-148703332D01*
X130824281Y-148703332D02*
X130824281Y-148398570D01*
X130824281Y-148398570D02*
X130786185Y-148322380D01*
X130786185Y-148322380D02*
X130709995Y-148284284D01*
X130709995Y-148284284D02*
X130557614Y-148284284D01*
X130557614Y-148284284D02*
X130481423Y-148322380D01*
X130481423Y-148322380D02*
X130443328Y-148398570D01*
X130443328Y-148398570D02*
X130443328Y-148474761D01*
X130443328Y-148474761D02*
X130824281Y-148550951D01*
X130100471Y-148817618D02*
X130100471Y-148284284D01*
X130100471Y-148436665D02*
X130062376Y-148360475D01*
X130062376Y-148360475D02*
X130024281Y-148322380D01*
X130024281Y-148322380D02*
X129948090Y-148284284D01*
X129948090Y-148284284D02*
X129871900Y-148284284D01*
X129567138Y-148779523D02*
X129567138Y-148817618D01*
X129567138Y-148817618D02*
X129605233Y-148893808D01*
X129605233Y-148893808D02*
X129643329Y-148931903D01*
X161205242Y-149686525D02*
X161090956Y-149724620D01*
X161090956Y-149724620D02*
X161052861Y-149762716D01*
X161052861Y-149762716D02*
X161014765Y-149838906D01*
X161014765Y-149838906D02*
X161014765Y-149953192D01*
X161014765Y-149953192D02*
X161052861Y-150029382D01*
X161052861Y-150029382D02*
X161090956Y-150067478D01*
X161090956Y-150067478D02*
X161167146Y-150105573D01*
X161167146Y-150105573D02*
X161471908Y-150105573D01*
X161471908Y-150105573D02*
X161471908Y-149305573D01*
X161471908Y-149305573D02*
X161205242Y-149305573D01*
X161205242Y-149305573D02*
X161129051Y-149343668D01*
X161129051Y-149343668D02*
X161090956Y-149381763D01*
X161090956Y-149381763D02*
X161052861Y-149457954D01*
X161052861Y-149457954D02*
X161052861Y-149534144D01*
X161052861Y-149534144D02*
X161090956Y-149610335D01*
X161090956Y-149610335D02*
X161129051Y-149648430D01*
X161129051Y-149648430D02*
X161205242Y-149686525D01*
X161205242Y-149686525D02*
X161471908Y-149686525D01*
X160329051Y-150105573D02*
X160329051Y-149686525D01*
X160329051Y-149686525D02*
X160367146Y-149610335D01*
X160367146Y-149610335D02*
X160443337Y-149572239D01*
X160443337Y-149572239D02*
X160595718Y-149572239D01*
X160595718Y-149572239D02*
X160671908Y-149610335D01*
X160329051Y-150067478D02*
X160405242Y-150105573D01*
X160405242Y-150105573D02*
X160595718Y-150105573D01*
X160595718Y-150105573D02*
X160671908Y-150067478D01*
X160671908Y-150067478D02*
X160710004Y-149991287D01*
X160710004Y-149991287D02*
X160710004Y-149915097D01*
X160710004Y-149915097D02*
X160671908Y-149838906D01*
X160671908Y-149838906D02*
X160595718Y-149800811D01*
X160595718Y-149800811D02*
X160405242Y-149800811D01*
X160405242Y-149800811D02*
X160329051Y-149762716D01*
X160062384Y-149572239D02*
X159757622Y-149572239D01*
X159948098Y-149305573D02*
X159948098Y-149991287D01*
X159948098Y-149991287D02*
X159910003Y-150067478D01*
X159910003Y-150067478D02*
X159833813Y-150105573D01*
X159833813Y-150105573D02*
X159757622Y-150105573D01*
X159605241Y-149572239D02*
X159300479Y-149572239D01*
X159490955Y-149305573D02*
X159490955Y-149991287D01*
X159490955Y-149991287D02*
X159452860Y-150067478D01*
X159452860Y-150067478D02*
X159376670Y-150105573D01*
X159376670Y-150105573D02*
X159300479Y-150105573D01*
X158729050Y-150067478D02*
X158805241Y-150105573D01*
X158805241Y-150105573D02*
X158957622Y-150105573D01*
X158957622Y-150105573D02*
X159033812Y-150067478D01*
X159033812Y-150067478D02*
X159071908Y-149991287D01*
X159071908Y-149991287D02*
X159071908Y-149686525D01*
X159071908Y-149686525D02*
X159033812Y-149610335D01*
X159033812Y-149610335D02*
X158957622Y-149572239D01*
X158957622Y-149572239D02*
X158805241Y-149572239D01*
X158805241Y-149572239D02*
X158729050Y-149610335D01*
X158729050Y-149610335D02*
X158690955Y-149686525D01*
X158690955Y-149686525D02*
X158690955Y-149762716D01*
X158690955Y-149762716D02*
X159071908Y-149838906D01*
X158348098Y-150105573D02*
X158348098Y-149572239D01*
X158348098Y-149724620D02*
X158310003Y-149648430D01*
X158310003Y-149648430D02*
X158271908Y-149610335D01*
X158271908Y-149610335D02*
X158195717Y-149572239D01*
X158195717Y-149572239D02*
X158119527Y-149572239D01*
X157929051Y-149572239D02*
X157738575Y-150105573D01*
X157548098Y-149572239D02*
X157738575Y-150105573D01*
X157738575Y-150105573D02*
X157814765Y-150296049D01*
X157814765Y-150296049D02*
X157852860Y-150334144D01*
X157852860Y-150334144D02*
X157929051Y-150372239D01*
X156633812Y-150105573D02*
X156633812Y-149305573D01*
X156633812Y-149305573D02*
X156367146Y-149877001D01*
X156367146Y-149877001D02*
X156100479Y-149305573D01*
X156100479Y-149305573D02*
X156100479Y-150105573D01*
X155376669Y-150105573D02*
X155376669Y-149686525D01*
X155376669Y-149686525D02*
X155414764Y-149610335D01*
X155414764Y-149610335D02*
X155490955Y-149572239D01*
X155490955Y-149572239D02*
X155643336Y-149572239D01*
X155643336Y-149572239D02*
X155719526Y-149610335D01*
X155376669Y-150067478D02*
X155452860Y-150105573D01*
X155452860Y-150105573D02*
X155643336Y-150105573D01*
X155643336Y-150105573D02*
X155719526Y-150067478D01*
X155719526Y-150067478D02*
X155757622Y-149991287D01*
X155757622Y-149991287D02*
X155757622Y-149915097D01*
X155757622Y-149915097D02*
X155719526Y-149838906D01*
X155719526Y-149838906D02*
X155643336Y-149800811D01*
X155643336Y-149800811D02*
X155452860Y-149800811D01*
X155452860Y-149800811D02*
X155376669Y-149762716D01*
X154995716Y-149572239D02*
X154995716Y-150105573D01*
X154995716Y-149648430D02*
X154957621Y-149610335D01*
X154957621Y-149610335D02*
X154881431Y-149572239D01*
X154881431Y-149572239D02*
X154767145Y-149572239D01*
X154767145Y-149572239D02*
X154690954Y-149610335D01*
X154690954Y-149610335D02*
X154652859Y-149686525D01*
X154652859Y-149686525D02*
X154652859Y-150105573D01*
X153929049Y-150105573D02*
X153929049Y-149686525D01*
X153929049Y-149686525D02*
X153967144Y-149610335D01*
X153967144Y-149610335D02*
X154043335Y-149572239D01*
X154043335Y-149572239D02*
X154195716Y-149572239D01*
X154195716Y-149572239D02*
X154271906Y-149610335D01*
X153929049Y-150067478D02*
X154005240Y-150105573D01*
X154005240Y-150105573D02*
X154195716Y-150105573D01*
X154195716Y-150105573D02*
X154271906Y-150067478D01*
X154271906Y-150067478D02*
X154310002Y-149991287D01*
X154310002Y-149991287D02*
X154310002Y-149915097D01*
X154310002Y-149915097D02*
X154271906Y-149838906D01*
X154271906Y-149838906D02*
X154195716Y-149800811D01*
X154195716Y-149800811D02*
X154005240Y-149800811D01*
X154005240Y-149800811D02*
X153929049Y-149762716D01*
X153205239Y-149572239D02*
X153205239Y-150219858D01*
X153205239Y-150219858D02*
X153243334Y-150296049D01*
X153243334Y-150296049D02*
X153281430Y-150334144D01*
X153281430Y-150334144D02*
X153357620Y-150372239D01*
X153357620Y-150372239D02*
X153471906Y-150372239D01*
X153471906Y-150372239D02*
X153548096Y-150334144D01*
X153205239Y-150067478D02*
X153281430Y-150105573D01*
X153281430Y-150105573D02*
X153433811Y-150105573D01*
X153433811Y-150105573D02*
X153510001Y-150067478D01*
X153510001Y-150067478D02*
X153548096Y-150029382D01*
X153548096Y-150029382D02*
X153586192Y-149953192D01*
X153586192Y-149953192D02*
X153586192Y-149724620D01*
X153586192Y-149724620D02*
X153548096Y-149648430D01*
X153548096Y-149648430D02*
X153510001Y-149610335D01*
X153510001Y-149610335D02*
X153433811Y-149572239D01*
X153433811Y-149572239D02*
X153281430Y-149572239D01*
X153281430Y-149572239D02*
X153205239Y-149610335D01*
X152824286Y-150105573D02*
X152824286Y-149572239D01*
X152824286Y-149648430D02*
X152786191Y-149610335D01*
X152786191Y-149610335D02*
X152710001Y-149572239D01*
X152710001Y-149572239D02*
X152595715Y-149572239D01*
X152595715Y-149572239D02*
X152519524Y-149610335D01*
X152519524Y-149610335D02*
X152481429Y-149686525D01*
X152481429Y-149686525D02*
X152481429Y-150105573D01*
X152481429Y-149686525D02*
X152443334Y-149610335D01*
X152443334Y-149610335D02*
X152367143Y-149572239D01*
X152367143Y-149572239D02*
X152252858Y-149572239D01*
X152252858Y-149572239D02*
X152176667Y-149610335D01*
X152176667Y-149610335D02*
X152138572Y-149686525D01*
X152138572Y-149686525D02*
X152138572Y-150105573D01*
X151452857Y-150067478D02*
X151529048Y-150105573D01*
X151529048Y-150105573D02*
X151681429Y-150105573D01*
X151681429Y-150105573D02*
X151757619Y-150067478D01*
X151757619Y-150067478D02*
X151795715Y-149991287D01*
X151795715Y-149991287D02*
X151795715Y-149686525D01*
X151795715Y-149686525D02*
X151757619Y-149610335D01*
X151757619Y-149610335D02*
X151681429Y-149572239D01*
X151681429Y-149572239D02*
X151529048Y-149572239D01*
X151529048Y-149572239D02*
X151452857Y-149610335D01*
X151452857Y-149610335D02*
X151414762Y-149686525D01*
X151414762Y-149686525D02*
X151414762Y-149762716D01*
X151414762Y-149762716D02*
X151795715Y-149838906D01*
X151071905Y-149572239D02*
X151071905Y-150105573D01*
X151071905Y-149648430D02*
X151033810Y-149610335D01*
X151033810Y-149610335D02*
X150957620Y-149572239D01*
X150957620Y-149572239D02*
X150843334Y-149572239D01*
X150843334Y-149572239D02*
X150767143Y-149610335D01*
X150767143Y-149610335D02*
X150729048Y-149686525D01*
X150729048Y-149686525D02*
X150729048Y-150105573D01*
X150462381Y-149572239D02*
X150157619Y-149572239D01*
X150348095Y-149305573D02*
X150348095Y-149991287D01*
X150348095Y-149991287D02*
X150310000Y-150067478D01*
X150310000Y-150067478D02*
X150233810Y-150105573D01*
X150233810Y-150105573D02*
X150157619Y-150105573D01*
X149319524Y-150067478D02*
X149205238Y-150105573D01*
X149205238Y-150105573D02*
X149014762Y-150105573D01*
X149014762Y-150105573D02*
X148938571Y-150067478D01*
X148938571Y-150067478D02*
X148900476Y-150029382D01*
X148900476Y-150029382D02*
X148862381Y-149953192D01*
X148862381Y-149953192D02*
X148862381Y-149877001D01*
X148862381Y-149877001D02*
X148900476Y-149800811D01*
X148900476Y-149800811D02*
X148938571Y-149762716D01*
X148938571Y-149762716D02*
X149014762Y-149724620D01*
X149014762Y-149724620D02*
X149167143Y-149686525D01*
X149167143Y-149686525D02*
X149243333Y-149648430D01*
X149243333Y-149648430D02*
X149281428Y-149610335D01*
X149281428Y-149610335D02*
X149319524Y-149534144D01*
X149319524Y-149534144D02*
X149319524Y-149457954D01*
X149319524Y-149457954D02*
X149281428Y-149381763D01*
X149281428Y-149381763D02*
X149243333Y-149343668D01*
X149243333Y-149343668D02*
X149167143Y-149305573D01*
X149167143Y-149305573D02*
X148976666Y-149305573D01*
X148976666Y-149305573D02*
X148862381Y-149343668D01*
X148595714Y-149572239D02*
X148405238Y-150105573D01*
X148214761Y-149572239D02*
X148405238Y-150105573D01*
X148405238Y-150105573D02*
X148481428Y-150296049D01*
X148481428Y-150296049D02*
X148519523Y-150334144D01*
X148519523Y-150334144D02*
X148595714Y-150372239D01*
X147948095Y-150067478D02*
X147871904Y-150105573D01*
X147871904Y-150105573D02*
X147719523Y-150105573D01*
X147719523Y-150105573D02*
X147643333Y-150067478D01*
X147643333Y-150067478D02*
X147605237Y-149991287D01*
X147605237Y-149991287D02*
X147605237Y-149953192D01*
X147605237Y-149953192D02*
X147643333Y-149877001D01*
X147643333Y-149877001D02*
X147719523Y-149838906D01*
X147719523Y-149838906D02*
X147833809Y-149838906D01*
X147833809Y-149838906D02*
X147909999Y-149800811D01*
X147909999Y-149800811D02*
X147948095Y-149724620D01*
X147948095Y-149724620D02*
X147948095Y-149686525D01*
X147948095Y-149686525D02*
X147909999Y-149610335D01*
X147909999Y-149610335D02*
X147833809Y-149572239D01*
X147833809Y-149572239D02*
X147719523Y-149572239D01*
X147719523Y-149572239D02*
X147643333Y-149610335D01*
X147376666Y-149572239D02*
X147071904Y-149572239D01*
X147262380Y-149305573D02*
X147262380Y-149991287D01*
X147262380Y-149991287D02*
X147224285Y-150067478D01*
X147224285Y-150067478D02*
X147148095Y-150105573D01*
X147148095Y-150105573D02*
X147071904Y-150105573D01*
X146500475Y-150067478D02*
X146576666Y-150105573D01*
X146576666Y-150105573D02*
X146729047Y-150105573D01*
X146729047Y-150105573D02*
X146805237Y-150067478D01*
X146805237Y-150067478D02*
X146843333Y-149991287D01*
X146843333Y-149991287D02*
X146843333Y-149686525D01*
X146843333Y-149686525D02*
X146805237Y-149610335D01*
X146805237Y-149610335D02*
X146729047Y-149572239D01*
X146729047Y-149572239D02*
X146576666Y-149572239D01*
X146576666Y-149572239D02*
X146500475Y-149610335D01*
X146500475Y-149610335D02*
X146462380Y-149686525D01*
X146462380Y-149686525D02*
X146462380Y-149762716D01*
X146462380Y-149762716D02*
X146843333Y-149838906D01*
X146119523Y-150105573D02*
X146119523Y-149572239D01*
X146119523Y-149648430D02*
X146081428Y-149610335D01*
X146081428Y-149610335D02*
X146005238Y-149572239D01*
X146005238Y-149572239D02*
X145890952Y-149572239D01*
X145890952Y-149572239D02*
X145814761Y-149610335D01*
X145814761Y-149610335D02*
X145776666Y-149686525D01*
X145776666Y-149686525D02*
X145776666Y-150105573D01*
X145776666Y-149686525D02*
X145738571Y-149610335D01*
X145738571Y-149610335D02*
X145662380Y-149572239D01*
X145662380Y-149572239D02*
X145548095Y-149572239D01*
X145548095Y-149572239D02*
X145471904Y-149610335D01*
X145471904Y-149610335D02*
X145433809Y-149686525D01*
X145433809Y-149686525D02*
X145433809Y-150105573D01*
X145014761Y-150067478D02*
X145014761Y-150105573D01*
X145014761Y-150105573D02*
X145052856Y-150181763D01*
X145052856Y-150181763D02*
X145090952Y-150219858D01*
X143719523Y-150105573D02*
X143719523Y-149686525D01*
X143719523Y-149686525D02*
X143757618Y-149610335D01*
X143757618Y-149610335D02*
X143833809Y-149572239D01*
X143833809Y-149572239D02*
X143986190Y-149572239D01*
X143986190Y-149572239D02*
X144062380Y-149610335D01*
X143719523Y-150067478D02*
X143795714Y-150105573D01*
X143795714Y-150105573D02*
X143986190Y-150105573D01*
X143986190Y-150105573D02*
X144062380Y-150067478D01*
X144062380Y-150067478D02*
X144100476Y-149991287D01*
X144100476Y-149991287D02*
X144100476Y-149915097D01*
X144100476Y-149915097D02*
X144062380Y-149838906D01*
X144062380Y-149838906D02*
X143986190Y-149800811D01*
X143986190Y-149800811D02*
X143795714Y-149800811D01*
X143795714Y-149800811D02*
X143719523Y-149762716D01*
X143338570Y-149572239D02*
X143338570Y-150105573D01*
X143338570Y-149648430D02*
X143300475Y-149610335D01*
X143300475Y-149610335D02*
X143224285Y-149572239D01*
X143224285Y-149572239D02*
X143109999Y-149572239D01*
X143109999Y-149572239D02*
X143033808Y-149610335D01*
X143033808Y-149610335D02*
X142995713Y-149686525D01*
X142995713Y-149686525D02*
X142995713Y-150105573D01*
X142271903Y-150105573D02*
X142271903Y-149305573D01*
X142271903Y-150067478D02*
X142348094Y-150105573D01*
X142348094Y-150105573D02*
X142500475Y-150105573D01*
X142500475Y-150105573D02*
X142576665Y-150067478D01*
X142576665Y-150067478D02*
X142614760Y-150029382D01*
X142614760Y-150029382D02*
X142652856Y-149953192D01*
X142652856Y-149953192D02*
X142652856Y-149724620D01*
X142652856Y-149724620D02*
X142614760Y-149648430D01*
X142614760Y-149648430D02*
X142576665Y-149610335D01*
X142576665Y-149610335D02*
X142500475Y-149572239D01*
X142500475Y-149572239D02*
X142348094Y-149572239D01*
X142348094Y-149572239D02*
X142271903Y-149610335D01*
X141281426Y-150105573D02*
X141281426Y-149305573D01*
X141281426Y-149305573D02*
X140976664Y-149305573D01*
X140976664Y-149305573D02*
X140900474Y-149343668D01*
X140900474Y-149343668D02*
X140862379Y-149381763D01*
X140862379Y-149381763D02*
X140824283Y-149457954D01*
X140824283Y-149457954D02*
X140824283Y-149572239D01*
X140824283Y-149572239D02*
X140862379Y-149648430D01*
X140862379Y-149648430D02*
X140900474Y-149686525D01*
X140900474Y-149686525D02*
X140976664Y-149724620D01*
X140976664Y-149724620D02*
X141281426Y-149724620D01*
X140367141Y-150105573D02*
X140443331Y-150067478D01*
X140443331Y-150067478D02*
X140481426Y-150029382D01*
X140481426Y-150029382D02*
X140519522Y-149953192D01*
X140519522Y-149953192D02*
X140519522Y-149724620D01*
X140519522Y-149724620D02*
X140481426Y-149648430D01*
X140481426Y-149648430D02*
X140443331Y-149610335D01*
X140443331Y-149610335D02*
X140367141Y-149572239D01*
X140367141Y-149572239D02*
X140252855Y-149572239D01*
X140252855Y-149572239D02*
X140176664Y-149610335D01*
X140176664Y-149610335D02*
X140138569Y-149648430D01*
X140138569Y-149648430D02*
X140100474Y-149724620D01*
X140100474Y-149724620D02*
X140100474Y-149953192D01*
X140100474Y-149953192D02*
X140138569Y-150029382D01*
X140138569Y-150029382D02*
X140176664Y-150067478D01*
X140176664Y-150067478D02*
X140252855Y-150105573D01*
X140252855Y-150105573D02*
X140367141Y-150105573D01*
X139833807Y-149572239D02*
X139681426Y-150105573D01*
X139681426Y-150105573D02*
X139529045Y-149724620D01*
X139529045Y-149724620D02*
X139376664Y-150105573D01*
X139376664Y-150105573D02*
X139224283Y-149572239D01*
X138614759Y-150067478D02*
X138690950Y-150105573D01*
X138690950Y-150105573D02*
X138843331Y-150105573D01*
X138843331Y-150105573D02*
X138919521Y-150067478D01*
X138919521Y-150067478D02*
X138957617Y-149991287D01*
X138957617Y-149991287D02*
X138957617Y-149686525D01*
X138957617Y-149686525D02*
X138919521Y-149610335D01*
X138919521Y-149610335D02*
X138843331Y-149572239D01*
X138843331Y-149572239D02*
X138690950Y-149572239D01*
X138690950Y-149572239D02*
X138614759Y-149610335D01*
X138614759Y-149610335D02*
X138576664Y-149686525D01*
X138576664Y-149686525D02*
X138576664Y-149762716D01*
X138576664Y-149762716D02*
X138957617Y-149838906D01*
X138233807Y-150105573D02*
X138233807Y-149572239D01*
X138233807Y-149724620D02*
X138195712Y-149648430D01*
X138195712Y-149648430D02*
X138157617Y-149610335D01*
X138157617Y-149610335D02*
X138081426Y-149572239D01*
X138081426Y-149572239D02*
X138005236Y-149572239D01*
X137129045Y-150105573D02*
X137129045Y-149305573D01*
X137129045Y-149305573D02*
X136862379Y-149877001D01*
X136862379Y-149877001D02*
X136595712Y-149305573D01*
X136595712Y-149305573D02*
X136595712Y-150105573D01*
X135871902Y-150105573D02*
X135871902Y-149686525D01*
X135871902Y-149686525D02*
X135909997Y-149610335D01*
X135909997Y-149610335D02*
X135986188Y-149572239D01*
X135986188Y-149572239D02*
X136138569Y-149572239D01*
X136138569Y-149572239D02*
X136214759Y-149610335D01*
X135871902Y-150067478D02*
X135948093Y-150105573D01*
X135948093Y-150105573D02*
X136138569Y-150105573D01*
X136138569Y-150105573D02*
X136214759Y-150067478D01*
X136214759Y-150067478D02*
X136252855Y-149991287D01*
X136252855Y-149991287D02*
X136252855Y-149915097D01*
X136252855Y-149915097D02*
X136214759Y-149838906D01*
X136214759Y-149838906D02*
X136138569Y-149800811D01*
X136138569Y-149800811D02*
X135948093Y-149800811D01*
X135948093Y-149800811D02*
X135871902Y-149762716D01*
X135490949Y-149572239D02*
X135490949Y-150105573D01*
X135490949Y-149648430D02*
X135452854Y-149610335D01*
X135452854Y-149610335D02*
X135376664Y-149572239D01*
X135376664Y-149572239D02*
X135262378Y-149572239D01*
X135262378Y-149572239D02*
X135186187Y-149610335D01*
X135186187Y-149610335D02*
X135148092Y-149686525D01*
X135148092Y-149686525D02*
X135148092Y-150105573D01*
X134424282Y-150105573D02*
X134424282Y-149686525D01*
X134424282Y-149686525D02*
X134462377Y-149610335D01*
X134462377Y-149610335D02*
X134538568Y-149572239D01*
X134538568Y-149572239D02*
X134690949Y-149572239D01*
X134690949Y-149572239D02*
X134767139Y-149610335D01*
X134424282Y-150067478D02*
X134500473Y-150105573D01*
X134500473Y-150105573D02*
X134690949Y-150105573D01*
X134690949Y-150105573D02*
X134767139Y-150067478D01*
X134767139Y-150067478D02*
X134805235Y-149991287D01*
X134805235Y-149991287D02*
X134805235Y-149915097D01*
X134805235Y-149915097D02*
X134767139Y-149838906D01*
X134767139Y-149838906D02*
X134690949Y-149800811D01*
X134690949Y-149800811D02*
X134500473Y-149800811D01*
X134500473Y-149800811D02*
X134424282Y-149762716D01*
X133700472Y-149572239D02*
X133700472Y-150219858D01*
X133700472Y-150219858D02*
X133738567Y-150296049D01*
X133738567Y-150296049D02*
X133776663Y-150334144D01*
X133776663Y-150334144D02*
X133852853Y-150372239D01*
X133852853Y-150372239D02*
X133967139Y-150372239D01*
X133967139Y-150372239D02*
X134043329Y-150334144D01*
X133700472Y-150067478D02*
X133776663Y-150105573D01*
X133776663Y-150105573D02*
X133929044Y-150105573D01*
X133929044Y-150105573D02*
X134005234Y-150067478D01*
X134005234Y-150067478D02*
X134043329Y-150029382D01*
X134043329Y-150029382D02*
X134081425Y-149953192D01*
X134081425Y-149953192D02*
X134081425Y-149724620D01*
X134081425Y-149724620D02*
X134043329Y-149648430D01*
X134043329Y-149648430D02*
X134005234Y-149610335D01*
X134005234Y-149610335D02*
X133929044Y-149572239D01*
X133929044Y-149572239D02*
X133776663Y-149572239D01*
X133776663Y-149572239D02*
X133700472Y-149610335D01*
X133319519Y-150105573D02*
X133319519Y-149572239D01*
X133319519Y-149648430D02*
X133281424Y-149610335D01*
X133281424Y-149610335D02*
X133205234Y-149572239D01*
X133205234Y-149572239D02*
X133090948Y-149572239D01*
X133090948Y-149572239D02*
X133014757Y-149610335D01*
X133014757Y-149610335D02*
X132976662Y-149686525D01*
X132976662Y-149686525D02*
X132976662Y-150105573D01*
X132976662Y-149686525D02*
X132938567Y-149610335D01*
X132938567Y-149610335D02*
X132862376Y-149572239D01*
X132862376Y-149572239D02*
X132748091Y-149572239D01*
X132748091Y-149572239D02*
X132671900Y-149610335D01*
X132671900Y-149610335D02*
X132633805Y-149686525D01*
X132633805Y-149686525D02*
X132633805Y-150105573D01*
X131948090Y-150067478D02*
X132024281Y-150105573D01*
X132024281Y-150105573D02*
X132176662Y-150105573D01*
X132176662Y-150105573D02*
X132252852Y-150067478D01*
X132252852Y-150067478D02*
X132290948Y-149991287D01*
X132290948Y-149991287D02*
X132290948Y-149686525D01*
X132290948Y-149686525D02*
X132252852Y-149610335D01*
X132252852Y-149610335D02*
X132176662Y-149572239D01*
X132176662Y-149572239D02*
X132024281Y-149572239D01*
X132024281Y-149572239D02*
X131948090Y-149610335D01*
X131948090Y-149610335D02*
X131909995Y-149686525D01*
X131909995Y-149686525D02*
X131909995Y-149762716D01*
X131909995Y-149762716D02*
X132290948Y-149838906D01*
X131567138Y-149572239D02*
X131567138Y-150105573D01*
X131567138Y-149648430D02*
X131529043Y-149610335D01*
X131529043Y-149610335D02*
X131452853Y-149572239D01*
X131452853Y-149572239D02*
X131338567Y-149572239D01*
X131338567Y-149572239D02*
X131262376Y-149610335D01*
X131262376Y-149610335D02*
X131224281Y-149686525D01*
X131224281Y-149686525D02*
X131224281Y-150105573D01*
X130957614Y-149572239D02*
X130652852Y-149572239D01*
X130843328Y-149305573D02*
X130843328Y-149991287D01*
X130843328Y-149991287D02*
X130805233Y-150067478D01*
X130805233Y-150067478D02*
X130729043Y-150105573D01*
X130729043Y-150105573D02*
X130652852Y-150105573D01*
X129814757Y-150067478D02*
X129700471Y-150105573D01*
X129700471Y-150105573D02*
X129509995Y-150105573D01*
X129509995Y-150105573D02*
X129433804Y-150067478D01*
X129433804Y-150067478D02*
X129395709Y-150029382D01*
X129395709Y-150029382D02*
X129357614Y-149953192D01*
X129357614Y-149953192D02*
X129357614Y-149877001D01*
X129357614Y-149877001D02*
X129395709Y-149800811D01*
X129395709Y-149800811D02*
X129433804Y-149762716D01*
X129433804Y-149762716D02*
X129509995Y-149724620D01*
X129509995Y-149724620D02*
X129662376Y-149686525D01*
X129662376Y-149686525D02*
X129738566Y-149648430D01*
X129738566Y-149648430D02*
X129776661Y-149610335D01*
X129776661Y-149610335D02*
X129814757Y-149534144D01*
X129814757Y-149534144D02*
X129814757Y-149457954D01*
X129814757Y-149457954D02*
X129776661Y-149381763D01*
X129776661Y-149381763D02*
X129738566Y-149343668D01*
X129738566Y-149343668D02*
X129662376Y-149305573D01*
X129662376Y-149305573D02*
X129471899Y-149305573D01*
X129471899Y-149305573D02*
X129357614Y-149343668D01*
X129090947Y-149572239D02*
X128900471Y-150105573D01*
X128709994Y-149572239D02*
X128900471Y-150105573D01*
X128900471Y-150105573D02*
X128976661Y-150296049D01*
X128976661Y-150296049D02*
X129014756Y-150334144D01*
X129014756Y-150334144D02*
X129090947Y-150372239D01*
X128443328Y-150067478D02*
X128367137Y-150105573D01*
X128367137Y-150105573D02*
X128214756Y-150105573D01*
X128214756Y-150105573D02*
X128138566Y-150067478D01*
X128138566Y-150067478D02*
X128100470Y-149991287D01*
X128100470Y-149991287D02*
X128100470Y-149953192D01*
X128100470Y-149953192D02*
X128138566Y-149877001D01*
X128138566Y-149877001D02*
X128214756Y-149838906D01*
X128214756Y-149838906D02*
X128329042Y-149838906D01*
X128329042Y-149838906D02*
X128405232Y-149800811D01*
X128405232Y-149800811D02*
X128443328Y-149724620D01*
X128443328Y-149724620D02*
X128443328Y-149686525D01*
X128443328Y-149686525D02*
X128405232Y-149610335D01*
X128405232Y-149610335D02*
X128329042Y-149572239D01*
X128329042Y-149572239D02*
X128214756Y-149572239D01*
X128214756Y-149572239D02*
X128138566Y-149610335D01*
X127871899Y-149572239D02*
X127567137Y-149572239D01*
X127757613Y-149305573D02*
X127757613Y-149991287D01*
X127757613Y-149991287D02*
X127719518Y-150067478D01*
X127719518Y-150067478D02*
X127643328Y-150105573D01*
X127643328Y-150105573D02*
X127567137Y-150105573D01*
X126995708Y-150067478D02*
X127071899Y-150105573D01*
X127071899Y-150105573D02*
X127224280Y-150105573D01*
X127224280Y-150105573D02*
X127300470Y-150067478D01*
X127300470Y-150067478D02*
X127338566Y-149991287D01*
X127338566Y-149991287D02*
X127338566Y-149686525D01*
X127338566Y-149686525D02*
X127300470Y-149610335D01*
X127300470Y-149610335D02*
X127224280Y-149572239D01*
X127224280Y-149572239D02*
X127071899Y-149572239D01*
X127071899Y-149572239D02*
X126995708Y-149610335D01*
X126995708Y-149610335D02*
X126957613Y-149686525D01*
X126957613Y-149686525D02*
X126957613Y-149762716D01*
X126957613Y-149762716D02*
X127338566Y-149838906D01*
X126614756Y-150105573D02*
X126614756Y-149572239D01*
X126614756Y-149648430D02*
X126576661Y-149610335D01*
X126576661Y-149610335D02*
X126500471Y-149572239D01*
X126500471Y-149572239D02*
X126386185Y-149572239D01*
X126386185Y-149572239D02*
X126309994Y-149610335D01*
X126309994Y-149610335D02*
X126271899Y-149686525D01*
X126271899Y-149686525D02*
X126271899Y-150105573D01*
X126271899Y-149686525D02*
X126233804Y-149610335D01*
X126233804Y-149610335D02*
X126157613Y-149572239D01*
X126157613Y-149572239D02*
X126043328Y-149572239D01*
X126043328Y-149572239D02*
X125967137Y-149610335D01*
X125967137Y-149610335D02*
X125929042Y-149686525D01*
X125929042Y-149686525D02*
X125929042Y-150105573D01*
X125548089Y-150029382D02*
X125509994Y-150067478D01*
X125509994Y-150067478D02*
X125548089Y-150105573D01*
X125548089Y-150105573D02*
X125586185Y-150067478D01*
X125586185Y-150067478D02*
X125548089Y-150029382D01*
X125548089Y-150029382D02*
X125548089Y-150105573D01*
M02*
