%TF.GenerationSoftware,KiCad,Pcbnew,6.0.11+dfsg-1~bpo11+1*%
%TF.CreationDate,2024-03-21T15:22:21-05:00*%
%TF.ProjectId,BTMS,42544d53-2e6b-4696-9361-645f70636258,rev?*%
%TF.SameCoordinates,Original*%
%TF.FileFunction,Paste,Top*%
%TF.FilePolarity,Positive*%
%FSLAX46Y46*%
G04 Gerber Fmt 4.6, Leading zero omitted, Abs format (unit mm)*
G04 Created by KiCad (PCBNEW 6.0.11+dfsg-1~bpo11+1) date 2024-03-21 15:22:21*
%MOMM*%
%LPD*%
G01*
G04 APERTURE LIST*
G04 Aperture macros list*
%AMRoundRect*
0 Rectangle with rounded corners*
0 $1 Rounding radius*
0 $2 $3 $4 $5 $6 $7 $8 $9 X,Y pos of 4 corners*
0 Add a 4 corners polygon primitive as box body*
4,1,4,$2,$3,$4,$5,$6,$7,$8,$9,$2,$3,0*
0 Add four circle primitives for the rounded corners*
1,1,$1+$1,$2,$3*
1,1,$1+$1,$4,$5*
1,1,$1+$1,$6,$7*
1,1,$1+$1,$8,$9*
0 Add four rect primitives between the rounded corners*
20,1,$1+$1,$2,$3,$4,$5,0*
20,1,$1+$1,$4,$5,$6,$7,0*
20,1,$1+$1,$6,$7,$8,$9,0*
20,1,$1+$1,$8,$9,$2,$3,0*%
G04 Aperture macros list end*
%ADD10RoundRect,0.140000X0.170000X-0.140000X0.170000X0.140000X-0.170000X0.140000X-0.170000X-0.140000X0*%
%ADD11RoundRect,0.200000X0.200000X0.275000X-0.200000X0.275000X-0.200000X-0.275000X0.200000X-0.275000X0*%
%ADD12RoundRect,0.140000X0.140000X0.170000X-0.140000X0.170000X-0.140000X-0.170000X0.140000X-0.170000X0*%
%ADD13RoundRect,0.140000X-0.140000X-0.170000X0.140000X-0.170000X0.140000X0.170000X-0.140000X0.170000X0*%
%ADD14RoundRect,0.160000X0.485000X-0.160000X0.485000X0.160000X-0.485000X0.160000X-0.485000X-0.160000X0*%
%ADD15RoundRect,0.062500X0.062500X-0.287500X0.062500X0.287500X-0.062500X0.287500X-0.062500X-0.287500X0*%
%ADD16RoundRect,0.218750X-0.218750X-0.256250X0.218750X-0.256250X0.218750X0.256250X-0.218750X0.256250X0*%
%ADD17RoundRect,0.250000X-0.325000X-0.450000X0.325000X-0.450000X0.325000X0.450000X-0.325000X0.450000X0*%
%ADD18RoundRect,0.250000X-0.312500X-0.625000X0.312500X-0.625000X0.312500X0.625000X-0.312500X0.625000X0*%
%ADD19RoundRect,0.200000X-0.200000X-0.275000X0.200000X-0.275000X0.200000X0.275000X-0.200000X0.275000X0*%
%ADD20RoundRect,0.080000X-0.160000X0.080000X-0.160000X-0.080000X0.160000X-0.080000X0.160000X0.080000X0*%
%ADD21RoundRect,0.062500X-0.062500X0.287500X-0.062500X-0.287500X0.062500X-0.287500X0.062500X0.287500X0*%
%ADD22RoundRect,0.150000X-0.150000X0.512500X-0.150000X-0.512500X0.150000X-0.512500X0.150000X0.512500X0*%
%ADD23RoundRect,0.218750X0.218750X0.256250X-0.218750X0.256250X-0.218750X-0.256250X0.218750X-0.256250X0*%
%ADD24RoundRect,0.218750X0.256250X-0.218750X0.256250X0.218750X-0.256250X0.218750X-0.256250X-0.218750X0*%
%ADD25RoundRect,0.250000X-0.275000X-0.275000X0.275000X-0.275000X0.275000X0.275000X-0.275000X0.275000X0*%
%ADD26RoundRect,0.062500X-0.375000X-0.062500X0.375000X-0.062500X0.375000X0.062500X-0.375000X0.062500X0*%
%ADD27RoundRect,0.062500X-0.062500X-0.375000X0.062500X-0.375000X0.062500X0.375000X-0.062500X0.375000X0*%
%ADD28RoundRect,0.140000X-0.170000X0.140000X-0.170000X-0.140000X0.170000X-0.140000X0.170000X0.140000X0*%
%ADD29RoundRect,0.137500X0.662500X0.137500X-0.662500X0.137500X-0.662500X-0.137500X0.662500X-0.137500X0*%
%ADD30RoundRect,0.250000X0.250000X0.475000X-0.250000X0.475000X-0.250000X-0.475000X0.250000X-0.475000X0*%
%ADD31R,0.700000X0.640000*%
%ADD32R,0.700000X0.500000*%
%ADD33RoundRect,0.200000X-0.275000X0.200000X-0.275000X-0.200000X0.275000X-0.200000X0.275000X0.200000X0*%
%ADD34RoundRect,0.172500X-0.242500X0.172500X-0.242500X-0.172500X0.242500X-0.172500X0.242500X0.172500X0*%
%ADD35RoundRect,0.075000X-0.075000X0.325000X-0.075000X-0.325000X0.075000X-0.325000X0.075000X0.325000X0*%
%ADD36RoundRect,0.300000X0.800000X0.300000X-0.800000X0.300000X-0.800000X-0.300000X0.800000X-0.300000X0*%
%ADD37RoundRect,0.250000X0.250000X0.500000X-0.250000X0.500000X-0.250000X-0.500000X0.250000X-0.500000X0*%
%ADD38R,0.900000X1.200000*%
%ADD39RoundRect,0.250000X0.375000X0.625000X-0.375000X0.625000X-0.375000X-0.625000X0.375000X-0.625000X0*%
%ADD40RoundRect,0.200000X0.275000X-0.200000X0.275000X0.200000X-0.275000X0.200000X-0.275000X-0.200000X0*%
%ADD41RoundRect,0.172500X0.172500X0.242500X-0.172500X0.242500X-0.172500X-0.242500X0.172500X-0.242500X0*%
%ADD42RoundRect,0.075000X0.325000X0.075000X-0.325000X0.075000X-0.325000X-0.075000X0.325000X-0.075000X0*%
%ADD43R,1.700000X2.050000*%
%ADD44RoundRect,0.250000X-0.350000X-0.450000X0.350000X-0.450000X0.350000X0.450000X-0.350000X0.450000X0*%
%ADD45RoundRect,0.250000X0.475000X-0.250000X0.475000X0.250000X-0.475000X0.250000X-0.475000X-0.250000X0*%
%ADD46RoundRect,0.150000X-0.150000X0.587500X-0.150000X-0.587500X0.150000X-0.587500X0.150000X0.587500X0*%
%ADD47RoundRect,0.150000X0.512500X0.150000X-0.512500X0.150000X-0.512500X-0.150000X0.512500X-0.150000X0*%
%ADD48R,0.340000X0.700000*%
%ADD49RoundRect,0.250000X0.312500X0.625000X-0.312500X0.625000X-0.312500X-0.625000X0.312500X-0.625000X0*%
%ADD50RoundRect,0.250000X-0.475000X0.250000X-0.475000X-0.250000X0.475000X-0.250000X0.475000X0.250000X0*%
%ADD51RoundRect,0.237500X0.287500X0.237500X-0.287500X0.237500X-0.287500X-0.237500X0.287500X-0.237500X0*%
%ADD52RoundRect,0.150000X-0.150000X0.825000X-0.150000X-0.825000X0.150000X-0.825000X0.150000X0.825000X0*%
%ADD53RoundRect,0.250000X-0.270000X-0.270000X0.270000X-0.270000X0.270000X0.270000X-0.270000X0.270000X0*%
%ADD54RoundRect,0.087500X-0.325000X-0.087500X0.325000X-0.087500X0.325000X0.087500X-0.325000X0.087500X0*%
%ADD55RoundRect,0.087500X-0.087500X-0.325000X0.087500X-0.325000X0.087500X0.325000X-0.087500X0.325000X0*%
%ADD56RoundRect,0.172500X0.242500X-0.172500X0.242500X0.172500X-0.242500X0.172500X-0.242500X-0.172500X0*%
%ADD57RoundRect,0.075000X0.075000X-0.325000X0.075000X0.325000X-0.075000X0.325000X-0.075000X-0.325000X0*%
%ADD58R,2.050000X1.700000*%
%ADD59R,1.300000X1.200000*%
%ADD60R,0.950000X1.000000*%
%ADD61RoundRect,0.150000X0.587500X0.150000X-0.587500X0.150000X-0.587500X-0.150000X0.587500X-0.150000X0*%
%ADD62R,0.640000X0.700000*%
%ADD63R,0.500000X0.700000*%
%ADD64RoundRect,0.150000X-0.825000X-0.150000X0.825000X-0.150000X0.825000X0.150000X-0.825000X0.150000X0*%
%ADD65RoundRect,0.250000X-0.625000X0.375000X-0.625000X-0.375000X0.625000X-0.375000X0.625000X0.375000X0*%
%ADD66R,1.200000X1.300000*%
%ADD67R,1.000000X0.950000*%
%ADD68R,1.100000X3.400000*%
%ADD69RoundRect,0.212500X0.212500X-0.212500X0.212500X0.212500X-0.212500X0.212500X-0.212500X-0.212500X0*%
%ADD70RoundRect,0.075000X0.075000X-0.350000X0.075000X0.350000X-0.075000X0.350000X-0.075000X-0.350000X0*%
%ADD71RoundRect,0.075000X0.350000X-0.075000X0.350000X0.075000X-0.350000X0.075000X-0.350000X-0.075000X0*%
%ADD72R,5.400000X2.900000*%
%ADD73RoundRect,0.218750X-0.256250X0.218750X-0.256250X-0.218750X0.256250X-0.218750X0.256250X0.218750X0*%
%ADD74R,1.800000X1.100000*%
%ADD75RoundRect,0.150000X-0.512500X-0.150000X0.512500X-0.150000X0.512500X0.150000X-0.512500X0.150000X0*%
G04 APERTURE END LIST*
D10*
%TO.C,C56*%
X174244000Y-98524000D03*
X174244000Y-97564000D03*
%TD*%
D11*
%TO.C,R13*%
X155003000Y-139954000D03*
X153353000Y-139954000D03*
%TD*%
D12*
%TO.C,C6*%
X148562000Y-140758000D03*
X147602000Y-140758000D03*
%TD*%
D13*
%TO.C,C14*%
X174272000Y-120142000D03*
X175232000Y-120142000D03*
%TD*%
D14*
%TO.C,U11*%
X122936000Y-124714000D03*
D15*
X122186000Y-125714000D03*
X122686000Y-125714000D03*
X123186000Y-125714000D03*
X123686000Y-125714000D03*
X123686000Y-123714000D03*
X123186000Y-123714000D03*
X122686000Y-123714000D03*
X122186000Y-123714000D03*
%TD*%
D16*
%TO.C,D31*%
X163830000Y-105410000D03*
X165405000Y-105410000D03*
%TD*%
D17*
%TO.C,L3*%
X152137000Y-101092000D03*
X154187000Y-101092000D03*
%TD*%
D18*
%TO.C,FB2*%
X119441500Y-97282000D03*
X122366500Y-97282000D03*
%TD*%
D19*
%TO.C,R24*%
X125921000Y-120142000D03*
X127571000Y-120142000D03*
%TD*%
D11*
%TO.C,R71*%
X144843000Y-112585000D03*
X143193000Y-112585000D03*
%TD*%
D13*
%TO.C,C20*%
X117884000Y-123444000D03*
X118844000Y-123444000D03*
%TD*%
D20*
%TO.C,U3*%
X150652000Y-138850000D03*
X151252000Y-138850000D03*
X151252000Y-139250000D03*
X150652000Y-139250000D03*
D21*
X151702000Y-138050000D03*
X151202000Y-138050000D03*
X150702000Y-138050000D03*
X150202000Y-138050000D03*
X150202000Y-140050000D03*
X150702000Y-140050000D03*
X151202000Y-140050000D03*
X151702000Y-140050000D03*
%TD*%
D19*
%TO.C,R40*%
X135827000Y-115316000D03*
X137477000Y-115316000D03*
%TD*%
D22*
%TO.C,U17*%
X176972000Y-130180500D03*
X176022000Y-130180500D03*
X175072000Y-130180500D03*
X175072000Y-132455500D03*
X176972000Y-132455500D03*
%TD*%
D19*
%TO.C,R48*%
X135827000Y-111760000D03*
X137477000Y-111760000D03*
%TD*%
%TO.C,R12*%
X180023000Y-108712000D03*
X181673000Y-108712000D03*
%TD*%
D10*
%TO.C,C27*%
X113030000Y-99794000D03*
X113030000Y-98834000D03*
%TD*%
D23*
%TO.C,D5*%
X134899500Y-117602000D03*
X133324500Y-117602000D03*
%TD*%
D24*
%TO.C,D9*%
X132588000Y-126517500D03*
X132588000Y-124942500D03*
%TD*%
D19*
%TO.C,R23*%
X173673000Y-127000000D03*
X175323000Y-127000000D03*
%TD*%
%TO.C,R14*%
X180023000Y-110236000D03*
X181673000Y-110236000D03*
%TD*%
D25*
%TO.C,U7*%
X129696000Y-132446000D03*
X130996000Y-133746000D03*
X130996000Y-132446000D03*
X129696000Y-133746000D03*
D26*
X128408500Y-131846000D03*
X128408500Y-132346000D03*
X128408500Y-132846000D03*
X128408500Y-133346000D03*
X128408500Y-133846000D03*
X128408500Y-134346000D03*
D27*
X129096000Y-135033500D03*
X129596000Y-135033500D03*
X130096000Y-135033500D03*
X130596000Y-135033500D03*
X131096000Y-135033500D03*
X131596000Y-135033500D03*
D26*
X132283500Y-134346000D03*
X132283500Y-133846000D03*
X132283500Y-133346000D03*
X132283500Y-132846000D03*
X132283500Y-132346000D03*
X132283500Y-131846000D03*
D27*
X131596000Y-131158500D03*
X131096000Y-131158500D03*
X130596000Y-131158500D03*
X130096000Y-131158500D03*
X129596000Y-131158500D03*
X129096000Y-131158500D03*
%TD*%
D11*
%TO.C,R78*%
X151955000Y-132080000D03*
X150305000Y-132080000D03*
%TD*%
D12*
%TO.C,C47*%
X174978000Y-140970000D03*
X174018000Y-140970000D03*
%TD*%
D13*
%TO.C,C1*%
X147602000Y-138726000D03*
X148562000Y-138726000D03*
%TD*%
D28*
%TO.C,C51*%
X166116000Y-122710000D03*
X166116000Y-123670000D03*
%TD*%
D29*
%TO.C,U5*%
X156858000Y-127381000D03*
X156858000Y-126111000D03*
X156858000Y-124841000D03*
X156858000Y-123571000D03*
X156858000Y-122301000D03*
X156858000Y-121031000D03*
X156858000Y-119761000D03*
X156858000Y-118491000D03*
X150358000Y-118491000D03*
X150358000Y-119761000D03*
X150358000Y-121031000D03*
X150358000Y-122301000D03*
X150358000Y-123571000D03*
X150358000Y-124841000D03*
X150358000Y-126111000D03*
X150358000Y-127381000D03*
%TD*%
D30*
%TO.C,C18*%
X113980000Y-123698000D03*
X112080000Y-123698000D03*
%TD*%
D24*
%TO.C,D22*%
X163830000Y-139979500D03*
X163830000Y-138404500D03*
%TD*%
D31*
%TO.C,RN12*%
X145734000Y-100838000D03*
D32*
X145734000Y-99968000D03*
X145734000Y-99168000D03*
D31*
X145734000Y-98298000D03*
X144334000Y-98298000D03*
D32*
X144334000Y-99168000D03*
X144334000Y-99968000D03*
D31*
X144334000Y-100838000D03*
%TD*%
D33*
%TO.C,R18*%
X130556000Y-124905000D03*
X130556000Y-126555000D03*
%TD*%
D34*
%TO.C,U12*%
X117664000Y-120759000D03*
X116644000Y-120759000D03*
X116644000Y-119909000D03*
X117664000Y-119909000D03*
D35*
X118129000Y-118884000D03*
X117479000Y-118884000D03*
X116829000Y-118884000D03*
X116179000Y-118884000D03*
X116179000Y-121784000D03*
X116829000Y-121784000D03*
X117479000Y-121784000D03*
X118129000Y-121784000D03*
%TD*%
D23*
%TO.C,D26*%
X136931500Y-101346000D03*
X135356500Y-101346000D03*
%TD*%
D19*
%TO.C,R3*%
X160211000Y-120015000D03*
X161861000Y-120015000D03*
%TD*%
D33*
%TO.C,R2*%
X119126000Y-140399000D03*
X119126000Y-142049000D03*
%TD*%
D10*
%TO.C,C41*%
X174498000Y-115796000D03*
X174498000Y-114836000D03*
%TD*%
%TO.C,C4*%
X153162000Y-138656000D03*
X153162000Y-137696000D03*
%TD*%
D36*
%TO.C,U6*%
X137088500Y-130786000D03*
D37*
X139160000Y-129292000D03*
D36*
X137160000Y-127786000D03*
%TD*%
D33*
%TO.C,R47*%
X131699000Y-108649000D03*
X131699000Y-110299000D03*
%TD*%
D30*
%TO.C,C37*%
X150048000Y-101092000D03*
X148148000Y-101092000D03*
%TD*%
D16*
%TO.C,D18*%
X122148500Y-128524000D03*
X123723500Y-128524000D03*
%TD*%
D10*
%TO.C,C19*%
X120904000Y-125702000D03*
X120904000Y-124742000D03*
%TD*%
D11*
%TO.C,R79*%
X151955000Y-130302000D03*
X150305000Y-130302000D03*
%TD*%
D38*
%TO.C,D33*%
X177418000Y-109220000D03*
X174118000Y-109220000D03*
%TD*%
D39*
%TO.C,F1*%
X113922000Y-141732000D03*
X111122000Y-141732000D03*
%TD*%
D31*
%TO.C,RN10*%
X149290000Y-109029000D03*
D32*
X149290000Y-108159000D03*
X149290000Y-107359000D03*
D31*
X149290000Y-106489000D03*
X147890000Y-106489000D03*
D32*
X147890000Y-107359000D03*
X147890000Y-108159000D03*
D31*
X147890000Y-109029000D03*
%TD*%
D40*
%TO.C,R66*%
X147574000Y-105028000D03*
X147574000Y-103378000D03*
%TD*%
D41*
%TO.C,U15*%
X125975000Y-100594000D03*
X125125000Y-100594000D03*
X125975000Y-101614000D03*
X125125000Y-101614000D03*
D42*
X127000000Y-102079000D03*
X127000000Y-101429000D03*
X127000000Y-100779000D03*
X127000000Y-100129000D03*
X124100000Y-100129000D03*
X124100000Y-100779000D03*
X124100000Y-101429000D03*
X124100000Y-102079000D03*
D43*
X125550000Y-101104000D03*
%TD*%
D44*
%TO.C,R31*%
X140478000Y-123190000D03*
X142478000Y-123190000D03*
%TD*%
D28*
%TO.C,C21*%
X124968000Y-124488000D03*
X124968000Y-125448000D03*
%TD*%
D45*
%TO.C,C52*%
X158750000Y-100963000D03*
X158750000Y-99063000D03*
%TD*%
D16*
%TO.C,D8*%
X153390500Y-141732000D03*
X154965500Y-141732000D03*
%TD*%
D24*
%TO.C,D11*%
X125984000Y-129311500D03*
X125984000Y-127736500D03*
%TD*%
D40*
%TO.C,R76*%
X160274000Y-109791000D03*
X160274000Y-108141000D03*
%TD*%
D45*
%TO.C,C11*%
X173228000Y-131506000D03*
X173228000Y-129606000D03*
%TD*%
D13*
%TO.C,C12*%
X174272000Y-121158000D03*
X175232000Y-121158000D03*
%TD*%
D40*
%TO.C,R64*%
X143510000Y-105028000D03*
X143510000Y-103378000D03*
%TD*%
D46*
%TO.C,Q6*%
X175702000Y-134698500D03*
X173802000Y-134698500D03*
X174752000Y-136573500D03*
%TD*%
D31*
%TO.C,RN11*%
X165670000Y-134620000D03*
D32*
X165670000Y-135490000D03*
X165670000Y-136290000D03*
D31*
X165670000Y-137160000D03*
X167070000Y-137160000D03*
D32*
X167070000Y-136290000D03*
X167070000Y-135490000D03*
D31*
X167070000Y-134620000D03*
%TD*%
D10*
%TO.C,C43*%
X177038000Y-128242000D03*
X177038000Y-127282000D03*
%TD*%
D24*
%TO.C,D21*%
X162052000Y-139979500D03*
X162052000Y-138404500D03*
%TD*%
D33*
%TO.C,R1*%
X116840000Y-140399000D03*
X116840000Y-142049000D03*
%TD*%
D23*
%TO.C,D4*%
X134899500Y-119380000D03*
X133324500Y-119380000D03*
%TD*%
D44*
%TO.C,R59*%
X140478000Y-118618000D03*
X142478000Y-118618000D03*
%TD*%
D40*
%TO.C,R46*%
X164592000Y-124523000D03*
X164592000Y-122873000D03*
%TD*%
%TO.C,R65*%
X145288000Y-105028000D03*
X145288000Y-103378000D03*
%TD*%
D31*
%TO.C,RN4*%
X137860000Y-122428000D03*
D32*
X137860000Y-121558000D03*
X137860000Y-120758000D03*
D31*
X137860000Y-119888000D03*
X136460000Y-119888000D03*
D32*
X136460000Y-120758000D03*
X136460000Y-121558000D03*
D31*
X136460000Y-122428000D03*
%TD*%
D11*
%TO.C,R33*%
X181419000Y-127000000D03*
X179769000Y-127000000D03*
%TD*%
D33*
%TO.C,R74*%
X147066000Y-114046000D03*
X147066000Y-115696000D03*
%TD*%
D47*
%TO.C,U23*%
X147441500Y-125664000D03*
X147441500Y-124714000D03*
X147441500Y-123764000D03*
X145166500Y-123764000D03*
X145166500Y-124714000D03*
X145166500Y-125664000D03*
%TD*%
D28*
%TO.C,C57*%
X162306000Y-130076000D03*
X162306000Y-131036000D03*
%TD*%
D13*
%TO.C,C3*%
X147602000Y-139742000D03*
X148562000Y-139742000D03*
%TD*%
%TO.C,C17*%
X174272000Y-118110000D03*
X175232000Y-118110000D03*
%TD*%
%TO.C,C40*%
X174272000Y-117094000D03*
X175232000Y-117094000D03*
%TD*%
D33*
%TO.C,R73*%
X148844000Y-114046000D03*
X148844000Y-115696000D03*
%TD*%
D13*
%TO.C,C28*%
X128298000Y-99060000D03*
X129258000Y-99060000D03*
%TD*%
D28*
%TO.C,C7*%
X143241000Y-134294000D03*
X143241000Y-135254000D03*
%TD*%
D11*
%TO.C,R70*%
X144843000Y-110807000D03*
X143193000Y-110807000D03*
%TD*%
D28*
%TO.C,C55*%
X156972000Y-130330000D03*
X156972000Y-131290000D03*
%TD*%
%TO.C,C13*%
X122428000Y-132108000D03*
X122428000Y-133068000D03*
%TD*%
D10*
%TO.C,C23*%
X181483000Y-139291000D03*
X181483000Y-138331000D03*
%TD*%
D16*
%TO.C,D32*%
X163830000Y-107188000D03*
X165405000Y-107188000D03*
%TD*%
D10*
%TO.C,C35*%
X162306000Y-117466164D03*
X162306000Y-116506164D03*
%TD*%
D48*
%TO.C,U19*%
X164629000Y-99239000D03*
X165129000Y-99239000D03*
X165629000Y-99239000D03*
X165629000Y-97739000D03*
X165129000Y-97739000D03*
X164629000Y-97739000D03*
%TD*%
D44*
%TO.C,R4*%
X140478000Y-125476000D03*
X142478000Y-125476000D03*
%TD*%
D49*
%TO.C,R19*%
X113730500Y-127508000D03*
X110805500Y-127508000D03*
%TD*%
D13*
%TO.C,C15*%
X174272000Y-119126000D03*
X175232000Y-119126000D03*
%TD*%
D47*
%TO.C,U26*%
X148965500Y-112519000D03*
X148965500Y-111569000D03*
X148965500Y-110619000D03*
X146690500Y-110619000D03*
X146690500Y-111569000D03*
X146690500Y-112519000D03*
%TD*%
D23*
%TO.C,D2*%
X134899500Y-122936000D03*
X133324500Y-122936000D03*
%TD*%
%TO.C,D27*%
X136931500Y-103124000D03*
X135356500Y-103124000D03*
%TD*%
D33*
%TO.C,R37*%
X161036000Y-122873000D03*
X161036000Y-124523000D03*
%TD*%
D24*
%TO.C,D19*%
X158496000Y-139979500D03*
X158496000Y-138404500D03*
%TD*%
%TO.C,D14*%
X186944000Y-122453500D03*
X186944000Y-120878500D03*
%TD*%
D45*
%TO.C,C49*%
X156464000Y-100963000D03*
X156464000Y-99063000D03*
%TD*%
D47*
%TO.C,U25*%
X145917500Y-108455000D03*
X145917500Y-107505000D03*
X145917500Y-106555000D03*
X143642500Y-106555000D03*
X143642500Y-107505000D03*
X143642500Y-108455000D03*
%TD*%
D33*
%TO.C,R16*%
X181610000Y-111951000D03*
X181610000Y-113601000D03*
%TD*%
D13*
%TO.C,C8*%
X131092000Y-129646000D03*
X132052000Y-129646000D03*
%TD*%
D24*
%TO.C,D15*%
X186944000Y-125755500D03*
X186944000Y-124180500D03*
%TD*%
D30*
%TO.C,C38*%
X163031000Y-101029000D03*
X161131000Y-101029000D03*
%TD*%
D10*
%TO.C,C36*%
X173228000Y-115796000D03*
X173228000Y-114836000D03*
%TD*%
D50*
%TO.C,C25*%
X113538000Y-101412000D03*
X113538000Y-103312000D03*
%TD*%
D12*
%TO.C,C48*%
X167612000Y-121666000D03*
X166652000Y-121666000D03*
%TD*%
D38*
%TO.C,D29*%
X156082000Y-103632000D03*
X152782000Y-103632000D03*
%TD*%
D39*
%TO.C,F3*%
X127384000Y-141478000D03*
X124584000Y-141478000D03*
%TD*%
D16*
%TO.C,D30*%
X163804500Y-103632000D03*
X165379500Y-103632000D03*
%TD*%
D19*
%TO.C,R27*%
X125921000Y-121920000D03*
X127571000Y-121920000D03*
%TD*%
D51*
%TO.C,F4*%
X185152000Y-142240000D03*
X183402000Y-142240000D03*
%TD*%
D33*
%TO.C,R42*%
X149860000Y-97473000D03*
X149860000Y-99123000D03*
%TD*%
D12*
%TO.C,C31*%
X161770000Y-121412000D03*
X160810000Y-121412000D03*
%TD*%
D28*
%TO.C,C30*%
X171170000Y-122710000D03*
X171170000Y-123670000D03*
%TD*%
D12*
%TO.C,C5*%
X151102000Y-141478000D03*
X150142000Y-141478000D03*
%TD*%
D52*
%TO.C,U10*%
X120523000Y-131614000D03*
X119253000Y-131614000D03*
X117983000Y-131614000D03*
X116713000Y-131614000D03*
X116713000Y-136564000D03*
X117983000Y-136564000D03*
X119253000Y-136564000D03*
X120523000Y-136564000D03*
%TD*%
D13*
%TO.C,C33*%
X166906000Y-110998000D03*
X167866000Y-110998000D03*
%TD*%
D10*
%TO.C,C10*%
X133604000Y-130782000D03*
X133604000Y-129822000D03*
%TD*%
D33*
%TO.C,R15*%
X179832000Y-111951000D03*
X179832000Y-113601000D03*
%TD*%
D40*
%TO.C,R77*%
X160274000Y-114617000D03*
X160274000Y-112967000D03*
%TD*%
D18*
%TO.C,FB3*%
X173035500Y-138938000D03*
X175960500Y-138938000D03*
%TD*%
D12*
%TO.C,C22*%
X116812000Y-129540000D03*
X115852000Y-129540000D03*
%TD*%
D53*
%TO.C,U20*%
X165190000Y-116342000D03*
X170350000Y-115052000D03*
X169060000Y-118922000D03*
X165190000Y-117632000D03*
X170350000Y-118922000D03*
X167770000Y-117632000D03*
X166480000Y-116342000D03*
X170350000Y-113762000D03*
X169060000Y-113762000D03*
X170350000Y-117632000D03*
X165190000Y-113762000D03*
X167770000Y-113762000D03*
X167770000Y-116342000D03*
X166480000Y-113762000D03*
X169060000Y-115052000D03*
X165190000Y-115052000D03*
X166480000Y-118922000D03*
X169060000Y-116342000D03*
X166480000Y-117632000D03*
X167770000Y-115052000D03*
X166480000Y-115052000D03*
X170350000Y-116342000D03*
X165190000Y-118922000D03*
X169060000Y-117632000D03*
X167770000Y-118922000D03*
D54*
X163832500Y-113092000D03*
X163832500Y-113742000D03*
X163832500Y-114392000D03*
X163832500Y-115042000D03*
X163832500Y-115692000D03*
X163832500Y-116342000D03*
X163832500Y-116992000D03*
X163832500Y-117642000D03*
X163832500Y-118292000D03*
X163832500Y-118942000D03*
X163832500Y-119592000D03*
D55*
X164520000Y-120279500D03*
X165170000Y-120279500D03*
X165820000Y-120279500D03*
X166470000Y-120279500D03*
X167120000Y-120279500D03*
X167770000Y-120279500D03*
X168420000Y-120279500D03*
X169070000Y-120279500D03*
X169720000Y-120279500D03*
X170370000Y-120279500D03*
X171020000Y-120279500D03*
D54*
X171707500Y-119592000D03*
X171707500Y-118942000D03*
X171707500Y-118292000D03*
X171707500Y-117642000D03*
X171707500Y-116992000D03*
X171707500Y-116342000D03*
X171707500Y-115692000D03*
X171707500Y-115042000D03*
X171707500Y-114392000D03*
X171707500Y-113742000D03*
X171707500Y-113092000D03*
D55*
X171020000Y-112404500D03*
X170370000Y-112404500D03*
X169720000Y-112404500D03*
X169070000Y-112404500D03*
X168420000Y-112404500D03*
X167770000Y-112404500D03*
X167120000Y-112404500D03*
X166470000Y-112404500D03*
X165820000Y-112404500D03*
X165170000Y-112404500D03*
X164520000Y-112404500D03*
%TD*%
D19*
%TO.C,R28*%
X169609000Y-127000000D03*
X171259000Y-127000000D03*
%TD*%
%TO.C,R41*%
X135827000Y-113538000D03*
X137477000Y-113538000D03*
%TD*%
D56*
%TO.C,U13*%
X120648000Y-120709000D03*
X121668000Y-119859000D03*
X121668000Y-120709000D03*
X120648000Y-119859000D03*
D57*
X120183000Y-121734000D03*
X120833000Y-121734000D03*
X121483000Y-121734000D03*
X122133000Y-121734000D03*
X122133000Y-118834000D03*
X121483000Y-118834000D03*
X120833000Y-118834000D03*
X120183000Y-118834000D03*
D58*
X121158000Y-120284000D03*
%TD*%
D46*
%TO.C,Q5*%
X171212000Y-130388500D03*
X169312000Y-130388500D03*
X170262000Y-132263500D03*
%TD*%
D59*
%TO.C,D23*%
X113422000Y-118040000D03*
X113422000Y-116240000D03*
X111622000Y-118040000D03*
X113422000Y-119840000D03*
X111622000Y-119840000D03*
X111622000Y-116240000D03*
D60*
X111552000Y-113690000D03*
X113492000Y-113690000D03*
%TD*%
D13*
%TO.C,C2*%
X147602000Y-137710000D03*
X148562000Y-137710000D03*
%TD*%
D28*
%TO.C,C42*%
X169164000Y-122710000D03*
X169164000Y-123670000D03*
%TD*%
D19*
%TO.C,R62*%
X143193000Y-132842000D03*
X144843000Y-132842000D03*
%TD*%
D61*
%TO.C,U16*%
X132001500Y-115674000D03*
X132001500Y-113774000D03*
X130126500Y-114724000D03*
%TD*%
D40*
%TO.C,R67*%
X149352000Y-104965000D03*
X149352000Y-103315000D03*
%TD*%
D31*
%TO.C,RN9*%
X168594000Y-105918000D03*
D32*
X168594000Y-105048000D03*
X168594000Y-104248000D03*
D31*
X168594000Y-103378000D03*
X167194000Y-103378000D03*
D32*
X167194000Y-104248000D03*
X167194000Y-105048000D03*
D31*
X167194000Y-105918000D03*
%TD*%
D10*
%TO.C,C16*%
X122428000Y-136624000D03*
X122428000Y-135664000D03*
%TD*%
D40*
%TO.C,R11*%
X152654000Y-135699000D03*
X152654000Y-134049000D03*
%TD*%
%TO.C,R36*%
X183134000Y-122999000D03*
X183134000Y-121349000D03*
%TD*%
D18*
%TO.C,FB1*%
X116901500Y-127508000D03*
X119826500Y-127508000D03*
%TD*%
D62*
%TO.C,RN6*%
X141732000Y-116587000D03*
D63*
X142602000Y-116587000D03*
X143402000Y-116587000D03*
D62*
X144272000Y-116587000D03*
X144272000Y-115187000D03*
D63*
X143402000Y-115187000D03*
X142602000Y-115187000D03*
D62*
X141732000Y-115187000D03*
%TD*%
D28*
%TO.C,C45*%
X166907000Y-98009000D03*
X166907000Y-98969000D03*
%TD*%
D47*
%TO.C,U14*%
X134459500Y-99248000D03*
X134459500Y-98298000D03*
X134459500Y-97348000D03*
X132184500Y-97348000D03*
X132184500Y-99248000D03*
%TD*%
D64*
%TO.C,U4*%
X135766000Y-132969000D03*
X135766000Y-134239000D03*
X135766000Y-135509000D03*
X135766000Y-136779000D03*
X140716000Y-136779000D03*
X140716000Y-135509000D03*
X140716000Y-134239000D03*
X140716000Y-132969000D03*
%TD*%
D62*
%TO.C,RN7*%
X162560000Y-135190000D03*
D63*
X161690000Y-135190000D03*
X160890000Y-135190000D03*
D62*
X160020000Y-135190000D03*
X160020000Y-136590000D03*
D63*
X160890000Y-136590000D03*
X161690000Y-136590000D03*
D62*
X162560000Y-136590000D03*
%TD*%
%TO.C,RN1*%
X148082000Y-135828000D03*
D63*
X148952000Y-135828000D03*
X149752000Y-135828000D03*
D62*
X150622000Y-135828000D03*
X150622000Y-134428000D03*
D63*
X149752000Y-134428000D03*
X148952000Y-134428000D03*
D62*
X148082000Y-134428000D03*
%TD*%
D65*
%TO.C,F5*%
X178054000Y-135760000D03*
X178054000Y-138560000D03*
%TD*%
D24*
%TO.C,D13*%
X186944000Y-119151500D03*
X186944000Y-117576500D03*
%TD*%
D10*
%TO.C,C32*%
X137414000Y-97508000D03*
X137414000Y-96548000D03*
%TD*%
D28*
%TO.C,C34*%
X168148000Y-122710000D03*
X168148000Y-123670000D03*
%TD*%
D61*
%TO.C,Q7*%
X172387500Y-107122000D03*
X172387500Y-105222000D03*
X170512500Y-106172000D03*
%TD*%
D28*
%TO.C,C44*%
X153924000Y-98072000D03*
X153924000Y-99032000D03*
%TD*%
D13*
%TO.C,C24*%
X136172000Y-99568000D03*
X137132000Y-99568000D03*
%TD*%
D39*
%TO.C,F2*%
X138814000Y-140716000D03*
X136014000Y-140716000D03*
%TD*%
D24*
%TO.C,D20*%
X160274000Y-139979500D03*
X160274000Y-138404500D03*
%TD*%
D33*
%TO.C,R22*%
X126746000Y-123635000D03*
X126746000Y-125285000D03*
%TD*%
D61*
%TO.C,Q3*%
X167180500Y-128966000D03*
X167180500Y-127066000D03*
X165305500Y-128016000D03*
%TD*%
D66*
%TO.C,D24*%
X119148000Y-99938000D03*
X117348000Y-101738000D03*
X119148000Y-101738000D03*
X115548000Y-101738000D03*
X115548000Y-99938000D03*
X117348000Y-99938000D03*
D67*
X121698000Y-99868000D03*
X121698000Y-101808000D03*
%TD*%
D16*
%TO.C,D28*%
X138912500Y-101854000D03*
X140487500Y-101854000D03*
%TD*%
D59*
%TO.C,D1*%
X111368000Y-134690000D03*
X113168000Y-134690000D03*
X111368000Y-132890000D03*
X111368000Y-136490000D03*
X113168000Y-136490000D03*
X113168000Y-132890000D03*
D60*
X113238000Y-139040000D03*
X111298000Y-139040000D03*
%TD*%
D28*
%TO.C,C26*%
X170180000Y-122710000D03*
X170180000Y-123670000D03*
%TD*%
D50*
%TO.C,C54*%
X155194000Y-130622000D03*
X155194000Y-132522000D03*
%TD*%
D24*
%TO.C,D10*%
X128016000Y-129311500D03*
X128016000Y-127736500D03*
%TD*%
D33*
%TO.C,R44*%
X162843000Y-97410000D03*
X162843000Y-99060000D03*
%TD*%
D68*
%TO.C,L2*%
X138962000Y-98552000D03*
X141962000Y-98552000D03*
%TD*%
D11*
%TO.C,R5*%
X177736000Y-114300000D03*
X176086000Y-114300000D03*
%TD*%
D23*
%TO.C,D3*%
X134899500Y-121158000D03*
X133324500Y-121158000D03*
%TD*%
D12*
%TO.C,C46*%
X139700000Y-106426000D03*
X138740000Y-106426000D03*
%TD*%
D69*
%TO.C,U21*%
X134723000Y-107665000D03*
X135773000Y-108715000D03*
X134723000Y-108715000D03*
X135773000Y-107665000D03*
D70*
X134273000Y-110140000D03*
X134923000Y-110140000D03*
X135573000Y-110140000D03*
X136223000Y-110140000D03*
D71*
X137198000Y-109165000D03*
X137198000Y-108515000D03*
X137198000Y-107865000D03*
X137198000Y-107215000D03*
D70*
X136223000Y-106240000D03*
X135573000Y-106240000D03*
X134923000Y-106240000D03*
X134273000Y-106240000D03*
D71*
X133298000Y-107215000D03*
X133298000Y-107865000D03*
X133298000Y-108515000D03*
X133298000Y-109165000D03*
%TD*%
D29*
%TO.C,U8*%
X158190000Y-116205000D03*
X158190000Y-114935000D03*
X158190000Y-113665000D03*
X158190000Y-112395000D03*
X158190000Y-111125000D03*
X158190000Y-109855000D03*
X158190000Y-108585000D03*
X158190000Y-107315000D03*
X151690000Y-107315000D03*
X151690000Y-108585000D03*
X151690000Y-109855000D03*
X151690000Y-111125000D03*
X151690000Y-112395000D03*
X151690000Y-113665000D03*
X151690000Y-114935000D03*
X151690000Y-116205000D03*
%TD*%
D47*
%TO.C,U24*%
X147441500Y-120584000D03*
X147441500Y-119634000D03*
X147441500Y-118684000D03*
X145166500Y-118684000D03*
X145166500Y-119634000D03*
X145166500Y-120584000D03*
%TD*%
D33*
%TO.C,R39*%
X178562000Y-132271000D03*
X178562000Y-133921000D03*
%TD*%
D17*
%TO.C,L4*%
X165120000Y-101029000D03*
X167170000Y-101029000D03*
%TD*%
D10*
%TO.C,C39*%
X161036000Y-117466164D03*
X161036000Y-116506164D03*
%TD*%
D62*
%TO.C,RN3*%
X130768000Y-136968000D03*
D63*
X129898000Y-136968000D03*
X129098000Y-136968000D03*
D62*
X128228000Y-136968000D03*
X128228000Y-138368000D03*
D63*
X129098000Y-138368000D03*
X129898000Y-138368000D03*
D62*
X130768000Y-138368000D03*
%TD*%
D16*
%TO.C,D6*%
X175742500Y-111887000D03*
X177317500Y-111887000D03*
%TD*%
D72*
%TO.C,L1*%
X121920000Y-115174000D03*
X121920000Y-105274000D03*
%TD*%
D40*
%TO.C,R21*%
X132334000Y-141033000D03*
X132334000Y-139383000D03*
%TD*%
D48*
%TO.C,U18*%
X151646000Y-99302000D03*
X152146000Y-99302000D03*
X152646000Y-99302000D03*
X152646000Y-97802000D03*
X152146000Y-97802000D03*
X151646000Y-97802000D03*
%TD*%
D40*
%TO.C,R35*%
X179832000Y-125285000D03*
X179832000Y-123635000D03*
%TD*%
D44*
%TO.C,R55*%
X140478000Y-120904000D03*
X142478000Y-120904000D03*
%TD*%
D28*
%TO.C,C9*%
X132292000Y-136426000D03*
X132292000Y-137386000D03*
%TD*%
D24*
%TO.C,D12*%
X186944000Y-115849500D03*
X186944000Y-114274500D03*
%TD*%
D19*
%TO.C,R50*%
X158687000Y-103124000D03*
X160337000Y-103124000D03*
%TD*%
D11*
%TO.C,R34*%
X181419000Y-128778000D03*
X179769000Y-128778000D03*
%TD*%
D12*
%TO.C,C29*%
X130782000Y-117348000D03*
X129822000Y-117348000D03*
%TD*%
D45*
%TO.C,C50*%
X169418000Y-100963000D03*
X169418000Y-99063000D03*
%TD*%
D31*
%TO.C,RN8*%
X175198000Y-125476000D03*
D32*
X175198000Y-124606000D03*
X175198000Y-123806000D03*
D31*
X175198000Y-122936000D03*
X173798000Y-122936000D03*
D32*
X173798000Y-123806000D03*
X173798000Y-124606000D03*
D31*
X173798000Y-125476000D03*
%TD*%
D73*
%TO.C,D25*%
X162814000Y-122910500D03*
X162814000Y-124485500D03*
%TD*%
D61*
%TO.C,Q2*%
X143397500Y-130236000D03*
X143397500Y-128336000D03*
X141522500Y-129286000D03*
%TD*%
D18*
%TO.C,R17*%
X110805500Y-130302000D03*
X113730500Y-130302000D03*
%TD*%
D11*
%TO.C,R72*%
X124015000Y-138176000D03*
X122365000Y-138176000D03*
%TD*%
D73*
%TO.C,D17*%
X166878000Y-130938500D03*
X166878000Y-132513500D03*
%TD*%
D31*
%TO.C,RN5*%
X182434000Y-115824000D03*
D32*
X182434000Y-116694000D03*
X182434000Y-117494000D03*
D31*
X182434000Y-118364000D03*
X183834000Y-118364000D03*
D32*
X183834000Y-117494000D03*
X183834000Y-116694000D03*
D31*
X183834000Y-115824000D03*
%TD*%
D74*
%TO.C,SW1*%
X181154000Y-106244000D03*
X174954000Y-106244000D03*
X174954000Y-102544000D03*
X181154000Y-102544000D03*
%TD*%
D62*
%TO.C,RN2*%
X169164000Y-110936000D03*
D63*
X170034000Y-110936000D03*
X170834000Y-110936000D03*
D62*
X171704000Y-110936000D03*
X171704000Y-109536000D03*
D63*
X170834000Y-109536000D03*
X170034000Y-109536000D03*
D62*
X169164000Y-109536000D03*
%TD*%
D75*
%TO.C,U22*%
X158496000Y-130048000D03*
X158496000Y-130998000D03*
X158496000Y-131948000D03*
X160771000Y-131948000D03*
X160771000Y-130048000D03*
%TD*%
D34*
%TO.C,U9*%
X169416000Y-137585000D03*
X170436000Y-137585000D03*
X169416000Y-136735000D03*
X170436000Y-136735000D03*
D35*
X170901000Y-135710000D03*
X170251000Y-135710000D03*
X169601000Y-135710000D03*
X168951000Y-135710000D03*
X168951000Y-138610000D03*
X169601000Y-138610000D03*
X170251000Y-138610000D03*
X170901000Y-138610000D03*
%TD*%
D19*
%TO.C,R52*%
X171133000Y-103124000D03*
X172783000Y-103124000D03*
%TD*%
D45*
%TO.C,C53*%
X171704000Y-100963000D03*
X171704000Y-99063000D03*
%TD*%
G36*
X123556648Y-140349352D02*
G01*
X123571000Y-140384000D01*
X123571000Y-140667000D01*
X123556648Y-140701648D01*
X123522000Y-140716000D01*
X121461000Y-140716000D01*
X121426352Y-140701648D01*
X121412000Y-140667000D01*
X121412000Y-140384000D01*
X121426352Y-140349352D01*
X121461000Y-140335000D01*
X123522000Y-140335000D01*
X123556648Y-140349352D01*
G37*
G36*
X134986648Y-127649352D02*
G01*
X135001000Y-127684000D01*
X135001000Y-127967000D01*
X134986648Y-128001648D01*
X134952000Y-128016000D01*
X133780000Y-128016000D01*
X133745352Y-128001648D01*
X133731000Y-127967000D01*
X133731000Y-127684000D01*
X133745352Y-127649352D01*
X133780000Y-127635000D01*
X134952000Y-127635000D01*
X134986648Y-127649352D01*
G37*
G36*
X138034648Y-142127352D02*
G01*
X138049000Y-142162000D01*
X138049000Y-143842000D01*
X138034648Y-143876648D01*
X138000000Y-143891000D01*
X137717000Y-143891000D01*
X137682352Y-143876648D01*
X137668000Y-143842000D01*
X137668000Y-142162000D01*
X137682352Y-142127352D01*
X137717000Y-142113000D01*
X138000000Y-142113000D01*
X138034648Y-142127352D01*
G37*
G36*
X128128648Y-98185352D02*
G01*
X128143000Y-98220000D01*
X128143000Y-98630000D01*
X128128648Y-98664648D01*
X128094000Y-98679000D01*
X123493000Y-98679000D01*
X123458352Y-98664648D01*
X123444000Y-98630000D01*
X123444000Y-98220000D01*
X123458352Y-98185352D01*
X123493000Y-98171000D01*
X128094000Y-98171000D01*
X128128648Y-98185352D01*
G37*
G36*
X138161648Y-131713352D02*
G01*
X138176000Y-131748000D01*
X138176000Y-132031000D01*
X138161648Y-132065648D01*
X138127000Y-132080000D01*
X134542000Y-132080000D01*
X134507352Y-132065648D01*
X134493000Y-132031000D01*
X134493000Y-131748000D01*
X134507352Y-131713352D01*
X134542000Y-131699000D01*
X138127000Y-131699000D01*
X138161648Y-131713352D01*
G37*
G36*
X118476648Y-96788352D02*
G01*
X118491000Y-96823000D01*
X118491000Y-97233000D01*
X118476648Y-97267648D01*
X118442000Y-97282000D01*
X113841000Y-97282000D01*
X113806352Y-97267648D01*
X113792000Y-97233000D01*
X113792000Y-96823000D01*
X113806352Y-96788352D01*
X113841000Y-96774000D01*
X118442000Y-96774000D01*
X118476648Y-96788352D01*
G37*
G36*
X137399648Y-124601352D02*
G01*
X137414000Y-124636000D01*
X137414000Y-124919000D01*
X137399648Y-124953648D01*
X137365000Y-124968000D01*
X133780000Y-124968000D01*
X133745352Y-124953648D01*
X133731000Y-124919000D01*
X133731000Y-124636000D01*
X133745352Y-124601352D01*
X133780000Y-124587000D01*
X137365000Y-124587000D01*
X137399648Y-124601352D01*
G37*
G36*
X123556648Y-141746352D02*
G01*
X123571000Y-141781000D01*
X123571000Y-142064000D01*
X123556648Y-142098648D01*
X123522000Y-142113000D01*
X121461000Y-142113000D01*
X121426352Y-142098648D01*
X121412000Y-142064000D01*
X121412000Y-141781000D01*
X121426352Y-141746352D01*
X121461000Y-141732000D01*
X123522000Y-141732000D01*
X123556648Y-141746352D01*
G37*
G36*
X137526648Y-137682352D02*
G01*
X137541000Y-137717000D01*
X137541000Y-138000000D01*
X137526648Y-138034648D01*
X137492000Y-138049000D01*
X134415000Y-138049000D01*
X134380352Y-138034648D01*
X134366000Y-138000000D01*
X134366000Y-137717000D01*
X134380352Y-137682352D01*
X134415000Y-137668000D01*
X137492000Y-137668000D01*
X137526648Y-137682352D01*
G37*
G36*
X170419648Y-139714352D02*
G01*
X170434000Y-139749000D01*
X170434000Y-143334000D01*
X170419648Y-143368648D01*
X170385000Y-143383000D01*
X170102000Y-143383000D01*
X170067352Y-143368648D01*
X170053000Y-143334000D01*
X170053000Y-139749000D01*
X170067352Y-139714352D01*
X170102000Y-139700000D01*
X170385000Y-139700000D01*
X170419648Y-139714352D01*
G37*
G36*
X171816648Y-134507352D02*
G01*
X171831000Y-134542000D01*
X171831000Y-134825000D01*
X171816648Y-134859648D01*
X171782000Y-134874000D01*
X169594000Y-134874000D01*
X169559352Y-134859648D01*
X169545000Y-134825000D01*
X169545000Y-134542000D01*
X169559352Y-134507352D01*
X169594000Y-134493000D01*
X171782000Y-134493000D01*
X171816648Y-134507352D01*
G37*
G36*
X169276648Y-139714352D02*
G01*
X169291000Y-139749000D01*
X169291000Y-146890000D01*
X169276648Y-146924648D01*
X169242000Y-146939000D01*
X168959000Y-146939000D01*
X168924352Y-146924648D01*
X168910000Y-146890000D01*
X168910000Y-139749000D01*
X168924352Y-139714352D01*
X168959000Y-139700000D01*
X169242000Y-139700000D01*
X169276648Y-139714352D01*
G37*
G36*
X173086648Y-132348352D02*
G01*
X173101000Y-132383000D01*
X173101000Y-135714000D01*
X173086648Y-135748648D01*
X173052000Y-135763000D01*
X172769000Y-135763000D01*
X172734352Y-135748648D01*
X172720000Y-135714000D01*
X172720000Y-132383000D01*
X172734352Y-132348352D01*
X172769000Y-132334000D01*
X173052000Y-132334000D01*
X173086648Y-132348352D01*
G37*
G36*
X134478648Y-135396352D02*
G01*
X134493000Y-135431000D01*
X134493000Y-137238000D01*
X134478648Y-137272648D01*
X134444000Y-137287000D01*
X134161000Y-137287000D01*
X134126352Y-137272648D01*
X134112000Y-137238000D01*
X134112000Y-135431000D01*
X134126352Y-135396352D01*
X134161000Y-135382000D01*
X134444000Y-135382000D01*
X134478648Y-135396352D01*
G37*
G36*
X128128648Y-96915352D02*
G01*
X128143000Y-96950000D01*
X128143000Y-97360000D01*
X128128648Y-97394648D01*
X128094000Y-97409000D01*
X123493000Y-97409000D01*
X123458352Y-97394648D01*
X123444000Y-97360000D01*
X123444000Y-96950000D01*
X123458352Y-96915352D01*
X123493000Y-96901000D01*
X128094000Y-96901000D01*
X128128648Y-96915352D01*
G37*
G36*
X137399648Y-125490352D02*
G01*
X137414000Y-125525000D01*
X137414000Y-125808000D01*
X137399648Y-125842648D01*
X137365000Y-125857000D01*
X133780000Y-125857000D01*
X133745352Y-125842648D01*
X133731000Y-125808000D01*
X133731000Y-125525000D01*
X133745352Y-125490352D01*
X133780000Y-125476000D01*
X137365000Y-125476000D01*
X137399648Y-125490352D01*
G37*
G36*
X134732648Y-139079352D02*
G01*
X134747000Y-139114000D01*
X134747000Y-141810000D01*
X134732648Y-141844648D01*
X134698000Y-141859000D01*
X134415000Y-141859000D01*
X134380352Y-141844648D01*
X134366000Y-141810000D01*
X134366000Y-139114000D01*
X134380352Y-139079352D01*
X134415000Y-139065000D01*
X134698000Y-139065000D01*
X134732648Y-139079352D01*
G37*
G36*
X137145648Y-138444352D02*
G01*
X137160000Y-138479000D01*
X137160000Y-138762000D01*
X137145648Y-138796648D01*
X137111000Y-138811000D01*
X134415000Y-138811000D01*
X134380352Y-138796648D01*
X134366000Y-138762000D01*
X134366000Y-138479000D01*
X134380352Y-138444352D01*
X134415000Y-138430000D01*
X137111000Y-138430000D01*
X137145648Y-138444352D01*
G37*
G36*
X123175648Y-99328352D02*
G01*
X123190000Y-99363000D01*
X123190000Y-103329000D01*
X123175648Y-103363648D01*
X123141000Y-103378000D01*
X122731000Y-103378000D01*
X122696352Y-103363648D01*
X122682000Y-103329000D01*
X122682000Y-99363000D01*
X122696352Y-99328352D01*
X122731000Y-99314000D01*
X123141000Y-99314000D01*
X123175648Y-99328352D01*
G37*
G36*
X127620648Y-117489352D02*
G01*
X127635000Y-117524000D01*
X127635000Y-117807000D01*
X127620648Y-117841648D01*
X127586000Y-117856000D01*
X115111000Y-117856000D01*
X115076352Y-117841648D01*
X115062000Y-117807000D01*
X115062000Y-117524000D01*
X115076352Y-117489352D01*
X115111000Y-117475000D01*
X127586000Y-117475000D01*
X127620648Y-117489352D01*
G37*
G36*
X128890648Y-140476352D02*
G01*
X128905000Y-140511000D01*
X128905000Y-143842000D01*
X128890648Y-143876648D01*
X128856000Y-143891000D01*
X128573000Y-143891000D01*
X128538352Y-143876648D01*
X128524000Y-143842000D01*
X128524000Y-140511000D01*
X128538352Y-140476352D01*
X128573000Y-140462000D01*
X128856000Y-140462000D01*
X128890648Y-140476352D01*
G37*
G36*
X134478648Y-132602352D02*
G01*
X134493000Y-132637000D01*
X134493000Y-134444000D01*
X134478648Y-134478648D01*
X134444000Y-134493000D01*
X134161000Y-134493000D01*
X134126352Y-134478648D01*
X134112000Y-134444000D01*
X134112000Y-132637000D01*
X134126352Y-132602352D01*
X134161000Y-132588000D01*
X134444000Y-132588000D01*
X134478648Y-132602352D01*
G37*
G36*
X171562648Y-139714352D02*
G01*
X171577000Y-139749000D01*
X171577000Y-143334000D01*
X171562648Y-143368648D01*
X171528000Y-143383000D01*
X171245000Y-143383000D01*
X171210352Y-143368648D01*
X171196000Y-143334000D01*
X171196000Y-139749000D01*
X171210352Y-139714352D01*
X171245000Y-139700000D01*
X171528000Y-139700000D01*
X171562648Y-139714352D01*
G37*
G36*
X168260648Y-137301352D02*
G01*
X168275000Y-137336000D01*
X168275000Y-146890000D01*
X168260648Y-146924648D01*
X168226000Y-146939000D01*
X167943000Y-146939000D01*
X167908352Y-146924648D01*
X167894000Y-146890000D01*
X167894000Y-137336000D01*
X167908352Y-137301352D01*
X167943000Y-137287000D01*
X168226000Y-137287000D01*
X168260648Y-137301352D01*
G37*
G36*
X140066648Y-139841352D02*
G01*
X140081000Y-139876000D01*
X140081000Y-143842000D01*
X140066648Y-143876648D01*
X140032000Y-143891000D01*
X139749000Y-143891000D01*
X139714352Y-143876648D01*
X139700000Y-143842000D01*
X139700000Y-139876000D01*
X139714352Y-139841352D01*
X139749000Y-139827000D01*
X140032000Y-139827000D01*
X140066648Y-139841352D01*
G37*
G36*
X128128648Y-142762352D02*
G01*
X128143000Y-142797000D01*
X128143000Y-143842000D01*
X128128648Y-143876648D01*
X128094000Y-143891000D01*
X127811000Y-143891000D01*
X127776352Y-143876648D01*
X127762000Y-143842000D01*
X127762000Y-142797000D01*
X127776352Y-142762352D01*
X127811000Y-142748000D01*
X128094000Y-142748000D01*
X128128648Y-142762352D01*
G37*
G36*
X139050648Y-142127352D02*
G01*
X139065000Y-142162000D01*
X139065000Y-143842000D01*
X139050648Y-143876648D01*
X139016000Y-143891000D01*
X138733000Y-143891000D01*
X138698352Y-143876648D01*
X138684000Y-143842000D01*
X138684000Y-142162000D01*
X138698352Y-142127352D01*
X138733000Y-142113000D01*
X139016000Y-142113000D01*
X139050648Y-142127352D01*
G37*
G36*
X118476648Y-97677352D02*
G01*
X118491000Y-97712000D01*
X118491000Y-98122000D01*
X118476648Y-98156648D01*
X118442000Y-98171000D01*
X113841000Y-98171000D01*
X113806352Y-98156648D01*
X113792000Y-98122000D01*
X113792000Y-97712000D01*
X113806352Y-97677352D01*
X113841000Y-97663000D01*
X118442000Y-97663000D01*
X118476648Y-97677352D01*
G37*
G36*
X118476648Y-122442352D02*
G01*
X118491000Y-122477000D01*
X118491000Y-122760000D01*
X118476648Y-122794648D01*
X118442000Y-122809000D01*
X113587000Y-122809000D01*
X113552352Y-122794648D01*
X113538000Y-122760000D01*
X113538000Y-122477000D01*
X113552352Y-122442352D01*
X113587000Y-122428000D01*
X118442000Y-122428000D01*
X118476648Y-122442352D01*
G37*
G36*
X138161648Y-126506352D02*
G01*
X138176000Y-126541000D01*
X138176000Y-126824000D01*
X138161648Y-126858648D01*
X138127000Y-126873000D01*
X133780000Y-126873000D01*
X133745352Y-126858648D01*
X133731000Y-126824000D01*
X133731000Y-126541000D01*
X133745352Y-126506352D01*
X133780000Y-126492000D01*
X138127000Y-126492000D01*
X138161648Y-126506352D01*
G37*
G36*
X127366648Y-142762352D02*
G01*
X127381000Y-142797000D01*
X127381000Y-143842000D01*
X127366648Y-143876648D01*
X127332000Y-143891000D01*
X127049000Y-143891000D01*
X127014352Y-143876648D01*
X127000000Y-143842000D01*
X127000000Y-142797000D01*
X127014352Y-142762352D01*
X127049000Y-142748000D01*
X127332000Y-142748000D01*
X127366648Y-142762352D01*
G37*
M02*
