%TF.GenerationSoftware,KiCad,Pcbnew,6.0.11+dfsg-1~bpo11+1*%
%TF.CreationDate,2024-07-10T21:49:50-05:00*%
%TF.ProjectId,BTMS,42544d53-2e6b-4696-9361-645f70636258,rev?*%
%TF.SameCoordinates,Original*%
%TF.FileFunction,Soldermask,Bot*%
%TF.FilePolarity,Negative*%
%FSLAX46Y46*%
G04 Gerber Fmt 4.6, Leading zero omitted, Abs format (unit mm)*
G04 Created by KiCad (PCBNEW 6.0.11+dfsg-1~bpo11+1) date 2024-07-10 21:49:50*
%MOMM*%
%LPD*%
G01*
G04 APERTURE LIST*
G04 Aperture macros list*
%AMRoundRect*
0 Rectangle with rounded corners*
0 $1 Rounding radius*
0 $2 $3 $4 $5 $6 $7 $8 $9 X,Y pos of 4 corners*
0 Add a 4 corners polygon primitive as box body*
4,1,4,$2,$3,$4,$5,$6,$7,$8,$9,$2,$3,0*
0 Add four circle primitives for the rounded corners*
1,1,$1+$1,$2,$3*
1,1,$1+$1,$4,$5*
1,1,$1+$1,$6,$7*
1,1,$1+$1,$8,$9*
0 Add four rect primitives between the rounded corners*
20,1,$1+$1,$2,$3,$4,$5,0*
20,1,$1+$1,$4,$5,$6,$7,0*
20,1,$1+$1,$6,$7,$8,$9,0*
20,1,$1+$1,$8,$9,$2,$3,0*%
G04 Aperture macros list end*
%ADD10RoundRect,0.250001X-1.099999X-1.099999X1.099999X-1.099999X1.099999X1.099999X-1.099999X1.099999X0*%
%ADD11C,2.700000*%
%ADD12C,0.700000*%
%ADD13O,0.900000X2.400000*%
%ADD14O,0.900000X1.700000*%
%ADD15R,1.700000X1.700000*%
%ADD16O,1.700000X1.700000*%
%ADD17RoundRect,0.250000X0.600000X0.725000X-0.600000X0.725000X-0.600000X-0.725000X0.600000X-0.725000X0*%
%ADD18O,1.700000X1.950000*%
G04 APERTURE END LIST*
D10*
%TO.C,J5*%
X171631000Y-145542000D03*
D11*
X175591000Y-145542000D03*
%TD*%
D10*
%TO.C,J4*%
X138917000Y-145625000D03*
D11*
X142877000Y-145625000D03*
%TD*%
D12*
%TO.C,J2*%
X115389000Y-144819000D03*
X116239000Y-144819000D03*
X117089000Y-144819000D03*
X117939000Y-144819000D03*
X118789000Y-144819000D03*
X119639000Y-144819000D03*
X120489000Y-144819000D03*
X121339000Y-144819000D03*
X121339000Y-146169000D03*
X120489000Y-146169000D03*
X119639000Y-146169000D03*
X118789000Y-146169000D03*
X117939000Y-146169000D03*
X117089000Y-146169000D03*
X116239000Y-146169000D03*
X115389000Y-146169000D03*
D13*
X114039000Y-145799000D03*
D14*
X114039000Y-149179000D03*
D13*
X122689000Y-145799000D03*
D14*
X122689000Y-149179000D03*
%TD*%
D10*
%TO.C,J3*%
X127995000Y-145625000D03*
D11*
X131955000Y-145625000D03*
%TD*%
D15*
%TO.C,J7*%
X179324000Y-117343000D03*
D16*
X179324000Y-119883000D03*
%TD*%
D15*
%TO.C,J8*%
X184150000Y-145542000D03*
D16*
X181610000Y-145542000D03*
%TD*%
D15*
%TO.C,J9*%
X184404000Y-110998000D03*
D16*
X184404000Y-108458000D03*
X184404000Y-105918000D03*
X184404000Y-103378000D03*
X184404000Y-100838000D03*
%TD*%
D17*
%TO.C,J1*%
X158964000Y-145796000D03*
D18*
X156464000Y-145796000D03*
X153964000Y-145796000D03*
X151464000Y-145796000D03*
X148964000Y-145796000D03*
%TD*%
D15*
%TO.C,J6*%
X184404000Y-129032000D03*
D16*
X184404000Y-131572000D03*
X184404000Y-134112000D03*
X184404000Y-136652000D03*
X184404000Y-139192000D03*
%TD*%
D15*
%TO.C,J10*%
X176779000Y-98298000D03*
D16*
X179319000Y-98298000D03*
%TD*%
G36*
X171816648Y-135142352D02*
G01*
X171831000Y-135177000D01*
X171831000Y-136095000D01*
X171816648Y-136129648D01*
X171782000Y-136144000D01*
X169594000Y-136144000D01*
X169559352Y-136129648D01*
X169545000Y-136095000D01*
X169545000Y-135645747D01*
X169542145Y-135638855D01*
X169535253Y-135636000D01*
X165276000Y-135636000D01*
X165241352Y-135621648D01*
X165227000Y-135587000D01*
X165227000Y-135177000D01*
X165241352Y-135142352D01*
X165276000Y-135128000D01*
X171782000Y-135128000D01*
X171816648Y-135142352D01*
G37*
G36*
X166736648Y-137047352D02*
G01*
X166751000Y-137082000D01*
X166751000Y-143461000D01*
X166736648Y-143495648D01*
X166702000Y-143510000D01*
X166292000Y-143510000D01*
X166257352Y-143495648D01*
X166243000Y-143461000D01*
X166243000Y-137082000D01*
X166257352Y-137047352D01*
X166292000Y-137033000D01*
X166702000Y-137033000D01*
X166736648Y-137047352D01*
G37*
G36*
X167752648Y-135904352D02*
G01*
X167767000Y-135939000D01*
X167767000Y-143461000D01*
X167752648Y-143495648D01*
X167718000Y-143510000D01*
X167308000Y-143510000D01*
X167273352Y-143495648D01*
X167259000Y-143461000D01*
X167259000Y-135939000D01*
X167273352Y-135904352D01*
X167308000Y-135890000D01*
X167718000Y-135890000D01*
X167752648Y-135904352D01*
G37*
G36*
X171435648Y-136412352D02*
G01*
X171450000Y-136447000D01*
X171450000Y-143461000D01*
X171435648Y-143495648D01*
X171401000Y-143510000D01*
X170991000Y-143510000D01*
X170956352Y-143495648D01*
X170942000Y-143461000D01*
X170942000Y-136447000D01*
X170956352Y-136412352D01*
X170991000Y-136398000D01*
X171401000Y-136398000D01*
X171435648Y-136412352D01*
G37*
G36*
X171816648Y-133872352D02*
G01*
X171831000Y-133907000D01*
X171831000Y-134825000D01*
X171816648Y-134859648D01*
X171782000Y-134874000D01*
X165784000Y-134874000D01*
X165749352Y-134859648D01*
X165735000Y-134825000D01*
X165735000Y-134415000D01*
X165749352Y-134380352D01*
X165784000Y-134366000D01*
X168773253Y-134366000D01*
X168780145Y-134363145D01*
X168783000Y-134356253D01*
X168783000Y-133907000D01*
X168797352Y-133872352D01*
X168832000Y-133858000D01*
X171782000Y-133858000D01*
X171816648Y-133872352D01*
G37*
M02*
